%TF.GenerationSoftware,KiCad,Pcbnew,9.0.2*%
%TF.CreationDate,2025-09-06T01:51:39+01:00*%
%TF.ProjectId,msxpi,6d737870-692e-46b6-9963-61645f706362,1.1 Rev 1*%
%TF.SameCoordinates,Original*%
%TF.FileFunction,Soldermask,Bot*%
%TF.FilePolarity,Negative*%
%FSLAX46Y46*%
G04 Gerber Fmt 4.6, Leading zero omitted, Abs format (unit mm)*
G04 Created by KiCad (PCBNEW 9.0.2) date 2025-09-06 01:51:39*
%MOMM*%
%LPD*%
G01*
G04 APERTURE LIST*
G04 Aperture macros list*
%AMRoundRect*
0 Rectangle with rounded corners*
0 $1 Rounding radius*
0 $2 $3 $4 $5 $6 $7 $8 $9 X,Y pos of 4 corners*
0 Add a 4 corners polygon primitive as box body*
4,1,4,$2,$3,$4,$5,$6,$7,$8,$9,$2,$3,0*
0 Add four circle primitives for the rounded corners*
1,1,$1+$1,$2,$3*
1,1,$1+$1,$4,$5*
1,1,$1+$1,$6,$7*
1,1,$1+$1,$8,$9*
0 Add four rect primitives between the rounded corners*
20,1,$1+$1,$2,$3,$4,$5,0*
20,1,$1+$1,$4,$5,$6,$7,0*
20,1,$1+$1,$6,$7,$8,$9,0*
20,1,$1+$1,$8,$9,$2,$3,0*%
%AMFreePoly0*
4,1,25,0.333266,0.742596,0.345389,0.732242,0.732242,0.345389,0.760749,0.289441,0.762000,0.273547,0.762000,-0.273547,0.742596,-0.333266,0.732242,-0.345389,0.345389,-0.732242,0.289441,-0.760749,0.273547,-0.762000,-0.273547,-0.762000,-0.333266,-0.742596,-0.345389,-0.732242,-0.732242,-0.345389,-0.760749,-0.289441,-0.762000,-0.273547,-0.762000,0.273547,-0.742596,0.333266,-0.732242,0.345389,
-0.345389,0.732242,-0.289441,0.760749,-0.273547,0.762000,0.273547,0.762000,0.333266,0.742596,0.333266,0.742596,$1*%
%AMFreePoly1*
4,1,25,0.391131,0.882296,0.403254,0.871942,0.871942,0.403254,0.900449,0.347306,0.901700,0.331412,0.901700,-0.331412,0.882296,-0.391131,0.871942,-0.403254,0.403254,-0.871942,0.347306,-0.900449,0.331412,-0.901700,-0.331412,-0.901700,-0.391131,-0.882296,-0.403254,-0.871942,-0.871942,-0.403254,-0.900449,-0.347306,-0.901700,-0.331412,-0.901700,0.331412,-0.882296,0.391131,-0.871942,0.403254,
-0.403254,0.871942,-0.347306,0.900449,-0.331412,0.901700,0.331412,0.901700,0.391131,0.882296,0.391131,0.882296,$1*%
G04 Aperture macros list end*
%ADD10C,0.100000*%
%ADD11FreePoly0,270.000000*%
%ADD12FreePoly0,90.000000*%
%ADD13RoundRect,0.249999X-0.850001X0.850001X-0.850001X-0.850001X0.850001X-0.850001X0.850001X0.850001X0*%
%ADD14C,2.200000*%
%ADD15FreePoly1,180.000000*%
%ADD16R,1.600000X1.600000*%
%ADD17O,1.600000X1.600000*%
%ADD18C,1.524000*%
%ADD19FreePoly0,0.000000*%
%ADD20R,1.500000X8.000000*%
%ADD21R,1.700000X1.700000*%
%ADD22C,1.803400*%
%ADD23FreePoly1,90.000000*%
%ADD24RoundRect,0.250000X0.600000X-0.600000X0.600000X0.600000X-0.600000X0.600000X-0.600000X-0.600000X0*%
%ADD25C,1.700000*%
%ADD26FreePoly0,180.000000*%
%ADD27FreePoly1,270.000000*%
%ADD28O,1.700000X1.700000*%
G04 APERTURE END LIST*
D10*
X186690000Y-135382000D02*
X186436000Y-136144000D01*
X185928000Y-136398000D01*
X185166000Y-136652000D01*
X122936000Y-136652000D01*
X121920000Y-136398000D01*
X121412000Y-135382000D01*
X121412000Y-126746000D01*
X186690000Y-126746000D01*
X186690000Y-135382000D01*
G36*
X186690000Y-135382000D02*
G01*
X186436000Y-136144000D01*
X185928000Y-136398000D01*
X185166000Y-136652000D01*
X122936000Y-136652000D01*
X121920000Y-136398000D01*
X121412000Y-135382000D01*
X121412000Y-126746000D01*
X186690000Y-126746000D01*
X186690000Y-135382000D01*
G37*
D11*
%TO.C,R9*%
X115525000Y-91430000D03*
X115525000Y-99050000D03*
%TD*%
D12*
%TO.C,R8*%
X112775000Y-99060000D03*
X112775000Y-91440000D03*
%TD*%
D13*
%TO.C,D5*%
X114950000Y-110970000D03*
D14*
X114950000Y-121130000D03*
%TD*%
D11*
%TO.C,R5*%
X181711600Y-104952800D03*
X181711600Y-112572800D03*
%TD*%
D15*
%TO.C,C1*%
X111760000Y-110998000D03*
X109220000Y-110998000D03*
%TD*%
D12*
%TO.C,R3*%
X107375000Y-98970000D03*
X107375000Y-91350000D03*
%TD*%
D16*
%TO.C,U3*%
X184150000Y-87376000D03*
D17*
X181610000Y-87376000D03*
X179070000Y-87376000D03*
X176530000Y-87376000D03*
X173990000Y-87376000D03*
X171450000Y-87376000D03*
X168910000Y-87376000D03*
X166370000Y-87376000D03*
X163830000Y-87376000D03*
X161290000Y-87376000D03*
X158750000Y-87376000D03*
X156210000Y-87376000D03*
X153670000Y-87376000D03*
X151130000Y-87376000D03*
X151130000Y-102616000D03*
X153670000Y-102616000D03*
X156210000Y-102616000D03*
X158750000Y-102616000D03*
X161290000Y-102616000D03*
X163830000Y-102616000D03*
X166370000Y-102616000D03*
X168910000Y-102616000D03*
X171450000Y-102616000D03*
X173990000Y-102616000D03*
X176530000Y-102616000D03*
X179070000Y-102616000D03*
X181610000Y-102616000D03*
X184150000Y-102616000D03*
%TD*%
D18*
%TO.C,U2*%
X131572000Y-91186000D03*
D19*
X129032000Y-88646000D03*
X129032000Y-91186000D03*
X126492000Y-88646000D03*
X126492000Y-91186000D03*
X123952000Y-88646000D03*
X121412000Y-91186000D03*
X123952000Y-91186000D03*
X121412000Y-93726000D03*
X123952000Y-93726000D03*
X121412000Y-96266000D03*
X123952000Y-96266000D03*
X121412000Y-98806000D03*
X123952000Y-98806000D03*
X121412000Y-101346000D03*
X123952000Y-101346000D03*
X121412000Y-103886000D03*
X123952000Y-106426000D03*
X123952000Y-103886000D03*
X126492000Y-106426000D03*
X126492000Y-103886000D03*
X129032000Y-106426000D03*
X129032000Y-103886000D03*
X131572000Y-106426000D03*
X131572000Y-103886000D03*
X134112000Y-106426000D03*
X134112000Y-103886000D03*
X136652000Y-106426000D03*
X139192000Y-103886000D03*
X136652000Y-103886000D03*
X139192000Y-101346000D03*
X136652000Y-101346000D03*
X139192000Y-98806000D03*
X136652000Y-98806000D03*
X139192000Y-96266000D03*
X136652000Y-96266000D03*
X139192000Y-93726000D03*
X136652000Y-93726000D03*
X139192000Y-91186000D03*
X136652000Y-88646000D03*
X136652000Y-91186000D03*
X134112000Y-88646000D03*
X134112000Y-91186000D03*
X131572000Y-88646000D03*
%TD*%
D20*
%TO.C,J1*%
X123650025Y-131553202D03*
X126190025Y-131553202D03*
X128730025Y-131553202D03*
X131270025Y-131553202D03*
X133810025Y-131553202D03*
X136350025Y-131553202D03*
X138890025Y-131553202D03*
X141430025Y-131553202D03*
X143970025Y-131553202D03*
X146510025Y-131553202D03*
X149050025Y-131553202D03*
X151590025Y-131553202D03*
X154130025Y-131553202D03*
X156670025Y-131553202D03*
X159210025Y-131553202D03*
X161750025Y-131553202D03*
X164290025Y-131553202D03*
X166830025Y-131553202D03*
X169370025Y-131553202D03*
X171910025Y-131553202D03*
X174450025Y-131553202D03*
X176990025Y-131553202D03*
X179530025Y-131553202D03*
X182070025Y-131553202D03*
X184610025Y-131553202D03*
%TD*%
D11*
%TO.C,R6*%
X163830000Y-105156000D03*
X163830000Y-112776000D03*
%TD*%
D21*
%TO.C,J5*%
X129540000Y-75438000D03*
%TD*%
D12*
%TO.C,R1*%
X101850000Y-98910000D03*
X101850000Y-91290000D03*
%TD*%
D22*
%TO.C,C9*%
X130810000Y-81534000D03*
D15*
X128270000Y-81534000D03*
%TD*%
D23*
%TO.C,C7*%
X187706000Y-102616000D03*
X187706000Y-100076000D03*
%TD*%
D24*
%TO.C,J2*%
X104902000Y-87122000D03*
D25*
X104902000Y-84582000D03*
X107442000Y-87122000D03*
X107442000Y-84582000D03*
X109982000Y-87122000D03*
X109982000Y-84582000D03*
X112522000Y-87122000D03*
X112522000Y-84582000D03*
X115062000Y-87122000D03*
X115062000Y-84582000D03*
%TD*%
D11*
%TO.C,R7*%
X140208000Y-74676000D03*
X140208000Y-82296000D03*
%TD*%
D26*
%TO.C,LED1*%
X136144000Y-75438000D03*
X133604000Y-75438000D03*
%TD*%
D15*
%TO.C,C5*%
X135890000Y-84175600D03*
X133350000Y-84175600D03*
%TD*%
D12*
%TO.C,R2*%
X104675000Y-98945000D03*
X104675000Y-91325000D03*
%TD*%
D15*
%TO.C,C6*%
X122682000Y-110744000D03*
X120142000Y-110744000D03*
%TD*%
D27*
%TO.C,C2*%
X104394000Y-103632000D03*
X104394000Y-106172000D03*
%TD*%
D23*
%TO.C,C4*%
X117094000Y-104013000D03*
X117094000Y-101473000D03*
%TD*%
D21*
%TO.C,J6*%
X124460000Y-75438000D03*
%TD*%
%TO.C,J3*%
X193802000Y-84582000D03*
D28*
X196342000Y-84582000D03*
X193802000Y-87122000D03*
X196342000Y-87122000D03*
X193802000Y-89662000D03*
X196342000Y-89662000D03*
%TD*%
%TO.C,J4*%
X194564000Y-74930000D03*
D21*
X194564000Y-77470000D03*
D28*
X192024000Y-74930000D03*
X192024000Y-77470000D03*
X189484000Y-74930000D03*
X189484000Y-77470000D03*
X186944000Y-74930000D03*
X186944000Y-77470000D03*
X184404000Y-74930000D03*
X184404000Y-77470000D03*
X181864000Y-74930000D03*
X181864000Y-77470000D03*
X179324000Y-74930000D03*
X179324000Y-77470000D03*
X176784000Y-74930000D03*
X176784000Y-77470000D03*
X174244000Y-74930000D03*
X174244000Y-77470000D03*
X171704000Y-74930000D03*
X171704000Y-77470000D03*
X169164000Y-74930000D03*
X169164000Y-77470000D03*
X166624000Y-74930000D03*
X166624000Y-77470000D03*
X164084000Y-74930000D03*
X164084000Y-77470000D03*
X161544000Y-74930000D03*
X161544000Y-77470000D03*
X159004000Y-74930000D03*
X159004000Y-77470000D03*
X156464000Y-74930000D03*
X156464000Y-77470000D03*
X153924000Y-74930000D03*
X153924000Y-77470000D03*
X151384000Y-74930000D03*
X151384000Y-77470000D03*
X148844000Y-74930000D03*
X148844000Y-77470000D03*
X146304000Y-74930000D03*
X146304000Y-77470000D03*
%TD*%
D12*
%TO.C,R4*%
X110100000Y-98975000D03*
X110100000Y-91355000D03*
%TD*%
D27*
%TO.C,C3*%
X143510000Y-93726000D03*
X143510000Y-96266000D03*
%TD*%
D22*
%TO.C,C8*%
X124968000Y-81534000D03*
D15*
X122428000Y-81534000D03*
%TD*%
M02*
