M48
; DRILL file {KiCad 9.0.2} date 2025-09-06T01:51:37+0100
; FORMAT={-:-/ absolute / inch / decimal}
; #@! TF.CreationDate,2025-09-06T01:51:37+01:00
; #@! TF.GenerationSoftware,Kicad,Pcbnew,9.0.2
; #@! TF.FileFunction,MixedPlating,1,2
FMAT,2
INCH
; #@! TA.AperFunction,Plated,PTH,ViaDrill
T1C0.0157
; #@! TA.AperFunction,Plated,PTH,ComponentDrill
T2C0.0315
; #@! TA.AperFunction,Plated,PTH,ComponentDrill
T3C0.0320
; #@! TA.AperFunction,Plated,PTH,ComponentDrill
T4C0.0394
; #@! TA.AperFunction,Plated,PTH,ComponentDrill
T5C0.0433
%
G90
G05
T1
X4.97Y-4.89
X5.034Y-3.6864
X5.1696Y-3.654
X5.24Y-3.64
X5.254Y-4.006
X5.257Y-4.497
X5.292Y-3.688
X5.298Y-3.906
X5.323Y-4.497
X5.3697Y-4.7143
X5.4525Y-4.3209
X5.4701Y-4.3562
X5.49Y-3.45
X5.535Y-4.316
X5.605Y-4.08
X5.605Y-4.19
X5.638Y-3.965
X5.6617Y-3.0883
X5.666Y-4.038
X5.73Y-4.2795
X5.744Y-4.338
X5.8Y-4.048
X5.804Y-3.844
X5.826Y-4.742
X5.86Y-4.1
X6.01Y-4.4
X6.074Y-3.7
X6.112Y-4.878
X6.137Y-3.891
X6.148Y-3.664
X6.17Y-3.956
X6.17Y-4.4
X6.17Y-4.878
X6.21Y-3.7872
X6.22Y-4.36
X6.266Y-4.826
X6.3216Y-4.5684
X6.37Y-4.88
X6.4411Y-4.6346
X6.455Y-4.769
X6.518Y-4.882
X6.5551Y-4.2854
X6.59Y-3.18
X6.6Y-4.54
X6.636Y-3.342
X6.6665Y-4.1243
X6.668Y-4.848
X6.7195Y-4.1557
X6.7216Y-4.2043
X6.7249Y-4.253
X6.74Y-4.61
X6.75Y-4.782
X6.87Y-4.73
X6.87Y-4.892
X6.89Y-3.15
X6.91Y-4.61
X6.91Y-4.8
X6.9993Y-3.5513
X6.9994Y-3.2637
X7.12Y-3.28
X7.14Y-3.7414
X7.1897Y-3.8403
X7.2Y-3.75
X7.25Y-4.43
X7.262Y-3.62
T2
X5.95Y-3.44
X5.95Y-4.04
X6.05Y-3.44
X6.05Y-4.04
X6.15Y-3.44
X6.15Y-4.04
X6.25Y-3.44
X6.25Y-4.04
X6.35Y-3.44
X6.35Y-4.04
X6.45Y-3.44
X6.45Y-4.04
X6.55Y-3.44
X6.55Y-4.04
X6.65Y-3.44
X6.65Y-4.04
X6.75Y-3.44
X6.75Y-4.04
X6.85Y-3.44
X6.85Y-4.04
X6.95Y-3.44
X6.95Y-4.04
X7.05Y-3.44
X7.05Y-4.04
X7.15Y-3.44
X7.15Y-4.04
X7.25Y-3.44
X7.25Y-4.04
T3
X4.0098Y-3.5941
X4.0098Y-3.8941
X4.11Y-4.08
X4.11Y-4.18
X4.1211Y-3.5955
X4.1211Y-3.8955
X4.2274Y-3.5965
X4.2274Y-3.8965
X4.3Y-4.37
X4.3346Y-3.5967
X4.3346Y-3.8967
X4.4Y-4.37
X4.44Y-3.6
X4.44Y-3.9
X4.5482Y-3.5996
X4.5482Y-3.8996
X4.61Y-3.995
X4.61Y-4.095
X4.73Y-4.36
X4.78Y-3.59
X4.78Y-3.69
X4.78Y-3.79
X4.78Y-3.89
X4.78Y-3.99
X4.78Y-4.09
X4.82Y-3.21
X4.83Y-4.36
X4.88Y-3.49
X4.88Y-3.59
X4.88Y-3.69
X4.88Y-3.79
X4.88Y-3.89
X4.88Y-3.99
X4.88Y-4.09
X4.88Y-4.19
X4.92Y-3.21
X4.98Y-3.49
X4.98Y-3.59
X4.98Y-4.09
X4.98Y-4.19
X5.05Y-3.21
X5.08Y-3.49
X5.08Y-3.59
X5.08Y-4.09
X5.08Y-4.19
X5.15Y-3.21
X5.18Y-3.49
X5.18Y-3.59
X5.18Y-4.09
X5.18Y-4.19
X5.25Y-3.314
X5.26Y-2.97
X5.28Y-3.49
X5.28Y-3.59
X5.28Y-4.09
X5.28Y-4.19
X5.35Y-3.314
X5.36Y-2.97
X5.38Y-3.49
X5.38Y-3.59
X5.38Y-3.69
X5.38Y-3.79
X5.38Y-3.89
X5.38Y-3.99
X5.38Y-4.09
X5.38Y-4.19
X5.48Y-3.59
X5.48Y-3.69
X5.48Y-3.79
X5.48Y-3.89
X5.48Y-3.99
X5.48Y-4.09
X5.52Y-2.94
X5.52Y-3.24
X5.65Y-3.69
X5.65Y-3.79
X6.45Y-4.14
X6.45Y-4.44
X7.154Y-4.132
X7.154Y-4.432
X7.39Y-3.94
X7.39Y-4.04
T4
X4.13Y-3.33
X4.13Y-3.43
X4.23Y-3.33
X4.23Y-3.43
X4.33Y-3.33
X4.33Y-3.43
X4.43Y-3.33
X4.43Y-3.43
X4.53Y-3.33
X4.53Y-3.43
X4.9Y-2.97
X5.1Y-2.97
X5.76Y-2.95
X5.76Y-3.05
X5.86Y-2.95
X5.86Y-3.05
X5.96Y-2.95
X5.96Y-3.05
X6.06Y-2.95
X6.06Y-3.05
X6.16Y-2.95
X6.16Y-3.05
X6.26Y-2.95
X6.26Y-3.05
X6.36Y-2.95
X6.36Y-3.05
X6.46Y-2.95
X6.46Y-3.05
X6.56Y-2.95
X6.56Y-3.05
X6.66Y-2.95
X6.66Y-3.05
X6.76Y-2.95
X6.76Y-3.05
X6.86Y-2.95
X6.86Y-3.05
X6.96Y-2.95
X6.96Y-3.05
X7.06Y-2.95
X7.06Y-3.05
X7.16Y-2.95
X7.16Y-3.05
X7.26Y-2.95
X7.26Y-3.05
X7.36Y-2.95
X7.36Y-3.05
X7.46Y-2.95
X7.46Y-3.05
X7.56Y-2.95
X7.56Y-3.05
X7.63Y-3.33
X7.63Y-3.43
X7.63Y-3.53
X7.66Y-2.95
X7.66Y-3.05
X7.73Y-3.33
X7.73Y-3.43
X7.73Y-3.53
T5
X4.5256Y-4.3689
X4.5256Y-4.7689
M30
