%TF.GenerationSoftware,KiCad,Pcbnew,9.0.2*%
%TF.CreationDate,2025-09-06T01:51:39+01:00*%
%TF.ProjectId,msxpi,6d737870-692e-46b6-9963-61645f706362,1.1 Rev 1*%
%TF.SameCoordinates,Original*%
%TF.FileFunction,Legend,Bot*%
%TF.FilePolarity,Positive*%
%FSLAX46Y46*%
G04 Gerber Fmt 4.6, Leading zero omitted, Abs format (unit mm)*
G04 Created by KiCad (PCBNEW 9.0.2) date 2025-09-06 01:51:39*
%MOMM*%
%LPD*%
G01*
G04 APERTURE LIST*
%ADD10C,0.150000*%
%ADD11C,0.250000*%
%ADD12C,0.000000*%
G04 APERTURE END LIST*
D10*
X189893411Y-90155959D02*
X190464839Y-90155959D01*
X190179125Y-90155959D02*
X190179125Y-89155959D01*
X190179125Y-89155959D02*
X190274363Y-89298816D01*
X190274363Y-89298816D02*
X190369601Y-89394054D01*
X190369601Y-89394054D02*
X190464839Y-89441673D01*
X189464839Y-90060720D02*
X189417220Y-90108340D01*
X189417220Y-90108340D02*
X189464839Y-90155959D01*
X189464839Y-90155959D02*
X189512458Y-90108340D01*
X189512458Y-90108340D02*
X189464839Y-90060720D01*
X189464839Y-90060720D02*
X189464839Y-90155959D01*
X187655316Y-90155959D02*
X187988649Y-89679768D01*
X188226744Y-90155959D02*
X188226744Y-89155959D01*
X188226744Y-89155959D02*
X187845792Y-89155959D01*
X187845792Y-89155959D02*
X187750554Y-89203578D01*
X187750554Y-89203578D02*
X187702935Y-89251197D01*
X187702935Y-89251197D02*
X187655316Y-89346435D01*
X187655316Y-89346435D02*
X187655316Y-89489292D01*
X187655316Y-89489292D02*
X187702935Y-89584530D01*
X187702935Y-89584530D02*
X187750554Y-89632149D01*
X187750554Y-89632149D02*
X187845792Y-89679768D01*
X187845792Y-89679768D02*
X188226744Y-89679768D01*
X186845792Y-90108340D02*
X186941030Y-90155959D01*
X186941030Y-90155959D02*
X187131506Y-90155959D01*
X187131506Y-90155959D02*
X187226744Y-90108340D01*
X187226744Y-90108340D02*
X187274363Y-90013101D01*
X187274363Y-90013101D02*
X187274363Y-89632149D01*
X187274363Y-89632149D02*
X187226744Y-89536911D01*
X187226744Y-89536911D02*
X187131506Y-89489292D01*
X187131506Y-89489292D02*
X186941030Y-89489292D01*
X186941030Y-89489292D02*
X186845792Y-89536911D01*
X186845792Y-89536911D02*
X186798173Y-89632149D01*
X186798173Y-89632149D02*
X186798173Y-89727387D01*
X186798173Y-89727387D02*
X187274363Y-89822625D01*
X186369601Y-90155959D02*
X186369601Y-89489292D01*
X186369601Y-89584530D02*
X186321982Y-89536911D01*
X186321982Y-89536911D02*
X186226744Y-89489292D01*
X186226744Y-89489292D02*
X186083887Y-89489292D01*
X186083887Y-89489292D02*
X185988649Y-89536911D01*
X185988649Y-89536911D02*
X185941030Y-89632149D01*
X185941030Y-89632149D02*
X185941030Y-90155959D01*
X185941030Y-89632149D02*
X185893411Y-89536911D01*
X185893411Y-89536911D02*
X185798173Y-89489292D01*
X185798173Y-89489292D02*
X185655316Y-89489292D01*
X185655316Y-89489292D02*
X185560077Y-89536911D01*
X185560077Y-89536911D02*
X185512458Y-89632149D01*
X185512458Y-89632149D02*
X185512458Y-90155959D01*
X184893411Y-90155959D02*
X184988649Y-90108340D01*
X184988649Y-90108340D02*
X185036268Y-90060720D01*
X185036268Y-90060720D02*
X185083887Y-89965482D01*
X185083887Y-89965482D02*
X185083887Y-89679768D01*
X185083887Y-89679768D02*
X185036268Y-89584530D01*
X185036268Y-89584530D02*
X184988649Y-89536911D01*
X184988649Y-89536911D02*
X184893411Y-89489292D01*
X184893411Y-89489292D02*
X184750554Y-89489292D01*
X184750554Y-89489292D02*
X184655316Y-89536911D01*
X184655316Y-89536911D02*
X184607697Y-89584530D01*
X184607697Y-89584530D02*
X184560078Y-89679768D01*
X184560078Y-89679768D02*
X184560078Y-89965482D01*
X184560078Y-89965482D02*
X184607697Y-90060720D01*
X184607697Y-90060720D02*
X184655316Y-90108340D01*
X184655316Y-90108340D02*
X184750554Y-90155959D01*
X184750554Y-90155959D02*
X184893411Y-90155959D01*
X184226744Y-89489292D02*
X183988649Y-90155959D01*
X183988649Y-90155959D02*
X183750554Y-89489292D01*
X182988649Y-90108340D02*
X183083887Y-90155959D01*
X183083887Y-90155959D02*
X183274363Y-90155959D01*
X183274363Y-90155959D02*
X183369601Y-90108340D01*
X183369601Y-90108340D02*
X183417220Y-90013101D01*
X183417220Y-90013101D02*
X183417220Y-89632149D01*
X183417220Y-89632149D02*
X183369601Y-89536911D01*
X183369601Y-89536911D02*
X183274363Y-89489292D01*
X183274363Y-89489292D02*
X183083887Y-89489292D01*
X183083887Y-89489292D02*
X182988649Y-89536911D01*
X182988649Y-89536911D02*
X182941030Y-89632149D01*
X182941030Y-89632149D02*
X182941030Y-89727387D01*
X182941030Y-89727387D02*
X183417220Y-89822625D01*
X181750553Y-89489292D02*
X181750553Y-90346435D01*
X181750553Y-90346435D02*
X181798172Y-90441673D01*
X181798172Y-90441673D02*
X181893410Y-90489292D01*
X181893410Y-90489292D02*
X181941029Y-90489292D01*
X181750553Y-89155959D02*
X181798172Y-89203578D01*
X181798172Y-89203578D02*
X181750553Y-89251197D01*
X181750553Y-89251197D02*
X181702934Y-89203578D01*
X181702934Y-89203578D02*
X181750553Y-89155959D01*
X181750553Y-89155959D02*
X181750553Y-89251197D01*
X180845792Y-89489292D02*
X180845792Y-90155959D01*
X181274363Y-89489292D02*
X181274363Y-90013101D01*
X181274363Y-90013101D02*
X181226744Y-90108340D01*
X181226744Y-90108340D02*
X181131506Y-90155959D01*
X181131506Y-90155959D02*
X180988649Y-90155959D01*
X180988649Y-90155959D02*
X180893411Y-90108340D01*
X180893411Y-90108340D02*
X180845792Y-90060720D01*
X180369601Y-90155959D02*
X180369601Y-89489292D01*
X180369601Y-89584530D02*
X180321982Y-89536911D01*
X180321982Y-89536911D02*
X180226744Y-89489292D01*
X180226744Y-89489292D02*
X180083887Y-89489292D01*
X180083887Y-89489292D02*
X179988649Y-89536911D01*
X179988649Y-89536911D02*
X179941030Y-89632149D01*
X179941030Y-89632149D02*
X179941030Y-90155959D01*
X179941030Y-89632149D02*
X179893411Y-89536911D01*
X179893411Y-89536911D02*
X179798173Y-89489292D01*
X179798173Y-89489292D02*
X179655316Y-89489292D01*
X179655316Y-89489292D02*
X179560077Y-89536911D01*
X179560077Y-89536911D02*
X179512458Y-89632149D01*
X179512458Y-89632149D02*
X179512458Y-90155959D01*
X179036268Y-89489292D02*
X179036268Y-90489292D01*
X179036268Y-89536911D02*
X178941030Y-89489292D01*
X178941030Y-89489292D02*
X178750554Y-89489292D01*
X178750554Y-89489292D02*
X178655316Y-89536911D01*
X178655316Y-89536911D02*
X178607697Y-89584530D01*
X178607697Y-89584530D02*
X178560078Y-89679768D01*
X178560078Y-89679768D02*
X178560078Y-89965482D01*
X178560078Y-89965482D02*
X178607697Y-90060720D01*
X178607697Y-90060720D02*
X178655316Y-90108340D01*
X178655316Y-90108340D02*
X178750554Y-90155959D01*
X178750554Y-90155959D02*
X178941030Y-90155959D01*
X178941030Y-90155959D02*
X179036268Y-90108340D01*
X177750554Y-90108340D02*
X177845792Y-90155959D01*
X177845792Y-90155959D02*
X178036268Y-90155959D01*
X178036268Y-90155959D02*
X178131506Y-90108340D01*
X178131506Y-90108340D02*
X178179125Y-90013101D01*
X178179125Y-90013101D02*
X178179125Y-89632149D01*
X178179125Y-89632149D02*
X178131506Y-89536911D01*
X178131506Y-89536911D02*
X178036268Y-89489292D01*
X178036268Y-89489292D02*
X177845792Y-89489292D01*
X177845792Y-89489292D02*
X177750554Y-89536911D01*
X177750554Y-89536911D02*
X177702935Y-89632149D01*
X177702935Y-89632149D02*
X177702935Y-89727387D01*
X177702935Y-89727387D02*
X178179125Y-89822625D01*
X177274363Y-90155959D02*
X177274363Y-89489292D01*
X177274363Y-89679768D02*
X177226744Y-89584530D01*
X177226744Y-89584530D02*
X177179125Y-89536911D01*
X177179125Y-89536911D02*
X177083887Y-89489292D01*
X177083887Y-89489292D02*
X176988649Y-89489292D01*
X175179125Y-89108340D02*
X176036267Y-90394054D01*
X174893410Y-90108340D02*
X174750553Y-90155959D01*
X174750553Y-90155959D02*
X174512458Y-90155959D01*
X174512458Y-90155959D02*
X174417220Y-90108340D01*
X174417220Y-90108340D02*
X174369601Y-90060720D01*
X174369601Y-90060720D02*
X174321982Y-89965482D01*
X174321982Y-89965482D02*
X174321982Y-89870244D01*
X174321982Y-89870244D02*
X174369601Y-89775006D01*
X174369601Y-89775006D02*
X174417220Y-89727387D01*
X174417220Y-89727387D02*
X174512458Y-89679768D01*
X174512458Y-89679768D02*
X174702934Y-89632149D01*
X174702934Y-89632149D02*
X174798172Y-89584530D01*
X174798172Y-89584530D02*
X174845791Y-89536911D01*
X174845791Y-89536911D02*
X174893410Y-89441673D01*
X174893410Y-89441673D02*
X174893410Y-89346435D01*
X174893410Y-89346435D02*
X174845791Y-89251197D01*
X174845791Y-89251197D02*
X174798172Y-89203578D01*
X174798172Y-89203578D02*
X174702934Y-89155959D01*
X174702934Y-89155959D02*
X174464839Y-89155959D01*
X174464839Y-89155959D02*
X174321982Y-89203578D01*
X173417220Y-90155959D02*
X173893410Y-90155959D01*
X173893410Y-90155959D02*
X173893410Y-89155959D01*
X173226743Y-89155959D02*
X172655315Y-89155959D01*
X172941029Y-90155959D02*
X172941029Y-89155959D01*
X190464839Y-90861141D02*
X190417220Y-90813522D01*
X190417220Y-90813522D02*
X190321982Y-90765903D01*
X190321982Y-90765903D02*
X190083887Y-90765903D01*
X190083887Y-90765903D02*
X189988649Y-90813522D01*
X189988649Y-90813522D02*
X189941030Y-90861141D01*
X189941030Y-90861141D02*
X189893411Y-90956379D01*
X189893411Y-90956379D02*
X189893411Y-91051617D01*
X189893411Y-91051617D02*
X189941030Y-91194474D01*
X189941030Y-91194474D02*
X190512458Y-91765903D01*
X190512458Y-91765903D02*
X189893411Y-91765903D01*
X189464839Y-91670664D02*
X189417220Y-91718284D01*
X189417220Y-91718284D02*
X189464839Y-91765903D01*
X189464839Y-91765903D02*
X189512458Y-91718284D01*
X189512458Y-91718284D02*
X189464839Y-91670664D01*
X189464839Y-91670664D02*
X189464839Y-91765903D01*
X187893411Y-91242093D02*
X187750554Y-91289712D01*
X187750554Y-91289712D02*
X187702935Y-91337331D01*
X187702935Y-91337331D02*
X187655316Y-91432569D01*
X187655316Y-91432569D02*
X187655316Y-91575426D01*
X187655316Y-91575426D02*
X187702935Y-91670664D01*
X187702935Y-91670664D02*
X187750554Y-91718284D01*
X187750554Y-91718284D02*
X187845792Y-91765903D01*
X187845792Y-91765903D02*
X188226744Y-91765903D01*
X188226744Y-91765903D02*
X188226744Y-90765903D01*
X188226744Y-90765903D02*
X187893411Y-90765903D01*
X187893411Y-90765903D02*
X187798173Y-90813522D01*
X187798173Y-90813522D02*
X187750554Y-90861141D01*
X187750554Y-90861141D02*
X187702935Y-90956379D01*
X187702935Y-90956379D02*
X187702935Y-91051617D01*
X187702935Y-91051617D02*
X187750554Y-91146855D01*
X187750554Y-91146855D02*
X187798173Y-91194474D01*
X187798173Y-91194474D02*
X187893411Y-91242093D01*
X187893411Y-91242093D02*
X188226744Y-91242093D01*
X187083887Y-91765903D02*
X187179125Y-91718284D01*
X187179125Y-91718284D02*
X187226744Y-91670664D01*
X187226744Y-91670664D02*
X187274363Y-91575426D01*
X187274363Y-91575426D02*
X187274363Y-91289712D01*
X187274363Y-91289712D02*
X187226744Y-91194474D01*
X187226744Y-91194474D02*
X187179125Y-91146855D01*
X187179125Y-91146855D02*
X187083887Y-91099236D01*
X187083887Y-91099236D02*
X186941030Y-91099236D01*
X186941030Y-91099236D02*
X186845792Y-91146855D01*
X186845792Y-91146855D02*
X186798173Y-91194474D01*
X186798173Y-91194474D02*
X186750554Y-91289712D01*
X186750554Y-91289712D02*
X186750554Y-91575426D01*
X186750554Y-91575426D02*
X186798173Y-91670664D01*
X186798173Y-91670664D02*
X186845792Y-91718284D01*
X186845792Y-91718284D02*
X186941030Y-91765903D01*
X186941030Y-91765903D02*
X187083887Y-91765903D01*
X186179125Y-91765903D02*
X186274363Y-91718284D01*
X186274363Y-91718284D02*
X186321982Y-91670664D01*
X186321982Y-91670664D02*
X186369601Y-91575426D01*
X186369601Y-91575426D02*
X186369601Y-91289712D01*
X186369601Y-91289712D02*
X186321982Y-91194474D01*
X186321982Y-91194474D02*
X186274363Y-91146855D01*
X186274363Y-91146855D02*
X186179125Y-91099236D01*
X186179125Y-91099236D02*
X186036268Y-91099236D01*
X186036268Y-91099236D02*
X185941030Y-91146855D01*
X185941030Y-91146855D02*
X185893411Y-91194474D01*
X185893411Y-91194474D02*
X185845792Y-91289712D01*
X185845792Y-91289712D02*
X185845792Y-91575426D01*
X185845792Y-91575426D02*
X185893411Y-91670664D01*
X185893411Y-91670664D02*
X185941030Y-91718284D01*
X185941030Y-91718284D02*
X186036268Y-91765903D01*
X186036268Y-91765903D02*
X186179125Y-91765903D01*
X185560077Y-91099236D02*
X185179125Y-91099236D01*
X185417220Y-90765903D02*
X185417220Y-91623045D01*
X185417220Y-91623045D02*
X185369601Y-91718284D01*
X185369601Y-91718284D02*
X185274363Y-91765903D01*
X185274363Y-91765903D02*
X185179125Y-91765903D01*
X184083886Y-91765903D02*
X184083886Y-91099236D01*
X184083886Y-90765903D02*
X184131505Y-90813522D01*
X184131505Y-90813522D02*
X184083886Y-90861141D01*
X184083886Y-90861141D02*
X184036267Y-90813522D01*
X184036267Y-90813522D02*
X184083886Y-90765903D01*
X184083886Y-90765903D02*
X184083886Y-90861141D01*
X183607696Y-91099236D02*
X183607696Y-91765903D01*
X183607696Y-91194474D02*
X183560077Y-91146855D01*
X183560077Y-91146855D02*
X183464839Y-91099236D01*
X183464839Y-91099236D02*
X183321982Y-91099236D01*
X183321982Y-91099236D02*
X183226744Y-91146855D01*
X183226744Y-91146855D02*
X183179125Y-91242093D01*
X183179125Y-91242093D02*
X183179125Y-91765903D01*
X182845791Y-91099236D02*
X182464839Y-91099236D01*
X182702934Y-90765903D02*
X182702934Y-91623045D01*
X182702934Y-91623045D02*
X182655315Y-91718284D01*
X182655315Y-91718284D02*
X182560077Y-91765903D01*
X182560077Y-91765903D02*
X182464839Y-91765903D01*
X181988648Y-91765903D02*
X182083886Y-91718284D01*
X182083886Y-91718284D02*
X182131505Y-91670664D01*
X182131505Y-91670664D02*
X182179124Y-91575426D01*
X182179124Y-91575426D02*
X182179124Y-91289712D01*
X182179124Y-91289712D02*
X182131505Y-91194474D01*
X182131505Y-91194474D02*
X182083886Y-91146855D01*
X182083886Y-91146855D02*
X181988648Y-91099236D01*
X181988648Y-91099236D02*
X181845791Y-91099236D01*
X181845791Y-91099236D02*
X181750553Y-91146855D01*
X181750553Y-91146855D02*
X181702934Y-91194474D01*
X181702934Y-91194474D02*
X181655315Y-91289712D01*
X181655315Y-91289712D02*
X181655315Y-91575426D01*
X181655315Y-91575426D02*
X181702934Y-91670664D01*
X181702934Y-91670664D02*
X181750553Y-91718284D01*
X181750553Y-91718284D02*
X181845791Y-91765903D01*
X181845791Y-91765903D02*
X181988648Y-91765903D01*
X180464838Y-91765903D02*
X180464838Y-90765903D01*
X180464838Y-90765903D02*
X180131505Y-91480188D01*
X180131505Y-91480188D02*
X179798172Y-90765903D01*
X179798172Y-90765903D02*
X179798172Y-91765903D01*
X179369600Y-91718284D02*
X179226743Y-91765903D01*
X179226743Y-91765903D02*
X178988648Y-91765903D01*
X178988648Y-91765903D02*
X178893410Y-91718284D01*
X178893410Y-91718284D02*
X178845791Y-91670664D01*
X178845791Y-91670664D02*
X178798172Y-91575426D01*
X178798172Y-91575426D02*
X178798172Y-91480188D01*
X178798172Y-91480188D02*
X178845791Y-91384950D01*
X178845791Y-91384950D02*
X178893410Y-91337331D01*
X178893410Y-91337331D02*
X178988648Y-91289712D01*
X178988648Y-91289712D02*
X179179124Y-91242093D01*
X179179124Y-91242093D02*
X179274362Y-91194474D01*
X179274362Y-91194474D02*
X179321981Y-91146855D01*
X179321981Y-91146855D02*
X179369600Y-91051617D01*
X179369600Y-91051617D02*
X179369600Y-90956379D01*
X179369600Y-90956379D02*
X179321981Y-90861141D01*
X179321981Y-90861141D02*
X179274362Y-90813522D01*
X179274362Y-90813522D02*
X179179124Y-90765903D01*
X179179124Y-90765903D02*
X178941029Y-90765903D01*
X178941029Y-90765903D02*
X178798172Y-90813522D01*
X178464838Y-90765903D02*
X177798172Y-91765903D01*
X177798172Y-90765903D02*
X178464838Y-91765903D01*
X177417219Y-91384950D02*
X176655315Y-91384950D01*
X176179124Y-91765903D02*
X176179124Y-90765903D01*
X176179124Y-90765903D02*
X175941029Y-90765903D01*
X175941029Y-90765903D02*
X175798172Y-90813522D01*
X175798172Y-90813522D02*
X175702934Y-90908760D01*
X175702934Y-90908760D02*
X175655315Y-91003998D01*
X175655315Y-91003998D02*
X175607696Y-91194474D01*
X175607696Y-91194474D02*
X175607696Y-91337331D01*
X175607696Y-91337331D02*
X175655315Y-91527807D01*
X175655315Y-91527807D02*
X175702934Y-91623045D01*
X175702934Y-91623045D02*
X175798172Y-91718284D01*
X175798172Y-91718284D02*
X175941029Y-91765903D01*
X175941029Y-91765903D02*
X176179124Y-91765903D01*
X174988648Y-90765903D02*
X174798172Y-90765903D01*
X174798172Y-90765903D02*
X174702934Y-90813522D01*
X174702934Y-90813522D02*
X174607696Y-90908760D01*
X174607696Y-90908760D02*
X174560077Y-91099236D01*
X174560077Y-91099236D02*
X174560077Y-91432569D01*
X174560077Y-91432569D02*
X174607696Y-91623045D01*
X174607696Y-91623045D02*
X174702934Y-91718284D01*
X174702934Y-91718284D02*
X174798172Y-91765903D01*
X174798172Y-91765903D02*
X174988648Y-91765903D01*
X174988648Y-91765903D02*
X175083886Y-91718284D01*
X175083886Y-91718284D02*
X175179124Y-91623045D01*
X175179124Y-91623045D02*
X175226743Y-91432569D01*
X175226743Y-91432569D02*
X175226743Y-91099236D01*
X175226743Y-91099236D02*
X175179124Y-90908760D01*
X175179124Y-90908760D02*
X175083886Y-90813522D01*
X175083886Y-90813522D02*
X174988648Y-90765903D01*
X174179124Y-91718284D02*
X174036267Y-91765903D01*
X174036267Y-91765903D02*
X173798172Y-91765903D01*
X173798172Y-91765903D02*
X173702934Y-91718284D01*
X173702934Y-91718284D02*
X173655315Y-91670664D01*
X173655315Y-91670664D02*
X173607696Y-91575426D01*
X173607696Y-91575426D02*
X173607696Y-91480188D01*
X173607696Y-91480188D02*
X173655315Y-91384950D01*
X173655315Y-91384950D02*
X173702934Y-91337331D01*
X173702934Y-91337331D02*
X173798172Y-91289712D01*
X173798172Y-91289712D02*
X173988648Y-91242093D01*
X173988648Y-91242093D02*
X174083886Y-91194474D01*
X174083886Y-91194474D02*
X174131505Y-91146855D01*
X174131505Y-91146855D02*
X174179124Y-91051617D01*
X174179124Y-91051617D02*
X174179124Y-90956379D01*
X174179124Y-90956379D02*
X174131505Y-90861141D01*
X174131505Y-90861141D02*
X174083886Y-90813522D01*
X174083886Y-90813522D02*
X173988648Y-90765903D01*
X173988648Y-90765903D02*
X173750553Y-90765903D01*
X173750553Y-90765903D02*
X173607696Y-90813522D01*
X190512458Y-92375847D02*
X189893411Y-92375847D01*
X189893411Y-92375847D02*
X190226744Y-92756799D01*
X190226744Y-92756799D02*
X190083887Y-92756799D01*
X190083887Y-92756799D02*
X189988649Y-92804418D01*
X189988649Y-92804418D02*
X189941030Y-92852037D01*
X189941030Y-92852037D02*
X189893411Y-92947275D01*
X189893411Y-92947275D02*
X189893411Y-93185370D01*
X189893411Y-93185370D02*
X189941030Y-93280608D01*
X189941030Y-93280608D02*
X189988649Y-93328228D01*
X189988649Y-93328228D02*
X190083887Y-93375847D01*
X190083887Y-93375847D02*
X190369601Y-93375847D01*
X190369601Y-93375847D02*
X190464839Y-93328228D01*
X190464839Y-93328228D02*
X190512458Y-93280608D01*
X189464839Y-93280608D02*
X189417220Y-93328228D01*
X189417220Y-93328228D02*
X189464839Y-93375847D01*
X189464839Y-93375847D02*
X189512458Y-93328228D01*
X189512458Y-93328228D02*
X189464839Y-93280608D01*
X189464839Y-93280608D02*
X189464839Y-93375847D01*
X187655316Y-93280608D02*
X187702935Y-93328228D01*
X187702935Y-93328228D02*
X187845792Y-93375847D01*
X187845792Y-93375847D02*
X187941030Y-93375847D01*
X187941030Y-93375847D02*
X188083887Y-93328228D01*
X188083887Y-93328228D02*
X188179125Y-93232989D01*
X188179125Y-93232989D02*
X188226744Y-93137751D01*
X188226744Y-93137751D02*
X188274363Y-92947275D01*
X188274363Y-92947275D02*
X188274363Y-92804418D01*
X188274363Y-92804418D02*
X188226744Y-92613942D01*
X188226744Y-92613942D02*
X188179125Y-92518704D01*
X188179125Y-92518704D02*
X188083887Y-92423466D01*
X188083887Y-92423466D02*
X187941030Y-92375847D01*
X187941030Y-92375847D02*
X187845792Y-92375847D01*
X187845792Y-92375847D02*
X187702935Y-92423466D01*
X187702935Y-92423466D02*
X187655316Y-92471085D01*
X187083887Y-93375847D02*
X187179125Y-93328228D01*
X187179125Y-93328228D02*
X187226744Y-93232989D01*
X187226744Y-93232989D02*
X187226744Y-92375847D01*
X186560077Y-93375847D02*
X186655315Y-93328228D01*
X186655315Y-93328228D02*
X186702934Y-93280608D01*
X186702934Y-93280608D02*
X186750553Y-93185370D01*
X186750553Y-93185370D02*
X186750553Y-92899656D01*
X186750553Y-92899656D02*
X186702934Y-92804418D01*
X186702934Y-92804418D02*
X186655315Y-92756799D01*
X186655315Y-92756799D02*
X186560077Y-92709180D01*
X186560077Y-92709180D02*
X186417220Y-92709180D01*
X186417220Y-92709180D02*
X186321982Y-92756799D01*
X186321982Y-92756799D02*
X186274363Y-92804418D01*
X186274363Y-92804418D02*
X186226744Y-92899656D01*
X186226744Y-92899656D02*
X186226744Y-93185370D01*
X186226744Y-93185370D02*
X186274363Y-93280608D01*
X186274363Y-93280608D02*
X186321982Y-93328228D01*
X186321982Y-93328228D02*
X186417220Y-93375847D01*
X186417220Y-93375847D02*
X186560077Y-93375847D01*
X185845791Y-93328228D02*
X185750553Y-93375847D01*
X185750553Y-93375847D02*
X185560077Y-93375847D01*
X185560077Y-93375847D02*
X185464839Y-93328228D01*
X185464839Y-93328228D02*
X185417220Y-93232989D01*
X185417220Y-93232989D02*
X185417220Y-93185370D01*
X185417220Y-93185370D02*
X185464839Y-93090132D01*
X185464839Y-93090132D02*
X185560077Y-93042513D01*
X185560077Y-93042513D02*
X185702934Y-93042513D01*
X185702934Y-93042513D02*
X185798172Y-92994894D01*
X185798172Y-92994894D02*
X185845791Y-92899656D01*
X185845791Y-92899656D02*
X185845791Y-92852037D01*
X185845791Y-92852037D02*
X185798172Y-92756799D01*
X185798172Y-92756799D02*
X185702934Y-92709180D01*
X185702934Y-92709180D02*
X185560077Y-92709180D01*
X185560077Y-92709180D02*
X185464839Y-92756799D01*
X184607696Y-93328228D02*
X184702934Y-93375847D01*
X184702934Y-93375847D02*
X184893410Y-93375847D01*
X184893410Y-93375847D02*
X184988648Y-93328228D01*
X184988648Y-93328228D02*
X185036267Y-93232989D01*
X185036267Y-93232989D02*
X185036267Y-92852037D01*
X185036267Y-92852037D02*
X184988648Y-92756799D01*
X184988648Y-92756799D02*
X184893410Y-92709180D01*
X184893410Y-92709180D02*
X184702934Y-92709180D01*
X184702934Y-92709180D02*
X184607696Y-92756799D01*
X184607696Y-92756799D02*
X184560077Y-92852037D01*
X184560077Y-92852037D02*
X184560077Y-92947275D01*
X184560077Y-92947275D02*
X185036267Y-93042513D01*
X183369600Y-92709180D02*
X183369600Y-93566323D01*
X183369600Y-93566323D02*
X183417219Y-93661561D01*
X183417219Y-93661561D02*
X183512457Y-93709180D01*
X183512457Y-93709180D02*
X183560076Y-93709180D01*
X183369600Y-92375847D02*
X183417219Y-92423466D01*
X183417219Y-92423466D02*
X183369600Y-92471085D01*
X183369600Y-92471085D02*
X183321981Y-92423466D01*
X183321981Y-92423466D02*
X183369600Y-92375847D01*
X183369600Y-92375847D02*
X183369600Y-92471085D01*
X182464839Y-92709180D02*
X182464839Y-93375847D01*
X182893410Y-92709180D02*
X182893410Y-93232989D01*
X182893410Y-93232989D02*
X182845791Y-93328228D01*
X182845791Y-93328228D02*
X182750553Y-93375847D01*
X182750553Y-93375847D02*
X182607696Y-93375847D01*
X182607696Y-93375847D02*
X182512458Y-93328228D01*
X182512458Y-93328228D02*
X182464839Y-93280608D01*
X181988648Y-93375847D02*
X181988648Y-92709180D01*
X181988648Y-92804418D02*
X181941029Y-92756799D01*
X181941029Y-92756799D02*
X181845791Y-92709180D01*
X181845791Y-92709180D02*
X181702934Y-92709180D01*
X181702934Y-92709180D02*
X181607696Y-92756799D01*
X181607696Y-92756799D02*
X181560077Y-92852037D01*
X181560077Y-92852037D02*
X181560077Y-93375847D01*
X181560077Y-92852037D02*
X181512458Y-92756799D01*
X181512458Y-92756799D02*
X181417220Y-92709180D01*
X181417220Y-92709180D02*
X181274363Y-92709180D01*
X181274363Y-92709180D02*
X181179124Y-92756799D01*
X181179124Y-92756799D02*
X181131505Y-92852037D01*
X181131505Y-92852037D02*
X181131505Y-93375847D01*
X180655315Y-92709180D02*
X180655315Y-93709180D01*
X180655315Y-92756799D02*
X180560077Y-92709180D01*
X180560077Y-92709180D02*
X180369601Y-92709180D01*
X180369601Y-92709180D02*
X180274363Y-92756799D01*
X180274363Y-92756799D02*
X180226744Y-92804418D01*
X180226744Y-92804418D02*
X180179125Y-92899656D01*
X180179125Y-92899656D02*
X180179125Y-93185370D01*
X180179125Y-93185370D02*
X180226744Y-93280608D01*
X180226744Y-93280608D02*
X180274363Y-93328228D01*
X180274363Y-93328228D02*
X180369601Y-93375847D01*
X180369601Y-93375847D02*
X180560077Y-93375847D01*
X180560077Y-93375847D02*
X180655315Y-93328228D01*
X179369601Y-93328228D02*
X179464839Y-93375847D01*
X179464839Y-93375847D02*
X179655315Y-93375847D01*
X179655315Y-93375847D02*
X179750553Y-93328228D01*
X179750553Y-93328228D02*
X179798172Y-93232989D01*
X179798172Y-93232989D02*
X179798172Y-92852037D01*
X179798172Y-92852037D02*
X179750553Y-92756799D01*
X179750553Y-92756799D02*
X179655315Y-92709180D01*
X179655315Y-92709180D02*
X179464839Y-92709180D01*
X179464839Y-92709180D02*
X179369601Y-92756799D01*
X179369601Y-92756799D02*
X179321982Y-92852037D01*
X179321982Y-92852037D02*
X179321982Y-92947275D01*
X179321982Y-92947275D02*
X179798172Y-93042513D01*
X178893410Y-93375847D02*
X178893410Y-92709180D01*
X178893410Y-92899656D02*
X178845791Y-92804418D01*
X178845791Y-92804418D02*
X178798172Y-92756799D01*
X178798172Y-92756799D02*
X178702934Y-92709180D01*
X178702934Y-92709180D02*
X178607696Y-92709180D01*
X176798172Y-92328228D02*
X177655314Y-93613942D01*
X176512457Y-93328228D02*
X176369600Y-93375847D01*
X176369600Y-93375847D02*
X176131505Y-93375847D01*
X176131505Y-93375847D02*
X176036267Y-93328228D01*
X176036267Y-93328228D02*
X175988648Y-93280608D01*
X175988648Y-93280608D02*
X175941029Y-93185370D01*
X175941029Y-93185370D02*
X175941029Y-93090132D01*
X175941029Y-93090132D02*
X175988648Y-92994894D01*
X175988648Y-92994894D02*
X176036267Y-92947275D01*
X176036267Y-92947275D02*
X176131505Y-92899656D01*
X176131505Y-92899656D02*
X176321981Y-92852037D01*
X176321981Y-92852037D02*
X176417219Y-92804418D01*
X176417219Y-92804418D02*
X176464838Y-92756799D01*
X176464838Y-92756799D02*
X176512457Y-92661561D01*
X176512457Y-92661561D02*
X176512457Y-92566323D01*
X176512457Y-92566323D02*
X176464838Y-92471085D01*
X176464838Y-92471085D02*
X176417219Y-92423466D01*
X176417219Y-92423466D02*
X176321981Y-92375847D01*
X176321981Y-92375847D02*
X176083886Y-92375847D01*
X176083886Y-92375847D02*
X175941029Y-92423466D01*
X175036267Y-93375847D02*
X175512457Y-93375847D01*
X175512457Y-93375847D02*
X175512457Y-92375847D01*
X174845790Y-92375847D02*
X174274362Y-92375847D01*
X174560076Y-93375847D02*
X174560076Y-92375847D01*
X172750552Y-93375847D02*
X172750552Y-92852037D01*
X172750552Y-92852037D02*
X172798171Y-92756799D01*
X172798171Y-92756799D02*
X172893409Y-92709180D01*
X172893409Y-92709180D02*
X173083885Y-92709180D01*
X173083885Y-92709180D02*
X173179123Y-92756799D01*
X172750552Y-93328228D02*
X172845790Y-93375847D01*
X172845790Y-93375847D02*
X173083885Y-93375847D01*
X173083885Y-93375847D02*
X173179123Y-93328228D01*
X173179123Y-93328228D02*
X173226742Y-93232989D01*
X173226742Y-93232989D02*
X173226742Y-93137751D01*
X173226742Y-93137751D02*
X173179123Y-93042513D01*
X173179123Y-93042513D02*
X173083885Y-92994894D01*
X173083885Y-92994894D02*
X172845790Y-92994894D01*
X172845790Y-92994894D02*
X172750552Y-92947275D01*
X172274361Y-92709180D02*
X172274361Y-93375847D01*
X172274361Y-92804418D02*
X172226742Y-92756799D01*
X172226742Y-92756799D02*
X172131504Y-92709180D01*
X172131504Y-92709180D02*
X171988647Y-92709180D01*
X171988647Y-92709180D02*
X171893409Y-92756799D01*
X171893409Y-92756799D02*
X171845790Y-92852037D01*
X171845790Y-92852037D02*
X171845790Y-93375847D01*
X170941028Y-93375847D02*
X170941028Y-92375847D01*
X170941028Y-93328228D02*
X171036266Y-93375847D01*
X171036266Y-93375847D02*
X171226742Y-93375847D01*
X171226742Y-93375847D02*
X171321980Y-93328228D01*
X171321980Y-93328228D02*
X171369599Y-93280608D01*
X171369599Y-93280608D02*
X171417218Y-93185370D01*
X171417218Y-93185370D02*
X171417218Y-92899656D01*
X171417218Y-92899656D02*
X171369599Y-92804418D01*
X171369599Y-92804418D02*
X171321980Y-92756799D01*
X171321980Y-92756799D02*
X171226742Y-92709180D01*
X171226742Y-92709180D02*
X171036266Y-92709180D01*
X171036266Y-92709180D02*
X170941028Y-92756799D01*
X169750551Y-93090132D02*
X169274361Y-93090132D01*
X169845789Y-93375847D02*
X169512456Y-92375847D01*
X169512456Y-92375847D02*
X169179123Y-93375847D01*
X168321980Y-93375847D02*
X168893408Y-93375847D01*
X168607694Y-93375847D02*
X168607694Y-92375847D01*
X168607694Y-92375847D02*
X168702932Y-92518704D01*
X168702932Y-92518704D02*
X168798170Y-92613942D01*
X168798170Y-92613942D02*
X168893408Y-92661561D01*
X167417218Y-92375847D02*
X167893408Y-92375847D01*
X167893408Y-92375847D02*
X167941027Y-92852037D01*
X167941027Y-92852037D02*
X167893408Y-92804418D01*
X167893408Y-92804418D02*
X167798170Y-92756799D01*
X167798170Y-92756799D02*
X167560075Y-92756799D01*
X167560075Y-92756799D02*
X167464837Y-92804418D01*
X167464837Y-92804418D02*
X167417218Y-92852037D01*
X167417218Y-92852037D02*
X167369599Y-92947275D01*
X167369599Y-92947275D02*
X167369599Y-93185370D01*
X167369599Y-93185370D02*
X167417218Y-93280608D01*
X167417218Y-93280608D02*
X167464837Y-93328228D01*
X167464837Y-93328228D02*
X167560075Y-93375847D01*
X167560075Y-93375847D02*
X167798170Y-93375847D01*
X167798170Y-93375847D02*
X167893408Y-93328228D01*
X167893408Y-93328228D02*
X167941027Y-93280608D01*
X189988649Y-94319124D02*
X189988649Y-94985791D01*
X190226744Y-93938172D02*
X190464839Y-94652457D01*
X190464839Y-94652457D02*
X189845792Y-94652457D01*
X189464839Y-94890552D02*
X189417220Y-94938172D01*
X189417220Y-94938172D02*
X189464839Y-94985791D01*
X189464839Y-94985791D02*
X189512458Y-94938172D01*
X189512458Y-94938172D02*
X189464839Y-94890552D01*
X189464839Y-94890552D02*
X189464839Y-94985791D01*
X187655316Y-94985791D02*
X187988649Y-94509600D01*
X188226744Y-94985791D02*
X188226744Y-93985791D01*
X188226744Y-93985791D02*
X187845792Y-93985791D01*
X187845792Y-93985791D02*
X187750554Y-94033410D01*
X187750554Y-94033410D02*
X187702935Y-94081029D01*
X187702935Y-94081029D02*
X187655316Y-94176267D01*
X187655316Y-94176267D02*
X187655316Y-94319124D01*
X187655316Y-94319124D02*
X187702935Y-94414362D01*
X187702935Y-94414362D02*
X187750554Y-94461981D01*
X187750554Y-94461981D02*
X187845792Y-94509600D01*
X187845792Y-94509600D02*
X188226744Y-94509600D01*
X186798173Y-94319124D02*
X186798173Y-94985791D01*
X187226744Y-94319124D02*
X187226744Y-94842933D01*
X187226744Y-94842933D02*
X187179125Y-94938172D01*
X187179125Y-94938172D02*
X187083887Y-94985791D01*
X187083887Y-94985791D02*
X186941030Y-94985791D01*
X186941030Y-94985791D02*
X186845792Y-94938172D01*
X186845792Y-94938172D02*
X186798173Y-94890552D01*
X186321982Y-94319124D02*
X186321982Y-94985791D01*
X186321982Y-94414362D02*
X186274363Y-94366743D01*
X186274363Y-94366743D02*
X186179125Y-94319124D01*
X186179125Y-94319124D02*
X186036268Y-94319124D01*
X186036268Y-94319124D02*
X185941030Y-94366743D01*
X185941030Y-94366743D02*
X185893411Y-94461981D01*
X185893411Y-94461981D02*
X185893411Y-94985791D01*
X185417220Y-94890552D02*
X185369601Y-94938172D01*
X185369601Y-94938172D02*
X185417220Y-94985791D01*
X185417220Y-94985791D02*
X185464839Y-94938172D01*
X185464839Y-94938172D02*
X185417220Y-94890552D01*
X185417220Y-94890552D02*
X185417220Y-94985791D01*
X185417220Y-94366743D02*
X185369601Y-94414362D01*
X185369601Y-94414362D02*
X185417220Y-94461981D01*
X185417220Y-94461981D02*
X185464839Y-94414362D01*
X185464839Y-94414362D02*
X185417220Y-94366743D01*
X185417220Y-94366743D02*
X185417220Y-94461981D01*
X183750554Y-94985791D02*
X183750554Y-94461981D01*
X183750554Y-94461981D02*
X183798173Y-94366743D01*
X183798173Y-94366743D02*
X183893411Y-94319124D01*
X183893411Y-94319124D02*
X184083887Y-94319124D01*
X184083887Y-94319124D02*
X184179125Y-94366743D01*
X183750554Y-94938172D02*
X183845792Y-94985791D01*
X183845792Y-94985791D02*
X184083887Y-94985791D01*
X184083887Y-94985791D02*
X184179125Y-94938172D01*
X184179125Y-94938172D02*
X184226744Y-94842933D01*
X184226744Y-94842933D02*
X184226744Y-94747695D01*
X184226744Y-94747695D02*
X184179125Y-94652457D01*
X184179125Y-94652457D02*
X184083887Y-94604838D01*
X184083887Y-94604838D02*
X183845792Y-94604838D01*
X183845792Y-94604838D02*
X183750554Y-94557219D01*
X183417220Y-94319124D02*
X183036268Y-94319124D01*
X183274363Y-93985791D02*
X183274363Y-94842933D01*
X183274363Y-94842933D02*
X183226744Y-94938172D01*
X183226744Y-94938172D02*
X183131506Y-94985791D01*
X183131506Y-94985791D02*
X183036268Y-94985791D01*
X182750553Y-94081029D02*
X182702934Y-94033410D01*
X182702934Y-94033410D02*
X182607696Y-93985791D01*
X182607696Y-93985791D02*
X182369601Y-93985791D01*
X182369601Y-93985791D02*
X182274363Y-94033410D01*
X182274363Y-94033410D02*
X182226744Y-94081029D01*
X182226744Y-94081029D02*
X182179125Y-94176267D01*
X182179125Y-94176267D02*
X182179125Y-94271505D01*
X182179125Y-94271505D02*
X182226744Y-94414362D01*
X182226744Y-94414362D02*
X182798172Y-94985791D01*
X182798172Y-94985791D02*
X182179125Y-94985791D01*
X181607696Y-94414362D02*
X181702934Y-94366743D01*
X181702934Y-94366743D02*
X181750553Y-94319124D01*
X181750553Y-94319124D02*
X181798172Y-94223886D01*
X181798172Y-94223886D02*
X181798172Y-94176267D01*
X181798172Y-94176267D02*
X181750553Y-94081029D01*
X181750553Y-94081029D02*
X181702934Y-94033410D01*
X181702934Y-94033410D02*
X181607696Y-93985791D01*
X181607696Y-93985791D02*
X181417220Y-93985791D01*
X181417220Y-93985791D02*
X181321982Y-94033410D01*
X181321982Y-94033410D02*
X181274363Y-94081029D01*
X181274363Y-94081029D02*
X181226744Y-94176267D01*
X181226744Y-94176267D02*
X181226744Y-94223886D01*
X181226744Y-94223886D02*
X181274363Y-94319124D01*
X181274363Y-94319124D02*
X181321982Y-94366743D01*
X181321982Y-94366743D02*
X181417220Y-94414362D01*
X181417220Y-94414362D02*
X181607696Y-94414362D01*
X181607696Y-94414362D02*
X181702934Y-94461981D01*
X181702934Y-94461981D02*
X181750553Y-94509600D01*
X181750553Y-94509600D02*
X181798172Y-94604838D01*
X181798172Y-94604838D02*
X181798172Y-94795314D01*
X181798172Y-94795314D02*
X181750553Y-94890552D01*
X181750553Y-94890552D02*
X181702934Y-94938172D01*
X181702934Y-94938172D02*
X181607696Y-94985791D01*
X181607696Y-94985791D02*
X181417220Y-94985791D01*
X181417220Y-94985791D02*
X181321982Y-94938172D01*
X181321982Y-94938172D02*
X181274363Y-94890552D01*
X181274363Y-94890552D02*
X181226744Y-94795314D01*
X181226744Y-94795314D02*
X181226744Y-94604838D01*
X181226744Y-94604838D02*
X181274363Y-94509600D01*
X181274363Y-94509600D02*
X181321982Y-94461981D01*
X181321982Y-94461981D02*
X181417220Y-94414362D01*
X180369601Y-94938172D02*
X180464839Y-94985791D01*
X180464839Y-94985791D02*
X180655315Y-94985791D01*
X180655315Y-94985791D02*
X180750553Y-94938172D01*
X180750553Y-94938172D02*
X180798172Y-94890552D01*
X180798172Y-94890552D02*
X180845791Y-94795314D01*
X180845791Y-94795314D02*
X180845791Y-94509600D01*
X180845791Y-94509600D02*
X180798172Y-94414362D01*
X180798172Y-94414362D02*
X180750553Y-94366743D01*
X180750553Y-94366743D02*
X180655315Y-94319124D01*
X180655315Y-94319124D02*
X180464839Y-94319124D01*
X180464839Y-94319124D02*
X180369601Y-94366743D01*
X179988648Y-94081029D02*
X179941029Y-94033410D01*
X179941029Y-94033410D02*
X179845791Y-93985791D01*
X179845791Y-93985791D02*
X179607696Y-93985791D01*
X179607696Y-93985791D02*
X179512458Y-94033410D01*
X179512458Y-94033410D02*
X179464839Y-94081029D01*
X179464839Y-94081029D02*
X179417220Y-94176267D01*
X179417220Y-94176267D02*
X179417220Y-94271505D01*
X179417220Y-94271505D02*
X179464839Y-94414362D01*
X179464839Y-94414362D02*
X180036267Y-94985791D01*
X180036267Y-94985791D02*
X179417220Y-94985791D01*
X178512458Y-93985791D02*
X178988648Y-93985791D01*
X178988648Y-93985791D02*
X179036267Y-94461981D01*
X179036267Y-94461981D02*
X178988648Y-94414362D01*
X178988648Y-94414362D02*
X178893410Y-94366743D01*
X178893410Y-94366743D02*
X178655315Y-94366743D01*
X178655315Y-94366743D02*
X178560077Y-94414362D01*
X178560077Y-94414362D02*
X178512458Y-94461981D01*
X178512458Y-94461981D02*
X178464839Y-94557219D01*
X178464839Y-94557219D02*
X178464839Y-94795314D01*
X178464839Y-94795314D02*
X178512458Y-94890552D01*
X178512458Y-94890552D02*
X178560077Y-94938172D01*
X178560077Y-94938172D02*
X178655315Y-94985791D01*
X178655315Y-94985791D02*
X178893410Y-94985791D01*
X178893410Y-94985791D02*
X178988648Y-94938172D01*
X178988648Y-94938172D02*
X179036267Y-94890552D01*
X177607696Y-93985791D02*
X177798172Y-93985791D01*
X177798172Y-93985791D02*
X177893410Y-94033410D01*
X177893410Y-94033410D02*
X177941029Y-94081029D01*
X177941029Y-94081029D02*
X178036267Y-94223886D01*
X178036267Y-94223886D02*
X178083886Y-94414362D01*
X178083886Y-94414362D02*
X178083886Y-94795314D01*
X178083886Y-94795314D02*
X178036267Y-94890552D01*
X178036267Y-94890552D02*
X177988648Y-94938172D01*
X177988648Y-94938172D02*
X177893410Y-94985791D01*
X177893410Y-94985791D02*
X177702934Y-94985791D01*
X177702934Y-94985791D02*
X177607696Y-94938172D01*
X177607696Y-94938172D02*
X177560077Y-94890552D01*
X177560077Y-94890552D02*
X177512458Y-94795314D01*
X177512458Y-94795314D02*
X177512458Y-94557219D01*
X177512458Y-94557219D02*
X177560077Y-94461981D01*
X177560077Y-94461981D02*
X177607696Y-94414362D01*
X177607696Y-94414362D02*
X177702934Y-94366743D01*
X177702934Y-94366743D02*
X177893410Y-94366743D01*
X177893410Y-94366743D02*
X177988648Y-94414362D01*
X177988648Y-94414362D02*
X178036267Y-94461981D01*
X178036267Y-94461981D02*
X178083886Y-94557219D01*
X177083886Y-94890552D02*
X177036267Y-94938172D01*
X177036267Y-94938172D02*
X177083886Y-94985791D01*
X177083886Y-94985791D02*
X177131505Y-94938172D01*
X177131505Y-94938172D02*
X177083886Y-94890552D01*
X177083886Y-94890552D02*
X177083886Y-94985791D01*
X176179125Y-94938172D02*
X176274363Y-94985791D01*
X176274363Y-94985791D02*
X176464839Y-94985791D01*
X176464839Y-94985791D02*
X176560077Y-94938172D01*
X176560077Y-94938172D02*
X176607696Y-94890552D01*
X176607696Y-94890552D02*
X176655315Y-94795314D01*
X176655315Y-94795314D02*
X176655315Y-94509600D01*
X176655315Y-94509600D02*
X176607696Y-94414362D01*
X176607696Y-94414362D02*
X176560077Y-94366743D01*
X176560077Y-94366743D02*
X176464839Y-94319124D01*
X176464839Y-94319124D02*
X176274363Y-94319124D01*
X176274363Y-94319124D02*
X176179125Y-94366743D01*
X175607696Y-94985791D02*
X175702934Y-94938172D01*
X175702934Y-94938172D02*
X175750553Y-94890552D01*
X175750553Y-94890552D02*
X175798172Y-94795314D01*
X175798172Y-94795314D02*
X175798172Y-94509600D01*
X175798172Y-94509600D02*
X175750553Y-94414362D01*
X175750553Y-94414362D02*
X175702934Y-94366743D01*
X175702934Y-94366743D02*
X175607696Y-94319124D01*
X175607696Y-94319124D02*
X175464839Y-94319124D01*
X175464839Y-94319124D02*
X175369601Y-94366743D01*
X175369601Y-94366743D02*
X175321982Y-94414362D01*
X175321982Y-94414362D02*
X175274363Y-94509600D01*
X175274363Y-94509600D02*
X175274363Y-94795314D01*
X175274363Y-94795314D02*
X175321982Y-94890552D01*
X175321982Y-94890552D02*
X175369601Y-94938172D01*
X175369601Y-94938172D02*
X175464839Y-94985791D01*
X175464839Y-94985791D02*
X175607696Y-94985791D01*
X174845791Y-94985791D02*
X174845791Y-94319124D01*
X174845791Y-94414362D02*
X174798172Y-94366743D01*
X174798172Y-94366743D02*
X174702934Y-94319124D01*
X174702934Y-94319124D02*
X174560077Y-94319124D01*
X174560077Y-94319124D02*
X174464839Y-94366743D01*
X174464839Y-94366743D02*
X174417220Y-94461981D01*
X174417220Y-94461981D02*
X174417220Y-94985791D01*
X174417220Y-94461981D02*
X174369601Y-94366743D01*
X174369601Y-94366743D02*
X174274363Y-94319124D01*
X174274363Y-94319124D02*
X174131506Y-94319124D01*
X174131506Y-94319124D02*
X174036267Y-94366743D01*
X174036267Y-94366743D02*
X173988648Y-94461981D01*
X173988648Y-94461981D02*
X173988648Y-94985791D01*
X172036268Y-93938172D02*
X172893410Y-95223886D01*
X171750553Y-94938172D02*
X171655315Y-94985791D01*
X171655315Y-94985791D02*
X171464839Y-94985791D01*
X171464839Y-94985791D02*
X171369601Y-94938172D01*
X171369601Y-94938172D02*
X171321982Y-94842933D01*
X171321982Y-94842933D02*
X171321982Y-94795314D01*
X171321982Y-94795314D02*
X171369601Y-94700076D01*
X171369601Y-94700076D02*
X171464839Y-94652457D01*
X171464839Y-94652457D02*
X171607696Y-94652457D01*
X171607696Y-94652457D02*
X171702934Y-94604838D01*
X171702934Y-94604838D02*
X171750553Y-94509600D01*
X171750553Y-94509600D02*
X171750553Y-94461981D01*
X171750553Y-94461981D02*
X171702934Y-94366743D01*
X171702934Y-94366743D02*
X171607696Y-94319124D01*
X171607696Y-94319124D02*
X171464839Y-94319124D01*
X171464839Y-94319124D02*
X171369601Y-94366743D01*
X169369601Y-94319124D02*
X170131505Y-94604838D01*
X170131505Y-94604838D02*
X169369601Y-94890552D01*
X168941029Y-94938172D02*
X168845791Y-94985791D01*
X168845791Y-94985791D02*
X168655315Y-94985791D01*
X168655315Y-94985791D02*
X168560077Y-94938172D01*
X168560077Y-94938172D02*
X168512458Y-94842933D01*
X168512458Y-94842933D02*
X168512458Y-94795314D01*
X168512458Y-94795314D02*
X168560077Y-94700076D01*
X168560077Y-94700076D02*
X168655315Y-94652457D01*
X168655315Y-94652457D02*
X168798172Y-94652457D01*
X168798172Y-94652457D02*
X168893410Y-94604838D01*
X168893410Y-94604838D02*
X168941029Y-94509600D01*
X168941029Y-94509600D02*
X168941029Y-94461981D01*
X168941029Y-94461981D02*
X168893410Y-94366743D01*
X168893410Y-94366743D02*
X168798172Y-94319124D01*
X168798172Y-94319124D02*
X168655315Y-94319124D01*
X168655315Y-94319124D02*
X168560077Y-94366743D01*
X167941029Y-94985791D02*
X168036267Y-94938172D01*
X168036267Y-94938172D02*
X168083886Y-94842933D01*
X168083886Y-94842933D02*
X168083886Y-93985791D01*
X167417219Y-94985791D02*
X167512457Y-94938172D01*
X167512457Y-94938172D02*
X167560076Y-94890552D01*
X167560076Y-94890552D02*
X167607695Y-94795314D01*
X167607695Y-94795314D02*
X167607695Y-94509600D01*
X167607695Y-94509600D02*
X167560076Y-94414362D01*
X167560076Y-94414362D02*
X167512457Y-94366743D01*
X167512457Y-94366743D02*
X167417219Y-94319124D01*
X167417219Y-94319124D02*
X167274362Y-94319124D01*
X167274362Y-94319124D02*
X167179124Y-94366743D01*
X167179124Y-94366743D02*
X167131505Y-94414362D01*
X167131505Y-94414362D02*
X167083886Y-94509600D01*
X167083886Y-94509600D02*
X167083886Y-94795314D01*
X167083886Y-94795314D02*
X167131505Y-94890552D01*
X167131505Y-94890552D02*
X167179124Y-94938172D01*
X167179124Y-94938172D02*
X167274362Y-94985791D01*
X167274362Y-94985791D02*
X167417219Y-94985791D01*
X166798171Y-94319124D02*
X166417219Y-94319124D01*
X166655314Y-93985791D02*
X166655314Y-94842933D01*
X166655314Y-94842933D02*
X166607695Y-94938172D01*
X166607695Y-94938172D02*
X166512457Y-94985791D01*
X166512457Y-94985791D02*
X166417219Y-94985791D01*
X166083885Y-94319124D02*
X165321981Y-94604838D01*
X165321981Y-94604838D02*
X166083885Y-94890552D01*
X163369600Y-93938172D02*
X164226742Y-95223886D01*
X163179123Y-94319124D02*
X162798171Y-94319124D01*
X163036266Y-94985791D02*
X163036266Y-94128648D01*
X163036266Y-94128648D02*
X162988647Y-94033410D01*
X162988647Y-94033410D02*
X162893409Y-93985791D01*
X162893409Y-93985791D02*
X162798171Y-93985791D01*
X160941028Y-94319124D02*
X161702932Y-94604838D01*
X161702932Y-94604838D02*
X160941028Y-94890552D01*
X160607694Y-94319124D02*
X160226742Y-94319124D01*
X160464837Y-94985791D02*
X160464837Y-94128648D01*
X160464837Y-94128648D02*
X160417218Y-94033410D01*
X160417218Y-94033410D02*
X160321980Y-93985791D01*
X160321980Y-93985791D02*
X160226742Y-93985791D01*
X159893408Y-94985791D02*
X159893408Y-94319124D01*
X159893408Y-93985791D02*
X159941027Y-94033410D01*
X159941027Y-94033410D02*
X159893408Y-94081029D01*
X159893408Y-94081029D02*
X159845789Y-94033410D01*
X159845789Y-94033410D02*
X159893408Y-93985791D01*
X159893408Y-93985791D02*
X159893408Y-94081029D01*
X159274361Y-94985791D02*
X159369599Y-94938172D01*
X159369599Y-94938172D02*
X159417218Y-94842933D01*
X159417218Y-94842933D02*
X159417218Y-93985791D01*
X158512456Y-94938172D02*
X158607694Y-94985791D01*
X158607694Y-94985791D02*
X158798170Y-94985791D01*
X158798170Y-94985791D02*
X158893408Y-94938172D01*
X158893408Y-94938172D02*
X158941027Y-94842933D01*
X158941027Y-94842933D02*
X158941027Y-94461981D01*
X158941027Y-94461981D02*
X158893408Y-94366743D01*
X158893408Y-94366743D02*
X158798170Y-94319124D01*
X158798170Y-94319124D02*
X158607694Y-94319124D01*
X158607694Y-94319124D02*
X158512456Y-94366743D01*
X158512456Y-94366743D02*
X158464837Y-94461981D01*
X158464837Y-94461981D02*
X158464837Y-94557219D01*
X158464837Y-94557219D02*
X158941027Y-94652457D01*
X158036265Y-94319124D02*
X158036265Y-94985791D01*
X158036265Y-94414362D02*
X157988646Y-94366743D01*
X157988646Y-94366743D02*
X157893408Y-94319124D01*
X157893408Y-94319124D02*
X157750551Y-94319124D01*
X157750551Y-94319124D02*
X157655313Y-94366743D01*
X157655313Y-94366743D02*
X157607694Y-94461981D01*
X157607694Y-94461981D02*
X157607694Y-94985791D01*
X156702932Y-94985791D02*
X156702932Y-94461981D01*
X156702932Y-94461981D02*
X156750551Y-94366743D01*
X156750551Y-94366743D02*
X156845789Y-94319124D01*
X156845789Y-94319124D02*
X157036265Y-94319124D01*
X157036265Y-94319124D02*
X157131503Y-94366743D01*
X156702932Y-94938172D02*
X156798170Y-94985791D01*
X156798170Y-94985791D02*
X157036265Y-94985791D01*
X157036265Y-94985791D02*
X157131503Y-94938172D01*
X157131503Y-94938172D02*
X157179122Y-94842933D01*
X157179122Y-94842933D02*
X157179122Y-94747695D01*
X157179122Y-94747695D02*
X157131503Y-94652457D01*
X157131503Y-94652457D02*
X157036265Y-94604838D01*
X157036265Y-94604838D02*
X156798170Y-94604838D01*
X156798170Y-94604838D02*
X156702932Y-94557219D01*
X156226741Y-94985791D02*
X156226741Y-94319124D01*
X156226741Y-94414362D02*
X156179122Y-94366743D01*
X156179122Y-94366743D02*
X156083884Y-94319124D01*
X156083884Y-94319124D02*
X155941027Y-94319124D01*
X155941027Y-94319124D02*
X155845789Y-94366743D01*
X155845789Y-94366743D02*
X155798170Y-94461981D01*
X155798170Y-94461981D02*
X155798170Y-94985791D01*
X155798170Y-94461981D02*
X155750551Y-94366743D01*
X155750551Y-94366743D02*
X155655313Y-94319124D01*
X155655313Y-94319124D02*
X155512456Y-94319124D01*
X155512456Y-94319124D02*
X155417217Y-94366743D01*
X155417217Y-94366743D02*
X155369598Y-94461981D01*
X155369598Y-94461981D02*
X155369598Y-94985791D01*
X154512456Y-94938172D02*
X154607694Y-94985791D01*
X154607694Y-94985791D02*
X154798170Y-94985791D01*
X154798170Y-94985791D02*
X154893408Y-94938172D01*
X154893408Y-94938172D02*
X154941027Y-94842933D01*
X154941027Y-94842933D02*
X154941027Y-94461981D01*
X154941027Y-94461981D02*
X154893408Y-94366743D01*
X154893408Y-94366743D02*
X154798170Y-94319124D01*
X154798170Y-94319124D02*
X154607694Y-94319124D01*
X154607694Y-94319124D02*
X154512456Y-94366743D01*
X154512456Y-94366743D02*
X154464837Y-94461981D01*
X154464837Y-94461981D02*
X154464837Y-94557219D01*
X154464837Y-94557219D02*
X154941027Y-94652457D01*
X154036265Y-94319124D02*
X153274361Y-94604838D01*
X153274361Y-94604838D02*
X154036265Y-94890552D01*
X190560077Y-95595735D02*
X189988649Y-95595735D01*
X190274363Y-96595735D02*
X190274363Y-95595735D01*
X189512458Y-96595735D02*
X189607696Y-96548116D01*
X189607696Y-96548116D02*
X189655315Y-96500496D01*
X189655315Y-96500496D02*
X189702934Y-96405258D01*
X189702934Y-96405258D02*
X189702934Y-96119544D01*
X189702934Y-96119544D02*
X189655315Y-96024306D01*
X189655315Y-96024306D02*
X189607696Y-95976687D01*
X189607696Y-95976687D02*
X189512458Y-95929068D01*
X189512458Y-95929068D02*
X189369601Y-95929068D01*
X189369601Y-95929068D02*
X189274363Y-95976687D01*
X189274363Y-95976687D02*
X189226744Y-96024306D01*
X189226744Y-96024306D02*
X189179125Y-96119544D01*
X189179125Y-96119544D02*
X189179125Y-96405258D01*
X189179125Y-96405258D02*
X189226744Y-96500496D01*
X189226744Y-96500496D02*
X189274363Y-96548116D01*
X189274363Y-96548116D02*
X189369601Y-96595735D01*
X189369601Y-96595735D02*
X189512458Y-96595735D01*
X187988648Y-96595735D02*
X187988648Y-95595735D01*
X187988648Y-95976687D02*
X187893410Y-95929068D01*
X187893410Y-95929068D02*
X187702934Y-95929068D01*
X187702934Y-95929068D02*
X187607696Y-95976687D01*
X187607696Y-95976687D02*
X187560077Y-96024306D01*
X187560077Y-96024306D02*
X187512458Y-96119544D01*
X187512458Y-96119544D02*
X187512458Y-96405258D01*
X187512458Y-96405258D02*
X187560077Y-96500496D01*
X187560077Y-96500496D02*
X187607696Y-96548116D01*
X187607696Y-96548116D02*
X187702934Y-96595735D01*
X187702934Y-96595735D02*
X187893410Y-96595735D01*
X187893410Y-96595735D02*
X187988648Y-96548116D01*
X186941029Y-96595735D02*
X187036267Y-96548116D01*
X187036267Y-96548116D02*
X187083886Y-96500496D01*
X187083886Y-96500496D02*
X187131505Y-96405258D01*
X187131505Y-96405258D02*
X187131505Y-96119544D01*
X187131505Y-96119544D02*
X187083886Y-96024306D01*
X187083886Y-96024306D02*
X187036267Y-95976687D01*
X187036267Y-95976687D02*
X186941029Y-95929068D01*
X186941029Y-95929068D02*
X186798172Y-95929068D01*
X186798172Y-95929068D02*
X186702934Y-95976687D01*
X186702934Y-95976687D02*
X186655315Y-96024306D01*
X186655315Y-96024306D02*
X186607696Y-96119544D01*
X186607696Y-96119544D02*
X186607696Y-96405258D01*
X186607696Y-96405258D02*
X186655315Y-96500496D01*
X186655315Y-96500496D02*
X186702934Y-96548116D01*
X186702934Y-96548116D02*
X186798172Y-96595735D01*
X186798172Y-96595735D02*
X186941029Y-96595735D01*
X186036267Y-96595735D02*
X186131505Y-96548116D01*
X186131505Y-96548116D02*
X186179124Y-96500496D01*
X186179124Y-96500496D02*
X186226743Y-96405258D01*
X186226743Y-96405258D02*
X186226743Y-96119544D01*
X186226743Y-96119544D02*
X186179124Y-96024306D01*
X186179124Y-96024306D02*
X186131505Y-95976687D01*
X186131505Y-95976687D02*
X186036267Y-95929068D01*
X186036267Y-95929068D02*
X185893410Y-95929068D01*
X185893410Y-95929068D02*
X185798172Y-95976687D01*
X185798172Y-95976687D02*
X185750553Y-96024306D01*
X185750553Y-96024306D02*
X185702934Y-96119544D01*
X185702934Y-96119544D02*
X185702934Y-96405258D01*
X185702934Y-96405258D02*
X185750553Y-96500496D01*
X185750553Y-96500496D02*
X185798172Y-96548116D01*
X185798172Y-96548116D02*
X185893410Y-96595735D01*
X185893410Y-96595735D02*
X186036267Y-96595735D01*
X185417219Y-95929068D02*
X185036267Y-95929068D01*
X185274362Y-95595735D02*
X185274362Y-96452877D01*
X185274362Y-96452877D02*
X185226743Y-96548116D01*
X185226743Y-96548116D02*
X185131505Y-96595735D01*
X185131505Y-96595735D02*
X185036267Y-96595735D01*
X183369600Y-96595735D02*
X183702933Y-96119544D01*
X183941028Y-96595735D02*
X183941028Y-95595735D01*
X183941028Y-95595735D02*
X183560076Y-95595735D01*
X183560076Y-95595735D02*
X183464838Y-95643354D01*
X183464838Y-95643354D02*
X183417219Y-95690973D01*
X183417219Y-95690973D02*
X183369600Y-95786211D01*
X183369600Y-95786211D02*
X183369600Y-95929068D01*
X183369600Y-95929068D02*
X183417219Y-96024306D01*
X183417219Y-96024306D02*
X183464838Y-96071925D01*
X183464838Y-96071925D02*
X183560076Y-96119544D01*
X183560076Y-96119544D02*
X183941028Y-96119544D01*
X182750552Y-95595735D02*
X182560076Y-95595735D01*
X182560076Y-95595735D02*
X182464838Y-95643354D01*
X182464838Y-95643354D02*
X182369600Y-95738592D01*
X182369600Y-95738592D02*
X182321981Y-95929068D01*
X182321981Y-95929068D02*
X182321981Y-96262401D01*
X182321981Y-96262401D02*
X182369600Y-96452877D01*
X182369600Y-96452877D02*
X182464838Y-96548116D01*
X182464838Y-96548116D02*
X182560076Y-96595735D01*
X182560076Y-96595735D02*
X182750552Y-96595735D01*
X182750552Y-96595735D02*
X182845790Y-96548116D01*
X182845790Y-96548116D02*
X182941028Y-96452877D01*
X182941028Y-96452877D02*
X182988647Y-96262401D01*
X182988647Y-96262401D02*
X182988647Y-95929068D01*
X182988647Y-95929068D02*
X182941028Y-95738592D01*
X182941028Y-95738592D02*
X182845790Y-95643354D01*
X182845790Y-95643354D02*
X182750552Y-95595735D01*
X181893409Y-96595735D02*
X181893409Y-95595735D01*
X181893409Y-95595735D02*
X181560076Y-96310020D01*
X181560076Y-96310020D02*
X181226743Y-95595735D01*
X181226743Y-95595735D02*
X181226743Y-96595735D01*
X179464838Y-96595735D02*
X180036266Y-96595735D01*
X179750552Y-96595735D02*
X179750552Y-95595735D01*
X179750552Y-95595735D02*
X179845790Y-95738592D01*
X179845790Y-95738592D02*
X179941028Y-95833830D01*
X179941028Y-95833830D02*
X180036266Y-95881449D01*
X179036266Y-96500496D02*
X178988647Y-96548116D01*
X178988647Y-96548116D02*
X179036266Y-96595735D01*
X179036266Y-96595735D02*
X179083885Y-96548116D01*
X179083885Y-96548116D02*
X179036266Y-96500496D01*
X179036266Y-96500496D02*
X179036266Y-96595735D01*
X179036266Y-95976687D02*
X178988647Y-96024306D01*
X178988647Y-96024306D02*
X179036266Y-96071925D01*
X179036266Y-96071925D02*
X179083885Y-96024306D01*
X179083885Y-96024306D02*
X179036266Y-95976687D01*
X179036266Y-95976687D02*
X179036266Y-96071925D01*
X177226743Y-96500496D02*
X177274362Y-96548116D01*
X177274362Y-96548116D02*
X177417219Y-96595735D01*
X177417219Y-96595735D02*
X177512457Y-96595735D01*
X177512457Y-96595735D02*
X177655314Y-96548116D01*
X177655314Y-96548116D02*
X177750552Y-96452877D01*
X177750552Y-96452877D02*
X177798171Y-96357639D01*
X177798171Y-96357639D02*
X177845790Y-96167163D01*
X177845790Y-96167163D02*
X177845790Y-96024306D01*
X177845790Y-96024306D02*
X177798171Y-95833830D01*
X177798171Y-95833830D02*
X177750552Y-95738592D01*
X177750552Y-95738592D02*
X177655314Y-95643354D01*
X177655314Y-95643354D02*
X177512457Y-95595735D01*
X177512457Y-95595735D02*
X177417219Y-95595735D01*
X177417219Y-95595735D02*
X177274362Y-95643354D01*
X177274362Y-95643354D02*
X177226743Y-95690973D01*
X176655314Y-96595735D02*
X176750552Y-96548116D01*
X176750552Y-96548116D02*
X176798171Y-96452877D01*
X176798171Y-96452877D02*
X176798171Y-95595735D01*
X176131504Y-96595735D02*
X176226742Y-96548116D01*
X176226742Y-96548116D02*
X176274361Y-96500496D01*
X176274361Y-96500496D02*
X176321980Y-96405258D01*
X176321980Y-96405258D02*
X176321980Y-96119544D01*
X176321980Y-96119544D02*
X176274361Y-96024306D01*
X176274361Y-96024306D02*
X176226742Y-95976687D01*
X176226742Y-95976687D02*
X176131504Y-95929068D01*
X176131504Y-95929068D02*
X175988647Y-95929068D01*
X175988647Y-95929068D02*
X175893409Y-95976687D01*
X175893409Y-95976687D02*
X175845790Y-96024306D01*
X175845790Y-96024306D02*
X175798171Y-96119544D01*
X175798171Y-96119544D02*
X175798171Y-96405258D01*
X175798171Y-96405258D02*
X175845790Y-96500496D01*
X175845790Y-96500496D02*
X175893409Y-96548116D01*
X175893409Y-96548116D02*
X175988647Y-96595735D01*
X175988647Y-96595735D02*
X176131504Y-96595735D01*
X175417218Y-96548116D02*
X175321980Y-96595735D01*
X175321980Y-96595735D02*
X175131504Y-96595735D01*
X175131504Y-96595735D02*
X175036266Y-96548116D01*
X175036266Y-96548116D02*
X174988647Y-96452877D01*
X174988647Y-96452877D02*
X174988647Y-96405258D01*
X174988647Y-96405258D02*
X175036266Y-96310020D01*
X175036266Y-96310020D02*
X175131504Y-96262401D01*
X175131504Y-96262401D02*
X175274361Y-96262401D01*
X175274361Y-96262401D02*
X175369599Y-96214782D01*
X175369599Y-96214782D02*
X175417218Y-96119544D01*
X175417218Y-96119544D02*
X175417218Y-96071925D01*
X175417218Y-96071925D02*
X175369599Y-95976687D01*
X175369599Y-95976687D02*
X175274361Y-95929068D01*
X175274361Y-95929068D02*
X175131504Y-95929068D01*
X175131504Y-95929068D02*
X175036266Y-95976687D01*
X174179123Y-96548116D02*
X174274361Y-96595735D01*
X174274361Y-96595735D02*
X174464837Y-96595735D01*
X174464837Y-96595735D02*
X174560075Y-96548116D01*
X174560075Y-96548116D02*
X174607694Y-96452877D01*
X174607694Y-96452877D02*
X174607694Y-96071925D01*
X174607694Y-96071925D02*
X174560075Y-95976687D01*
X174560075Y-95976687D02*
X174464837Y-95929068D01*
X174464837Y-95929068D02*
X174274361Y-95929068D01*
X174274361Y-95929068D02*
X174179123Y-95976687D01*
X174179123Y-95976687D02*
X174131504Y-96071925D01*
X174131504Y-96071925D02*
X174131504Y-96167163D01*
X174131504Y-96167163D02*
X174607694Y-96262401D01*
X172941027Y-95929068D02*
X172941027Y-96786211D01*
X172941027Y-96786211D02*
X172988646Y-96881449D01*
X172988646Y-96881449D02*
X173083884Y-96929068D01*
X173083884Y-96929068D02*
X173131503Y-96929068D01*
X172941027Y-95595735D02*
X172988646Y-95643354D01*
X172988646Y-95643354D02*
X172941027Y-95690973D01*
X172941027Y-95690973D02*
X172893408Y-95643354D01*
X172893408Y-95643354D02*
X172941027Y-95595735D01*
X172941027Y-95595735D02*
X172941027Y-95690973D01*
X172036266Y-95929068D02*
X172036266Y-96595735D01*
X172464837Y-95929068D02*
X172464837Y-96452877D01*
X172464837Y-96452877D02*
X172417218Y-96548116D01*
X172417218Y-96548116D02*
X172321980Y-96595735D01*
X172321980Y-96595735D02*
X172179123Y-96595735D01*
X172179123Y-96595735D02*
X172083885Y-96548116D01*
X172083885Y-96548116D02*
X172036266Y-96500496D01*
X171560075Y-96595735D02*
X171560075Y-95929068D01*
X171560075Y-96024306D02*
X171512456Y-95976687D01*
X171512456Y-95976687D02*
X171417218Y-95929068D01*
X171417218Y-95929068D02*
X171274361Y-95929068D01*
X171274361Y-95929068D02*
X171179123Y-95976687D01*
X171179123Y-95976687D02*
X171131504Y-96071925D01*
X171131504Y-96071925D02*
X171131504Y-96595735D01*
X171131504Y-96071925D02*
X171083885Y-95976687D01*
X171083885Y-95976687D02*
X170988647Y-95929068D01*
X170988647Y-95929068D02*
X170845790Y-95929068D01*
X170845790Y-95929068D02*
X170750551Y-95976687D01*
X170750551Y-95976687D02*
X170702932Y-96071925D01*
X170702932Y-96071925D02*
X170702932Y-96595735D01*
X170226742Y-95929068D02*
X170226742Y-96929068D01*
X170226742Y-95976687D02*
X170131504Y-95929068D01*
X170131504Y-95929068D02*
X169941028Y-95929068D01*
X169941028Y-95929068D02*
X169845790Y-95976687D01*
X169845790Y-95976687D02*
X169798171Y-96024306D01*
X169798171Y-96024306D02*
X169750552Y-96119544D01*
X169750552Y-96119544D02*
X169750552Y-96405258D01*
X169750552Y-96405258D02*
X169798171Y-96500496D01*
X169798171Y-96500496D02*
X169845790Y-96548116D01*
X169845790Y-96548116D02*
X169941028Y-96595735D01*
X169941028Y-96595735D02*
X170131504Y-96595735D01*
X170131504Y-96595735D02*
X170226742Y-96548116D01*
X168941028Y-96548116D02*
X169036266Y-96595735D01*
X169036266Y-96595735D02*
X169226742Y-96595735D01*
X169226742Y-96595735D02*
X169321980Y-96548116D01*
X169321980Y-96548116D02*
X169369599Y-96452877D01*
X169369599Y-96452877D02*
X169369599Y-96071925D01*
X169369599Y-96071925D02*
X169321980Y-95976687D01*
X169321980Y-95976687D02*
X169226742Y-95929068D01*
X169226742Y-95929068D02*
X169036266Y-95929068D01*
X169036266Y-95929068D02*
X168941028Y-95976687D01*
X168941028Y-95976687D02*
X168893409Y-96071925D01*
X168893409Y-96071925D02*
X168893409Y-96167163D01*
X168893409Y-96167163D02*
X169369599Y-96262401D01*
X168464837Y-96595735D02*
X168464837Y-95929068D01*
X168464837Y-96119544D02*
X168417218Y-96024306D01*
X168417218Y-96024306D02*
X168369599Y-95976687D01*
X168369599Y-95976687D02*
X168274361Y-95929068D01*
X168274361Y-95929068D02*
X168179123Y-95929068D01*
X166369599Y-95548116D02*
X167226741Y-96833830D01*
X166083884Y-96548116D02*
X165941027Y-96595735D01*
X165941027Y-96595735D02*
X165702932Y-96595735D01*
X165702932Y-96595735D02*
X165607694Y-96548116D01*
X165607694Y-96548116D02*
X165560075Y-96500496D01*
X165560075Y-96500496D02*
X165512456Y-96405258D01*
X165512456Y-96405258D02*
X165512456Y-96310020D01*
X165512456Y-96310020D02*
X165560075Y-96214782D01*
X165560075Y-96214782D02*
X165607694Y-96167163D01*
X165607694Y-96167163D02*
X165702932Y-96119544D01*
X165702932Y-96119544D02*
X165893408Y-96071925D01*
X165893408Y-96071925D02*
X165988646Y-96024306D01*
X165988646Y-96024306D02*
X166036265Y-95976687D01*
X166036265Y-95976687D02*
X166083884Y-95881449D01*
X166083884Y-95881449D02*
X166083884Y-95786211D01*
X166083884Y-95786211D02*
X166036265Y-95690973D01*
X166036265Y-95690973D02*
X165988646Y-95643354D01*
X165988646Y-95643354D02*
X165893408Y-95595735D01*
X165893408Y-95595735D02*
X165655313Y-95595735D01*
X165655313Y-95595735D02*
X165512456Y-95643354D01*
X164607694Y-96595735D02*
X165083884Y-96595735D01*
X165083884Y-96595735D02*
X165083884Y-95595735D01*
X164417217Y-95595735D02*
X163845789Y-95595735D01*
X164131503Y-96595735D02*
X164131503Y-95595735D01*
X161941026Y-96595735D02*
X161988646Y-96595735D01*
X161988646Y-96595735D02*
X162083884Y-96548116D01*
X162083884Y-96548116D02*
X162226741Y-96405258D01*
X162226741Y-96405258D02*
X162464836Y-96119544D01*
X162464836Y-96119544D02*
X162560074Y-95976687D01*
X162560074Y-95976687D02*
X162607693Y-95833830D01*
X162607693Y-95833830D02*
X162607693Y-95738592D01*
X162607693Y-95738592D02*
X162560074Y-95643354D01*
X162560074Y-95643354D02*
X162464836Y-95595735D01*
X162464836Y-95595735D02*
X162417217Y-95595735D01*
X162417217Y-95595735D02*
X162321979Y-95643354D01*
X162321979Y-95643354D02*
X162274360Y-95738592D01*
X162274360Y-95738592D02*
X162274360Y-95786211D01*
X162274360Y-95786211D02*
X162321979Y-95881449D01*
X162321979Y-95881449D02*
X162369598Y-95929068D01*
X162369598Y-95929068D02*
X162655312Y-96119544D01*
X162655312Y-96119544D02*
X162702931Y-96167163D01*
X162702931Y-96167163D02*
X162750550Y-96262401D01*
X162750550Y-96262401D02*
X162750550Y-96405258D01*
X162750550Y-96405258D02*
X162702931Y-96500496D01*
X162702931Y-96500496D02*
X162655312Y-96548116D01*
X162655312Y-96548116D02*
X162560074Y-96595735D01*
X162560074Y-96595735D02*
X162417217Y-96595735D01*
X162417217Y-96595735D02*
X162321979Y-96548116D01*
X162321979Y-96548116D02*
X162274360Y-96500496D01*
X162274360Y-96500496D02*
X162131503Y-96310020D01*
X162131503Y-96310020D02*
X162083884Y-96167163D01*
X162083884Y-96167163D02*
X162083884Y-96071925D01*
X160798169Y-96310020D02*
X160321979Y-96310020D01*
X160893407Y-96595735D02*
X160560074Y-95595735D01*
X160560074Y-95595735D02*
X160226741Y-96595735D01*
X159369598Y-96595735D02*
X159941026Y-96595735D01*
X159655312Y-96595735D02*
X159655312Y-95595735D01*
X159655312Y-95595735D02*
X159750550Y-95738592D01*
X159750550Y-95738592D02*
X159845788Y-95833830D01*
X159845788Y-95833830D02*
X159941026Y-95881449D01*
X158464836Y-95595735D02*
X158941026Y-95595735D01*
X158941026Y-95595735D02*
X158988645Y-96071925D01*
X158988645Y-96071925D02*
X158941026Y-96024306D01*
X158941026Y-96024306D02*
X158845788Y-95976687D01*
X158845788Y-95976687D02*
X158607693Y-95976687D01*
X158607693Y-95976687D02*
X158512455Y-96024306D01*
X158512455Y-96024306D02*
X158464836Y-96071925D01*
X158464836Y-96071925D02*
X158417217Y-96167163D01*
X158417217Y-96167163D02*
X158417217Y-96405258D01*
X158417217Y-96405258D02*
X158464836Y-96500496D01*
X158464836Y-96500496D02*
X158512455Y-96548116D01*
X158512455Y-96548116D02*
X158607693Y-96595735D01*
X158607693Y-96595735D02*
X158845788Y-96595735D01*
X158845788Y-96595735D02*
X158941026Y-96548116D01*
X158941026Y-96548116D02*
X158988645Y-96500496D01*
X190560077Y-97205679D02*
X189988649Y-97205679D01*
X190274363Y-98205679D02*
X190274363Y-97205679D01*
X189512458Y-98205679D02*
X189607696Y-98158060D01*
X189607696Y-98158060D02*
X189655315Y-98110440D01*
X189655315Y-98110440D02*
X189702934Y-98015202D01*
X189702934Y-98015202D02*
X189702934Y-97729488D01*
X189702934Y-97729488D02*
X189655315Y-97634250D01*
X189655315Y-97634250D02*
X189607696Y-97586631D01*
X189607696Y-97586631D02*
X189512458Y-97539012D01*
X189512458Y-97539012D02*
X189369601Y-97539012D01*
X189369601Y-97539012D02*
X189274363Y-97586631D01*
X189274363Y-97586631D02*
X189226744Y-97634250D01*
X189226744Y-97634250D02*
X189179125Y-97729488D01*
X189179125Y-97729488D02*
X189179125Y-98015202D01*
X189179125Y-98015202D02*
X189226744Y-98110440D01*
X189226744Y-98110440D02*
X189274363Y-98158060D01*
X189274363Y-98158060D02*
X189369601Y-98205679D01*
X189369601Y-98205679D02*
X189512458Y-98205679D01*
X187988648Y-98205679D02*
X187988648Y-97205679D01*
X187988648Y-97586631D02*
X187893410Y-97539012D01*
X187893410Y-97539012D02*
X187702934Y-97539012D01*
X187702934Y-97539012D02*
X187607696Y-97586631D01*
X187607696Y-97586631D02*
X187560077Y-97634250D01*
X187560077Y-97634250D02*
X187512458Y-97729488D01*
X187512458Y-97729488D02*
X187512458Y-98015202D01*
X187512458Y-98015202D02*
X187560077Y-98110440D01*
X187560077Y-98110440D02*
X187607696Y-98158060D01*
X187607696Y-98158060D02*
X187702934Y-98205679D01*
X187702934Y-98205679D02*
X187893410Y-98205679D01*
X187893410Y-98205679D02*
X187988648Y-98158060D01*
X186941029Y-98205679D02*
X187036267Y-98158060D01*
X187036267Y-98158060D02*
X187083886Y-98110440D01*
X187083886Y-98110440D02*
X187131505Y-98015202D01*
X187131505Y-98015202D02*
X187131505Y-97729488D01*
X187131505Y-97729488D02*
X187083886Y-97634250D01*
X187083886Y-97634250D02*
X187036267Y-97586631D01*
X187036267Y-97586631D02*
X186941029Y-97539012D01*
X186941029Y-97539012D02*
X186798172Y-97539012D01*
X186798172Y-97539012D02*
X186702934Y-97586631D01*
X186702934Y-97586631D02*
X186655315Y-97634250D01*
X186655315Y-97634250D02*
X186607696Y-97729488D01*
X186607696Y-97729488D02*
X186607696Y-98015202D01*
X186607696Y-98015202D02*
X186655315Y-98110440D01*
X186655315Y-98110440D02*
X186702934Y-98158060D01*
X186702934Y-98158060D02*
X186798172Y-98205679D01*
X186798172Y-98205679D02*
X186941029Y-98205679D01*
X186036267Y-98205679D02*
X186131505Y-98158060D01*
X186131505Y-98158060D02*
X186179124Y-98110440D01*
X186179124Y-98110440D02*
X186226743Y-98015202D01*
X186226743Y-98015202D02*
X186226743Y-97729488D01*
X186226743Y-97729488D02*
X186179124Y-97634250D01*
X186179124Y-97634250D02*
X186131505Y-97586631D01*
X186131505Y-97586631D02*
X186036267Y-97539012D01*
X186036267Y-97539012D02*
X185893410Y-97539012D01*
X185893410Y-97539012D02*
X185798172Y-97586631D01*
X185798172Y-97586631D02*
X185750553Y-97634250D01*
X185750553Y-97634250D02*
X185702934Y-97729488D01*
X185702934Y-97729488D02*
X185702934Y-98015202D01*
X185702934Y-98015202D02*
X185750553Y-98110440D01*
X185750553Y-98110440D02*
X185798172Y-98158060D01*
X185798172Y-98158060D02*
X185893410Y-98205679D01*
X185893410Y-98205679D02*
X186036267Y-98205679D01*
X185417219Y-97539012D02*
X185036267Y-97539012D01*
X185274362Y-97205679D02*
X185274362Y-98062821D01*
X185274362Y-98062821D02*
X185226743Y-98158060D01*
X185226743Y-98158060D02*
X185131505Y-98205679D01*
X185131505Y-98205679D02*
X185036267Y-98205679D01*
X183369600Y-98205679D02*
X183702933Y-97729488D01*
X183941028Y-98205679D02*
X183941028Y-97205679D01*
X183941028Y-97205679D02*
X183560076Y-97205679D01*
X183560076Y-97205679D02*
X183464838Y-97253298D01*
X183464838Y-97253298D02*
X183417219Y-97300917D01*
X183417219Y-97300917D02*
X183369600Y-97396155D01*
X183369600Y-97396155D02*
X183369600Y-97539012D01*
X183369600Y-97539012D02*
X183417219Y-97634250D01*
X183417219Y-97634250D02*
X183464838Y-97681869D01*
X183464838Y-97681869D02*
X183560076Y-97729488D01*
X183560076Y-97729488D02*
X183941028Y-97729488D01*
X182750552Y-97205679D02*
X182560076Y-97205679D01*
X182560076Y-97205679D02*
X182464838Y-97253298D01*
X182464838Y-97253298D02*
X182369600Y-97348536D01*
X182369600Y-97348536D02*
X182321981Y-97539012D01*
X182321981Y-97539012D02*
X182321981Y-97872345D01*
X182321981Y-97872345D02*
X182369600Y-98062821D01*
X182369600Y-98062821D02*
X182464838Y-98158060D01*
X182464838Y-98158060D02*
X182560076Y-98205679D01*
X182560076Y-98205679D02*
X182750552Y-98205679D01*
X182750552Y-98205679D02*
X182845790Y-98158060D01*
X182845790Y-98158060D02*
X182941028Y-98062821D01*
X182941028Y-98062821D02*
X182988647Y-97872345D01*
X182988647Y-97872345D02*
X182988647Y-97539012D01*
X182988647Y-97539012D02*
X182941028Y-97348536D01*
X182941028Y-97348536D02*
X182845790Y-97253298D01*
X182845790Y-97253298D02*
X182750552Y-97205679D01*
X181893409Y-98205679D02*
X181893409Y-97205679D01*
X181893409Y-97205679D02*
X181560076Y-97919964D01*
X181560076Y-97919964D02*
X181226743Y-97205679D01*
X181226743Y-97205679D02*
X181226743Y-98205679D01*
X180036266Y-97300917D02*
X179988647Y-97253298D01*
X179988647Y-97253298D02*
X179893409Y-97205679D01*
X179893409Y-97205679D02*
X179655314Y-97205679D01*
X179655314Y-97205679D02*
X179560076Y-97253298D01*
X179560076Y-97253298D02*
X179512457Y-97300917D01*
X179512457Y-97300917D02*
X179464838Y-97396155D01*
X179464838Y-97396155D02*
X179464838Y-97491393D01*
X179464838Y-97491393D02*
X179512457Y-97634250D01*
X179512457Y-97634250D02*
X180083885Y-98205679D01*
X180083885Y-98205679D02*
X179464838Y-98205679D01*
X179036266Y-98110440D02*
X178988647Y-98158060D01*
X178988647Y-98158060D02*
X179036266Y-98205679D01*
X179036266Y-98205679D02*
X179083885Y-98158060D01*
X179083885Y-98158060D02*
X179036266Y-98110440D01*
X179036266Y-98110440D02*
X179036266Y-98205679D01*
X179036266Y-97586631D02*
X178988647Y-97634250D01*
X178988647Y-97634250D02*
X179036266Y-97681869D01*
X179036266Y-97681869D02*
X179083885Y-97634250D01*
X179083885Y-97634250D02*
X179036266Y-97586631D01*
X179036266Y-97586631D02*
X179036266Y-97681869D01*
X177226743Y-98110440D02*
X177274362Y-98158060D01*
X177274362Y-98158060D02*
X177417219Y-98205679D01*
X177417219Y-98205679D02*
X177512457Y-98205679D01*
X177512457Y-98205679D02*
X177655314Y-98158060D01*
X177655314Y-98158060D02*
X177750552Y-98062821D01*
X177750552Y-98062821D02*
X177798171Y-97967583D01*
X177798171Y-97967583D02*
X177845790Y-97777107D01*
X177845790Y-97777107D02*
X177845790Y-97634250D01*
X177845790Y-97634250D02*
X177798171Y-97443774D01*
X177798171Y-97443774D02*
X177750552Y-97348536D01*
X177750552Y-97348536D02*
X177655314Y-97253298D01*
X177655314Y-97253298D02*
X177512457Y-97205679D01*
X177512457Y-97205679D02*
X177417219Y-97205679D01*
X177417219Y-97205679D02*
X177274362Y-97253298D01*
X177274362Y-97253298D02*
X177226743Y-97300917D01*
X176655314Y-98205679D02*
X176750552Y-98158060D01*
X176750552Y-98158060D02*
X176798171Y-98062821D01*
X176798171Y-98062821D02*
X176798171Y-97205679D01*
X176131504Y-98205679D02*
X176226742Y-98158060D01*
X176226742Y-98158060D02*
X176274361Y-98110440D01*
X176274361Y-98110440D02*
X176321980Y-98015202D01*
X176321980Y-98015202D02*
X176321980Y-97729488D01*
X176321980Y-97729488D02*
X176274361Y-97634250D01*
X176274361Y-97634250D02*
X176226742Y-97586631D01*
X176226742Y-97586631D02*
X176131504Y-97539012D01*
X176131504Y-97539012D02*
X175988647Y-97539012D01*
X175988647Y-97539012D02*
X175893409Y-97586631D01*
X175893409Y-97586631D02*
X175845790Y-97634250D01*
X175845790Y-97634250D02*
X175798171Y-97729488D01*
X175798171Y-97729488D02*
X175798171Y-98015202D01*
X175798171Y-98015202D02*
X175845790Y-98110440D01*
X175845790Y-98110440D02*
X175893409Y-98158060D01*
X175893409Y-98158060D02*
X175988647Y-98205679D01*
X175988647Y-98205679D02*
X176131504Y-98205679D01*
X175417218Y-98158060D02*
X175321980Y-98205679D01*
X175321980Y-98205679D02*
X175131504Y-98205679D01*
X175131504Y-98205679D02*
X175036266Y-98158060D01*
X175036266Y-98158060D02*
X174988647Y-98062821D01*
X174988647Y-98062821D02*
X174988647Y-98015202D01*
X174988647Y-98015202D02*
X175036266Y-97919964D01*
X175036266Y-97919964D02*
X175131504Y-97872345D01*
X175131504Y-97872345D02*
X175274361Y-97872345D01*
X175274361Y-97872345D02*
X175369599Y-97824726D01*
X175369599Y-97824726D02*
X175417218Y-97729488D01*
X175417218Y-97729488D02*
X175417218Y-97681869D01*
X175417218Y-97681869D02*
X175369599Y-97586631D01*
X175369599Y-97586631D02*
X175274361Y-97539012D01*
X175274361Y-97539012D02*
X175131504Y-97539012D01*
X175131504Y-97539012D02*
X175036266Y-97586631D01*
X174179123Y-98158060D02*
X174274361Y-98205679D01*
X174274361Y-98205679D02*
X174464837Y-98205679D01*
X174464837Y-98205679D02*
X174560075Y-98158060D01*
X174560075Y-98158060D02*
X174607694Y-98062821D01*
X174607694Y-98062821D02*
X174607694Y-97681869D01*
X174607694Y-97681869D02*
X174560075Y-97586631D01*
X174560075Y-97586631D02*
X174464837Y-97539012D01*
X174464837Y-97539012D02*
X174274361Y-97539012D01*
X174274361Y-97539012D02*
X174179123Y-97586631D01*
X174179123Y-97586631D02*
X174131504Y-97681869D01*
X174131504Y-97681869D02*
X174131504Y-97777107D01*
X174131504Y-97777107D02*
X174607694Y-97872345D01*
X172941027Y-97539012D02*
X172941027Y-98396155D01*
X172941027Y-98396155D02*
X172988646Y-98491393D01*
X172988646Y-98491393D02*
X173083884Y-98539012D01*
X173083884Y-98539012D02*
X173131503Y-98539012D01*
X172941027Y-97205679D02*
X172988646Y-97253298D01*
X172988646Y-97253298D02*
X172941027Y-97300917D01*
X172941027Y-97300917D02*
X172893408Y-97253298D01*
X172893408Y-97253298D02*
X172941027Y-97205679D01*
X172941027Y-97205679D02*
X172941027Y-97300917D01*
X172036266Y-97539012D02*
X172036266Y-98205679D01*
X172464837Y-97539012D02*
X172464837Y-98062821D01*
X172464837Y-98062821D02*
X172417218Y-98158060D01*
X172417218Y-98158060D02*
X172321980Y-98205679D01*
X172321980Y-98205679D02*
X172179123Y-98205679D01*
X172179123Y-98205679D02*
X172083885Y-98158060D01*
X172083885Y-98158060D02*
X172036266Y-98110440D01*
X171560075Y-98205679D02*
X171560075Y-97539012D01*
X171560075Y-97634250D02*
X171512456Y-97586631D01*
X171512456Y-97586631D02*
X171417218Y-97539012D01*
X171417218Y-97539012D02*
X171274361Y-97539012D01*
X171274361Y-97539012D02*
X171179123Y-97586631D01*
X171179123Y-97586631D02*
X171131504Y-97681869D01*
X171131504Y-97681869D02*
X171131504Y-98205679D01*
X171131504Y-97681869D02*
X171083885Y-97586631D01*
X171083885Y-97586631D02*
X170988647Y-97539012D01*
X170988647Y-97539012D02*
X170845790Y-97539012D01*
X170845790Y-97539012D02*
X170750551Y-97586631D01*
X170750551Y-97586631D02*
X170702932Y-97681869D01*
X170702932Y-97681869D02*
X170702932Y-98205679D01*
X170226742Y-97539012D02*
X170226742Y-98539012D01*
X170226742Y-97586631D02*
X170131504Y-97539012D01*
X170131504Y-97539012D02*
X169941028Y-97539012D01*
X169941028Y-97539012D02*
X169845790Y-97586631D01*
X169845790Y-97586631D02*
X169798171Y-97634250D01*
X169798171Y-97634250D02*
X169750552Y-97729488D01*
X169750552Y-97729488D02*
X169750552Y-98015202D01*
X169750552Y-98015202D02*
X169798171Y-98110440D01*
X169798171Y-98110440D02*
X169845790Y-98158060D01*
X169845790Y-98158060D02*
X169941028Y-98205679D01*
X169941028Y-98205679D02*
X170131504Y-98205679D01*
X170131504Y-98205679D02*
X170226742Y-98158060D01*
X168941028Y-98158060D02*
X169036266Y-98205679D01*
X169036266Y-98205679D02*
X169226742Y-98205679D01*
X169226742Y-98205679D02*
X169321980Y-98158060D01*
X169321980Y-98158060D02*
X169369599Y-98062821D01*
X169369599Y-98062821D02*
X169369599Y-97681869D01*
X169369599Y-97681869D02*
X169321980Y-97586631D01*
X169321980Y-97586631D02*
X169226742Y-97539012D01*
X169226742Y-97539012D02*
X169036266Y-97539012D01*
X169036266Y-97539012D02*
X168941028Y-97586631D01*
X168941028Y-97586631D02*
X168893409Y-97681869D01*
X168893409Y-97681869D02*
X168893409Y-97777107D01*
X168893409Y-97777107D02*
X169369599Y-97872345D01*
X168464837Y-98205679D02*
X168464837Y-97539012D01*
X168464837Y-97729488D02*
X168417218Y-97634250D01*
X168417218Y-97634250D02*
X168369599Y-97586631D01*
X168369599Y-97586631D02*
X168274361Y-97539012D01*
X168274361Y-97539012D02*
X168179123Y-97539012D01*
X166369599Y-97158060D02*
X167226741Y-98443774D01*
X166083884Y-98158060D02*
X165941027Y-98205679D01*
X165941027Y-98205679D02*
X165702932Y-98205679D01*
X165702932Y-98205679D02*
X165607694Y-98158060D01*
X165607694Y-98158060D02*
X165560075Y-98110440D01*
X165560075Y-98110440D02*
X165512456Y-98015202D01*
X165512456Y-98015202D02*
X165512456Y-97919964D01*
X165512456Y-97919964D02*
X165560075Y-97824726D01*
X165560075Y-97824726D02*
X165607694Y-97777107D01*
X165607694Y-97777107D02*
X165702932Y-97729488D01*
X165702932Y-97729488D02*
X165893408Y-97681869D01*
X165893408Y-97681869D02*
X165988646Y-97634250D01*
X165988646Y-97634250D02*
X166036265Y-97586631D01*
X166036265Y-97586631D02*
X166083884Y-97491393D01*
X166083884Y-97491393D02*
X166083884Y-97396155D01*
X166083884Y-97396155D02*
X166036265Y-97300917D01*
X166036265Y-97300917D02*
X165988646Y-97253298D01*
X165988646Y-97253298D02*
X165893408Y-97205679D01*
X165893408Y-97205679D02*
X165655313Y-97205679D01*
X165655313Y-97205679D02*
X165512456Y-97253298D01*
X164607694Y-98205679D02*
X165083884Y-98205679D01*
X165083884Y-98205679D02*
X165083884Y-97205679D01*
X164417217Y-97205679D02*
X163845789Y-97205679D01*
X164131503Y-98205679D02*
X164131503Y-97205679D01*
X161941026Y-98205679D02*
X161988646Y-98205679D01*
X161988646Y-98205679D02*
X162083884Y-98158060D01*
X162083884Y-98158060D02*
X162226741Y-98015202D01*
X162226741Y-98015202D02*
X162464836Y-97729488D01*
X162464836Y-97729488D02*
X162560074Y-97586631D01*
X162560074Y-97586631D02*
X162607693Y-97443774D01*
X162607693Y-97443774D02*
X162607693Y-97348536D01*
X162607693Y-97348536D02*
X162560074Y-97253298D01*
X162560074Y-97253298D02*
X162464836Y-97205679D01*
X162464836Y-97205679D02*
X162417217Y-97205679D01*
X162417217Y-97205679D02*
X162321979Y-97253298D01*
X162321979Y-97253298D02*
X162274360Y-97348536D01*
X162274360Y-97348536D02*
X162274360Y-97396155D01*
X162274360Y-97396155D02*
X162321979Y-97491393D01*
X162321979Y-97491393D02*
X162369598Y-97539012D01*
X162369598Y-97539012D02*
X162655312Y-97729488D01*
X162655312Y-97729488D02*
X162702931Y-97777107D01*
X162702931Y-97777107D02*
X162750550Y-97872345D01*
X162750550Y-97872345D02*
X162750550Y-98015202D01*
X162750550Y-98015202D02*
X162702931Y-98110440D01*
X162702931Y-98110440D02*
X162655312Y-98158060D01*
X162655312Y-98158060D02*
X162560074Y-98205679D01*
X162560074Y-98205679D02*
X162417217Y-98205679D01*
X162417217Y-98205679D02*
X162321979Y-98158060D01*
X162321979Y-98158060D02*
X162274360Y-98110440D01*
X162274360Y-98110440D02*
X162131503Y-97919964D01*
X162131503Y-97919964D02*
X162083884Y-97777107D01*
X162083884Y-97777107D02*
X162083884Y-97681869D01*
X160798169Y-97919964D02*
X160321979Y-97919964D01*
X160893407Y-98205679D02*
X160560074Y-97205679D01*
X160560074Y-97205679D02*
X160226741Y-98205679D01*
X159369598Y-98205679D02*
X159941026Y-98205679D01*
X159655312Y-98205679D02*
X159655312Y-97205679D01*
X159655312Y-97205679D02*
X159750550Y-97348536D01*
X159750550Y-97348536D02*
X159845788Y-97443774D01*
X159845788Y-97443774D02*
X159941026Y-97491393D01*
X158512455Y-97539012D02*
X158512455Y-98205679D01*
X158750550Y-97158060D02*
X158988645Y-97872345D01*
X158988645Y-97872345D02*
X158369598Y-97872345D01*
D11*
X191621431Y-80373675D02*
X191621431Y-79373675D01*
X191621431Y-79849865D02*
X191050003Y-79849865D01*
X191050003Y-80373675D02*
X191050003Y-79373675D01*
X190430955Y-80373675D02*
X190526193Y-80326056D01*
X190526193Y-80326056D02*
X190573812Y-80278436D01*
X190573812Y-80278436D02*
X190621431Y-80183198D01*
X190621431Y-80183198D02*
X190621431Y-79897484D01*
X190621431Y-79897484D02*
X190573812Y-79802246D01*
X190573812Y-79802246D02*
X190526193Y-79754627D01*
X190526193Y-79754627D02*
X190430955Y-79707008D01*
X190430955Y-79707008D02*
X190288098Y-79707008D01*
X190288098Y-79707008D02*
X190192860Y-79754627D01*
X190192860Y-79754627D02*
X190145241Y-79802246D01*
X190145241Y-79802246D02*
X190097622Y-79897484D01*
X190097622Y-79897484D02*
X190097622Y-80183198D01*
X190097622Y-80183198D02*
X190145241Y-80278436D01*
X190145241Y-80278436D02*
X190192860Y-80326056D01*
X190192860Y-80326056D02*
X190288098Y-80373675D01*
X190288098Y-80373675D02*
X190430955Y-80373675D01*
X189764288Y-79707008D02*
X189573812Y-80373675D01*
X189573812Y-80373675D02*
X189383336Y-79897484D01*
X189383336Y-79897484D02*
X189192860Y-80373675D01*
X189192860Y-80373675D02*
X189002384Y-79707008D01*
X188002383Y-79707008D02*
X187621431Y-79707008D01*
X187859526Y-79373675D02*
X187859526Y-80230817D01*
X187859526Y-80230817D02*
X187811907Y-80326056D01*
X187811907Y-80326056D02*
X187716669Y-80373675D01*
X187716669Y-80373675D02*
X187621431Y-80373675D01*
X187145240Y-80373675D02*
X187240478Y-80326056D01*
X187240478Y-80326056D02*
X187288097Y-80278436D01*
X187288097Y-80278436D02*
X187335716Y-80183198D01*
X187335716Y-80183198D02*
X187335716Y-79897484D01*
X187335716Y-79897484D02*
X187288097Y-79802246D01*
X187288097Y-79802246D02*
X187240478Y-79754627D01*
X187240478Y-79754627D02*
X187145240Y-79707008D01*
X187145240Y-79707008D02*
X187002383Y-79707008D01*
X187002383Y-79707008D02*
X186907145Y-79754627D01*
X186907145Y-79754627D02*
X186859526Y-79802246D01*
X186859526Y-79802246D02*
X186811907Y-79897484D01*
X186811907Y-79897484D02*
X186811907Y-80183198D01*
X186811907Y-80183198D02*
X186859526Y-80278436D01*
X186859526Y-80278436D02*
X186907145Y-80326056D01*
X186907145Y-80326056D02*
X187002383Y-80373675D01*
X187002383Y-80373675D02*
X187145240Y-80373675D01*
X185716668Y-79373675D02*
X185478573Y-80373675D01*
X185478573Y-80373675D02*
X185288097Y-79659389D01*
X185288097Y-79659389D02*
X185097621Y-80373675D01*
X185097621Y-80373675D02*
X184859526Y-79373675D01*
X184478573Y-80373675D02*
X184478573Y-79707008D01*
X184478573Y-79897484D02*
X184430954Y-79802246D01*
X184430954Y-79802246D02*
X184383335Y-79754627D01*
X184383335Y-79754627D02*
X184288097Y-79707008D01*
X184288097Y-79707008D02*
X184192859Y-79707008D01*
X183859525Y-80373675D02*
X183859525Y-79707008D01*
X183859525Y-79373675D02*
X183907144Y-79421294D01*
X183907144Y-79421294D02*
X183859525Y-79468913D01*
X183859525Y-79468913D02*
X183811906Y-79421294D01*
X183811906Y-79421294D02*
X183859525Y-79373675D01*
X183859525Y-79373675D02*
X183859525Y-79468913D01*
X183526192Y-79707008D02*
X183145240Y-79707008D01*
X183383335Y-79373675D02*
X183383335Y-80230817D01*
X183383335Y-80230817D02*
X183335716Y-80326056D01*
X183335716Y-80326056D02*
X183240478Y-80373675D01*
X183240478Y-80373675D02*
X183145240Y-80373675D01*
X182430954Y-80326056D02*
X182526192Y-80373675D01*
X182526192Y-80373675D02*
X182716668Y-80373675D01*
X182716668Y-80373675D02*
X182811906Y-80326056D01*
X182811906Y-80326056D02*
X182859525Y-80230817D01*
X182859525Y-80230817D02*
X182859525Y-79849865D01*
X182859525Y-79849865D02*
X182811906Y-79754627D01*
X182811906Y-79754627D02*
X182716668Y-79707008D01*
X182716668Y-79707008D02*
X182526192Y-79707008D01*
X182526192Y-79707008D02*
X182430954Y-79754627D01*
X182430954Y-79754627D02*
X182383335Y-79849865D01*
X182383335Y-79849865D02*
X182383335Y-79945103D01*
X182383335Y-79945103D02*
X182859525Y-80040341D01*
X181335715Y-79707008D02*
X180954763Y-79707008D01*
X181192858Y-79373675D02*
X181192858Y-80230817D01*
X181192858Y-80230817D02*
X181145239Y-80326056D01*
X181145239Y-80326056D02*
X181050001Y-80373675D01*
X181050001Y-80373675D02*
X180954763Y-80373675D01*
X180621429Y-80373675D02*
X180621429Y-79373675D01*
X180192858Y-80373675D02*
X180192858Y-79849865D01*
X180192858Y-79849865D02*
X180240477Y-79754627D01*
X180240477Y-79754627D02*
X180335715Y-79707008D01*
X180335715Y-79707008D02*
X180478572Y-79707008D01*
X180478572Y-79707008D02*
X180573810Y-79754627D01*
X180573810Y-79754627D02*
X180621429Y-79802246D01*
X179335715Y-80326056D02*
X179430953Y-80373675D01*
X179430953Y-80373675D02*
X179621429Y-80373675D01*
X179621429Y-80373675D02*
X179716667Y-80326056D01*
X179716667Y-80326056D02*
X179764286Y-80230817D01*
X179764286Y-80230817D02*
X179764286Y-79849865D01*
X179764286Y-79849865D02*
X179716667Y-79754627D01*
X179716667Y-79754627D02*
X179621429Y-79707008D01*
X179621429Y-79707008D02*
X179430953Y-79707008D01*
X179430953Y-79707008D02*
X179335715Y-79754627D01*
X179335715Y-79754627D02*
X179288096Y-79849865D01*
X179288096Y-79849865D02*
X179288096Y-79945103D01*
X179288096Y-79945103D02*
X179764286Y-80040341D01*
X178097619Y-79849865D02*
X177764286Y-79849865D01*
X177621429Y-80373675D02*
X178097619Y-80373675D01*
X178097619Y-80373675D02*
X178097619Y-79373675D01*
X178097619Y-79373675D02*
X177621429Y-79373675D01*
X177192857Y-79849865D02*
X176859524Y-79849865D01*
X176716667Y-80373675D02*
X177192857Y-80373675D01*
X177192857Y-80373675D02*
X177192857Y-79373675D01*
X177192857Y-79373675D02*
X176716667Y-79373675D01*
X176288095Y-80373675D02*
X176288095Y-79373675D01*
X176288095Y-79373675D02*
X175907143Y-79373675D01*
X175907143Y-79373675D02*
X175811905Y-79421294D01*
X175811905Y-79421294D02*
X175764286Y-79468913D01*
X175764286Y-79468913D02*
X175716667Y-79564151D01*
X175716667Y-79564151D02*
X175716667Y-79707008D01*
X175716667Y-79707008D02*
X175764286Y-79802246D01*
X175764286Y-79802246D02*
X175811905Y-79849865D01*
X175811905Y-79849865D02*
X175907143Y-79897484D01*
X175907143Y-79897484D02*
X176288095Y-79897484D01*
X174716667Y-80373675D02*
X175050000Y-79897484D01*
X175288095Y-80373675D02*
X175288095Y-79373675D01*
X175288095Y-79373675D02*
X174907143Y-79373675D01*
X174907143Y-79373675D02*
X174811905Y-79421294D01*
X174811905Y-79421294D02*
X174764286Y-79468913D01*
X174764286Y-79468913D02*
X174716667Y-79564151D01*
X174716667Y-79564151D02*
X174716667Y-79707008D01*
X174716667Y-79707008D02*
X174764286Y-79802246D01*
X174764286Y-79802246D02*
X174811905Y-79849865D01*
X174811905Y-79849865D02*
X174907143Y-79897484D01*
X174907143Y-79897484D02*
X175288095Y-79897484D01*
X174097619Y-79373675D02*
X173907143Y-79373675D01*
X173907143Y-79373675D02*
X173811905Y-79421294D01*
X173811905Y-79421294D02*
X173716667Y-79516532D01*
X173716667Y-79516532D02*
X173669048Y-79707008D01*
X173669048Y-79707008D02*
X173669048Y-80040341D01*
X173669048Y-80040341D02*
X173716667Y-80230817D01*
X173716667Y-80230817D02*
X173811905Y-80326056D01*
X173811905Y-80326056D02*
X173907143Y-80373675D01*
X173907143Y-80373675D02*
X174097619Y-80373675D01*
X174097619Y-80373675D02*
X174192857Y-80326056D01*
X174192857Y-80326056D02*
X174288095Y-80230817D01*
X174288095Y-80230817D02*
X174335714Y-80040341D01*
X174335714Y-80040341D02*
X174335714Y-79707008D01*
X174335714Y-79707008D02*
X174288095Y-79516532D01*
X174288095Y-79516532D02*
X174192857Y-79421294D01*
X174192857Y-79421294D02*
X174097619Y-79373675D01*
X173240476Y-80373675D02*
X173240476Y-79373675D01*
X173240476Y-79373675D02*
X172907143Y-80087960D01*
X172907143Y-80087960D02*
X172573810Y-79373675D01*
X172573810Y-79373675D02*
X172573810Y-80373675D01*
X191621431Y-81459809D02*
X190859527Y-81459809D01*
X190859527Y-81745523D02*
X191621431Y-81745523D01*
X190383336Y-81459809D02*
X189621432Y-81459809D01*
X189621432Y-81745523D02*
X190383336Y-81745523D01*
X189145241Y-81459809D02*
X188383337Y-81459809D01*
X188383337Y-81745523D02*
X189145241Y-81745523D01*
X187907146Y-81459809D02*
X187145242Y-81459809D01*
X187145242Y-81745523D02*
X187907146Y-81745523D01*
X186669051Y-81459809D02*
X185907147Y-81459809D01*
X185907147Y-81745523D02*
X186669051Y-81745523D01*
X185430956Y-81459809D02*
X184669052Y-81459809D01*
X184669052Y-81745523D02*
X185430956Y-81745523D01*
X184192861Y-81459809D02*
X183430957Y-81459809D01*
X183430957Y-81745523D02*
X184192861Y-81745523D01*
X182954766Y-81459809D02*
X182192862Y-81459809D01*
X182192862Y-81745523D02*
X182954766Y-81745523D01*
X181716671Y-81459809D02*
X180954767Y-81459809D01*
X180954767Y-81745523D02*
X181716671Y-81745523D01*
X180478576Y-81459809D02*
X179716672Y-81459809D01*
X179716672Y-81745523D02*
X180478576Y-81745523D01*
X179240481Y-81459809D02*
X178478577Y-81459809D01*
X178478577Y-81745523D02*
X179240481Y-81745523D01*
X178002386Y-81459809D02*
X177240482Y-81459809D01*
X177240482Y-81745523D02*
X178002386Y-81745523D01*
X176764291Y-81459809D02*
X176002387Y-81459809D01*
X176002387Y-81745523D02*
X176764291Y-81745523D01*
X175526196Y-81459809D02*
X174764292Y-81459809D01*
X174764292Y-81745523D02*
X175526196Y-81745523D01*
X174288101Y-81459809D02*
X173526197Y-81459809D01*
X173526197Y-81745523D02*
X174288101Y-81745523D01*
X173050006Y-81459809D02*
X172288102Y-81459809D01*
X172288102Y-81745523D02*
X173050006Y-81745523D01*
X171811911Y-81459809D02*
X171050007Y-81459809D01*
X171050007Y-81745523D02*
X171811911Y-81745523D01*
X170573816Y-81459809D02*
X169811912Y-81459809D01*
X169811912Y-81745523D02*
X170573816Y-81745523D01*
X169335721Y-81459809D02*
X168573817Y-81459809D01*
X168573817Y-81745523D02*
X169335721Y-81745523D01*
X168097626Y-81459809D02*
X167335722Y-81459809D01*
X167335722Y-81745523D02*
X168097626Y-81745523D01*
X166859531Y-81459809D02*
X166097627Y-81459809D01*
X166097627Y-81745523D02*
X166859531Y-81745523D01*
X165621436Y-81459809D02*
X164859532Y-81459809D01*
X164859532Y-81745523D02*
X165621436Y-81745523D01*
X164383341Y-81459809D02*
X163621437Y-81459809D01*
X163621437Y-81745523D02*
X164383341Y-81745523D01*
X191764288Y-82593563D02*
X191192860Y-82593563D01*
X191478574Y-83593563D02*
X191478574Y-82593563D01*
X190859526Y-83593563D02*
X190859526Y-82593563D01*
X190430955Y-83593563D02*
X190430955Y-83069753D01*
X190430955Y-83069753D02*
X190478574Y-82974515D01*
X190478574Y-82974515D02*
X190573812Y-82926896D01*
X190573812Y-82926896D02*
X190716669Y-82926896D01*
X190716669Y-82926896D02*
X190811907Y-82974515D01*
X190811907Y-82974515D02*
X190859526Y-83022134D01*
X189573812Y-83545944D02*
X189669050Y-83593563D01*
X189669050Y-83593563D02*
X189859526Y-83593563D01*
X189859526Y-83593563D02*
X189954764Y-83545944D01*
X189954764Y-83545944D02*
X190002383Y-83450705D01*
X190002383Y-83450705D02*
X190002383Y-83069753D01*
X190002383Y-83069753D02*
X189954764Y-82974515D01*
X189954764Y-82974515D02*
X189859526Y-82926896D01*
X189859526Y-82926896D02*
X189669050Y-82926896D01*
X189669050Y-82926896D02*
X189573812Y-82974515D01*
X189573812Y-82974515D02*
X189526193Y-83069753D01*
X189526193Y-83069753D02*
X189526193Y-83164991D01*
X189526193Y-83164991D02*
X190002383Y-83260229D01*
X187764288Y-83593563D02*
X188097621Y-83117372D01*
X188335716Y-83593563D02*
X188335716Y-82593563D01*
X188335716Y-82593563D02*
X187954764Y-82593563D01*
X187954764Y-82593563D02*
X187859526Y-82641182D01*
X187859526Y-82641182D02*
X187811907Y-82688801D01*
X187811907Y-82688801D02*
X187764288Y-82784039D01*
X187764288Y-82784039D02*
X187764288Y-82926896D01*
X187764288Y-82926896D02*
X187811907Y-83022134D01*
X187811907Y-83022134D02*
X187859526Y-83069753D01*
X187859526Y-83069753D02*
X187954764Y-83117372D01*
X187954764Y-83117372D02*
X188335716Y-83117372D01*
X187145240Y-82593563D02*
X186954764Y-82593563D01*
X186954764Y-82593563D02*
X186859526Y-82641182D01*
X186859526Y-82641182D02*
X186764288Y-82736420D01*
X186764288Y-82736420D02*
X186716669Y-82926896D01*
X186716669Y-82926896D02*
X186716669Y-83260229D01*
X186716669Y-83260229D02*
X186764288Y-83450705D01*
X186764288Y-83450705D02*
X186859526Y-83545944D01*
X186859526Y-83545944D02*
X186954764Y-83593563D01*
X186954764Y-83593563D02*
X187145240Y-83593563D01*
X187145240Y-83593563D02*
X187240478Y-83545944D01*
X187240478Y-83545944D02*
X187335716Y-83450705D01*
X187335716Y-83450705D02*
X187383335Y-83260229D01*
X187383335Y-83260229D02*
X187383335Y-82926896D01*
X187383335Y-82926896D02*
X187335716Y-82736420D01*
X187335716Y-82736420D02*
X187240478Y-82641182D01*
X187240478Y-82641182D02*
X187145240Y-82593563D01*
X186288097Y-83593563D02*
X186288097Y-82593563D01*
X186288097Y-82593563D02*
X185954764Y-83307848D01*
X185954764Y-83307848D02*
X185621431Y-82593563D01*
X185621431Y-82593563D02*
X185621431Y-83593563D01*
X184526192Y-82926896D02*
X184145240Y-82926896D01*
X184383335Y-83593563D02*
X184383335Y-82736420D01*
X184383335Y-82736420D02*
X184335716Y-82641182D01*
X184335716Y-82641182D02*
X184240478Y-82593563D01*
X184240478Y-82593563D02*
X184145240Y-82593563D01*
X183811906Y-83593563D02*
X183811906Y-82926896D01*
X183811906Y-82593563D02*
X183859525Y-82641182D01*
X183859525Y-82641182D02*
X183811906Y-82688801D01*
X183811906Y-82688801D02*
X183764287Y-82641182D01*
X183764287Y-82641182D02*
X183811906Y-82593563D01*
X183811906Y-82593563D02*
X183811906Y-82688801D01*
X183192859Y-83593563D02*
X183288097Y-83545944D01*
X183288097Y-83545944D02*
X183335716Y-83450705D01*
X183335716Y-83450705D02*
X183335716Y-82593563D01*
X182430954Y-83545944D02*
X182526192Y-83593563D01*
X182526192Y-83593563D02*
X182716668Y-83593563D01*
X182716668Y-83593563D02*
X182811906Y-83545944D01*
X182811906Y-83545944D02*
X182859525Y-83450705D01*
X182859525Y-83450705D02*
X182859525Y-83069753D01*
X182859525Y-83069753D02*
X182811906Y-82974515D01*
X182811906Y-82974515D02*
X182716668Y-82926896D01*
X182716668Y-82926896D02*
X182526192Y-82926896D01*
X182526192Y-82926896D02*
X182430954Y-82974515D01*
X182430954Y-82974515D02*
X182383335Y-83069753D01*
X182383335Y-83069753D02*
X182383335Y-83164991D01*
X182383335Y-83164991D02*
X182859525Y-83260229D01*
X181192858Y-83593563D02*
X181192858Y-82926896D01*
X181192858Y-83022134D02*
X181145239Y-82974515D01*
X181145239Y-82974515D02*
X181050001Y-82926896D01*
X181050001Y-82926896D02*
X180907144Y-82926896D01*
X180907144Y-82926896D02*
X180811906Y-82974515D01*
X180811906Y-82974515D02*
X180764287Y-83069753D01*
X180764287Y-83069753D02*
X180764287Y-83593563D01*
X180764287Y-83069753D02*
X180716668Y-82974515D01*
X180716668Y-82974515D02*
X180621430Y-82926896D01*
X180621430Y-82926896D02*
X180478573Y-82926896D01*
X180478573Y-82926896D02*
X180383334Y-82974515D01*
X180383334Y-82974515D02*
X180335715Y-83069753D01*
X180335715Y-83069753D02*
X180335715Y-83593563D01*
X179430954Y-83593563D02*
X179430954Y-83069753D01*
X179430954Y-83069753D02*
X179478573Y-82974515D01*
X179478573Y-82974515D02*
X179573811Y-82926896D01*
X179573811Y-82926896D02*
X179764287Y-82926896D01*
X179764287Y-82926896D02*
X179859525Y-82974515D01*
X179430954Y-83545944D02*
X179526192Y-83593563D01*
X179526192Y-83593563D02*
X179764287Y-83593563D01*
X179764287Y-83593563D02*
X179859525Y-83545944D01*
X179859525Y-83545944D02*
X179907144Y-83450705D01*
X179907144Y-83450705D02*
X179907144Y-83355467D01*
X179907144Y-83355467D02*
X179859525Y-83260229D01*
X179859525Y-83260229D02*
X179764287Y-83212610D01*
X179764287Y-83212610D02*
X179526192Y-83212610D01*
X179526192Y-83212610D02*
X179430954Y-83164991D01*
X179050001Y-82926896D02*
X178811906Y-83593563D01*
X178573811Y-82926896D02*
X178811906Y-83593563D01*
X178811906Y-83593563D02*
X178907144Y-83831658D01*
X178907144Y-83831658D02*
X178954763Y-83879277D01*
X178954763Y-83879277D02*
X179050001Y-83926896D01*
X177430953Y-83593563D02*
X177430953Y-82593563D01*
X177430953Y-82974515D02*
X177335715Y-82926896D01*
X177335715Y-82926896D02*
X177145239Y-82926896D01*
X177145239Y-82926896D02*
X177050001Y-82974515D01*
X177050001Y-82974515D02*
X177002382Y-83022134D01*
X177002382Y-83022134D02*
X176954763Y-83117372D01*
X176954763Y-83117372D02*
X176954763Y-83403086D01*
X176954763Y-83403086D02*
X177002382Y-83498324D01*
X177002382Y-83498324D02*
X177050001Y-83545944D01*
X177050001Y-83545944D02*
X177145239Y-83593563D01*
X177145239Y-83593563D02*
X177335715Y-83593563D01*
X177335715Y-83593563D02*
X177430953Y-83545944D01*
X176145239Y-83545944D02*
X176240477Y-83593563D01*
X176240477Y-83593563D02*
X176430953Y-83593563D01*
X176430953Y-83593563D02*
X176526191Y-83545944D01*
X176526191Y-83545944D02*
X176573810Y-83450705D01*
X176573810Y-83450705D02*
X176573810Y-83069753D01*
X176573810Y-83069753D02*
X176526191Y-82974515D01*
X176526191Y-82974515D02*
X176430953Y-82926896D01*
X176430953Y-82926896D02*
X176240477Y-82926896D01*
X176240477Y-82926896D02*
X176145239Y-82974515D01*
X176145239Y-82974515D02*
X176097620Y-83069753D01*
X176097620Y-83069753D02*
X176097620Y-83164991D01*
X176097620Y-83164991D02*
X176573810Y-83260229D01*
X174764286Y-83022134D02*
X174859524Y-82974515D01*
X174859524Y-82974515D02*
X174907143Y-82926896D01*
X174907143Y-82926896D02*
X174954762Y-82831658D01*
X174954762Y-82831658D02*
X174954762Y-82784039D01*
X174954762Y-82784039D02*
X174907143Y-82688801D01*
X174907143Y-82688801D02*
X174859524Y-82641182D01*
X174859524Y-82641182D02*
X174764286Y-82593563D01*
X174764286Y-82593563D02*
X174573810Y-82593563D01*
X174573810Y-82593563D02*
X174478572Y-82641182D01*
X174478572Y-82641182D02*
X174430953Y-82688801D01*
X174430953Y-82688801D02*
X174383334Y-82784039D01*
X174383334Y-82784039D02*
X174383334Y-82831658D01*
X174383334Y-82831658D02*
X174430953Y-82926896D01*
X174430953Y-82926896D02*
X174478572Y-82974515D01*
X174478572Y-82974515D02*
X174573810Y-83022134D01*
X174573810Y-83022134D02*
X174764286Y-83022134D01*
X174764286Y-83022134D02*
X174859524Y-83069753D01*
X174859524Y-83069753D02*
X174907143Y-83117372D01*
X174907143Y-83117372D02*
X174954762Y-83212610D01*
X174954762Y-83212610D02*
X174954762Y-83403086D01*
X174954762Y-83403086D02*
X174907143Y-83498324D01*
X174907143Y-83498324D02*
X174859524Y-83545944D01*
X174859524Y-83545944D02*
X174764286Y-83593563D01*
X174764286Y-83593563D02*
X174573810Y-83593563D01*
X174573810Y-83593563D02*
X174478572Y-83545944D01*
X174478572Y-83545944D02*
X174430953Y-83498324D01*
X174430953Y-83498324D02*
X174383334Y-83403086D01*
X174383334Y-83403086D02*
X174383334Y-83212610D01*
X174383334Y-83212610D02*
X174430953Y-83117372D01*
X174430953Y-83117372D02*
X174478572Y-83069753D01*
X174478572Y-83069753D02*
X174573810Y-83022134D01*
X173240477Y-82545944D02*
X174097619Y-83831658D01*
X172383334Y-83593563D02*
X172954762Y-83593563D01*
X172669048Y-83593563D02*
X172669048Y-82593563D01*
X172669048Y-82593563D02*
X172764286Y-82736420D01*
X172764286Y-82736420D02*
X172859524Y-82831658D01*
X172859524Y-82831658D02*
X172954762Y-82879277D01*
X171526191Y-82593563D02*
X171716667Y-82593563D01*
X171716667Y-82593563D02*
X171811905Y-82641182D01*
X171811905Y-82641182D02*
X171859524Y-82688801D01*
X171859524Y-82688801D02*
X171954762Y-82831658D01*
X171954762Y-82831658D02*
X172002381Y-83022134D01*
X172002381Y-83022134D02*
X172002381Y-83403086D01*
X172002381Y-83403086D02*
X171954762Y-83498324D01*
X171954762Y-83498324D02*
X171907143Y-83545944D01*
X171907143Y-83545944D02*
X171811905Y-83593563D01*
X171811905Y-83593563D02*
X171621429Y-83593563D01*
X171621429Y-83593563D02*
X171526191Y-83545944D01*
X171526191Y-83545944D02*
X171478572Y-83498324D01*
X171478572Y-83498324D02*
X171430953Y-83403086D01*
X171430953Y-83403086D02*
X171430953Y-83164991D01*
X171430953Y-83164991D02*
X171478572Y-83069753D01*
X171478572Y-83069753D02*
X171526191Y-83022134D01*
X171526191Y-83022134D02*
X171621429Y-82974515D01*
X171621429Y-82974515D02*
X171811905Y-82974515D01*
X171811905Y-82974515D02*
X171907143Y-83022134D01*
X171907143Y-83022134D02*
X171954762Y-83069753D01*
X171954762Y-83069753D02*
X172002381Y-83164991D01*
X170288096Y-82545944D02*
X171145238Y-83831658D01*
X170050000Y-82593563D02*
X169430953Y-82593563D01*
X169430953Y-82593563D02*
X169764286Y-82974515D01*
X169764286Y-82974515D02*
X169621429Y-82974515D01*
X169621429Y-82974515D02*
X169526191Y-83022134D01*
X169526191Y-83022134D02*
X169478572Y-83069753D01*
X169478572Y-83069753D02*
X169430953Y-83164991D01*
X169430953Y-83164991D02*
X169430953Y-83403086D01*
X169430953Y-83403086D02*
X169478572Y-83498324D01*
X169478572Y-83498324D02*
X169526191Y-83545944D01*
X169526191Y-83545944D02*
X169621429Y-83593563D01*
X169621429Y-83593563D02*
X169907143Y-83593563D01*
X169907143Y-83593563D02*
X170002381Y-83545944D01*
X170002381Y-83545944D02*
X170050000Y-83498324D01*
X169050000Y-82688801D02*
X169002381Y-82641182D01*
X169002381Y-82641182D02*
X168907143Y-82593563D01*
X168907143Y-82593563D02*
X168669048Y-82593563D01*
X168669048Y-82593563D02*
X168573810Y-82641182D01*
X168573810Y-82641182D02*
X168526191Y-82688801D01*
X168526191Y-82688801D02*
X168478572Y-82784039D01*
X168478572Y-82784039D02*
X168478572Y-82879277D01*
X168478572Y-82879277D02*
X168526191Y-83022134D01*
X168526191Y-83022134D02*
X169097619Y-83593563D01*
X169097619Y-83593563D02*
X168478572Y-83593563D01*
X168050000Y-83593563D02*
X168050000Y-82593563D01*
X167478572Y-83593563D02*
X167907143Y-83022134D01*
X167478572Y-82593563D02*
X168050000Y-83164991D01*
X166716667Y-83069753D02*
X166573810Y-83117372D01*
X166573810Y-83117372D02*
X166526191Y-83164991D01*
X166526191Y-83164991D02*
X166478572Y-83260229D01*
X166478572Y-83260229D02*
X166478572Y-83403086D01*
X166478572Y-83403086D02*
X166526191Y-83498324D01*
X166526191Y-83498324D02*
X166573810Y-83545944D01*
X166573810Y-83545944D02*
X166669048Y-83593563D01*
X166669048Y-83593563D02*
X167050000Y-83593563D01*
X167050000Y-83593563D02*
X167050000Y-82593563D01*
X167050000Y-82593563D02*
X166716667Y-82593563D01*
X166716667Y-82593563D02*
X166621429Y-82641182D01*
X166621429Y-82641182D02*
X166573810Y-82688801D01*
X166573810Y-82688801D02*
X166526191Y-82784039D01*
X166526191Y-82784039D02*
X166526191Y-82879277D01*
X166526191Y-82879277D02*
X166573810Y-82974515D01*
X166573810Y-82974515D02*
X166621429Y-83022134D01*
X166621429Y-83022134D02*
X166716667Y-83069753D01*
X166716667Y-83069753D02*
X167050000Y-83069753D01*
X166050000Y-83498324D02*
X166002381Y-83545944D01*
X166002381Y-83545944D02*
X166050000Y-83593563D01*
X166050000Y-83593563D02*
X166097619Y-83545944D01*
X166097619Y-83545944D02*
X166050000Y-83498324D01*
X166050000Y-83498324D02*
X166050000Y-83593563D01*
D12*
%TO.C,G\u002A\u002A\u002A*%
G36*
X125456914Y-101295643D02*
G01*
X125351081Y-101401477D01*
X125245247Y-101295643D01*
X125351081Y-101189810D01*
X125456914Y-101295643D01*
G37*
G36*
X140956028Y-94861399D02*
G01*
X141073302Y-95156292D01*
X141120247Y-95686477D01*
X141125645Y-95876265D01*
X141199368Y-96345363D01*
X141331914Y-96533143D01*
X141360181Y-96535046D01*
X141525490Y-96720815D01*
X141495353Y-97093391D01*
X141278997Y-97486526D01*
X141075566Y-97703343D01*
X140868665Y-97755096D01*
X140575962Y-97500762D01*
X140513442Y-97431656D01*
X140311699Y-97041350D01*
X140297197Y-96687412D01*
X140485247Y-96533143D01*
X140532695Y-96511554D01*
X140649969Y-96216661D01*
X140696914Y-95686477D01*
X140702312Y-95496688D01*
X140776035Y-95027590D01*
X140908581Y-94839810D01*
X140956028Y-94861399D01*
G37*
G36*
X131383581Y-97712429D02*
G01*
X131336420Y-97937417D01*
X131081200Y-98347429D01*
X130867662Y-98509090D01*
X130446200Y-98649810D01*
X130286041Y-98676136D01*
X130113581Y-98861477D01*
X130119732Y-98912070D01*
X130325247Y-99073143D01*
X130375841Y-99079294D01*
X130536914Y-99284810D01*
X130457532Y-99407836D01*
X130113581Y-99496477D01*
X129867529Y-99536167D01*
X129690247Y-99708143D01*
X129690199Y-99710777D01*
X129501102Y-99858499D01*
X129055247Y-99919810D01*
X128720097Y-99900356D01*
X128472696Y-99734580D01*
X128420247Y-99284810D01*
X128406548Y-98998087D01*
X128264236Y-98715271D01*
X127875962Y-98649810D01*
X127371688Y-98543239D01*
X126913323Y-98224703D01*
X126726914Y-97803143D01*
X126787560Y-97602305D01*
X127052435Y-97235718D01*
X127226556Y-97082297D01*
X127458006Y-97061369D01*
X127765179Y-97356670D01*
X128110680Y-97653549D01*
X128497992Y-97803143D01*
X128704537Y-97756925D01*
X129361807Y-97756925D01*
X129473386Y-97782415D01*
X129717871Y-97585347D01*
X129897553Y-97401545D01*
X130041501Y-97538560D01*
X130172330Y-97719918D01*
X130413365Y-97793786D01*
X130536914Y-97609115D01*
X130517442Y-97528350D01*
X130272331Y-97307730D01*
X130131611Y-97189415D01*
X130319118Y-96984100D01*
X130466242Y-96843259D01*
X130490696Y-96628036D01*
X130455298Y-96611954D01*
X130181300Y-96723373D01*
X129786460Y-97052689D01*
X129684919Y-97159013D01*
X129404420Y-97534965D01*
X129361807Y-97756925D01*
X128704537Y-97756925D01*
X128729232Y-97751399D01*
X128829107Y-97535657D01*
X128578997Y-97307730D01*
X128438277Y-97189415D01*
X128625784Y-96984100D01*
X128767100Y-96836550D01*
X128755556Y-96597569D01*
X128666263Y-96549867D01*
X128479464Y-96691893D01*
X128324103Y-96919752D01*
X128103354Y-96895264D01*
X127996914Y-96550782D01*
X127953772Y-96314026D01*
X127732331Y-96050594D01*
X127628620Y-95987538D01*
X127655476Y-95768371D01*
X127752312Y-95708202D01*
X127937698Y-95845227D01*
X128055405Y-95989584D01*
X128437886Y-96109810D01*
X128590766Y-96078448D01*
X128817391Y-95818093D01*
X128823961Y-95459225D01*
X128578997Y-95203927D01*
X128475286Y-95140871D01*
X128502142Y-94921705D01*
X128598979Y-94861536D01*
X128784365Y-94998560D01*
X128902072Y-95142917D01*
X129284553Y-95263143D01*
X129577432Y-95330130D01*
X129678262Y-95537923D01*
X129425664Y-95745693D01*
X129326969Y-95805660D01*
X129331340Y-96021785D01*
X129461202Y-96069964D01*
X129717871Y-95892013D01*
X129897553Y-95708212D01*
X130041501Y-95845227D01*
X130178016Y-96045684D01*
X130418339Y-96070988D01*
X130536914Y-95764221D01*
X130423199Y-95435800D01*
X130090441Y-95031408D01*
X129872892Y-94827636D01*
X129771755Y-94586430D01*
X129969489Y-94318664D01*
X130203208Y-94130013D01*
X130536914Y-93993143D01*
X130908484Y-94137775D01*
X131246227Y-94570074D01*
X131383581Y-95142191D01*
X131399563Y-95387953D01*
X131565594Y-95630367D01*
X132018581Y-95686477D01*
X132353731Y-95705930D01*
X132601133Y-95871706D01*
X132653581Y-96321477D01*
X132653565Y-96329377D01*
X132590532Y-96772545D01*
X132441914Y-96956477D01*
X132318888Y-97035858D01*
X132230247Y-97379810D01*
X132190557Y-97625862D01*
X132018581Y-97803143D01*
X131967987Y-97796992D01*
X131806914Y-97591477D01*
X131800763Y-97540883D01*
X131595247Y-97379810D01*
X131493328Y-97421179D01*
X131422511Y-97609115D01*
X131383581Y-97712429D01*
G37*
G36*
X144930247Y-87008143D02*
G01*
X144936077Y-87185231D01*
X145039932Y-87792303D01*
X145232628Y-88187429D01*
X145506400Y-88427226D01*
X145712203Y-88410496D01*
X145884931Y-88013560D01*
X146042323Y-87537310D01*
X146136007Y-88013560D01*
X146160118Y-88115962D01*
X146340783Y-88441383D01*
X146533678Y-88429057D01*
X146623581Y-88066477D01*
X146663272Y-87820424D01*
X146835247Y-87643143D01*
X146953811Y-87712369D01*
X147046914Y-88043831D01*
X147095117Y-88277295D01*
X147353635Y-88562218D01*
X147533262Y-88587970D01*
X147542655Y-88373197D01*
X147520569Y-88214384D01*
X147713710Y-88066477D01*
X147829340Y-88029734D01*
X147937900Y-87745018D01*
X147927166Y-87119715D01*
X147921605Y-86702250D01*
X147923672Y-86692820D01*
X148316914Y-86692820D01*
X148373357Y-87021847D01*
X148581497Y-87308004D01*
X148737158Y-87415941D01*
X148581497Y-87554949D01*
X148438940Y-87685834D01*
X148316914Y-88084115D01*
X148354186Y-88313327D01*
X148528581Y-88489810D01*
X148651607Y-88410428D01*
X148740247Y-88066477D01*
X148779938Y-87820424D01*
X148951914Y-87643143D01*
X149099992Y-87467896D01*
X149163581Y-87032830D01*
X149075114Y-86558876D01*
X148740247Y-86311813D01*
X148682522Y-86297894D01*
X148392324Y-86335380D01*
X148316914Y-86692820D01*
X147923672Y-86692820D01*
X148068684Y-86031344D01*
X148381406Y-85627394D01*
X148804960Y-85542523D01*
X149284533Y-85828857D01*
X149330027Y-85885468D01*
X149481702Y-86287532D01*
X149567886Y-86850327D01*
X149572565Y-87032830D01*
X149582754Y-87430191D01*
X149520483Y-87883461D01*
X149375247Y-88066477D01*
X149241925Y-88170839D01*
X149156849Y-88542727D01*
X149155547Y-88582542D01*
X149039312Y-89018977D01*
X149009531Y-89130796D01*
X148698935Y-89576110D01*
X148461779Y-89694637D01*
X148331377Y-89759810D01*
X148114081Y-89825466D01*
X147738301Y-90096519D01*
X147717940Y-90117073D01*
X147525070Y-90404626D01*
X147672570Y-90600702D01*
X147722074Y-90634988D01*
X147783667Y-90818143D01*
X147792276Y-90843744D01*
X147531979Y-91179745D01*
X147231057Y-91532187D01*
X146940587Y-91998479D01*
X146853373Y-92186092D01*
X146754561Y-92256668D01*
X146677452Y-91929393D01*
X146653663Y-91823166D01*
X146482194Y-91511726D01*
X146290841Y-91480840D01*
X146200247Y-91770643D01*
X146176367Y-91916702D01*
X145988581Y-92088143D01*
X145891208Y-92052323D01*
X145776914Y-91770643D01*
X145735429Y-91579699D01*
X145466903Y-91431907D01*
X144877331Y-91442074D01*
X144569646Y-91411876D01*
X144574804Y-91197585D01*
X144934369Y-90818143D01*
X145353581Y-90818143D01*
X145432963Y-90941169D01*
X145776914Y-91029810D01*
X146022966Y-90990119D01*
X146200247Y-90818143D01*
X146623581Y-90818143D01*
X146702963Y-90941169D01*
X147046914Y-91029810D01*
X147292966Y-90990119D01*
X147470247Y-90818143D01*
X147390866Y-90695117D01*
X147046914Y-90606477D01*
X146800862Y-90646167D01*
X146623581Y-90818143D01*
X146200247Y-90818143D01*
X146120866Y-90695117D01*
X145776914Y-90606477D01*
X145530862Y-90646167D01*
X145353581Y-90818143D01*
X144934369Y-90818143D01*
X144953387Y-90798074D01*
X145170936Y-90594302D01*
X145272074Y-90353096D01*
X145074339Y-90085330D01*
X144830255Y-89900478D01*
X144416200Y-89759810D01*
X144256041Y-89733484D01*
X144167990Y-89638857D01*
X145353581Y-89638857D01*
X145357787Y-89725988D01*
X145545717Y-90107767D01*
X145923917Y-90187181D01*
X146369581Y-89929143D01*
X146561105Y-89781882D01*
X146623581Y-89929143D01*
X146703272Y-90077032D01*
X147046914Y-90183143D01*
X147325766Y-90064689D01*
X147473611Y-89694637D01*
X147412438Y-89211269D01*
X147294155Y-89018977D01*
X148528581Y-89018977D01*
X148634414Y-89124810D01*
X148740247Y-89018977D01*
X148634414Y-88913143D01*
X148528581Y-89018977D01*
X147294155Y-89018977D01*
X147133539Y-88757863D01*
X147053683Y-88680486D01*
X146800608Y-88536805D01*
X146604372Y-88720065D01*
X146412305Y-88913142D01*
X146219456Y-88720065D01*
X145978516Y-88580123D01*
X145689972Y-88740252D01*
X145452339Y-89124277D01*
X145353581Y-89638857D01*
X144167990Y-89638857D01*
X144083581Y-89548143D01*
X144004199Y-89425117D01*
X143660247Y-89336477D01*
X143414195Y-89296786D01*
X143236914Y-89124810D01*
X143262760Y-89037443D01*
X143525062Y-88913143D01*
X143702370Y-88814323D01*
X143712525Y-88386443D01*
X143606771Y-88057738D01*
X143463330Y-87951528D01*
X143376564Y-87942451D01*
X143286518Y-87670746D01*
X143260882Y-87192711D01*
X143272459Y-87008143D01*
X143660247Y-87008143D01*
X143660264Y-87016043D01*
X143723296Y-87459212D01*
X143871914Y-87643143D01*
X143994940Y-87722525D01*
X144083581Y-88066477D01*
X144123272Y-88312529D01*
X144295247Y-88489810D01*
X144404483Y-88446186D01*
X144501470Y-88168644D01*
X144443632Y-87804653D01*
X144242331Y-87554949D01*
X144086670Y-87447012D01*
X144242331Y-87308004D01*
X144371956Y-87218642D01*
X144514851Y-86877721D01*
X144407790Y-86531488D01*
X144083581Y-86373143D01*
X143974302Y-86379694D01*
X143726774Y-86543343D01*
X143660247Y-87008143D01*
X143272459Y-87008143D01*
X143295540Y-86640171D01*
X143386377Y-86144950D01*
X143529278Y-85838874D01*
X143658721Y-85724248D01*
X144131004Y-85545767D01*
X144537690Y-85731418D01*
X144822774Y-86234458D01*
X144912130Y-86877721D01*
X144930247Y-87008143D01*
G37*
G36*
X114500249Y-112608423D02*
G01*
X114447551Y-112661120D01*
X114394854Y-112608423D01*
X114447551Y-112555726D01*
X114500249Y-112608423D01*
G37*
G36*
X114500249Y-114505519D02*
G01*
X114447551Y-114558216D01*
X114394854Y-114505519D01*
X114447551Y-114452822D01*
X114500249Y-114505519D01*
G37*
G36*
X114605643Y-114294730D02*
G01*
X114552946Y-114347427D01*
X114500249Y-114294730D01*
X114552946Y-114242033D01*
X114605643Y-114294730D01*
G37*
G36*
X114711037Y-113030000D02*
G01*
X114658340Y-113082697D01*
X114605643Y-113030000D01*
X114658340Y-112977303D01*
X114711037Y-113030000D01*
G37*
G36*
X114816431Y-114610913D02*
G01*
X114763734Y-114663610D01*
X114711037Y-114610913D01*
X114763734Y-114558216D01*
X114816431Y-114610913D01*
G37*
G36*
X114921825Y-113135394D02*
G01*
X114869128Y-113188091D01*
X114816431Y-113135394D01*
X114869128Y-113082697D01*
X114921825Y-113135394D01*
G37*
G36*
X114921825Y-114400124D02*
G01*
X114869128Y-114452822D01*
X114816431Y-114400124D01*
X114869128Y-114347427D01*
X114921825Y-114400124D01*
G37*
G36*
X115132614Y-113451577D02*
G01*
X115079917Y-113504274D01*
X115027220Y-113451577D01*
X115079917Y-113398880D01*
X115132614Y-113451577D01*
G37*
G36*
X115343402Y-113135394D02*
G01*
X115290705Y-113188091D01*
X115238008Y-113135394D01*
X115290705Y-113082697D01*
X115343402Y-113135394D01*
G37*
G36*
X115343402Y-113451577D02*
G01*
X115290705Y-113504274D01*
X115238008Y-113451577D01*
X115290705Y-113398880D01*
X115343402Y-113451577D01*
G37*
G36*
X115448796Y-113978548D02*
G01*
X115396099Y-114031245D01*
X115343402Y-113978548D01*
X115396099Y-113925851D01*
X115448796Y-113978548D01*
G37*
G36*
X115659585Y-113451577D02*
G01*
X115606888Y-113504274D01*
X115554190Y-113451577D01*
X115606888Y-113398880D01*
X115659585Y-113451577D01*
G37*
G36*
X115659585Y-113873154D02*
G01*
X115606888Y-113925851D01*
X115554190Y-113873154D01*
X115606888Y-113820456D01*
X115659585Y-113873154D01*
G37*
G36*
X115659585Y-114927095D02*
G01*
X115606888Y-114979793D01*
X115554190Y-114927095D01*
X115606888Y-114874398D01*
X115659585Y-114927095D01*
G37*
G36*
X115764979Y-114294730D02*
G01*
X115712282Y-114347427D01*
X115659585Y-114294730D01*
X115712282Y-114242033D01*
X115764979Y-114294730D01*
G37*
G36*
X115870373Y-112713817D02*
G01*
X115817676Y-112766515D01*
X115764979Y-112713817D01*
X115817676Y-112661120D01*
X115870373Y-112713817D01*
G37*
G36*
X114781300Y-113539405D02*
G01*
X114797788Y-113571106D01*
X114711037Y-113609668D01*
X114655242Y-113602062D01*
X114640774Y-113539405D01*
X114656222Y-113526792D01*
X114781300Y-113539405D01*
G37*
G36*
X114781300Y-115014924D02*
G01*
X114797788Y-115046625D01*
X114711037Y-115085187D01*
X114655242Y-115077581D01*
X114640774Y-115014924D01*
X114656222Y-115002310D01*
X114781300Y-115014924D01*
G37*
G36*
X114921825Y-113925851D02*
G01*
X114914219Y-113981646D01*
X114851563Y-113996113D01*
X114838949Y-113980666D01*
X114851563Y-113855588D01*
X114883263Y-113839099D01*
X114921825Y-113925851D01*
G37*
G36*
X115468558Y-114275431D02*
G01*
X115517341Y-114313367D01*
X115404882Y-114339107D01*
X115297985Y-114331655D01*
X115266552Y-114283752D01*
X115303839Y-114262867D01*
X115468558Y-114275431D01*
G37*
G36*
X115554190Y-113082697D02*
G01*
X115546584Y-113138492D01*
X115483928Y-113152960D01*
X115471314Y-113137513D01*
X115483928Y-113012434D01*
X115515628Y-112995946D01*
X115554190Y-113082697D01*
G37*
G36*
X115624453Y-114487953D02*
G01*
X115640942Y-114519654D01*
X115554190Y-114558216D01*
X115498395Y-114550610D01*
X115483928Y-114487953D01*
X115499375Y-114475339D01*
X115624453Y-114487953D01*
G37*
G36*
X115862052Y-114602130D02*
G01*
X115854600Y-114709027D01*
X115806697Y-114740460D01*
X115785812Y-114703173D01*
X115798377Y-114538454D01*
X115836313Y-114489671D01*
X115862052Y-114602130D01*
G37*
G36*
X115251452Y-114795353D02*
G01*
X115218595Y-114836158D01*
X115078487Y-114971548D01*
X115027220Y-114940000D01*
X115065693Y-114885574D01*
X115211659Y-114755561D01*
X115288024Y-114696685D01*
X115342601Y-114670514D01*
X115251452Y-114795353D01*
G37*
G36*
X107228049Y-89262585D02*
G01*
X107228049Y-89263093D01*
X107158210Y-89492257D01*
X106990912Y-89735204D01*
X106752682Y-89915801D01*
X106511848Y-89994923D01*
X106327638Y-89954627D01*
X106056858Y-89777766D01*
X105840794Y-89523964D01*
X105803574Y-89414173D01*
X106174108Y-89414173D01*
X106178506Y-89550690D01*
X106230044Y-89737476D01*
X106358547Y-89786572D01*
X106566790Y-89724161D01*
X106743829Y-89491440D01*
X106806473Y-89109967D01*
X106805219Y-89038239D01*
X106760550Y-88806398D01*
X106640853Y-88736639D01*
X106415769Y-88809942D01*
X106239131Y-89048655D01*
X106174108Y-89414173D01*
X105803574Y-89414173D01*
X105752531Y-89263610D01*
X105798115Y-89085862D01*
X105980715Y-88823451D01*
X106235793Y-88612427D01*
X106490290Y-88525851D01*
X106668409Y-88571664D01*
X106930607Y-88754191D01*
X107141511Y-89008821D01*
X107176004Y-89109967D01*
X107228049Y-89262585D01*
G37*
G36*
X110600664Y-89262585D02*
G01*
X110600663Y-89263093D01*
X110530824Y-89492257D01*
X110363527Y-89735204D01*
X110125296Y-89915801D01*
X109884462Y-89994923D01*
X109700252Y-89954627D01*
X109429472Y-89777766D01*
X109213408Y-89523964D01*
X109176188Y-89414173D01*
X109546722Y-89414173D01*
X109551121Y-89550690D01*
X109602658Y-89737476D01*
X109731161Y-89786572D01*
X109939404Y-89724161D01*
X110116443Y-89491440D01*
X110179087Y-89109967D01*
X110177833Y-89038239D01*
X110133164Y-88806398D01*
X110013467Y-88736639D01*
X109788383Y-88809942D01*
X109611745Y-89048655D01*
X109546722Y-89414173D01*
X109176188Y-89414173D01*
X109125145Y-89263610D01*
X109170729Y-89085862D01*
X109353329Y-88823451D01*
X109608407Y-88612427D01*
X109862904Y-88525851D01*
X110041023Y-88571664D01*
X110303221Y-88754191D01*
X110514125Y-89008821D01*
X110548618Y-89109967D01*
X110600664Y-89262585D01*
G37*
G36*
X107228049Y-94321507D02*
G01*
X107228049Y-94322014D01*
X107158210Y-94551178D01*
X106990912Y-94794125D01*
X106752682Y-94974723D01*
X106511848Y-95053844D01*
X106327638Y-95013548D01*
X106056858Y-94836688D01*
X105840794Y-94582885D01*
X105803574Y-94473094D01*
X106174108Y-94473094D01*
X106178506Y-94609611D01*
X106230044Y-94796397D01*
X106358547Y-94845493D01*
X106566790Y-94783082D01*
X106743829Y-94550362D01*
X106806473Y-94168888D01*
X106805219Y-94097160D01*
X106760550Y-93865319D01*
X106640853Y-93795560D01*
X106415769Y-93868863D01*
X106239131Y-94107576D01*
X106174108Y-94473094D01*
X105803574Y-94473094D01*
X105752531Y-94322531D01*
X105752878Y-94310744D01*
X105833028Y-94082651D01*
X106011226Y-93843467D01*
X106024951Y-93830037D01*
X106266899Y-93656365D01*
X106490290Y-93584772D01*
X106668409Y-93630585D01*
X106930607Y-93813113D01*
X107141511Y-94067742D01*
X107176003Y-94168888D01*
X107228049Y-94321507D01*
G37*
G36*
X110600664Y-94321507D02*
G01*
X110600663Y-94322014D01*
X110530824Y-94551178D01*
X110363527Y-94794125D01*
X110125296Y-94974723D01*
X109884462Y-95053844D01*
X109700252Y-95013548D01*
X109429472Y-94836688D01*
X109213408Y-94582885D01*
X109176188Y-94473094D01*
X109546722Y-94473094D01*
X109551121Y-94609611D01*
X109602658Y-94796397D01*
X109731161Y-94845493D01*
X109939404Y-94783082D01*
X110116443Y-94550362D01*
X110179087Y-94168888D01*
X110177833Y-94097160D01*
X110133164Y-93865319D01*
X110013467Y-93795560D01*
X109788383Y-93868863D01*
X109611745Y-94107576D01*
X109546722Y-94473094D01*
X109176188Y-94473094D01*
X109125145Y-94322531D01*
X109125492Y-94310744D01*
X109205642Y-94082651D01*
X109383840Y-93843467D01*
X109397565Y-93830037D01*
X109639513Y-93656365D01*
X109862904Y-93584772D01*
X110041023Y-93630585D01*
X110303221Y-93813113D01*
X110514125Y-94067742D01*
X110548618Y-94168888D01*
X110600664Y-94321507D01*
G37*
G36*
X112199110Y-89154595D02*
G01*
X111955095Y-89309730D01*
X111609436Y-89369004D01*
X111554881Y-89369640D01*
X111325924Y-89389722D01*
X111233029Y-89429229D01*
X111233609Y-89440614D01*
X111335690Y-89599267D01*
X111554530Y-89733809D01*
X111805169Y-89790581D01*
X111985763Y-89817559D01*
X112076182Y-89895975D01*
X112017937Y-89981397D01*
X111824559Y-90014828D01*
X111558400Y-89979520D01*
X111285062Y-89885470D01*
X111070147Y-89742674D01*
X110969351Y-89619239D01*
X110831651Y-89287040D01*
X110826552Y-88947427D01*
X111233029Y-88947427D01*
X111236291Y-89001840D01*
X111317775Y-89125091D01*
X111549211Y-89158216D01*
X111630830Y-89156041D01*
X111815706Y-89101718D01*
X111865394Y-88947427D01*
X111862132Y-88893015D01*
X111780647Y-88769764D01*
X111549211Y-88736639D01*
X111467592Y-88738814D01*
X111282716Y-88793137D01*
X111233029Y-88947427D01*
X110826552Y-88947427D01*
X110826537Y-88946449D01*
X110962015Y-88676414D01*
X111041166Y-88615093D01*
X111317377Y-88526317D01*
X111644667Y-88528377D01*
X111958432Y-88608058D01*
X112194069Y-88752147D01*
X112286971Y-88947427D01*
X112199110Y-89154595D01*
G37*
G36*
X112199110Y-94213516D02*
G01*
X111955095Y-94368651D01*
X111609436Y-94427925D01*
X111554881Y-94428561D01*
X111325924Y-94448643D01*
X111233029Y-94488151D01*
X111233609Y-94499535D01*
X111335690Y-94658188D01*
X111554530Y-94792730D01*
X111805169Y-94849502D01*
X111985763Y-94876480D01*
X112076182Y-94954896D01*
X112017937Y-95040318D01*
X111824559Y-95073749D01*
X111558400Y-95038441D01*
X111285062Y-94944391D01*
X111070147Y-94801596D01*
X110969351Y-94678160D01*
X110831651Y-94345961D01*
X110826552Y-94006349D01*
X111233029Y-94006349D01*
X111236291Y-94060761D01*
X111317775Y-94184012D01*
X111549211Y-94217137D01*
X111630830Y-94214962D01*
X111815706Y-94160639D01*
X111865394Y-94006349D01*
X111862132Y-93951936D01*
X111780647Y-93828685D01*
X111549211Y-93795560D01*
X111467592Y-93797735D01*
X111282716Y-93852058D01*
X111233029Y-94006349D01*
X110826552Y-94006349D01*
X110826537Y-94005370D01*
X110962015Y-93735335D01*
X111041166Y-93674015D01*
X111317377Y-93585238D01*
X111644667Y-93587298D01*
X111958432Y-93666980D01*
X112194069Y-93811068D01*
X112286971Y-94006349D01*
X112199110Y-94213516D01*
G37*
G36*
X108356785Y-88537046D02*
G01*
X108607569Y-88575106D01*
X108703568Y-88631245D01*
X108703544Y-88632556D01*
X108609388Y-88706111D01*
X108387386Y-88736639D01*
X108336597Y-88737352D01*
X108117731Y-88778118D01*
X108099715Y-88882714D01*
X108281991Y-89052822D01*
X108322512Y-89082912D01*
X108474436Y-89242972D01*
X108425985Y-89337776D01*
X108176597Y-89369004D01*
X108094978Y-89371179D01*
X107910102Y-89425502D01*
X107860415Y-89579793D01*
X107863676Y-89634205D01*
X107945161Y-89757456D01*
X108176597Y-89790581D01*
X108180531Y-89790573D01*
X108401195Y-89759187D01*
X108492780Y-89685187D01*
X108532306Y-89623929D01*
X108703568Y-89579793D01*
X108844887Y-89591905D01*
X108902299Y-89669150D01*
X108782614Y-89843717D01*
X108720648Y-89892374D01*
X108461108Y-89973079D01*
X108125750Y-89993411D01*
X107805029Y-89952832D01*
X107589401Y-89850806D01*
X107474492Y-89698034D01*
X107470746Y-89484152D01*
X107665753Y-89249624D01*
X107892667Y-89052822D01*
X107665753Y-88856019D01*
X107510014Y-88702652D01*
X107438838Y-88592534D01*
X107508508Y-88562198D01*
X107737650Y-88535949D01*
X108071203Y-88525851D01*
X108356785Y-88537046D01*
G37*
G36*
X108356785Y-93595967D02*
G01*
X108607569Y-93634027D01*
X108703568Y-93690166D01*
X108703544Y-93691477D01*
X108609388Y-93765032D01*
X108387386Y-93795560D01*
X108336597Y-93796273D01*
X108117731Y-93837039D01*
X108099715Y-93941635D01*
X108281991Y-94111743D01*
X108322512Y-94141833D01*
X108474436Y-94301893D01*
X108425985Y-94396697D01*
X108176597Y-94427925D01*
X108094978Y-94430100D01*
X107910102Y-94484423D01*
X107860415Y-94638714D01*
X107863676Y-94693126D01*
X107945161Y-94816377D01*
X108176597Y-94849502D01*
X108180531Y-94849494D01*
X108401195Y-94818109D01*
X108492780Y-94744108D01*
X108532306Y-94682850D01*
X108703568Y-94638714D01*
X108844887Y-94650826D01*
X108902299Y-94728071D01*
X108782614Y-94902639D01*
X108720648Y-94951295D01*
X108461108Y-95032000D01*
X108125750Y-95052332D01*
X107805029Y-95011754D01*
X107589401Y-94909727D01*
X107474492Y-94756955D01*
X107470746Y-94543073D01*
X107665753Y-94308545D01*
X107892667Y-94111743D01*
X107665753Y-93914941D01*
X107510014Y-93761573D01*
X107438838Y-93651455D01*
X107508508Y-93621119D01*
X107737650Y-93594871D01*
X108071203Y-93584772D01*
X108356785Y-93595967D01*
G37*
G36*
X113415706Y-88537046D02*
G01*
X113666490Y-88575106D01*
X113762489Y-88631245D01*
X113762465Y-88632556D01*
X113668309Y-88706111D01*
X113446307Y-88736639D01*
X113395518Y-88737352D01*
X113176652Y-88778118D01*
X113158637Y-88882714D01*
X113340912Y-89052822D01*
X113381433Y-89082912D01*
X113533358Y-89242972D01*
X113484906Y-89337776D01*
X113235518Y-89369004D01*
X113153899Y-89371179D01*
X112969023Y-89425502D01*
X112919336Y-89579793D01*
X112922598Y-89634205D01*
X113004082Y-89757456D01*
X113235518Y-89790581D01*
X113239452Y-89790573D01*
X113460117Y-89759187D01*
X113551701Y-89685187D01*
X113591227Y-89623929D01*
X113762489Y-89579793D01*
X113903808Y-89591905D01*
X113961220Y-89669150D01*
X113841535Y-89843717D01*
X113779569Y-89892374D01*
X113520029Y-89973079D01*
X113184671Y-89993411D01*
X112863950Y-89952832D01*
X112648322Y-89850806D01*
X112533414Y-89698034D01*
X112529667Y-89484152D01*
X112724674Y-89249624D01*
X112951588Y-89052822D01*
X112724674Y-88856019D01*
X112568935Y-88702652D01*
X112497759Y-88592534D01*
X112567429Y-88562198D01*
X112796572Y-88535949D01*
X113130124Y-88525851D01*
X113415706Y-88537046D01*
G37*
G36*
X113415706Y-93595967D02*
G01*
X113666490Y-93634027D01*
X113762489Y-93690166D01*
X113762465Y-93691477D01*
X113668309Y-93765032D01*
X113446307Y-93795560D01*
X113395518Y-93796273D01*
X113176652Y-93837039D01*
X113158637Y-93941635D01*
X113340912Y-94111743D01*
X113381433Y-94141833D01*
X113533358Y-94301893D01*
X113484906Y-94396697D01*
X113235518Y-94427925D01*
X113153899Y-94430100D01*
X112969023Y-94484423D01*
X112919336Y-94638714D01*
X112922598Y-94693126D01*
X113004082Y-94816377D01*
X113235518Y-94849502D01*
X113239452Y-94849494D01*
X113460117Y-94818109D01*
X113551701Y-94744108D01*
X113591227Y-94682850D01*
X113762489Y-94638714D01*
X113903808Y-94650826D01*
X113961220Y-94728071D01*
X113841535Y-94902639D01*
X113779569Y-94951295D01*
X113520029Y-95032000D01*
X113184671Y-95052332D01*
X112863950Y-95011754D01*
X112648322Y-94909727D01*
X112533414Y-94756955D01*
X112529667Y-94543073D01*
X112724674Y-94308545D01*
X112951588Y-94111743D01*
X112724674Y-93914941D01*
X112568935Y-93761573D01*
X112497759Y-93651455D01*
X112567429Y-93621119D01*
X112796572Y-93594871D01*
X113130124Y-93584772D01*
X113415706Y-93595967D01*
G37*
G36*
X108814847Y-102632583D02*
G01*
X108893594Y-102579064D01*
X108914356Y-102332490D01*
X108914365Y-102328556D01*
X108945750Y-102107891D01*
X109019751Y-102016307D01*
X109029179Y-102019117D01*
X109079167Y-102148489D01*
X109112819Y-102441910D01*
X109125145Y-102859461D01*
X109124512Y-102978644D01*
X109113414Y-103347598D01*
X109091344Y-103605547D01*
X109062036Y-103702614D01*
X109040151Y-103694436D01*
X108902309Y-103584233D01*
X108703568Y-103386432D01*
X108558462Y-103236324D01*
X108387330Y-103096909D01*
X108303942Y-103114006D01*
X108281991Y-103281037D01*
X108247349Y-103417301D01*
X108071203Y-103491826D01*
X107948687Y-103472063D01*
X107860415Y-103386432D01*
X107857352Y-103361240D01*
X107755020Y-103281037D01*
X107693763Y-103320564D01*
X107649626Y-103491826D01*
X107629863Y-103614341D01*
X107544232Y-103702614D01*
X107482974Y-103663088D01*
X107438838Y-103491826D01*
X107419075Y-103369310D01*
X107333444Y-103281037D01*
X107308252Y-103284100D01*
X107228049Y-103386432D01*
X107188523Y-103447689D01*
X107017261Y-103491826D01*
X106880998Y-103457183D01*
X106806473Y-103281037D01*
X106800101Y-103168799D01*
X106746739Y-103085508D01*
X106617106Y-103155860D01*
X106384896Y-103386432D01*
X106316593Y-103457803D01*
X106131271Y-103632644D01*
X106026428Y-103702614D01*
X106017507Y-103694156D01*
X105989892Y-103545888D01*
X105970584Y-103251030D01*
X105963319Y-102859461D01*
X105963670Y-102784034D01*
X105979842Y-102384132D01*
X106016520Y-102114916D01*
X106068713Y-102016307D01*
X106070025Y-102016331D01*
X106143579Y-102110488D01*
X106174108Y-102332490D01*
X106174145Y-102348701D01*
X106197091Y-102585817D01*
X106279188Y-102630591D01*
X106352507Y-102572053D01*
X107236808Y-102572053D01*
X107324661Y-102648672D01*
X107366495Y-102638517D01*
X107482752Y-102516929D01*
X107536497Y-102439422D01*
X107605712Y-102516929D01*
X107636765Y-102567514D01*
X107763803Y-102648672D01*
X107794595Y-102643640D01*
X107857561Y-102535682D01*
X107823437Y-102347448D01*
X107702323Y-102159342D01*
X107661092Y-102119534D01*
X107530293Y-102055123D01*
X107386141Y-102159342D01*
X107349569Y-102200313D01*
X107248478Y-102395799D01*
X107236808Y-102572053D01*
X106352507Y-102572053D01*
X106445121Y-102498109D01*
X106476465Y-102457414D01*
X106562413Y-102210009D01*
X106595684Y-101865744D01*
X106600841Y-101717184D01*
X106638637Y-101478232D01*
X106701078Y-101383942D01*
X106702390Y-101383966D01*
X106775945Y-101478122D01*
X106806473Y-101700124D01*
X106806476Y-101703583D01*
X106824382Y-101924567D01*
X106866698Y-102016307D01*
X106890873Y-102014172D01*
X107053222Y-101896042D01*
X107178100Y-101647499D01*
X107228049Y-101338773D01*
X107229176Y-101283864D01*
X107264342Y-101055148D01*
X107333444Y-100962365D01*
X107334755Y-100962341D01*
X107408310Y-100868185D01*
X107438838Y-100646183D01*
X107438846Y-100642249D01*
X107470231Y-100421584D01*
X107544232Y-100330000D01*
X107545543Y-100330024D01*
X107619098Y-100424180D01*
X107649626Y-100646183D01*
X107649634Y-100650116D01*
X107681020Y-100870781D01*
X107755020Y-100962365D01*
X107770395Y-100966389D01*
X107834435Y-101091981D01*
X107860415Y-101338773D01*
X107861553Y-101384101D01*
X107924556Y-101688506D01*
X108057112Y-101922652D01*
X108221766Y-102016307D01*
X108222425Y-102016288D01*
X108264517Y-101922285D01*
X108281991Y-101700124D01*
X108281999Y-101696191D01*
X108313385Y-101475526D01*
X108387386Y-101383942D01*
X108419883Y-101407518D01*
X108472154Y-101580298D01*
X108492780Y-101865744D01*
X108495702Y-101968968D01*
X108546157Y-102294456D01*
X108643343Y-102498109D01*
X108653428Y-102508134D01*
X108689160Y-102535682D01*
X108814847Y-102632583D01*
G37*
G36*
X112187461Y-102632583D02*
G01*
X112266208Y-102579064D01*
X112286971Y-102332490D01*
X112286979Y-102328556D01*
X112318364Y-102107891D01*
X112392365Y-102016307D01*
X112401793Y-102019117D01*
X112451781Y-102148489D01*
X112485433Y-102441910D01*
X112497759Y-102859461D01*
X112497126Y-102978644D01*
X112486028Y-103347598D01*
X112463958Y-103605547D01*
X112434650Y-103702614D01*
X112412765Y-103694436D01*
X112274923Y-103584233D01*
X112076182Y-103386432D01*
X111931077Y-103236324D01*
X111759944Y-103096909D01*
X111676556Y-103114006D01*
X111654605Y-103281037D01*
X111619963Y-103417301D01*
X111443817Y-103491826D01*
X111321301Y-103472063D01*
X111233029Y-103386432D01*
X111229966Y-103361240D01*
X111127634Y-103281037D01*
X111066377Y-103320564D01*
X111022240Y-103491826D01*
X111002477Y-103614341D01*
X110916846Y-103702614D01*
X110855588Y-103663088D01*
X110811452Y-103491826D01*
X110791689Y-103369310D01*
X110706058Y-103281037D01*
X110680866Y-103284100D01*
X110600664Y-103386432D01*
X110561137Y-103447689D01*
X110389875Y-103491826D01*
X110253612Y-103457183D01*
X110179087Y-103281037D01*
X110172715Y-103168799D01*
X110119354Y-103085508D01*
X109989720Y-103155860D01*
X109757510Y-103386432D01*
X109689207Y-103457803D01*
X109503885Y-103632644D01*
X109399042Y-103702614D01*
X109390122Y-103694156D01*
X109362506Y-103545888D01*
X109343199Y-103251030D01*
X109335933Y-102859461D01*
X109336285Y-102784034D01*
X109352456Y-102384132D01*
X109389134Y-102114916D01*
X109441327Y-102016307D01*
X109442639Y-102016331D01*
X109516194Y-102110488D01*
X109546722Y-102332490D01*
X109546759Y-102348701D01*
X109569705Y-102585817D01*
X109651802Y-102630591D01*
X109725121Y-102572053D01*
X110609422Y-102572053D01*
X110697275Y-102648672D01*
X110739109Y-102638517D01*
X110855366Y-102516929D01*
X110909111Y-102439422D01*
X110978326Y-102516929D01*
X111009379Y-102567514D01*
X111136417Y-102648672D01*
X111167209Y-102643640D01*
X111230175Y-102535682D01*
X111196051Y-102347448D01*
X111074937Y-102159342D01*
X111033706Y-102119534D01*
X110902907Y-102055123D01*
X110758755Y-102159342D01*
X110722183Y-102200313D01*
X110621092Y-102395799D01*
X110609422Y-102572053D01*
X109725121Y-102572053D01*
X109817735Y-102498109D01*
X109849079Y-102457414D01*
X109935027Y-102210009D01*
X109968298Y-101865744D01*
X109973456Y-101717184D01*
X110011251Y-101478232D01*
X110073693Y-101383942D01*
X110075004Y-101383966D01*
X110148559Y-101478122D01*
X110179087Y-101700124D01*
X110179090Y-101703583D01*
X110196996Y-101924567D01*
X110239312Y-102016307D01*
X110263487Y-102014172D01*
X110425837Y-101896042D01*
X110550714Y-101647499D01*
X110600664Y-101338773D01*
X110601790Y-101283864D01*
X110636956Y-101055148D01*
X110706058Y-100962365D01*
X110707369Y-100962341D01*
X110780924Y-100868185D01*
X110811452Y-100646183D01*
X110811460Y-100642249D01*
X110842845Y-100421584D01*
X110916846Y-100330000D01*
X110918157Y-100330024D01*
X110991712Y-100424180D01*
X111022240Y-100646183D01*
X111022248Y-100650116D01*
X111053634Y-100870781D01*
X111127634Y-100962365D01*
X111143009Y-100966389D01*
X111207050Y-101091981D01*
X111233029Y-101338773D01*
X111234167Y-101384101D01*
X111297170Y-101688506D01*
X111429726Y-101922652D01*
X111594380Y-102016307D01*
X111595039Y-102016288D01*
X111637131Y-101922285D01*
X111654605Y-101700124D01*
X111654614Y-101696191D01*
X111685999Y-101475526D01*
X111760000Y-101383942D01*
X111792497Y-101407518D01*
X111844768Y-101580298D01*
X111865394Y-101865744D01*
X111868316Y-101968968D01*
X111918771Y-102294456D01*
X112015957Y-102498109D01*
X112026043Y-102508134D01*
X112061774Y-102535682D01*
X112187461Y-102632583D01*
G37*
G36*
X115560075Y-102632583D02*
G01*
X115638822Y-102579064D01*
X115659585Y-102332490D01*
X115659593Y-102328556D01*
X115690978Y-102107891D01*
X115764979Y-102016307D01*
X115774407Y-102019117D01*
X115824395Y-102148489D01*
X115858047Y-102441910D01*
X115870373Y-102859461D01*
X115869740Y-102978644D01*
X115858642Y-103347598D01*
X115836573Y-103605547D01*
X115807264Y-103702614D01*
X115785379Y-103694436D01*
X115647537Y-103584233D01*
X115448796Y-103386432D01*
X115303691Y-103236324D01*
X115132559Y-103096909D01*
X115049170Y-103114006D01*
X115027220Y-103281037D01*
X114992577Y-103417301D01*
X114816431Y-103491826D01*
X114693916Y-103472063D01*
X114605643Y-103386432D01*
X114602580Y-103361240D01*
X114500249Y-103281037D01*
X114438991Y-103320564D01*
X114394854Y-103491826D01*
X114375091Y-103614341D01*
X114289460Y-103702614D01*
X114228202Y-103663088D01*
X114184066Y-103491826D01*
X114164303Y-103369310D01*
X114078672Y-103281037D01*
X114053480Y-103284100D01*
X113973278Y-103386432D01*
X113933751Y-103447689D01*
X113762489Y-103491826D01*
X113626226Y-103457183D01*
X113551701Y-103281037D01*
X113545329Y-103168799D01*
X113491968Y-103085508D01*
X113362335Y-103155860D01*
X113130124Y-103386432D01*
X113061821Y-103457803D01*
X112876499Y-103632644D01*
X112771656Y-103702614D01*
X112762736Y-103694156D01*
X112735120Y-103545888D01*
X112715813Y-103251030D01*
X112708547Y-102859461D01*
X112708899Y-102784034D01*
X112725070Y-102384132D01*
X112761748Y-102114916D01*
X112813942Y-102016307D01*
X112815253Y-102016331D01*
X112888808Y-102110488D01*
X112919336Y-102332490D01*
X112919373Y-102348701D01*
X112942319Y-102585817D01*
X113024416Y-102630591D01*
X113097735Y-102572053D01*
X113982036Y-102572053D01*
X114069889Y-102648672D01*
X114111723Y-102638517D01*
X114227980Y-102516929D01*
X114281725Y-102439422D01*
X114350940Y-102516929D01*
X114381993Y-102567514D01*
X114509031Y-102648672D01*
X114539823Y-102643640D01*
X114602789Y-102535682D01*
X114568665Y-102347448D01*
X114447551Y-102159342D01*
X114406320Y-102119534D01*
X114275521Y-102055123D01*
X114131369Y-102159342D01*
X114094797Y-102200313D01*
X113993706Y-102395799D01*
X113982036Y-102572053D01*
X113097735Y-102572053D01*
X113190349Y-102498109D01*
X113221694Y-102457414D01*
X113307641Y-102210009D01*
X113340912Y-101865744D01*
X113346070Y-101717184D01*
X113383865Y-101478232D01*
X113446307Y-101383942D01*
X113447618Y-101383966D01*
X113521173Y-101478122D01*
X113551701Y-101700124D01*
X113551704Y-101703583D01*
X113569610Y-101924567D01*
X113611926Y-102016307D01*
X113636101Y-102014172D01*
X113798451Y-101896042D01*
X113923328Y-101647499D01*
X113973278Y-101338773D01*
X113974404Y-101283864D01*
X114009570Y-101055148D01*
X114078672Y-100962365D01*
X114079983Y-100962341D01*
X114153538Y-100868185D01*
X114184066Y-100646183D01*
X114184074Y-100642249D01*
X114215460Y-100421584D01*
X114289460Y-100330000D01*
X114290771Y-100330024D01*
X114364326Y-100424180D01*
X114394854Y-100646183D01*
X114394862Y-100650116D01*
X114426248Y-100870781D01*
X114500249Y-100962365D01*
X114515623Y-100966389D01*
X114579664Y-101091981D01*
X114605643Y-101338773D01*
X114606781Y-101384101D01*
X114669784Y-101688506D01*
X114802340Y-101922652D01*
X114966994Y-102016307D01*
X114967653Y-102016288D01*
X115009745Y-101922285D01*
X115027220Y-101700124D01*
X115027228Y-101696191D01*
X115058613Y-101475526D01*
X115132614Y-101383942D01*
X115165111Y-101407518D01*
X115217382Y-101580298D01*
X115238008Y-101865744D01*
X115240930Y-101968968D01*
X115291385Y-102294456D01*
X115388571Y-102498109D01*
X115398657Y-102508134D01*
X115434388Y-102535682D01*
X115560075Y-102632583D01*
G37*
G36*
X157438406Y-123271081D02*
G01*
X157575928Y-123177616D01*
X157612188Y-122747004D01*
X157612202Y-122740134D01*
X157667013Y-122354771D01*
X157796246Y-122194830D01*
X157812711Y-122199738D01*
X157900009Y-122425670D01*
X157958778Y-122938093D01*
X157980304Y-123667294D01*
X157979198Y-123875433D01*
X157959817Y-124519766D01*
X157921275Y-124970242D01*
X157870092Y-125139758D01*
X157831873Y-125125476D01*
X157591148Y-124933020D01*
X157244072Y-124587584D01*
X156990663Y-124325439D01*
X156691802Y-124081969D01*
X156546174Y-124111826D01*
X156507840Y-124403526D01*
X156447341Y-124641493D01*
X156139724Y-124771642D01*
X155925766Y-124737128D01*
X155771608Y-124587584D01*
X155766260Y-124543589D01*
X155587550Y-124403526D01*
X155480571Y-124472554D01*
X155403492Y-124771642D01*
X155368978Y-124985600D01*
X155219434Y-125139758D01*
X155112455Y-125070730D01*
X155035376Y-124771642D01*
X155000862Y-124557683D01*
X154851318Y-124403526D01*
X154807324Y-124408874D01*
X154667260Y-124587584D01*
X154598232Y-124694563D01*
X154299144Y-124771642D01*
X154061177Y-124711143D01*
X153931028Y-124403526D01*
X153919900Y-124207515D01*
X153826712Y-124062057D01*
X153600323Y-124184919D01*
X153194796Y-124587584D01*
X153075513Y-124712226D01*
X152751871Y-125017563D01*
X152568777Y-125139758D01*
X152553198Y-125124987D01*
X152504970Y-124866055D01*
X152471253Y-124351122D01*
X152458565Y-123667294D01*
X152457951Y-123535570D01*
X152429710Y-122837191D01*
X152365657Y-122367039D01*
X152274507Y-122194830D01*
X152230512Y-122200179D01*
X152090449Y-122378888D01*
X152071675Y-122420146D01*
X151815247Y-122522124D01*
X151354217Y-122562946D01*
X151189183Y-122567639D01*
X150781272Y-122631746D01*
X150617985Y-122747004D01*
X150599211Y-122788262D01*
X150342783Y-122890240D01*
X149881753Y-122931062D01*
X149716720Y-122935755D01*
X149308808Y-122999862D01*
X149145521Y-123115120D01*
X149028218Y-123198242D01*
X148629412Y-123271236D01*
X148041173Y-123299178D01*
X147542440Y-123318729D01*
X147104476Y-123385196D01*
X146936825Y-123483236D01*
X146936825Y-123483406D01*
X146757995Y-123560165D01*
X146245944Y-123618040D01*
X145435130Y-123654570D01*
X144360014Y-123667294D01*
X144357633Y-123667294D01*
X143283009Y-123654520D01*
X142472756Y-123617945D01*
X141961334Y-123560030D01*
X141783202Y-123483236D01*
X141665899Y-123400114D01*
X141267093Y-123327120D01*
X140678854Y-123299178D01*
X140180121Y-123279627D01*
X139742158Y-123213160D01*
X139574507Y-123115120D01*
X139555733Y-123073862D01*
X139299305Y-122971884D01*
X138838275Y-122931062D01*
X138673241Y-122926369D01*
X138265330Y-122862262D01*
X138102043Y-122747004D01*
X138083269Y-122705746D01*
X137826841Y-122603768D01*
X137365811Y-122562946D01*
X137200778Y-122558253D01*
X136792866Y-122494146D01*
X136629579Y-122378888D01*
X136560551Y-122271909D01*
X136261463Y-122194830D01*
X136047505Y-122160316D01*
X135893347Y-122010772D01*
X135962375Y-121903793D01*
X136261463Y-121826714D01*
X136475422Y-121861228D01*
X136629579Y-122010772D01*
X136648353Y-122052030D01*
X136904781Y-122154008D01*
X137365811Y-122194830D01*
X137530844Y-122199524D01*
X137938756Y-122263631D01*
X138102043Y-122378888D01*
X138120816Y-122420146D01*
X138377244Y-122522124D01*
X138838275Y-122562946D01*
X139003308Y-122567639D01*
X139411219Y-122631746D01*
X139574507Y-122747004D01*
X139691810Y-122830126D01*
X140090615Y-122903120D01*
X140678854Y-122931062D01*
X141177588Y-122950613D01*
X141615551Y-123017080D01*
X141783202Y-123115120D01*
X141783203Y-123115290D01*
X141962033Y-123192049D01*
X142474084Y-123249924D01*
X143284897Y-123286454D01*
X144360014Y-123299178D01*
X144362395Y-123299178D01*
X145437019Y-123286404D01*
X146247272Y-123249829D01*
X146758694Y-123191914D01*
X146936825Y-123115120D01*
X147054129Y-123031998D01*
X147452934Y-122959004D01*
X148041173Y-122931062D01*
X148539907Y-122911511D01*
X148977870Y-122845044D01*
X149145521Y-122747004D01*
X149164295Y-122705746D01*
X149420723Y-122603768D01*
X149881753Y-122562946D01*
X150046786Y-122558253D01*
X150454698Y-122494146D01*
X150617985Y-122378888D01*
X150636758Y-122337630D01*
X150893186Y-122235652D01*
X151354217Y-122194830D01*
X151519250Y-122190137D01*
X151927162Y-122126030D01*
X152090449Y-122010772D01*
X152159476Y-121903793D01*
X152458565Y-121826714D01*
X152671040Y-121868397D01*
X152795811Y-122081276D01*
X152826681Y-122562946D01*
X152829346Y-122727472D01*
X152865967Y-123135732D01*
X152931856Y-123299178D01*
X152996899Y-123291527D01*
X153152363Y-123165372D01*
X154682555Y-123165372D01*
X154835980Y-123299178D01*
X154909038Y-123281443D01*
X155112067Y-123069105D01*
X155205925Y-122933748D01*
X155326801Y-123069105D01*
X155381032Y-123157445D01*
X155602888Y-123299178D01*
X155656662Y-123290390D01*
X155766625Y-123101854D01*
X155707031Y-122773127D01*
X155495521Y-122444623D01*
X155423516Y-122375103D01*
X155195091Y-122262617D01*
X154943347Y-122444623D01*
X154879479Y-122516174D01*
X154702936Y-122857566D01*
X154682555Y-123165372D01*
X153152363Y-123165372D01*
X153282307Y-123059926D01*
X153485500Y-122575249D01*
X153562912Y-121931890D01*
X153571919Y-121672449D01*
X153637925Y-121255149D01*
X153746970Y-121090482D01*
X153749260Y-121090525D01*
X153877715Y-121254957D01*
X153931028Y-121642656D01*
X153931035Y-121648695D01*
X153962304Y-122034617D01*
X154036204Y-122194830D01*
X154078423Y-122191102D01*
X154361946Y-121984802D01*
X154580030Y-121550752D01*
X154667260Y-121011600D01*
X154669228Y-120915708D01*
X154730640Y-120516284D01*
X154851318Y-120354250D01*
X154853608Y-120354208D01*
X154982063Y-120189776D01*
X155035376Y-119802077D01*
X155035390Y-119795207D01*
X155090201Y-119409843D01*
X155219434Y-119249903D01*
X155221724Y-119249945D01*
X155350179Y-119414377D01*
X155403492Y-119802077D01*
X155403506Y-119808946D01*
X155458317Y-120194310D01*
X155587550Y-120354250D01*
X155614400Y-120361277D01*
X155726239Y-120580608D01*
X155771608Y-121011600D01*
X155773596Y-121090760D01*
X155883623Y-121622367D01*
X156115116Y-122031273D01*
X156402664Y-122194830D01*
X156403814Y-122194797D01*
X156477323Y-122030631D01*
X156507840Y-121642656D01*
X156507854Y-121635786D01*
X156562665Y-121250423D01*
X156691898Y-121090482D01*
X156748651Y-121131655D01*
X156839935Y-121433395D01*
X156875956Y-121931890D01*
X156881059Y-122112157D01*
X156969173Y-122680583D01*
X157138896Y-123036238D01*
X157156509Y-123053745D01*
X157218909Y-123101854D01*
X157438406Y-123271081D01*
G37*
G36*
X123424519Y-119828229D02*
G01*
X123561463Y-119986134D01*
X123668442Y-119917107D01*
X123745521Y-119618019D01*
X123780035Y-119404060D01*
X123929579Y-119249903D01*
X124036558Y-119180875D01*
X124113637Y-118881787D01*
X124119334Y-118786762D01*
X124261637Y-118571520D01*
X124665811Y-118513671D01*
X124885027Y-118534146D01*
X125195499Y-118728593D01*
X125225674Y-119095727D01*
X124980404Y-119595217D01*
X124464542Y-120186729D01*
X124098619Y-120538308D01*
X123711100Y-120910636D01*
X124100660Y-121274540D01*
X124280484Y-121442521D01*
X124420717Y-121576922D01*
X124727518Y-121902263D01*
X124849869Y-122084618D01*
X124810867Y-122185340D01*
X124601747Y-122116581D01*
X124248489Y-121780700D01*
X123950318Y-121524838D01*
X123797431Y-121596642D01*
X123703094Y-121717741D01*
X123377405Y-121826714D01*
X123186545Y-121860363D01*
X122932598Y-122056787D01*
X122838740Y-122192144D01*
X122717864Y-122056787D01*
X122612780Y-121937361D01*
X122273057Y-121826714D01*
X122082996Y-121792031D01*
X121853031Y-121596642D01*
X121851909Y-121593584D01*
X121691138Y-121535372D01*
X121376380Y-121810208D01*
X121347744Y-121841811D01*
X121051882Y-122097020D01*
X120866193Y-122137725D01*
X120858094Y-122080420D01*
X121011063Y-121823100D01*
X121344717Y-121466119D01*
X121549803Y-121274540D01*
X122273057Y-121274540D01*
X122278406Y-121318535D01*
X122457115Y-121458598D01*
X122501110Y-121453250D01*
X122641173Y-121274540D01*
X123009289Y-121274540D01*
X123014638Y-121318535D01*
X123193347Y-121458598D01*
X123237342Y-121453250D01*
X123377405Y-121274540D01*
X123372057Y-121230546D01*
X123193347Y-121090482D01*
X123149353Y-121095831D01*
X123009289Y-121274540D01*
X122641173Y-121274540D01*
X122635825Y-121230546D01*
X122457115Y-121090482D01*
X122413121Y-121095831D01*
X122273057Y-121274540D01*
X121549803Y-121274540D01*
X121939363Y-120910636D01*
X121551844Y-120538308D01*
X122273057Y-120538308D01*
X122273100Y-120540598D01*
X122437532Y-120669053D01*
X122825231Y-120722366D01*
X122832101Y-120722352D01*
X123217465Y-120667541D01*
X123377405Y-120538308D01*
X123377363Y-120536018D01*
X123212931Y-120407564D01*
X122825231Y-120354250D01*
X122818362Y-120354265D01*
X122432998Y-120409075D01*
X122273057Y-120538308D01*
X121551844Y-120538308D01*
X121185920Y-120186729D01*
X120932806Y-119925427D01*
X120531918Y-119368283D01*
X120403696Y-118920387D01*
X120552989Y-118622072D01*
X120984652Y-118513671D01*
X121127189Y-118517468D01*
X121450052Y-118612337D01*
X121536825Y-118881787D01*
X121571339Y-119095745D01*
X121720883Y-119249903D01*
X121827863Y-119318930D01*
X121904941Y-119618019D01*
X121939455Y-119831977D01*
X122088999Y-119986134D01*
X122211650Y-119864985D01*
X122254716Y-119618019D01*
X122641173Y-119618019D01*
X122675687Y-119831977D01*
X122825231Y-119986134D01*
X122932210Y-119917107D01*
X123009289Y-119618019D01*
X122974775Y-119404060D01*
X122825231Y-119249903D01*
X122718252Y-119318930D01*
X122641173Y-119618019D01*
X122254716Y-119618019D01*
X122273057Y-119512843D01*
X122333717Y-119157029D01*
X122549144Y-118763464D01*
X122621149Y-118693943D01*
X122849575Y-118581457D01*
X123101318Y-118763464D01*
X123273492Y-119039624D01*
X123377405Y-119512843D01*
X123393117Y-119618019D01*
X123424519Y-119828229D01*
G37*
G36*
X136946203Y-119019830D02*
G01*
X136968081Y-119057013D01*
X137254559Y-119195478D01*
X137749265Y-119249903D01*
X137900727Y-119254017D01*
X138307099Y-119317706D01*
X138470159Y-119433961D01*
X138488932Y-119475219D01*
X138745360Y-119577197D01*
X139206391Y-119618019D01*
X139371424Y-119622712D01*
X139779335Y-119686819D01*
X139942623Y-119802077D01*
X140059926Y-119885199D01*
X140458731Y-119958193D01*
X141046970Y-119986134D01*
X141545704Y-120005685D01*
X141983667Y-120072153D01*
X142151318Y-120170192D01*
X142250138Y-120232148D01*
X142673162Y-120297644D01*
X143390484Y-120339514D01*
X144360014Y-120354250D01*
X145103480Y-120346015D01*
X145889434Y-120310763D01*
X146391875Y-120250987D01*
X146568709Y-120170192D01*
X146686013Y-120087070D01*
X147084818Y-120014076D01*
X147673057Y-119986134D01*
X148171791Y-119966584D01*
X148609754Y-119900116D01*
X148777405Y-119802077D01*
X148796179Y-119760818D01*
X149052607Y-119658840D01*
X149513637Y-119618019D01*
X149678670Y-119613325D01*
X150086582Y-119549218D01*
X150249869Y-119433961D01*
X150265985Y-119395289D01*
X150515431Y-119291535D01*
X150970763Y-119249903D01*
X151088248Y-119247158D01*
X151549123Y-119171512D01*
X151773825Y-119019830D01*
X151823116Y-118933140D01*
X151995133Y-118919036D01*
X151998466Y-118922193D01*
X152027958Y-119135754D01*
X151793060Y-119363295D01*
X151388053Y-119544242D01*
X150907219Y-119618019D01*
X150811326Y-119619986D01*
X150411902Y-119681399D01*
X150249869Y-119802077D01*
X150231095Y-119843335D01*
X149974667Y-119945313D01*
X149513637Y-119986134D01*
X149348604Y-119990828D01*
X148940692Y-120054935D01*
X148777405Y-120170192D01*
X148660102Y-120253315D01*
X148261296Y-120326309D01*
X147673057Y-120354250D01*
X147174324Y-120373801D01*
X146736360Y-120440269D01*
X146568709Y-120538308D01*
X146469890Y-120600264D01*
X146046866Y-120665760D01*
X145329543Y-120707630D01*
X144360014Y-120722366D01*
X143616548Y-120714131D01*
X142830593Y-120678879D01*
X142328152Y-120619102D01*
X142151318Y-120538308D01*
X142034015Y-120455186D01*
X141635209Y-120382192D01*
X141046970Y-120354250D01*
X140548237Y-120334700D01*
X140110274Y-120268232D01*
X139942623Y-120170192D01*
X139923849Y-120128934D01*
X139667421Y-120026956D01*
X139206391Y-119986134D01*
X139041357Y-119981441D01*
X138633446Y-119917334D01*
X138470159Y-119802077D01*
X138463132Y-119775227D01*
X138243801Y-119663388D01*
X137812809Y-119618019D01*
X137804526Y-119617994D01*
X137324192Y-119541891D01*
X136921289Y-119359646D01*
X136690096Y-119131837D01*
X136724895Y-118919036D01*
X136793183Y-118885898D01*
X136946203Y-119019830D01*
G37*
G36*
X137682434Y-116074903D02*
G01*
X137890464Y-116234486D01*
X138301439Y-116304975D01*
X138678692Y-116358398D01*
X138838275Y-116489033D01*
X138857048Y-116530291D01*
X139113476Y-116632269D01*
X139574507Y-116673091D01*
X139739540Y-116677784D01*
X140147451Y-116741891D01*
X140310738Y-116857149D01*
X140372844Y-116923449D01*
X140706055Y-117008100D01*
X141231028Y-117041207D01*
X141562531Y-117053628D01*
X141985782Y-117120270D01*
X142151318Y-117225265D01*
X142250138Y-117287220D01*
X142673162Y-117352717D01*
X143390484Y-117394587D01*
X144360014Y-117409323D01*
X145103480Y-117401088D01*
X145889434Y-117365836D01*
X146391875Y-117306059D01*
X146568709Y-117225265D01*
X146630815Y-117158964D01*
X146964026Y-117074314D01*
X147488999Y-117041207D01*
X147820502Y-117028786D01*
X148243753Y-116962144D01*
X148409289Y-116857149D01*
X148428063Y-116815891D01*
X148684491Y-116713913D01*
X149145521Y-116673091D01*
X149310554Y-116668398D01*
X149718466Y-116604291D01*
X149881753Y-116489033D01*
X150037571Y-116359689D01*
X150418589Y-116304975D01*
X150814069Y-116240246D01*
X151037593Y-116074903D01*
X151086884Y-115988213D01*
X151258901Y-115974109D01*
X151297866Y-116143442D01*
X151108631Y-116383803D01*
X150759516Y-116587297D01*
X150355045Y-116673091D01*
X150039659Y-116720205D01*
X149881753Y-116857149D01*
X149862979Y-116898407D01*
X149606551Y-117000385D01*
X149145521Y-117041207D01*
X148980488Y-117045900D01*
X148572576Y-117110007D01*
X148409289Y-117225265D01*
X148347184Y-117291565D01*
X148013972Y-117376216D01*
X147488999Y-117409323D01*
X147157497Y-117421744D01*
X146734246Y-117488386D01*
X146568709Y-117593381D01*
X146469890Y-117655336D01*
X146046866Y-117720833D01*
X145329543Y-117762703D01*
X144360014Y-117777439D01*
X143616548Y-117769204D01*
X142830593Y-117733952D01*
X142328152Y-117674175D01*
X142151318Y-117593381D01*
X142089213Y-117527080D01*
X141756001Y-117442430D01*
X141231028Y-117409323D01*
X140899526Y-117396902D01*
X140476275Y-117330260D01*
X140310738Y-117225265D01*
X140291965Y-117184007D01*
X140035537Y-117082029D01*
X139574507Y-117041207D01*
X139409473Y-117036514D01*
X139001562Y-116972407D01*
X138838275Y-116857149D01*
X138717125Y-116734499D01*
X138364983Y-116673091D01*
X138028854Y-116612618D01*
X137662818Y-116423569D01*
X137438733Y-116183788D01*
X137461127Y-115974109D01*
X137529415Y-115940970D01*
X137682434Y-116074903D01*
G37*
G36*
X149359479Y-110449634D02*
G01*
X149513637Y-110599178D01*
X149444609Y-110706157D01*
X149145521Y-110783236D01*
X148931563Y-110817750D01*
X148777405Y-110967294D01*
X148777363Y-110969584D01*
X148612931Y-111098038D01*
X148225231Y-111151352D01*
X148218362Y-111151366D01*
X147832998Y-111206177D01*
X147673057Y-111335410D01*
X147654284Y-111376668D01*
X147397856Y-111478646D01*
X146936825Y-111519468D01*
X146771792Y-111524161D01*
X146363881Y-111588268D01*
X146200594Y-111703526D01*
X146161525Y-111746003D01*
X145833239Y-111821124D01*
X145215057Y-111870085D01*
X144360014Y-111887584D01*
X143935238Y-111883677D01*
X143184036Y-111850848D01*
X142694424Y-111789030D01*
X142519434Y-111703526D01*
X142500661Y-111662267D01*
X142244233Y-111560290D01*
X141783202Y-111519468D01*
X141618169Y-111514774D01*
X141210257Y-111450667D01*
X141046970Y-111335410D01*
X141046928Y-111333120D01*
X140882496Y-111204665D01*
X140494796Y-111151352D01*
X140487927Y-111151338D01*
X140102563Y-111096527D01*
X139942623Y-110967294D01*
X139873595Y-110860315D01*
X139574507Y-110783236D01*
X139360548Y-110748722D01*
X139206391Y-110599178D01*
X139275418Y-110492199D01*
X139574507Y-110415120D01*
X139788465Y-110449634D01*
X139942623Y-110599178D01*
X139942665Y-110601468D01*
X140107097Y-110729922D01*
X140494796Y-110783236D01*
X140501666Y-110783250D01*
X140887030Y-110838061D01*
X141046970Y-110967294D01*
X141065744Y-111008552D01*
X141322172Y-111110530D01*
X141783202Y-111151352D01*
X141948236Y-111156045D01*
X142356147Y-111220152D01*
X142519434Y-111335410D01*
X142558503Y-111377887D01*
X142886789Y-111453008D01*
X143504970Y-111501969D01*
X144360014Y-111519468D01*
X144784790Y-111515561D01*
X145535992Y-111482732D01*
X146025604Y-111420914D01*
X146200594Y-111335410D01*
X146219367Y-111294152D01*
X146475795Y-111192174D01*
X146936825Y-111151352D01*
X147101859Y-111146658D01*
X147509770Y-111082551D01*
X147673057Y-110967294D01*
X147673100Y-110965004D01*
X147837532Y-110836549D01*
X148225231Y-110783236D01*
X148232101Y-110783222D01*
X148617465Y-110728411D01*
X148777405Y-110599178D01*
X148846433Y-110492199D01*
X149145521Y-110415120D01*
X149359479Y-110449634D01*
G37*
G36*
X147537138Y-104163469D02*
G01*
X147663787Y-104344399D01*
X147617009Y-104670095D01*
X147410117Y-104998557D01*
X147224432Y-105139132D01*
X146857943Y-105261497D01*
X146718675Y-105284389D01*
X146568709Y-105445555D01*
X146568667Y-105447845D01*
X146404235Y-105576299D01*
X146016536Y-105629613D01*
X146009666Y-105629627D01*
X145624302Y-105684438D01*
X145464362Y-105813671D01*
X145347058Y-105896793D01*
X144948253Y-105969787D01*
X144360014Y-105997729D01*
X143861280Y-105978178D01*
X143423317Y-105911711D01*
X143255666Y-105813671D01*
X143255624Y-105811381D01*
X143091191Y-105682926D01*
X142703492Y-105629613D01*
X142696622Y-105629599D01*
X142311259Y-105574788D01*
X142151318Y-105445555D01*
X142115345Y-105356929D01*
X141862084Y-105261497D01*
X141666443Y-105220488D01*
X141309910Y-104998557D01*
X141255545Y-104938464D01*
X141080116Y-104599068D01*
X141067506Y-104291295D01*
X141231028Y-104157149D01*
X141338008Y-104226177D01*
X141415086Y-104525265D01*
X141475585Y-104763232D01*
X141783202Y-104893381D01*
X141997161Y-104927895D01*
X142151318Y-105077439D01*
X142151361Y-105079729D01*
X142315793Y-105208183D01*
X142703492Y-105261497D01*
X142710362Y-105261511D01*
X143095725Y-105316322D01*
X143255666Y-105445555D01*
X143372970Y-105528677D01*
X143771775Y-105601671D01*
X144360014Y-105629613D01*
X144858747Y-105610062D01*
X145296711Y-105543595D01*
X145464362Y-105445555D01*
X145464404Y-105443265D01*
X145628836Y-105314810D01*
X146016536Y-105261497D01*
X146023405Y-105261483D01*
X146408769Y-105206672D01*
X146568709Y-105077439D01*
X146637737Y-104970460D01*
X146936825Y-104893381D01*
X147174793Y-104832882D01*
X147304941Y-104525265D01*
X147339455Y-104311307D01*
X147488999Y-104157149D01*
X147537138Y-104163469D01*
G37*
G36*
X140259246Y-107608236D02*
G01*
X140467275Y-107767820D01*
X140878251Y-107838308D01*
X141255504Y-107891732D01*
X141415086Y-108022366D01*
X141433860Y-108063625D01*
X141690288Y-108165603D01*
X142151318Y-108206424D01*
X142316351Y-108211118D01*
X142724263Y-108275225D01*
X142887550Y-108390482D01*
X142892458Y-108406948D01*
X143118390Y-108494245D01*
X143630813Y-108553014D01*
X144360014Y-108574540D01*
X144491738Y-108573927D01*
X145190117Y-108545685D01*
X145660268Y-108481632D01*
X145832478Y-108390482D01*
X145851251Y-108349224D01*
X146107679Y-108247246D01*
X146568709Y-108206424D01*
X146733743Y-108201731D01*
X147141654Y-108137624D01*
X147304941Y-108022366D01*
X147460759Y-107893022D01*
X147841777Y-107838308D01*
X148237257Y-107773579D01*
X148460782Y-107608236D01*
X148510073Y-107521546D01*
X148682089Y-107507442D01*
X148721054Y-107676775D01*
X148531820Y-107917136D01*
X148182704Y-108120630D01*
X147778233Y-108206424D01*
X147462847Y-108253538D01*
X147304941Y-108390482D01*
X147286168Y-108431741D01*
X147029740Y-108533718D01*
X146568709Y-108574540D01*
X146403676Y-108579234D01*
X145995765Y-108643341D01*
X145832478Y-108758598D01*
X145827570Y-108775064D01*
X145601638Y-108862361D01*
X145089214Y-108921130D01*
X144360014Y-108942656D01*
X144228290Y-108942043D01*
X143529911Y-108913801D01*
X143059759Y-108849748D01*
X142887550Y-108758598D01*
X142868777Y-108717340D01*
X142612349Y-108615362D01*
X142151318Y-108574540D01*
X141986285Y-108569847D01*
X141578373Y-108505740D01*
X141415086Y-108390482D01*
X141293936Y-108267832D01*
X140941794Y-108206424D01*
X140605666Y-108145951D01*
X140239629Y-107956902D01*
X140015545Y-107717122D01*
X140037938Y-107507442D01*
X140106227Y-107474304D01*
X140259246Y-107608236D01*
G37*
G36*
X149678670Y-113732857D02*
G01*
X150086582Y-113796964D01*
X150249869Y-113912221D01*
X150231095Y-113953480D01*
X149974667Y-114055458D01*
X149513637Y-114096279D01*
X149348604Y-114100973D01*
X148940692Y-114165080D01*
X148777405Y-114280337D01*
X148660102Y-114363460D01*
X148261296Y-114436454D01*
X147673057Y-114464395D01*
X147174324Y-114483946D01*
X146736360Y-114550413D01*
X146568709Y-114648453D01*
X146469890Y-114710409D01*
X146046866Y-114775905D01*
X145329543Y-114817775D01*
X144360014Y-114832511D01*
X143616548Y-114824276D01*
X142830593Y-114789024D01*
X142328152Y-114729247D01*
X142151318Y-114648453D01*
X142034015Y-114565331D01*
X141635209Y-114492337D01*
X141046970Y-114464395D01*
X140548237Y-114444845D01*
X140110274Y-114378377D01*
X139942623Y-114280337D01*
X139923849Y-114239079D01*
X139667421Y-114137101D01*
X139206391Y-114096279D01*
X139041357Y-114091586D01*
X138633446Y-114027479D01*
X138470159Y-113912221D01*
X138488932Y-113870963D01*
X138745360Y-113768985D01*
X139206391Y-113728163D01*
X139371424Y-113732857D01*
X139779335Y-113796964D01*
X139942623Y-113912221D01*
X140059926Y-113995344D01*
X140458731Y-114068338D01*
X141046970Y-114096279D01*
X141545704Y-114115830D01*
X141983667Y-114182298D01*
X142151318Y-114280337D01*
X142250138Y-114342293D01*
X142673162Y-114407789D01*
X143390484Y-114449659D01*
X144360014Y-114464395D01*
X145103480Y-114456160D01*
X145889434Y-114420908D01*
X146391875Y-114361131D01*
X146568709Y-114280337D01*
X146686013Y-114197215D01*
X147084818Y-114124221D01*
X147673057Y-114096279D01*
X148171791Y-114076729D01*
X148609754Y-114010261D01*
X148777405Y-113912221D01*
X148796179Y-113870963D01*
X149052607Y-113768985D01*
X149513637Y-113728163D01*
X149678670Y-113732857D01*
G37*
G36*
X150617985Y-117130433D02*
G01*
X150554036Y-117266198D01*
X150295883Y-117521222D01*
X150025912Y-117718933D01*
X149891088Y-117732141D01*
X149771077Y-117547366D01*
X149725143Y-117449898D01*
X149791293Y-117455739D01*
X149972379Y-117471907D01*
X150280947Y-117289169D01*
X150505956Y-117123145D01*
X150617985Y-117130433D01*
G37*
G36*
X138528660Y-117381498D02*
G01*
X138683869Y-117470826D01*
X138930733Y-117453740D01*
X138988508Y-117416039D01*
X138951280Y-117543597D01*
X138777705Y-117677152D01*
X138469996Y-117550565D01*
X138267460Y-117395476D01*
X138197995Y-117252019D01*
X138278293Y-117241937D01*
X138528660Y-117381498D01*
G37*
G36*
X147039490Y-120730648D02*
G01*
X147212912Y-120906424D01*
X147247195Y-120971590D01*
X147234637Y-121090482D01*
X147202276Y-121082200D01*
X147028854Y-120906424D01*
X146994571Y-120841258D01*
X147007129Y-120722366D01*
X147039490Y-120730648D01*
G37*
G36*
X144830795Y-104533547D02*
G01*
X145004217Y-104709323D01*
X145038500Y-104774489D01*
X145025942Y-104893381D01*
X144993581Y-104885099D01*
X144820159Y-104709323D01*
X144785876Y-104644157D01*
X144798434Y-104525265D01*
X144830795Y-104533547D01*
G37*
G36*
X143991898Y-104698460D02*
G01*
X143984825Y-104751886D01*
X143807840Y-104893381D01*
X143766186Y-104891271D01*
X143623782Y-104812214D01*
X143632252Y-104782690D01*
X143807840Y-104617294D01*
X143879137Y-104588534D01*
X143991898Y-104698460D01*
G37*
G36*
X140421430Y-108583010D02*
G01*
X140586825Y-108758598D01*
X140615585Y-108829895D01*
X140505659Y-108942656D01*
X140452233Y-108935583D01*
X140310738Y-108758598D01*
X140312849Y-108716944D01*
X140391905Y-108574540D01*
X140421430Y-108583010D01*
G37*
G36*
X140229345Y-114840793D02*
G01*
X140402767Y-115016569D01*
X140437050Y-115081735D01*
X140424493Y-115200627D01*
X140392132Y-115192345D01*
X140218709Y-115016569D01*
X140184427Y-114951403D01*
X140196984Y-114832511D01*
X140229345Y-114840793D01*
G37*
G36*
X140237372Y-111896053D02*
G01*
X140402767Y-112071642D01*
X140431527Y-112142939D01*
X140321601Y-112255700D01*
X140268176Y-112248627D01*
X140126681Y-112071642D01*
X140128791Y-112029988D01*
X140207847Y-111887584D01*
X140237372Y-111896053D01*
G37*
G36*
X141708749Y-120877986D02*
G01*
X141651932Y-120959750D01*
X141496253Y-121090482D01*
X141470522Y-121088691D01*
X141429988Y-120982146D01*
X141627583Y-120796819D01*
X141730443Y-120752036D01*
X141708749Y-120877986D01*
G37*
G36*
X139500054Y-117564942D02*
G01*
X139443236Y-117646706D01*
X139287557Y-117777439D01*
X139261826Y-117775647D01*
X139221293Y-117669103D01*
X139418887Y-117483776D01*
X139521747Y-117438992D01*
X139500054Y-117564942D01*
G37*
G36*
X150802043Y-120170192D02*
G01*
X150788760Y-120267632D01*
X150679338Y-120292898D01*
X150657309Y-120265921D01*
X150679338Y-120047487D01*
X150734699Y-120018692D01*
X150802043Y-120170192D01*
G37*
G36*
X149881753Y-120538308D02*
G01*
X149868470Y-120635748D01*
X149759048Y-120661014D01*
X149737020Y-120634037D01*
X149759048Y-120415603D01*
X149814409Y-120386808D01*
X149881753Y-120538308D01*
G37*
G36*
X149881753Y-114648453D02*
G01*
X149868470Y-114745893D01*
X149759048Y-114771159D01*
X149737020Y-114744182D01*
X149759048Y-114525748D01*
X149814409Y-114496953D01*
X149881753Y-114648453D01*
G37*
G36*
X149452284Y-111764878D02*
G01*
X149481080Y-111820240D01*
X149329579Y-111887584D01*
X149232139Y-111874301D01*
X149206874Y-111764878D01*
X149233851Y-111742850D01*
X149452284Y-111764878D01*
G37*
G36*
X148409289Y-117961497D02*
G01*
X148396006Y-118058937D01*
X148286584Y-118084202D01*
X148264556Y-118057225D01*
X148286584Y-117838791D01*
X148341945Y-117809996D01*
X148409289Y-117961497D01*
G37*
G36*
X148531995Y-115077922D02*
G01*
X148560790Y-115133283D01*
X148409289Y-115200627D01*
X148311849Y-115187344D01*
X148286584Y-115077922D01*
X148313561Y-115055894D01*
X148531995Y-115077922D01*
G37*
G36*
X148531995Y-112132994D02*
G01*
X148560790Y-112188356D01*
X148409289Y-112255700D01*
X148311849Y-112242417D01*
X148286584Y-112132994D01*
X148313561Y-112110966D01*
X148531995Y-112132994D01*
G37*
G36*
X146507357Y-118390965D02*
G01*
X146536152Y-118446327D01*
X146384652Y-118513671D01*
X146287212Y-118500388D01*
X146261946Y-118390965D01*
X146288923Y-118368937D01*
X146507357Y-118390965D01*
G37*
G36*
X146507357Y-115446038D02*
G01*
X146536152Y-115501399D01*
X146384652Y-115568743D01*
X146287212Y-115555460D01*
X146261946Y-115446038D01*
X146288923Y-115424010D01*
X146507357Y-115446038D01*
G37*
G36*
X146507357Y-103482270D02*
G01*
X146536152Y-103537631D01*
X146384652Y-103604975D01*
X146287212Y-103591692D01*
X146261946Y-103482270D01*
X146288923Y-103460242D01*
X146507357Y-103482270D01*
G37*
G36*
X144482719Y-104586618D02*
G01*
X144511514Y-104641979D01*
X144360014Y-104709323D01*
X144262574Y-104696040D01*
X144237309Y-104586618D01*
X144264285Y-104564589D01*
X144482719Y-104586618D01*
G37*
G36*
X142458081Y-103482270D02*
G01*
X142486877Y-103537631D01*
X142335376Y-103604975D01*
X142237936Y-103591692D01*
X142212671Y-103482270D01*
X142239648Y-103460242D01*
X142458081Y-103482270D01*
G37*
G36*
X141353734Y-115077922D02*
G01*
X141382529Y-115133283D01*
X141231028Y-115200627D01*
X141133589Y-115187344D01*
X141108323Y-115077922D01*
X141135300Y-115055894D01*
X141353734Y-115077922D01*
G37*
G36*
X141231028Y-105813671D02*
G01*
X141217745Y-105911110D01*
X141108323Y-105936376D01*
X141086295Y-105909399D01*
X141108323Y-105690965D01*
X141163684Y-105662170D01*
X141231028Y-105813671D01*
G37*
G36*
X140862912Y-115016569D02*
G01*
X140849629Y-115114009D01*
X140740207Y-115139275D01*
X140718179Y-115112298D01*
X140740207Y-114893864D01*
X140795568Y-114865069D01*
X140862912Y-115016569D01*
G37*
G36*
X140862912Y-112071642D02*
G01*
X140849629Y-112169081D01*
X140740207Y-112194347D01*
X140718179Y-112167370D01*
X140740207Y-111948936D01*
X140795568Y-111920141D01*
X140862912Y-112071642D01*
G37*
G36*
X140494796Y-117961497D02*
G01*
X140481513Y-118058937D01*
X140372091Y-118084202D01*
X140350063Y-118057225D01*
X140372091Y-117838791D01*
X140427453Y-117809996D01*
X140494796Y-117961497D01*
G37*
G36*
X139022333Y-114648453D02*
G01*
X139009050Y-114745893D01*
X138899627Y-114771159D01*
X138877599Y-114744182D01*
X138899627Y-114525748D01*
X138954989Y-114496953D01*
X139022333Y-114648453D01*
G37*
G36*
X138102043Y-120170192D02*
G01*
X138088760Y-120267632D01*
X137979338Y-120292898D01*
X137957309Y-120265921D01*
X137979338Y-120047487D01*
X138034699Y-120018692D01*
X138102043Y-120170192D01*
G37*
G36*
X137733927Y-117225265D02*
G01*
X137720644Y-117322705D01*
X137611222Y-117347970D01*
X137589193Y-117320993D01*
X137611222Y-117102560D01*
X137666583Y-117073764D01*
X137733927Y-117225265D01*
G37*
G36*
X151722333Y-120078163D02*
G01*
X151630304Y-120170192D01*
X151538275Y-120078163D01*
X151630304Y-119986134D01*
X151722333Y-120078163D01*
G37*
G36*
X151170159Y-120262221D02*
G01*
X151078130Y-120354250D01*
X150986101Y-120262221D01*
X151078130Y-120170192D01*
X151170159Y-120262221D01*
G37*
G36*
X151170159Y-117133236D02*
G01*
X151078130Y-117225265D01*
X150986101Y-117133236D01*
X151078130Y-117041207D01*
X151170159Y-117133236D01*
G37*
G36*
X150433927Y-114740482D02*
G01*
X150341898Y-114832511D01*
X150249869Y-114740482D01*
X150341898Y-114648453D01*
X150433927Y-114740482D01*
G37*
G36*
X149513637Y-120630337D02*
G01*
X149421608Y-120722366D01*
X149329579Y-120630337D01*
X149421608Y-120538308D01*
X149513637Y-120630337D01*
G37*
G36*
X149513637Y-117685410D02*
G01*
X149421608Y-117777439D01*
X149329579Y-117685410D01*
X149421608Y-117593381D01*
X149513637Y-117685410D01*
G37*
G36*
X149513637Y-114740482D02*
G01*
X149421608Y-114832511D01*
X149329579Y-114740482D01*
X149421608Y-114648453D01*
X149513637Y-114740482D01*
G37*
G36*
X149145521Y-117501352D02*
G01*
X149053492Y-117593381D01*
X148961463Y-117501352D01*
X149053492Y-117409323D01*
X149145521Y-117501352D01*
G37*
G36*
X148961463Y-114924540D02*
G01*
X148869434Y-115016569D01*
X148777405Y-114924540D01*
X148869434Y-114832511D01*
X148961463Y-114924540D01*
G37*
G36*
X148961463Y-111611497D02*
G01*
X148869434Y-111703526D01*
X148777405Y-111611497D01*
X148869434Y-111519468D01*
X148961463Y-111611497D01*
G37*
G36*
X148777405Y-117869468D02*
G01*
X148685376Y-117961497D01*
X148593347Y-117869468D01*
X148685376Y-117777439D01*
X148777405Y-117869468D01*
G37*
G36*
X147857115Y-108666569D02*
G01*
X147765086Y-108758598D01*
X147673057Y-108666569D01*
X147765086Y-108574540D01*
X147857115Y-108666569D01*
G37*
G36*
X147488999Y-115108598D02*
G01*
X147396970Y-115200627D01*
X147304941Y-115108598D01*
X147396970Y-115016569D01*
X147488999Y-115108598D01*
G37*
G36*
X147488999Y-112163671D02*
G01*
X147396970Y-112255700D01*
X147304941Y-112163671D01*
X147396970Y-112071642D01*
X147488999Y-112163671D01*
G37*
G36*
X147304941Y-109034685D02*
G01*
X147212912Y-109126714D01*
X147120883Y-109034685D01*
X147212912Y-108942656D01*
X147304941Y-109034685D01*
G37*
G36*
X147120883Y-117869468D02*
G01*
X147028854Y-117961497D01*
X146936825Y-117869468D01*
X147028854Y-117777439D01*
X147120883Y-117869468D01*
G37*
G36*
X147120883Y-114924540D02*
G01*
X147028854Y-115016569D01*
X146936825Y-114924540D01*
X147028854Y-114832511D01*
X147120883Y-114924540D01*
G37*
G36*
X147120883Y-112163671D02*
G01*
X147028854Y-112255700D01*
X146936825Y-112163671D01*
X147028854Y-112071642D01*
X147120883Y-112163671D01*
G37*
G36*
X147120883Y-106089758D02*
G01*
X147028854Y-106181787D01*
X146936825Y-106089758D01*
X147028854Y-105997729D01*
X147120883Y-106089758D01*
G37*
G36*
X146936825Y-121366569D02*
G01*
X146844796Y-121458598D01*
X146752767Y-121366569D01*
X146844796Y-121274540D01*
X146936825Y-121366569D01*
G37*
G36*
X146752767Y-111979613D02*
G01*
X146660738Y-112071642D01*
X146568709Y-111979613D01*
X146660738Y-111887584D01*
X146752767Y-111979613D01*
G37*
G36*
X146752767Y-109034685D02*
G01*
X146660738Y-109126714D01*
X146568709Y-109034685D01*
X146660738Y-108942656D01*
X146752767Y-109034685D01*
G37*
G36*
X146568709Y-106089758D02*
G01*
X146476681Y-106181787D01*
X146384652Y-106089758D01*
X146476681Y-105997729D01*
X146568709Y-106089758D01*
G37*
G36*
X146384652Y-121182511D02*
G01*
X146292623Y-121274540D01*
X146200594Y-121182511D01*
X146292623Y-121090482D01*
X146384652Y-121182511D01*
G37*
G36*
X146384652Y-109034685D02*
G01*
X146292623Y-109126714D01*
X146200594Y-109034685D01*
X146292623Y-108942656D01*
X146384652Y-109034685D01*
G37*
G36*
X146200594Y-112531787D02*
G01*
X146108565Y-112623816D01*
X146016536Y-112531787D01*
X146108565Y-112439758D01*
X146200594Y-112531787D01*
G37*
G36*
X146016536Y-118237584D02*
G01*
X145924507Y-118329613D01*
X145832478Y-118237584D01*
X145924507Y-118145555D01*
X146016536Y-118237584D01*
G37*
G36*
X146016536Y-115292656D02*
G01*
X145924507Y-115384685D01*
X145832478Y-115292656D01*
X145924507Y-115200627D01*
X146016536Y-115292656D01*
G37*
G36*
X146016536Y-106641932D02*
G01*
X145924507Y-106733961D01*
X145832478Y-106641932D01*
X145924507Y-106549903D01*
X146016536Y-106641932D01*
G37*
G36*
X145464362Y-104433236D02*
G01*
X145372333Y-104525265D01*
X145280304Y-104433236D01*
X145372333Y-104341207D01*
X145464362Y-104433236D01*
G37*
G36*
X143623782Y-104433236D02*
G01*
X143531753Y-104525265D01*
X143439724Y-104433236D01*
X143531753Y-104341207D01*
X143623782Y-104433236D01*
G37*
G36*
X142887550Y-118237584D02*
G01*
X142795521Y-118329613D01*
X142703492Y-118237584D01*
X142795521Y-118145555D01*
X142887550Y-118237584D01*
G37*
G36*
X142887550Y-115292656D02*
G01*
X142795521Y-115384685D01*
X142703492Y-115292656D01*
X142795521Y-115200627D01*
X142887550Y-115292656D01*
G37*
G36*
X142887550Y-106641932D02*
G01*
X142795521Y-106733961D01*
X142703492Y-106641932D01*
X142795521Y-106549903D01*
X142887550Y-106641932D01*
G37*
G36*
X142519434Y-121182511D02*
G01*
X142427405Y-121274540D01*
X142335376Y-121182511D01*
X142427405Y-121090482D01*
X142519434Y-121182511D01*
G37*
G36*
X142519434Y-109034685D02*
G01*
X142427405Y-109126714D01*
X142335376Y-109034685D01*
X142427405Y-108942656D01*
X142519434Y-109034685D01*
G37*
G36*
X142335376Y-106089758D02*
G01*
X142243347Y-106181787D01*
X142151318Y-106089758D01*
X142243347Y-105997729D01*
X142335376Y-106089758D01*
G37*
G36*
X142151318Y-111979613D02*
G01*
X142059289Y-112071642D01*
X141967260Y-111979613D01*
X142059289Y-111887584D01*
X142151318Y-111979613D01*
G37*
G36*
X142151318Y-109034685D02*
G01*
X142059289Y-109126714D01*
X141967260Y-109034685D01*
X142059289Y-108942656D01*
X142151318Y-109034685D01*
G37*
G36*
X141967260Y-118421642D02*
G01*
X141875231Y-118513671D01*
X141783202Y-118421642D01*
X141875231Y-118329613D01*
X141967260Y-118421642D01*
G37*
G36*
X141967260Y-115476714D02*
G01*
X141875231Y-115568743D01*
X141783202Y-115476714D01*
X141875231Y-115384685D01*
X141967260Y-115476714D01*
G37*
G36*
X141783202Y-117869468D02*
G01*
X141691173Y-117961497D01*
X141599144Y-117869468D01*
X141691173Y-117777439D01*
X141783202Y-117869468D01*
G37*
G36*
X141783202Y-114924540D02*
G01*
X141691173Y-115016569D01*
X141599144Y-114924540D01*
X141691173Y-114832511D01*
X141783202Y-114924540D01*
G37*
G36*
X141783202Y-106089758D02*
G01*
X141691173Y-106181787D01*
X141599144Y-106089758D01*
X141691173Y-105997729D01*
X141783202Y-106089758D01*
G37*
G36*
X141415086Y-112163671D02*
G01*
X141323057Y-112255700D01*
X141231028Y-112163671D01*
X141323057Y-112071642D01*
X141415086Y-112163671D01*
G37*
G36*
X141046970Y-108666569D02*
G01*
X140954941Y-108758598D01*
X140862912Y-108666569D01*
X140954941Y-108574540D01*
X141046970Y-108666569D01*
G37*
G36*
X140126681Y-117869468D02*
G01*
X140034652Y-117961497D01*
X139942623Y-117869468D01*
X140034652Y-117777439D01*
X140126681Y-117869468D01*
G37*
G36*
X139942623Y-120814395D02*
G01*
X139850594Y-120906424D01*
X139758565Y-120814395D01*
X139850594Y-120722366D01*
X139942623Y-120814395D01*
G37*
G36*
X139942623Y-114924540D02*
G01*
X139850594Y-115016569D01*
X139758565Y-114924540D01*
X139850594Y-114832511D01*
X139942623Y-114924540D01*
G37*
G36*
X139942623Y-111611497D02*
G01*
X139850594Y-111703526D01*
X139758565Y-111611497D01*
X139850594Y-111519468D01*
X139942623Y-111611497D01*
G37*
G36*
X139574507Y-111795555D02*
G01*
X139482478Y-111887584D01*
X139390449Y-111795555D01*
X139482478Y-111703526D01*
X139574507Y-111795555D01*
G37*
G36*
X139390449Y-120630337D02*
G01*
X139298420Y-120722366D01*
X139206391Y-120630337D01*
X139298420Y-120538308D01*
X139390449Y-120630337D01*
G37*
G36*
X139390449Y-114740482D02*
G01*
X139298420Y-114832511D01*
X139206391Y-114740482D01*
X139298420Y-114648453D01*
X139390449Y-114740482D01*
G37*
G36*
X139206391Y-111795555D02*
G01*
X139114362Y-111887584D01*
X139022333Y-111795555D01*
X139114362Y-111703526D01*
X139206391Y-111795555D01*
G37*
G36*
X139022333Y-120446279D02*
G01*
X138930304Y-120538308D01*
X138838275Y-120446279D01*
X138930304Y-120354250D01*
X139022333Y-120446279D01*
G37*
G36*
X138286101Y-120630337D02*
G01*
X138194072Y-120722366D01*
X138102043Y-120630337D01*
X138194072Y-120538308D01*
X138286101Y-120630337D01*
G37*
G36*
X137733927Y-120262221D02*
G01*
X137641898Y-120354250D01*
X137549869Y-120262221D01*
X137641898Y-120170192D01*
X137733927Y-120262221D01*
G37*
G36*
X137181753Y-120078163D02*
G01*
X137089724Y-120170192D01*
X136997695Y-120078163D01*
X137089724Y-119986134D01*
X137181753Y-120078163D01*
G37*
G36*
X136813637Y-120262221D02*
G01*
X136721608Y-120354250D01*
X136629579Y-120262221D01*
X136721608Y-120170192D01*
X136813637Y-120262221D01*
G37*
%TD*%
M02*
