%TF.GenerationSoftware,KiCad,Pcbnew,9.0.2*%
%TF.CreationDate,2025-09-06T01:51:39+01:00*%
%TF.ProjectId,msxpi,6d737870-692e-46b6-9963-61645f706362,1.1 Rev 1*%
%TF.SameCoordinates,Original*%
%TF.FileFunction,Profile,NP*%
%FSLAX46Y46*%
G04 Gerber Fmt 4.6, Leading zero omitted, Abs format (unit mm)*
G04 Created by KiCad (PCBNEW 9.0.2) date 2025-09-06 01:51:39*
%MOMM*%
%LPD*%
G01*
G04 APERTURE LIST*
%TA.AperFunction,Profile*%
%ADD10C,0.120000*%
%TD*%
G04 APERTURE END LIST*
D10*
%TO.C,J1*%
X195328000Y-104346000D02*
G75*
G02*
X190328000Y-104346000I-2500000J0D01*
G01*
X190328000Y-104346000D02*
G75*
G02*
X195328000Y-104346000I2500000J0D01*
G01*
X185178000Y-120546000D02*
G75*
G02*
X180178000Y-120546000I-2500000J0D01*
G01*
X180178000Y-120546000D02*
G75*
G02*
X185178000Y-120546000I2500000J0D01*
G01*
X128668000Y-114846000D02*
G75*
G02*
X123668000Y-114846000I-2500000J0D01*
G01*
X123668000Y-114846000D02*
G75*
G02*
X128668000Y-114846000I2500000J0D01*
G01*
X198778000Y-72746000D02*
X198778000Y-126734435D01*
X198778000Y-72746000D02*
X98878000Y-72746000D01*
X186858000Y-126734435D02*
X198778000Y-126734435D01*
X186858000Y-126734435D02*
X186858000Y-135437713D01*
X186475705Y-136020006D02*
X186858000Y-135437713D01*
X186072980Y-136390512D02*
X186475705Y-136020006D01*
X185328957Y-136736806D02*
X186072980Y-136390512D01*
X122935721Y-136736806D02*
X185328957Y-136736806D01*
X122012654Y-136387883D02*
X122935721Y-136736806D01*
X121559164Y-135955987D02*
X122012654Y-136387883D01*
X121408000Y-135437713D02*
X121559164Y-135955987D01*
X121408000Y-135437713D02*
X121408000Y-126734435D01*
X109168000Y-126734435D02*
X121408000Y-126734435D01*
X109168000Y-114746000D02*
X109168000Y-126734435D01*
X98878000Y-114746000D02*
X109168000Y-114746000D01*
X98878000Y-114746000D02*
X98878000Y-72746000D01*
%TD*%
M02*
