M48
; DRILL file {KiCad (5.1.5)-3} date 28/07/2020 20:00:19
; FORMAT={-:-/ absolute / inch / decimal}
; #@! TF.CreationDate,2020-07-28T20:00:19+01:00
; #@! TF.GenerationSoftware,Kicad,Pcbnew,(5.1.5)-3
; #@! TF.FileFunction,Plated,1,2,PTH
FMAT,2
INCH
T1C0.0157
T2C0.0276
T3C0.0295
T4C0.0315
T5C0.0354
T6C0.0394
T7C0.0400
%
G90
G05
T1
X6.2492Y-0.2292
X6.25Y-0.43
X6.29Y-0.08
X6.39Y-0.01
X6.43Y-0.59
X6.4363Y-0.2636
X6.47Y-1.79
X6.5035Y-0.6235
X6.559Y-0.883
X6.68Y-0.76
X6.68Y-0.91
X6.68Y-0.91
X6.68Y-1.71
X6.7155Y-0.2222
X6.82Y-1.1652
X6.9Y-1.81
X6.9415Y-1.7081
X6.99Y-1.85
X7.03Y-0.8
X7.0365Y-0.7327
X7.11Y-1.1665
X7.16Y-0.46
X7.2Y-0.75
X7.3Y-1.83
X7.32Y-0.279
X7.45Y-1.83
X7.54Y-1.34
X7.56Y-1.85
X7.61Y-1.33
X7.6157Y-0.2832
X7.69Y-1.33
X7.75Y-1.04
X7.76Y-0.87
X7.89Y-1.86
X7.97Y-1.05
X7.976Y-0.9732
X7.9915Y-1.1335
X8.02Y-1.86
X8.1Y-1.1
X8.1276Y-1.0323
X8.1356Y-1.8712
X8.2239Y-1.4587
X8.2894Y-1.0565
X8.35Y-1.66
X8.43Y-1.05
X8.5Y-1.28
X8.67Y-1.14
T2
X5.86Y-0.32
X5.86Y-0.52
X7.09Y0.0
X7.09Y-0.2
X5.56Y-0.32
X5.56Y-0.52
X7.19Y0.0
X7.19Y-0.2
X5.66Y-0.32
X5.66Y-0.52
X6.47Y0.19
X6.67Y0.19
X7.49Y0.0
X7.49Y-0.2
X7.39Y0.0
X7.39Y-0.2
X5.76Y-0.32
X5.76Y-0.52
X7.29Y0.0
X7.29Y-0.2
T3
X8.9113Y-1.14
X8.9113Y-1.2187
X8.9113Y-1.2975
X8.9113Y-1.3762
X8.9113Y-1.455
X8.99Y-1.14
X8.99Y-1.2187
X8.99Y-1.2975
X8.99Y-1.3762
X8.99Y-1.455
T4
X5.54Y-0.96
X5.54Y-1.0584
X9.13Y-0.57
X9.13Y-0.6684
X6.54Y-0.18
X6.6384Y-0.18
X6.5816Y-1.27
X6.68Y-1.27
X6.24Y-0.49
X6.24Y-0.59
X6.24Y-0.69
X6.24Y-0.79
X6.24Y-0.89
X6.24Y-0.99
X6.34Y-0.39
X6.34Y-0.49
X6.34Y-0.59
X6.34Y-0.69
X6.34Y-0.79
X6.34Y-0.89
X6.34Y-0.99
X6.34Y-1.09
X6.44Y-0.39
X6.44Y-0.49
X6.44Y-0.99
X6.44Y-1.09
X6.54Y-0.39
X6.54Y-0.49
X6.54Y-0.99
X6.54Y-1.09
X6.64Y-0.39
X6.64Y-0.49
X6.64Y-0.99
X6.64Y-1.09
X6.74Y-0.39
X6.74Y-0.49
X6.74Y-0.99
X6.74Y-1.09
X6.84Y-0.39
X6.84Y-0.49
X6.84Y-0.59
X6.84Y-0.69
X6.84Y-0.79
X6.84Y-0.89
X6.84Y-0.99
X6.84Y-1.09
X6.94Y-0.49
X6.94Y-0.59
X6.94Y-0.69
X6.94Y-0.79
X6.94Y-0.89
X6.94Y-0.99
X7.12Y-0.71
X7.12Y-0.8084
X5.75Y-1.19
X5.8484Y-1.19
X5.9416Y-0.66
X6.04Y-0.66
X8.95Y-0.08
X8.95Y-0.1784
X7.72Y-0.34
X7.72Y-0.94
X7.82Y-0.34
X7.82Y-0.94
X7.92Y-0.34
X7.92Y-0.94
X8.02Y-0.34
X8.02Y-0.94
X8.12Y-0.34
X8.12Y-0.94
X8.22Y-0.34
X8.22Y-0.94
X8.32Y-0.34
X8.32Y-0.94
X8.42Y-0.34
X8.42Y-0.94
X8.52Y-0.34
X8.52Y-0.94
X8.62Y-0.34
X8.62Y-0.94
X8.72Y-0.34
X8.72Y-0.94
X8.82Y-0.34
X8.82Y-0.94
X8.92Y-0.34
X8.92Y-0.94
X9.02Y-0.34
X9.02Y-0.94
X6.06Y-0.9016
X6.06Y-1.0
T5
X6.2598Y0.1906
X6.3598Y0.1906
T6
X7.08Y0.21
X7.08Y0.11
X7.18Y0.21
X7.18Y0.11
X7.28Y0.21
X7.28Y0.11
X7.38Y0.21
X7.38Y0.11
X7.48Y0.21
X7.48Y0.11
X7.58Y0.21
X7.58Y0.11
X7.68Y0.21
X7.68Y0.11
X7.78Y0.21
X7.78Y0.11
X7.88Y0.21
X7.88Y0.11
X7.98Y0.21
X7.98Y0.11
X8.08Y0.21
X8.08Y0.11
X8.18Y0.21
X8.18Y0.11
X8.28Y0.21
X8.28Y0.11
X8.38Y0.21
X8.38Y0.11
X8.48Y0.21
X8.48Y0.11
X8.58Y0.21
X8.58Y0.11
X8.68Y0.21
X8.68Y0.11
X8.78Y0.21
X8.78Y0.11
X8.88Y0.21
X8.88Y0.11
X8.98Y0.21
X8.98Y0.11
T7
X5.56Y-0.13
X5.56Y-0.23
X5.66Y-0.13
X5.66Y-0.23
X5.76Y-0.13
X5.76Y-0.23
X5.86Y-0.13
X5.86Y-0.23
X5.96Y-0.13
X5.96Y-0.23
T0
M30
