%FSLAX45Y45*%
G04 Gerber Fmt 4.5, Leading zero omitted, Abs format (unit mm)*
G04 Created by KiCad (PCBNEW (5.1.5)-3) date 2020-07-28 20:00:21*
%MOMM*%
%LPD*%
G04 APERTURE LIST*
%TA.AperFunction,Profile*%
%ADD10C,0.050000*%
%TD*%
%ADD11C,0.200000*%
%ADD12C,0.300000*%
G04 APERTURE END LIST*
D10*
X13538200Y787400D02*
X23799800Y787400D01*
X13538200Y-3530600D02*
X13538200Y787400D01*
X14681200Y-3530600D02*
X13538200Y-3530600D01*
X14681200Y-4622800D02*
X14681200Y-3530600D01*
X15925800Y-4622800D02*
X14681200Y-4622800D01*
X15925800Y-5664200D02*
X15925800Y-4622800D01*
X15951200Y-5715000D02*
X15925800Y-5664200D01*
X16002000Y-5740400D02*
X15951200Y-5715000D01*
X22352000Y-5740400D02*
X16002000Y-5740400D01*
X22402800Y-5715000D02*
X22352000Y-5740400D01*
X22428200Y-5664200D02*
X22402800Y-5715000D01*
X22428200Y-4622800D02*
X22428200Y-5664200D01*
X23799800Y-4622800D02*
X22428200Y-4622800D01*
X23799800Y787400D02*
X23799800Y-4622800D01*
D11*
X16109772Y-3360091D02*
X16609772Y-3860091D01*
X16609772Y-3360091D02*
X16109772Y-3860091D01*
X21709710Y-3880283D02*
X22209710Y-4380283D01*
X22209710Y-3880283D02*
X21709710Y-4380283D01*
D12*
X13822128Y-6208614D02*
X13822128Y-5908614D01*
X13893557Y-5908614D01*
X13936414Y-5922900D01*
X13964986Y-5951471D01*
X13979271Y-5980043D01*
X13993557Y-6037186D01*
X13993557Y-6080043D01*
X13979271Y-6137186D01*
X13964986Y-6165757D01*
X13936414Y-6194329D01*
X13893557Y-6208614D01*
X13822128Y-6208614D01*
X14122128Y-6208614D02*
X14122128Y-6008614D01*
X14122128Y-6065757D02*
X14136414Y-6037186D01*
X14150700Y-6022900D01*
X14179271Y-6008614D01*
X14207843Y-6008614D01*
X14307843Y-6208614D02*
X14307843Y-6008614D01*
X14307843Y-5908614D02*
X14293557Y-5922900D01*
X14307843Y-5937186D01*
X14322128Y-5922900D01*
X14307843Y-5908614D01*
X14307843Y-5937186D01*
X14493557Y-6208614D02*
X14464986Y-6194329D01*
X14450700Y-6165757D01*
X14450700Y-5908614D01*
X14650700Y-6208614D02*
X14622128Y-6194329D01*
X14607843Y-6165757D01*
X14607843Y-5908614D01*
X14993557Y-6208614D02*
X14993557Y-5908614D01*
X15093557Y-6122900D01*
X15193557Y-5908614D01*
X15193557Y-6208614D01*
X15464986Y-6208614D02*
X15464986Y-6051471D01*
X15450700Y-6022900D01*
X15422128Y-6008614D01*
X15364986Y-6008614D01*
X15336414Y-6022900D01*
X15464986Y-6194329D02*
X15436414Y-6208614D01*
X15364986Y-6208614D01*
X15336414Y-6194329D01*
X15322128Y-6165757D01*
X15322128Y-6137186D01*
X15336414Y-6108614D01*
X15364986Y-6094329D01*
X15436414Y-6094329D01*
X15464986Y-6080043D01*
X15607843Y-6008614D02*
X15607843Y-6308614D01*
X15607843Y-6022900D02*
X15636414Y-6008614D01*
X15693557Y-6008614D01*
X15722128Y-6022900D01*
X15736414Y-6037186D01*
X15750700Y-6065757D01*
X15750700Y-6151471D01*
X15736414Y-6180043D01*
X15722128Y-6194329D01*
X15693557Y-6208614D01*
X15636414Y-6208614D01*
X15607843Y-6194329D01*
X15879271Y-6180043D02*
X15893557Y-6194329D01*
X15879271Y-6208614D01*
X15864986Y-6194329D01*
X15879271Y-6180043D01*
X15879271Y-6208614D01*
X15879271Y-6022900D02*
X15893557Y-6037186D01*
X15879271Y-6051471D01*
X15864986Y-6037186D01*
X15879271Y-6022900D01*
X15879271Y-6051471D01*
X13035700Y-6452900D02*
X13535700Y-6952900D01*
X13535700Y-6452900D02*
X13035700Y-6952900D01*
X13964986Y-6538614D02*
X13822128Y-6538614D01*
X13807843Y-6681471D01*
X13822128Y-6667186D01*
X13850700Y-6652900D01*
X13922128Y-6652900D01*
X13950700Y-6667186D01*
X13964986Y-6681471D01*
X13979271Y-6710043D01*
X13979271Y-6781471D01*
X13964986Y-6810043D01*
X13950700Y-6824329D01*
X13922128Y-6838614D01*
X13850700Y-6838614D01*
X13822128Y-6824329D01*
X13807843Y-6810043D01*
X14107843Y-6810043D02*
X14122128Y-6824329D01*
X14107843Y-6838614D01*
X14093557Y-6824329D01*
X14107843Y-6810043D01*
X14107843Y-6838614D01*
X14307843Y-6538614D02*
X14336414Y-6538614D01*
X14364986Y-6552900D01*
X14379271Y-6567186D01*
X14393557Y-6595757D01*
X14407843Y-6652900D01*
X14407843Y-6724329D01*
X14393557Y-6781471D01*
X14379271Y-6810043D01*
X14364986Y-6824329D01*
X14336414Y-6838614D01*
X14307843Y-6838614D01*
X14279271Y-6824329D01*
X14264986Y-6810043D01*
X14250700Y-6781471D01*
X14236414Y-6724329D01*
X14236414Y-6652900D01*
X14250700Y-6595757D01*
X14264986Y-6567186D01*
X14279271Y-6552900D01*
X14307843Y-6538614D01*
X14593557Y-6538614D02*
X14622128Y-6538614D01*
X14650700Y-6552900D01*
X14664986Y-6567186D01*
X14679271Y-6595757D01*
X14693557Y-6652900D01*
X14693557Y-6724329D01*
X14679271Y-6781471D01*
X14664986Y-6810043D01*
X14650700Y-6824329D01*
X14622128Y-6838614D01*
X14593557Y-6838614D01*
X14564986Y-6824329D01*
X14550700Y-6810043D01*
X14536414Y-6781471D01*
X14522128Y-6724329D01*
X14522128Y-6652900D01*
X14536414Y-6595757D01*
X14550700Y-6567186D01*
X14564986Y-6552900D01*
X14593557Y-6538614D01*
X14822128Y-6838614D02*
X14822128Y-6638614D01*
X14822128Y-6667186D02*
X14836414Y-6652900D01*
X14864986Y-6638614D01*
X14907843Y-6638614D01*
X14936414Y-6652900D01*
X14950700Y-6681471D01*
X14950700Y-6838614D01*
X14950700Y-6681471D02*
X14964986Y-6652900D01*
X14993557Y-6638614D01*
X15036414Y-6638614D01*
X15064986Y-6652900D01*
X15079271Y-6681471D01*
X15079271Y-6838614D01*
X15222128Y-6838614D02*
X15222128Y-6638614D01*
X15222128Y-6667186D02*
X15236414Y-6652900D01*
X15264986Y-6638614D01*
X15307843Y-6638614D01*
X15336414Y-6652900D01*
X15350700Y-6681471D01*
X15350700Y-6838614D01*
X15350700Y-6681471D02*
X15364986Y-6652900D01*
X15393557Y-6638614D01*
X15436414Y-6638614D01*
X15464986Y-6652900D01*
X15479271Y-6681471D01*
X15479271Y-6838614D01*
X16064986Y-6524329D02*
X15807843Y-6910043D01*
X16450700Y-6538614D02*
X16479271Y-6538614D01*
X16507843Y-6552900D01*
X16522128Y-6567186D01*
X16536414Y-6595757D01*
X16550700Y-6652900D01*
X16550700Y-6724329D01*
X16536414Y-6781471D01*
X16522128Y-6810043D01*
X16507843Y-6824329D01*
X16479271Y-6838614D01*
X16450700Y-6838614D01*
X16422128Y-6824329D01*
X16407843Y-6810043D01*
X16393557Y-6781471D01*
X16379271Y-6724329D01*
X16379271Y-6652900D01*
X16393557Y-6595757D01*
X16407843Y-6567186D01*
X16422128Y-6552900D01*
X16450700Y-6538614D01*
X16679271Y-6810043D02*
X16693557Y-6824329D01*
X16679271Y-6838614D01*
X16664986Y-6824329D01*
X16679271Y-6810043D01*
X16679271Y-6838614D01*
X16979271Y-6838614D02*
X16807843Y-6838614D01*
X16893557Y-6838614D02*
X16893557Y-6538614D01*
X16864986Y-6581471D01*
X16836414Y-6610043D01*
X16807843Y-6624329D01*
X17122128Y-6838614D02*
X17179271Y-6838614D01*
X17207843Y-6824329D01*
X17222128Y-6810043D01*
X17250700Y-6767186D01*
X17264986Y-6710043D01*
X17264986Y-6595757D01*
X17250700Y-6567186D01*
X17236414Y-6552900D01*
X17207843Y-6538614D01*
X17150700Y-6538614D01*
X17122128Y-6552900D01*
X17107843Y-6567186D01*
X17093557Y-6595757D01*
X17093557Y-6667186D01*
X17107843Y-6695757D01*
X17122128Y-6710043D01*
X17150700Y-6724329D01*
X17207843Y-6724329D01*
X17236414Y-6710043D01*
X17250700Y-6695757D01*
X17264986Y-6667186D01*
X17364986Y-6538614D02*
X17564986Y-6538614D01*
X17436414Y-6838614D01*
X17664986Y-6538614D02*
X17664986Y-6595757D01*
X17779271Y-6538614D02*
X17779271Y-6595757D01*
X18222128Y-6952900D02*
X18207843Y-6938614D01*
X18179271Y-6895757D01*
X18164986Y-6867186D01*
X18150700Y-6824329D01*
X18136414Y-6752900D01*
X18136414Y-6695757D01*
X18150700Y-6624329D01*
X18164986Y-6581471D01*
X18179271Y-6552900D01*
X18207843Y-6510043D01*
X18222128Y-6495757D01*
X18322128Y-6567186D02*
X18336414Y-6552900D01*
X18364986Y-6538614D01*
X18436414Y-6538614D01*
X18464986Y-6552900D01*
X18479271Y-6567186D01*
X18493557Y-6595757D01*
X18493557Y-6624329D01*
X18479271Y-6667186D01*
X18307843Y-6838614D01*
X18493557Y-6838614D01*
X18850700Y-6838614D02*
X18850700Y-6538614D01*
X18979271Y-6838614D02*
X18979271Y-6681471D01*
X18964986Y-6652900D01*
X18936414Y-6638614D01*
X18893557Y-6638614D01*
X18864986Y-6652900D01*
X18850700Y-6667186D01*
X19164986Y-6838614D02*
X19136414Y-6824329D01*
X19122128Y-6810043D01*
X19107843Y-6781471D01*
X19107843Y-6695757D01*
X19122128Y-6667186D01*
X19136414Y-6652900D01*
X19164986Y-6638614D01*
X19207843Y-6638614D01*
X19236414Y-6652900D01*
X19250700Y-6667186D01*
X19264986Y-6695757D01*
X19264986Y-6781471D01*
X19250700Y-6810043D01*
X19236414Y-6824329D01*
X19207843Y-6838614D01*
X19164986Y-6838614D01*
X19436414Y-6838614D02*
X19407843Y-6824329D01*
X19393557Y-6795757D01*
X19393557Y-6538614D01*
X19664986Y-6824329D02*
X19636414Y-6838614D01*
X19579271Y-6838614D01*
X19550700Y-6824329D01*
X19536414Y-6795757D01*
X19536414Y-6681471D01*
X19550700Y-6652900D01*
X19579271Y-6638614D01*
X19636414Y-6638614D01*
X19664986Y-6652900D01*
X19679271Y-6681471D01*
X19679271Y-6710043D01*
X19536414Y-6738614D01*
X19793557Y-6824329D02*
X19822128Y-6838614D01*
X19879271Y-6838614D01*
X19907843Y-6824329D01*
X19922128Y-6795757D01*
X19922128Y-6781471D01*
X19907843Y-6752900D01*
X19879271Y-6738614D01*
X19836414Y-6738614D01*
X19807843Y-6724329D01*
X19793557Y-6695757D01*
X19793557Y-6681471D01*
X19807843Y-6652900D01*
X19836414Y-6638614D01*
X19879271Y-6638614D01*
X19907843Y-6652900D01*
X20022128Y-6952900D02*
X20036414Y-6938614D01*
X20064986Y-6895757D01*
X20079271Y-6867186D01*
X20093557Y-6824329D01*
X20107843Y-6752900D01*
X20107843Y-6695757D01*
X20093557Y-6624329D01*
X20079271Y-6581471D01*
X20064986Y-6552900D01*
X20036414Y-6510043D01*
X20022128Y-6495757D01*
X20564986Y-6952900D02*
X20550700Y-6938614D01*
X20522128Y-6895757D01*
X20507843Y-6867186D01*
X20493557Y-6824329D01*
X20479271Y-6752900D01*
X20479271Y-6695757D01*
X20493557Y-6624329D01*
X20507843Y-6581471D01*
X20522128Y-6552900D01*
X20550700Y-6510043D01*
X20564986Y-6495757D01*
X20679271Y-6638614D02*
X20679271Y-6838614D01*
X20679271Y-6667186D02*
X20693557Y-6652900D01*
X20722128Y-6638614D01*
X20764986Y-6638614D01*
X20793557Y-6652900D01*
X20807843Y-6681471D01*
X20807843Y-6838614D01*
X20993557Y-6838614D02*
X20964986Y-6824329D01*
X20950700Y-6810043D01*
X20936414Y-6781471D01*
X20936414Y-6695757D01*
X20950700Y-6667186D01*
X20964986Y-6652900D01*
X20993557Y-6638614D01*
X21036414Y-6638614D01*
X21064986Y-6652900D01*
X21079271Y-6667186D01*
X21093557Y-6695757D01*
X21093557Y-6781471D01*
X21079271Y-6810043D01*
X21064986Y-6824329D01*
X21036414Y-6838614D01*
X20993557Y-6838614D01*
X21179271Y-6638614D02*
X21293557Y-6638614D01*
X21222128Y-6538614D02*
X21222128Y-6795757D01*
X21236414Y-6824329D01*
X21264986Y-6838614D01*
X21293557Y-6838614D01*
X21622128Y-6638614D02*
X21622128Y-6938614D01*
X21622128Y-6652900D02*
X21650700Y-6638614D01*
X21707843Y-6638614D01*
X21736414Y-6652900D01*
X21750700Y-6667186D01*
X21764986Y-6695757D01*
X21764986Y-6781471D01*
X21750700Y-6810043D01*
X21736414Y-6824329D01*
X21707843Y-6838614D01*
X21650700Y-6838614D01*
X21622128Y-6824329D01*
X21936414Y-6838614D02*
X21907843Y-6824329D01*
X21893557Y-6795757D01*
X21893557Y-6538614D01*
X22179271Y-6838614D02*
X22179271Y-6681471D01*
X22164986Y-6652900D01*
X22136414Y-6638614D01*
X22079271Y-6638614D01*
X22050700Y-6652900D01*
X22179271Y-6824329D02*
X22150700Y-6838614D01*
X22079271Y-6838614D01*
X22050700Y-6824329D01*
X22036414Y-6795757D01*
X22036414Y-6767186D01*
X22050700Y-6738614D01*
X22079271Y-6724329D01*
X22150700Y-6724329D01*
X22179271Y-6710043D01*
X22279271Y-6638614D02*
X22393557Y-6638614D01*
X22322128Y-6538614D02*
X22322128Y-6795757D01*
X22336414Y-6824329D01*
X22364986Y-6838614D01*
X22393557Y-6838614D01*
X22607843Y-6824329D02*
X22579271Y-6838614D01*
X22522128Y-6838614D01*
X22493557Y-6824329D01*
X22479271Y-6795757D01*
X22479271Y-6681471D01*
X22493557Y-6652900D01*
X22522128Y-6638614D01*
X22579271Y-6638614D01*
X22607843Y-6652900D01*
X22622128Y-6681471D01*
X22622128Y-6710043D01*
X22479271Y-6738614D01*
X22879271Y-6838614D02*
X22879271Y-6538614D01*
X22879271Y-6824329D02*
X22850700Y-6838614D01*
X22793557Y-6838614D01*
X22764986Y-6824329D01*
X22750700Y-6810043D01*
X22736414Y-6781471D01*
X22736414Y-6695757D01*
X22750700Y-6667186D01*
X22764986Y-6652900D01*
X22793557Y-6638614D01*
X22850700Y-6638614D01*
X22879271Y-6652900D01*
X22993557Y-6952900D02*
X23007843Y-6938614D01*
X23036414Y-6895757D01*
X23050700Y-6867186D01*
X23064986Y-6824329D01*
X23079271Y-6752900D01*
X23079271Y-6695757D01*
X23064986Y-6624329D01*
X23050700Y-6581471D01*
X23036414Y-6552900D01*
X23007843Y-6510043D01*
X22993557Y-6495757D01*
M02*
