G04 #@! TF.GenerationSoftware,KiCad,Pcbnew,(5.1.5)-3*
G04 #@! TF.CreationDate,2020-07-28T20:00:16+01:00*
G04 #@! TF.ProjectId,MSXPi_v1.0_Rev0,4d535850-695f-4763-912e-305f52657630,rev?*
G04 #@! TF.SameCoordinates,Original*
G04 #@! TF.FileFunction,Legend,Bot*
G04 #@! TF.FilePolarity,Positive*
%FSLAX46Y46*%
G04 Gerber Fmt 4.6, Leading zero omitted, Abs format (unit mm)*
G04 Created by KiCad (PCBNEW (5.1.5)-3) date 2020-07-28 20:00:16*
%MOMM*%
%LPD*%
G04 APERTURE LIST*
%ADD10C,0.010000*%
G04 APERTURE END LIST*
D10*
G36*
X151981174Y6797324D02*
G01*
X151937080Y6638930D01*
X151853351Y6339787D01*
X151736231Y5922144D01*
X151591967Y5408250D01*
X151426802Y4820355D01*
X151246982Y4180710D01*
X151142716Y3810000D01*
X150392464Y1143000D01*
X148345490Y1120322D01*
X147610859Y1116149D01*
X147013697Y1121207D01*
X146562066Y1135255D01*
X146264027Y1158051D01*
X146131925Y1186801D01*
X146012979Y1333801D01*
X145963498Y1561939D01*
X145990135Y1795101D01*
X146066933Y1930400D01*
X146185441Y1975012D01*
X146444274Y2006438D01*
X146852674Y2025344D01*
X147419884Y2032394D01*
X147485100Y2032473D01*
X147967447Y2038241D01*
X148414220Y2053805D01*
X148786747Y2077078D01*
X149046358Y2105975D01*
X149117028Y2120529D01*
X149594793Y2338697D01*
X150022293Y2705680D01*
X150380003Y3203773D01*
X150445134Y3324757D01*
X150604464Y3662118D01*
X150692544Y3938930D01*
X150729548Y4237176D01*
X150735874Y4506336D01*
X150668479Y5165244D01*
X150459676Y5734215D01*
X150106204Y6218198D01*
X149604802Y6622137D01*
X149192827Y6846557D01*
X148717000Y7069667D01*
X145330333Y7091973D01*
X141943666Y7114278D01*
X141181666Y6051704D01*
X140419666Y4989131D01*
X140234487Y5219784D01*
X140112210Y5381253D01*
X139921219Y5644018D01*
X139688936Y5969981D01*
X139472487Y6278367D01*
X138895666Y7106297D01*
X137646833Y7109149D01*
X137208808Y7107212D01*
X136837923Y7099973D01*
X136563690Y7088451D01*
X136415620Y7073666D01*
X136398000Y7066007D01*
X136445139Y6987696D01*
X136578184Y6789716D01*
X136784575Y6490159D01*
X137051753Y6107118D01*
X137367157Y5658685D01*
X137718229Y5162954D01*
X137753958Y5112680D01*
X138132162Y4574269D01*
X138458716Y4096615D01*
X138723622Y3695188D01*
X138916879Y3385460D01*
X139028489Y3182903D01*
X139051177Y3105506D01*
X138988697Y3012683D01*
X138841465Y2800196D01*
X138622496Y2486639D01*
X138344807Y2090602D01*
X138021416Y1630679D01*
X137665340Y1125461D01*
X137610552Y1047824D01*
X137253900Y540723D01*
X136931395Y78715D01*
X136655398Y-320213D01*
X136438269Y-638075D01*
X136292369Y-856884D01*
X136230057Y-958655D01*
X136228666Y-963009D01*
X136308353Y-981798D01*
X136527509Y-997655D01*
X136856278Y-1009286D01*
X137264803Y-1015393D01*
X137448901Y-1016000D01*
X138669136Y-1015999D01*
X139073463Y-444500D01*
X139327085Y-88931D01*
X139622659Y321157D01*
X139901362Y704198D01*
X139933657Y748258D01*
X140389525Y1369515D01*
X141203307Y176758D01*
X142017090Y-1016000D01*
X143271545Y-1016000D01*
X143710623Y-1013115D01*
X144082627Y-1005171D01*
X144358108Y-993232D01*
X144507620Y-978364D01*
X144526000Y-970626D01*
X144479392Y-892149D01*
X144347796Y-693184D01*
X144143558Y-391812D01*
X143879022Y-6109D01*
X143566530Y445844D01*
X143218428Y945969D01*
X143170244Y1014953D01*
X142815342Y1524731D01*
X142491830Y1993014D01*
X142212634Y2400805D01*
X141990679Y2729107D01*
X141838890Y2958923D01*
X141770192Y3071255D01*
X141768297Y3075532D01*
X141796303Y3188440D01*
X141907186Y3409507D01*
X142084703Y3709600D01*
X142312608Y4059590D01*
X142337140Y4095619D01*
X142952174Y4995334D01*
X145680373Y4995334D01*
X146470627Y4994729D01*
X147107982Y4991236D01*
X147608874Y4982338D01*
X147989736Y4965518D01*
X148267003Y4938258D01*
X148457110Y4898043D01*
X148576492Y4842355D01*
X148641582Y4768676D01*
X148668815Y4674490D01*
X148674627Y4557279D01*
X148674667Y4536742D01*
X148656333Y4369384D01*
X148586888Y4246166D01*
X148444667Y4160602D01*
X148208007Y4106206D01*
X147855241Y4076492D01*
X147364707Y4064975D01*
X147095582Y4064001D01*
X146466497Y4055617D01*
X145974269Y4025206D01*
X145587012Y3964879D01*
X145272839Y3866745D01*
X144999866Y3722916D01*
X144736207Y3525502D01*
X144662450Y3461964D01*
X144229242Y2976604D01*
X143947836Y2416452D01*
X143817863Y1780670D01*
X143808085Y1524000D01*
X143886848Y855874D01*
X144113290Y259927D01*
X144478425Y-249189D01*
X144973269Y-656825D01*
X145235076Y-802860D01*
X145675004Y-1018097D01*
X148843020Y-995882D01*
X152011037Y-973666D01*
X152477225Y779571D01*
X152615542Y1293308D01*
X152740380Y1744771D01*
X152845061Y2110801D01*
X152922906Y2368236D01*
X152967238Y2493917D01*
X152973960Y2502263D01*
X153001161Y2418572D01*
X153063989Y2200462D01*
X153154509Y1877147D01*
X153264787Y1477839D01*
X153386888Y1031754D01*
X153512877Y568105D01*
X153634818Y116107D01*
X153744778Y-295026D01*
X153834821Y-636080D01*
X153897013Y-877841D01*
X153923418Y-991094D01*
X153923808Y-994833D01*
X154002846Y-1003356D01*
X154216956Y-1010238D01*
X154531877Y-1014698D01*
X154851333Y-1016000D01*
X155778666Y-1016000D01*
X155936628Y-486833D01*
X156018035Y-207248D01*
X156130397Y187985D01*
X156260256Y651105D01*
X156394157Y1134354D01*
X156425623Y1248834D01*
X156544558Y1671958D01*
X156650640Y2030083D01*
X156735001Y2294720D01*
X156788771Y2437379D01*
X156800828Y2454197D01*
X156832884Y2375455D01*
X156897420Y2155976D01*
X156988011Y1819826D01*
X157098232Y1391072D01*
X157221657Y893781D01*
X157264240Y718530D01*
X157683480Y-1016000D01*
X158776132Y-1016000D01*
X159243457Y-1012142D01*
X159561367Y-999247D01*
X159749635Y-975331D01*
X159828031Y-938410D01*
X159830918Y-910166D01*
X159803138Y-809096D01*
X159738128Y-560234D01*
X159640078Y-179979D01*
X159513182Y315271D01*
X159361632Y909120D01*
X159189618Y1585168D01*
X159001334Y2327019D01*
X158800971Y3118274D01*
X158791977Y3153834D01*
X157790901Y7112000D01*
X156836823Y7112000D01*
X156417497Y7109087D01*
X156137830Y7097412D01*
X155968203Y7072572D01*
X155878999Y7030165D01*
X155840599Y6965789D01*
X155840026Y6963834D01*
X155804821Y6838901D01*
X155732042Y6578596D01*
X155629438Y6210703D01*
X155504756Y5763007D01*
X155365744Y5263290D01*
X155352117Y5214276D01*
X155214384Y4732158D01*
X155089518Y4320167D01*
X154984902Y4000642D01*
X154907913Y3795922D01*
X154865934Y3728347D01*
X154862614Y3732610D01*
X154826030Y3847953D01*
X154750159Y4098932D01*
X154643024Y4458593D01*
X154512649Y4899982D01*
X154367057Y5396146D01*
X154348093Y5461000D01*
X153877886Y7069667D01*
X152973633Y7093657D01*
X152069381Y7117648D01*
X151981174Y6797324D01*
G37*
X151981174Y6797324D02*
X151937080Y6638930D01*
X151853351Y6339787D01*
X151736231Y5922144D01*
X151591967Y5408250D01*
X151426802Y4820355D01*
X151246982Y4180710D01*
X151142716Y3810000D01*
X150392464Y1143000D01*
X148345490Y1120322D01*
X147610859Y1116149D01*
X147013697Y1121207D01*
X146562066Y1135255D01*
X146264027Y1158051D01*
X146131925Y1186801D01*
X146012979Y1333801D01*
X145963498Y1561939D01*
X145990135Y1795101D01*
X146066933Y1930400D01*
X146185441Y1975012D01*
X146444274Y2006438D01*
X146852674Y2025344D01*
X147419884Y2032394D01*
X147485100Y2032473D01*
X147967447Y2038241D01*
X148414220Y2053805D01*
X148786747Y2077078D01*
X149046358Y2105975D01*
X149117028Y2120529D01*
X149594793Y2338697D01*
X150022293Y2705680D01*
X150380003Y3203773D01*
X150445134Y3324757D01*
X150604464Y3662118D01*
X150692544Y3938930D01*
X150729548Y4237176D01*
X150735874Y4506336D01*
X150668479Y5165244D01*
X150459676Y5734215D01*
X150106204Y6218198D01*
X149604802Y6622137D01*
X149192827Y6846557D01*
X148717000Y7069667D01*
X145330333Y7091973D01*
X141943666Y7114278D01*
X141181666Y6051704D01*
X140419666Y4989131D01*
X140234487Y5219784D01*
X140112210Y5381253D01*
X139921219Y5644018D01*
X139688936Y5969981D01*
X139472487Y6278367D01*
X138895666Y7106297D01*
X137646833Y7109149D01*
X137208808Y7107212D01*
X136837923Y7099973D01*
X136563690Y7088451D01*
X136415620Y7073666D01*
X136398000Y7066007D01*
X136445139Y6987696D01*
X136578184Y6789716D01*
X136784575Y6490159D01*
X137051753Y6107118D01*
X137367157Y5658685D01*
X137718229Y5162954D01*
X137753958Y5112680D01*
X138132162Y4574269D01*
X138458716Y4096615D01*
X138723622Y3695188D01*
X138916879Y3385460D01*
X139028489Y3182903D01*
X139051177Y3105506D01*
X138988697Y3012683D01*
X138841465Y2800196D01*
X138622496Y2486639D01*
X138344807Y2090602D01*
X138021416Y1630679D01*
X137665340Y1125461D01*
X137610552Y1047824D01*
X137253900Y540723D01*
X136931395Y78715D01*
X136655398Y-320213D01*
X136438269Y-638075D01*
X136292369Y-856884D01*
X136230057Y-958655D01*
X136228666Y-963009D01*
X136308353Y-981798D01*
X136527509Y-997655D01*
X136856278Y-1009286D01*
X137264803Y-1015393D01*
X137448901Y-1016000D01*
X138669136Y-1015999D01*
X139073463Y-444500D01*
X139327085Y-88931D01*
X139622659Y321157D01*
X139901362Y704198D01*
X139933657Y748258D01*
X140389525Y1369515D01*
X141203307Y176758D01*
X142017090Y-1016000D01*
X143271545Y-1016000D01*
X143710623Y-1013115D01*
X144082627Y-1005171D01*
X144358108Y-993232D01*
X144507620Y-978364D01*
X144526000Y-970626D01*
X144479392Y-892149D01*
X144347796Y-693184D01*
X144143558Y-391812D01*
X143879022Y-6109D01*
X143566530Y445844D01*
X143218428Y945969D01*
X143170244Y1014953D01*
X142815342Y1524731D01*
X142491830Y1993014D01*
X142212634Y2400805D01*
X141990679Y2729107D01*
X141838890Y2958923D01*
X141770192Y3071255D01*
X141768297Y3075532D01*
X141796303Y3188440D01*
X141907186Y3409507D01*
X142084703Y3709600D01*
X142312608Y4059590D01*
X142337140Y4095619D01*
X142952174Y4995334D01*
X145680373Y4995334D01*
X146470627Y4994729D01*
X147107982Y4991236D01*
X147608874Y4982338D01*
X147989736Y4965518D01*
X148267003Y4938258D01*
X148457110Y4898043D01*
X148576492Y4842355D01*
X148641582Y4768676D01*
X148668815Y4674490D01*
X148674627Y4557279D01*
X148674667Y4536742D01*
X148656333Y4369384D01*
X148586888Y4246166D01*
X148444667Y4160602D01*
X148208007Y4106206D01*
X147855241Y4076492D01*
X147364707Y4064975D01*
X147095582Y4064001D01*
X146466497Y4055617D01*
X145974269Y4025206D01*
X145587012Y3964879D01*
X145272839Y3866745D01*
X144999866Y3722916D01*
X144736207Y3525502D01*
X144662450Y3461964D01*
X144229242Y2976604D01*
X143947836Y2416452D01*
X143817863Y1780670D01*
X143808085Y1524000D01*
X143886848Y855874D01*
X144113290Y259927D01*
X144478425Y-249189D01*
X144973269Y-656825D01*
X145235076Y-802860D01*
X145675004Y-1018097D01*
X148843020Y-995882D01*
X152011037Y-973666D01*
X152477225Y779571D01*
X152615542Y1293308D01*
X152740380Y1744771D01*
X152845061Y2110801D01*
X152922906Y2368236D01*
X152967238Y2493917D01*
X152973960Y2502263D01*
X153001161Y2418572D01*
X153063989Y2200462D01*
X153154509Y1877147D01*
X153264787Y1477839D01*
X153386888Y1031754D01*
X153512877Y568105D01*
X153634818Y116107D01*
X153744778Y-295026D01*
X153834821Y-636080D01*
X153897013Y-877841D01*
X153923418Y-991094D01*
X153923808Y-994833D01*
X154002846Y-1003356D01*
X154216956Y-1010238D01*
X154531877Y-1014698D01*
X154851333Y-1016000D01*
X155778666Y-1016000D01*
X155936628Y-486833D01*
X156018035Y-207248D01*
X156130397Y187985D01*
X156260256Y651105D01*
X156394157Y1134354D01*
X156425623Y1248834D01*
X156544558Y1671958D01*
X156650640Y2030083D01*
X156735001Y2294720D01*
X156788771Y2437379D01*
X156800828Y2454197D01*
X156832884Y2375455D01*
X156897420Y2155976D01*
X156988011Y1819826D01*
X157098232Y1391072D01*
X157221657Y893781D01*
X157264240Y718530D01*
X157683480Y-1016000D01*
X158776132Y-1016000D01*
X159243457Y-1012142D01*
X159561367Y-999247D01*
X159749635Y-975331D01*
X159828031Y-938410D01*
X159830918Y-910166D01*
X159803138Y-809096D01*
X159738128Y-560234D01*
X159640078Y-179979D01*
X159513182Y315271D01*
X159361632Y909120D01*
X159189618Y1585168D01*
X159001334Y2327019D01*
X158800971Y3118274D01*
X158791977Y3153834D01*
X157790901Y7112000D01*
X156836823Y7112000D01*
X156417497Y7109087D01*
X156137830Y7097412D01*
X155968203Y7072572D01*
X155878999Y7030165D01*
X155840599Y6965789D01*
X155840026Y6963834D01*
X155804821Y6838901D01*
X155732042Y6578596D01*
X155629438Y6210703D01*
X155504756Y5763007D01*
X155365744Y5263290D01*
X155352117Y5214276D01*
X155214384Y4732158D01*
X155089518Y4320167D01*
X154984902Y4000642D01*
X154907913Y3795922D01*
X154865934Y3728347D01*
X154862614Y3732610D01*
X154826030Y3847953D01*
X154750159Y4098932D01*
X154643024Y4458593D01*
X154512649Y4899982D01*
X154367057Y5396146D01*
X154348093Y5461000D01*
X153877886Y7069667D01*
X152973633Y7093657D01*
X152069381Y7117648D01*
X151981174Y6797324D01*
M02*
