G04 #@! TF.GenerationSoftware,KiCad,Pcbnew,(5.1.5)-3*
G04 #@! TF.CreationDate,2020-07-28T20:00:16+01:00*
G04 #@! TF.ProjectId,MSXPi_v1.0_Rev0,4d535850-695f-4763-912e-305f52657630,rev?*
G04 #@! TF.SameCoordinates,Original*
G04 #@! TF.FileFunction,Legend,Top*
G04 #@! TF.FilePolarity,Positive*
%FSLAX46Y46*%
G04 Gerber Fmt 4.6, Leading zero omitted, Abs format (unit mm)*
G04 Created by KiCad (PCBNEW (5.1.5)-3) date 2020-07-28 20:00:16*
%MOMM*%
%LPD*%
G04 APERTURE LIST*
%ADD10C,0.200000*%
%ADD11C,0.300000*%
%ADD12C,0.250000*%
%ADD13C,0.010000*%
%ADD14C,0.120000*%
%ADD15C,0.150000*%
G04 APERTURE END LIST*
D10*
X148196095Y-43036380D02*
X148196095Y-42036380D01*
X148529428Y-42750666D01*
X148862761Y-42036380D01*
X148862761Y-43036380D01*
X149291333Y-42988761D02*
X149434190Y-43036380D01*
X149672285Y-43036380D01*
X149767523Y-42988761D01*
X149815142Y-42941142D01*
X149862761Y-42845904D01*
X149862761Y-42750666D01*
X149815142Y-42655428D01*
X149767523Y-42607809D01*
X149672285Y-42560190D01*
X149481809Y-42512571D01*
X149386571Y-42464952D01*
X149338952Y-42417333D01*
X149291333Y-42322095D01*
X149291333Y-42226857D01*
X149338952Y-42131619D01*
X149386571Y-42084000D01*
X149481809Y-42036380D01*
X149719904Y-42036380D01*
X149862761Y-42084000D01*
X150196095Y-42036380D02*
X150862761Y-43036380D01*
X150862761Y-42036380D02*
X150196095Y-43036380D01*
X151243714Y-43036380D02*
X151243714Y-42036380D01*
X151624666Y-42036380D01*
X151719904Y-42084000D01*
X151767523Y-42131619D01*
X151815142Y-42226857D01*
X151815142Y-42369714D01*
X151767523Y-42464952D01*
X151719904Y-42512571D01*
X151624666Y-42560190D01*
X151243714Y-42560190D01*
X152243714Y-43036380D02*
X152243714Y-42369714D01*
X152243714Y-42036380D02*
X152196095Y-42084000D01*
X152243714Y-42131619D01*
X152291333Y-42084000D01*
X152243714Y-42036380D01*
X152243714Y-42131619D01*
X153386571Y-42369714D02*
X153624666Y-43036380D01*
X153862761Y-42369714D01*
X154767523Y-43036380D02*
X154196095Y-43036380D01*
X154481809Y-43036380D02*
X154481809Y-42036380D01*
X154386571Y-42179238D01*
X154291333Y-42274476D01*
X154196095Y-42322095D01*
X155196095Y-42941142D02*
X155243714Y-42988761D01*
X155196095Y-43036380D01*
X155148476Y-42988761D01*
X155196095Y-42941142D01*
X155196095Y-43036380D01*
X155862761Y-42036380D02*
X155958000Y-42036380D01*
X156053238Y-42084000D01*
X156100857Y-42131619D01*
X156148476Y-42226857D01*
X156196095Y-42417333D01*
X156196095Y-42655428D01*
X156148476Y-42845904D01*
X156100857Y-42941142D01*
X156053238Y-42988761D01*
X155958000Y-43036380D01*
X155862761Y-43036380D01*
X155767523Y-42988761D01*
X155719904Y-42941142D01*
X155672285Y-42845904D01*
X155624666Y-42655428D01*
X155624666Y-42417333D01*
X155672285Y-42226857D01*
X155719904Y-42131619D01*
X155767523Y-42084000D01*
X155862761Y-42036380D01*
X157958000Y-43036380D02*
X157624666Y-42560190D01*
X157386571Y-43036380D02*
X157386571Y-42036380D01*
X157767523Y-42036380D01*
X157862761Y-42084000D01*
X157910380Y-42131619D01*
X157958000Y-42226857D01*
X157958000Y-42369714D01*
X157910380Y-42464952D01*
X157862761Y-42512571D01*
X157767523Y-42560190D01*
X157386571Y-42560190D01*
X158767523Y-42988761D02*
X158672285Y-43036380D01*
X158481809Y-43036380D01*
X158386571Y-42988761D01*
X158338952Y-42893523D01*
X158338952Y-42512571D01*
X158386571Y-42417333D01*
X158481809Y-42369714D01*
X158672285Y-42369714D01*
X158767523Y-42417333D01*
X158815142Y-42512571D01*
X158815142Y-42607809D01*
X158338952Y-42703047D01*
X159148476Y-42369714D02*
X159386571Y-43036380D01*
X159624666Y-42369714D01*
X160005619Y-42941142D02*
X160053238Y-42988761D01*
X160005619Y-43036380D01*
X159958000Y-42988761D01*
X160005619Y-42941142D01*
X160005619Y-43036380D01*
X160672285Y-42036380D02*
X160767523Y-42036380D01*
X160862761Y-42084000D01*
X160910380Y-42131619D01*
X160958000Y-42226857D01*
X161005619Y-42417333D01*
X161005619Y-42655428D01*
X160958000Y-42845904D01*
X160910380Y-42941142D01*
X160862761Y-42988761D01*
X160767523Y-43036380D01*
X160672285Y-43036380D01*
X160577047Y-42988761D01*
X160529428Y-42941142D01*
X160481809Y-42845904D01*
X160434190Y-42655428D01*
X160434190Y-42417333D01*
X160481809Y-42226857D01*
X160529428Y-42131619D01*
X160577047Y-42084000D01*
X160672285Y-42036380D01*
X148767523Y-44736380D02*
X148434190Y-44260190D01*
X148196095Y-44736380D02*
X148196095Y-43736380D01*
X148577047Y-43736380D01*
X148672285Y-43784000D01*
X148719904Y-43831619D01*
X148767523Y-43926857D01*
X148767523Y-44069714D01*
X148719904Y-44164952D01*
X148672285Y-44212571D01*
X148577047Y-44260190D01*
X148196095Y-44260190D01*
X149338952Y-44736380D02*
X149243714Y-44688761D01*
X149196095Y-44641142D01*
X149148476Y-44545904D01*
X149148476Y-44260190D01*
X149196095Y-44164952D01*
X149243714Y-44117333D01*
X149338952Y-44069714D01*
X149481809Y-44069714D01*
X149577047Y-44117333D01*
X149624666Y-44164952D01*
X149672285Y-44260190D01*
X149672285Y-44545904D01*
X149624666Y-44641142D01*
X149577047Y-44688761D01*
X149481809Y-44736380D01*
X149338952Y-44736380D01*
X150100857Y-44069714D02*
X150100857Y-44736380D01*
X150100857Y-44164952D02*
X150148476Y-44117333D01*
X150243714Y-44069714D01*
X150386571Y-44069714D01*
X150481809Y-44117333D01*
X150529428Y-44212571D01*
X150529428Y-44736380D01*
X151005619Y-44736380D02*
X151005619Y-44069714D01*
X151005619Y-43736380D02*
X150958000Y-43784000D01*
X151005619Y-43831619D01*
X151053238Y-43784000D01*
X151005619Y-43736380D01*
X151005619Y-43831619D01*
X151386571Y-44069714D02*
X151624666Y-44736380D01*
X151862761Y-44069714D01*
X152386571Y-44736380D02*
X152291333Y-44688761D01*
X152243714Y-44641142D01*
X152196095Y-44545904D01*
X152196095Y-44260190D01*
X152243714Y-44164952D01*
X152291333Y-44117333D01*
X152386571Y-44069714D01*
X152529428Y-44069714D01*
X152624666Y-44117333D01*
X152672285Y-44164952D01*
X152719904Y-44260190D01*
X152719904Y-44545904D01*
X152672285Y-44641142D01*
X152624666Y-44688761D01*
X152529428Y-44736380D01*
X152386571Y-44736380D01*
X153148476Y-44069714D02*
X153148476Y-44736380D01*
X153148476Y-44164952D02*
X153196095Y-44117333D01*
X153291333Y-44069714D01*
X153434190Y-44069714D01*
X153529428Y-44117333D01*
X153577047Y-44212571D01*
X153577047Y-44736380D01*
X155386571Y-44641142D02*
X155338952Y-44688761D01*
X155196095Y-44736380D01*
X155100857Y-44736380D01*
X154958000Y-44688761D01*
X154862761Y-44593523D01*
X154815142Y-44498285D01*
X154767523Y-44307809D01*
X154767523Y-44164952D01*
X154815142Y-43974476D01*
X154862761Y-43879238D01*
X154958000Y-43784000D01*
X155100857Y-43736380D01*
X155196095Y-43736380D01*
X155338952Y-43784000D01*
X155386571Y-43831619D01*
X155958000Y-44736380D02*
X155862761Y-44688761D01*
X155815142Y-44641142D01*
X155767523Y-44545904D01*
X155767523Y-44260190D01*
X155815142Y-44164952D01*
X155862761Y-44117333D01*
X155958000Y-44069714D01*
X156100857Y-44069714D01*
X156196095Y-44117333D01*
X156243714Y-44164952D01*
X156291333Y-44260190D01*
X156291333Y-44545904D01*
X156243714Y-44641142D01*
X156196095Y-44688761D01*
X156100857Y-44736380D01*
X155958000Y-44736380D01*
X156672285Y-44688761D02*
X156767523Y-44736380D01*
X156958000Y-44736380D01*
X157053238Y-44688761D01*
X157100857Y-44593523D01*
X157100857Y-44545904D01*
X157053238Y-44450666D01*
X156958000Y-44403047D01*
X156815142Y-44403047D01*
X156719904Y-44355428D01*
X156672285Y-44260190D01*
X156672285Y-44212571D01*
X156719904Y-44117333D01*
X156815142Y-44069714D01*
X156958000Y-44069714D01*
X157053238Y-44117333D01*
X157386571Y-44069714D02*
X157767523Y-44069714D01*
X157529428Y-43736380D02*
X157529428Y-44593523D01*
X157577047Y-44688761D01*
X157672285Y-44736380D01*
X157767523Y-44736380D01*
X158529428Y-44736380D02*
X158529428Y-44212571D01*
X158481809Y-44117333D01*
X158386571Y-44069714D01*
X158196095Y-44069714D01*
X158100857Y-44117333D01*
X158529428Y-44688761D02*
X158434190Y-44736380D01*
X158196095Y-44736380D01*
X158100857Y-44688761D01*
X158053238Y-44593523D01*
X158053238Y-44498285D01*
X158100857Y-44403047D01*
X158196095Y-44355428D01*
X158434190Y-44355428D01*
X158529428Y-44307809D01*
X159053238Y-44688761D02*
X159053238Y-44736380D01*
X159005619Y-44831619D01*
X158958000Y-44879238D01*
X160196095Y-44450666D02*
X160672285Y-44450666D01*
X160100857Y-44736380D02*
X160434190Y-43736380D01*
X160767523Y-44736380D01*
X161529428Y-44069714D02*
X161529428Y-44736380D01*
X161100857Y-44069714D02*
X161100857Y-44593523D01*
X161148476Y-44688761D01*
X161243714Y-44736380D01*
X161386571Y-44736380D01*
X161481809Y-44688761D01*
X161529428Y-44641142D01*
X162434190Y-44069714D02*
X162434190Y-44879238D01*
X162386571Y-44974476D01*
X162338952Y-45022095D01*
X162243714Y-45069714D01*
X162100857Y-45069714D01*
X162005619Y-45022095D01*
X162434190Y-44688761D02*
X162338952Y-44736380D01*
X162148476Y-44736380D01*
X162053238Y-44688761D01*
X162005619Y-44641142D01*
X161958000Y-44545904D01*
X161958000Y-44260190D01*
X162005619Y-44164952D01*
X162053238Y-44117333D01*
X162148476Y-44069714D01*
X162338952Y-44069714D01*
X162434190Y-44117333D01*
X163338952Y-44069714D02*
X163338952Y-44736380D01*
X162910380Y-44069714D02*
X162910380Y-44593523D01*
X162958000Y-44688761D01*
X163053238Y-44736380D01*
X163196095Y-44736380D01*
X163291333Y-44688761D01*
X163338952Y-44641142D01*
X163767523Y-44688761D02*
X163862761Y-44736380D01*
X164053238Y-44736380D01*
X164148476Y-44688761D01*
X164196095Y-44593523D01*
X164196095Y-44545904D01*
X164148476Y-44450666D01*
X164053238Y-44403047D01*
X163910380Y-44403047D01*
X163815142Y-44355428D01*
X163767523Y-44260190D01*
X163767523Y-44212571D01*
X163815142Y-44117333D01*
X163910380Y-44069714D01*
X164053238Y-44069714D01*
X164148476Y-44117333D01*
X164481809Y-44069714D02*
X164862761Y-44069714D01*
X164624666Y-43736380D02*
X164624666Y-44593523D01*
X164672285Y-44688761D01*
X164767523Y-44736380D01*
X164862761Y-44736380D01*
X165910380Y-43831619D02*
X165958000Y-43784000D01*
X166053238Y-43736380D01*
X166291333Y-43736380D01*
X166386571Y-43784000D01*
X166434190Y-43831619D01*
X166481809Y-43926857D01*
X166481809Y-44022095D01*
X166434190Y-44164952D01*
X165862761Y-44736380D01*
X166481809Y-44736380D01*
X167100857Y-43736380D02*
X167196095Y-43736380D01*
X167291333Y-43784000D01*
X167338952Y-43831619D01*
X167386571Y-43926857D01*
X167434190Y-44117333D01*
X167434190Y-44355428D01*
X167386571Y-44545904D01*
X167338952Y-44641142D01*
X167291333Y-44688761D01*
X167196095Y-44736380D01*
X167100857Y-44736380D01*
X167005619Y-44688761D01*
X166958000Y-44641142D01*
X166910380Y-44545904D01*
X166862761Y-44355428D01*
X166862761Y-44117333D01*
X166910380Y-43926857D01*
X166958000Y-43831619D01*
X167005619Y-43784000D01*
X167100857Y-43736380D01*
X167815142Y-43831619D02*
X167862761Y-43784000D01*
X167958000Y-43736380D01*
X168196095Y-43736380D01*
X168291333Y-43784000D01*
X168338952Y-43831619D01*
X168386571Y-43926857D01*
X168386571Y-44022095D01*
X168338952Y-44164952D01*
X167767523Y-44736380D01*
X168386571Y-44736380D01*
X169005619Y-43736380D02*
X169100857Y-43736380D01*
X169196095Y-43784000D01*
X169243714Y-43831619D01*
X169291333Y-43926857D01*
X169338952Y-44117333D01*
X169338952Y-44355428D01*
X169291333Y-44545904D01*
X169243714Y-44641142D01*
X169196095Y-44688761D01*
X169100857Y-44736380D01*
X169005619Y-44736380D01*
X168910380Y-44688761D01*
X168862761Y-44641142D01*
X168815142Y-44545904D01*
X168767523Y-44355428D01*
X168767523Y-44117333D01*
X168815142Y-43926857D01*
X168862761Y-43831619D01*
X168910380Y-43784000D01*
X169005619Y-43736380D01*
X169767523Y-44641142D02*
X169815142Y-44688761D01*
X169767523Y-44736380D01*
X169719904Y-44688761D01*
X169767523Y-44641142D01*
X169767523Y-44736380D01*
D11*
X231707142Y-37610571D02*
X231650000Y-37667714D01*
X231478571Y-37724857D01*
X231364285Y-37724857D01*
X231192857Y-37667714D01*
X231078571Y-37553428D01*
X231021428Y-37439142D01*
X230964285Y-37210571D01*
X230964285Y-37039142D01*
X231021428Y-36810571D01*
X231078571Y-36696285D01*
X231192857Y-36582000D01*
X231364285Y-36524857D01*
X231478571Y-36524857D01*
X231650000Y-36582000D01*
X231707142Y-36639142D01*
X232164285Y-37667714D02*
X232335714Y-37724857D01*
X232621428Y-37724857D01*
X232735714Y-37667714D01*
X232792857Y-37610571D01*
X232850000Y-37496285D01*
X232850000Y-37382000D01*
X232792857Y-37267714D01*
X232735714Y-37210571D01*
X232621428Y-37153428D01*
X232392857Y-37096285D01*
X232278571Y-37039142D01*
X232221428Y-36982000D01*
X232164285Y-36867714D01*
X232164285Y-36753428D01*
X232221428Y-36639142D01*
X232278571Y-36582000D01*
X232392857Y-36524857D01*
X232678571Y-36524857D01*
X232850000Y-36582000D01*
X233992857Y-37724857D02*
X233307142Y-37724857D01*
X233650000Y-37724857D02*
X233650000Y-36524857D01*
X233535714Y-36696285D01*
X233421428Y-36810571D01*
X233307142Y-36867714D01*
X234450000Y-36639142D02*
X234507142Y-36582000D01*
X234621428Y-36524857D01*
X234907142Y-36524857D01*
X235021428Y-36582000D01*
X235078571Y-36639142D01*
X235135714Y-36753428D01*
X235135714Y-36867714D01*
X235078571Y-37039142D01*
X234392857Y-37724857D01*
X235135714Y-37724857D01*
X231798571Y-35470571D02*
X231741428Y-35527714D01*
X231570000Y-35584857D01*
X231455714Y-35584857D01*
X231284285Y-35527714D01*
X231170000Y-35413428D01*
X231112857Y-35299142D01*
X231055714Y-35070571D01*
X231055714Y-34899142D01*
X231112857Y-34670571D01*
X231170000Y-34556285D01*
X231284285Y-34442000D01*
X231455714Y-34384857D01*
X231570000Y-34384857D01*
X231741428Y-34442000D01*
X231798571Y-34499142D01*
X232255714Y-35527714D02*
X232427142Y-35584857D01*
X232712857Y-35584857D01*
X232827142Y-35527714D01*
X232884285Y-35470571D01*
X232941428Y-35356285D01*
X232941428Y-35242000D01*
X232884285Y-35127714D01*
X232827142Y-35070571D01*
X232712857Y-35013428D01*
X232484285Y-34956285D01*
X232370000Y-34899142D01*
X232312857Y-34842000D01*
X232255714Y-34727714D01*
X232255714Y-34613428D01*
X232312857Y-34499142D01*
X232370000Y-34442000D01*
X232484285Y-34384857D01*
X232770000Y-34384857D01*
X232941428Y-34442000D01*
X233398571Y-34499142D02*
X233455714Y-34442000D01*
X233570000Y-34384857D01*
X233855714Y-34384857D01*
X233970000Y-34442000D01*
X234027142Y-34499142D01*
X234084285Y-34613428D01*
X234084285Y-34727714D01*
X234027142Y-34899142D01*
X233341428Y-35584857D01*
X234084285Y-35584857D01*
X231788571Y-33410571D02*
X231731428Y-33467714D01*
X231560000Y-33524857D01*
X231445714Y-33524857D01*
X231274285Y-33467714D01*
X231160000Y-33353428D01*
X231102857Y-33239142D01*
X231045714Y-33010571D01*
X231045714Y-32839142D01*
X231102857Y-32610571D01*
X231160000Y-32496285D01*
X231274285Y-32382000D01*
X231445714Y-32324857D01*
X231560000Y-32324857D01*
X231731428Y-32382000D01*
X231788571Y-32439142D01*
X232245714Y-33467714D02*
X232417142Y-33524857D01*
X232702857Y-33524857D01*
X232817142Y-33467714D01*
X232874285Y-33410571D01*
X232931428Y-33296285D01*
X232931428Y-33182000D01*
X232874285Y-33067714D01*
X232817142Y-33010571D01*
X232702857Y-32953428D01*
X232474285Y-32896285D01*
X232360000Y-32839142D01*
X232302857Y-32782000D01*
X232245714Y-32667714D01*
X232245714Y-32553428D01*
X232302857Y-32439142D01*
X232360000Y-32382000D01*
X232474285Y-32324857D01*
X232760000Y-32324857D01*
X232931428Y-32382000D01*
X234074285Y-33524857D02*
X233388571Y-33524857D01*
X233731428Y-33524857D02*
X233731428Y-32324857D01*
X233617142Y-32496285D01*
X233502857Y-32610571D01*
X233388571Y-32667714D01*
X231161428Y-31332000D02*
X231732857Y-31332000D01*
X231047142Y-31674857D02*
X231447142Y-30474857D01*
X231847142Y-31674857D01*
X232875714Y-31674857D02*
X232190000Y-31674857D01*
X232532857Y-31674857D02*
X232532857Y-30474857D01*
X232418571Y-30646285D01*
X232304285Y-30760571D01*
X232190000Y-30817714D01*
X233961428Y-30474857D02*
X233390000Y-30474857D01*
X233332857Y-31046285D01*
X233390000Y-30989142D01*
X233504285Y-30932000D01*
X233790000Y-30932000D01*
X233904285Y-30989142D01*
X233961428Y-31046285D01*
X234018571Y-31160571D01*
X234018571Y-31446285D01*
X233961428Y-31560571D01*
X233904285Y-31617714D01*
X233790000Y-31674857D01*
X233504285Y-31674857D01*
X233390000Y-31617714D01*
X233332857Y-31560571D01*
D12*
X231161428Y-29162000D02*
X231732857Y-29162000D01*
X231047142Y-29504857D02*
X231447142Y-28304857D01*
X231847142Y-29504857D01*
X232875714Y-29504857D02*
X232190000Y-29504857D01*
X232532857Y-29504857D02*
X232532857Y-28304857D01*
X232418571Y-28476285D01*
X232304285Y-28590571D01*
X232190000Y-28647714D01*
X233904285Y-28704857D02*
X233904285Y-29504857D01*
X233618571Y-28247714D02*
X233332857Y-29104857D01*
X234075714Y-29104857D01*
D13*
G36*
X201331699Y-41367574D02*
G01*
X201372719Y-41403156D01*
X201379667Y-41465500D01*
X201368597Y-41537071D01*
X201318781Y-41566370D01*
X201231500Y-41571333D01*
X201131301Y-41563426D01*
X201090281Y-41527843D01*
X201083334Y-41465500D01*
X201094404Y-41393929D01*
X201144219Y-41364629D01*
X201231500Y-41359667D01*
X201331699Y-41367574D01*
G37*
X201331699Y-41367574D02*
X201372719Y-41403156D01*
X201379667Y-41465500D01*
X201368597Y-41537071D01*
X201318781Y-41566370D01*
X201231500Y-41571333D01*
X201131301Y-41563426D01*
X201090281Y-41527843D01*
X201083334Y-41465500D01*
X201094404Y-41393929D01*
X201144219Y-41364629D01*
X201231500Y-41359667D01*
X201331699Y-41367574D01*
G36*
X196864815Y-33716216D02*
G01*
X197050475Y-33979358D01*
X197194421Y-34178268D01*
X197301736Y-34319271D01*
X197377504Y-34408691D01*
X197426808Y-34452855D01*
X197454732Y-34458088D01*
X197458397Y-34454782D01*
X197486164Y-34416764D01*
X197555377Y-34320744D01*
X197658228Y-34177588D01*
X197786912Y-33998161D01*
X197933623Y-33793331D01*
X197946136Y-33775850D01*
X198129787Y-33524942D01*
X198284372Y-33325416D01*
X198405200Y-33182953D01*
X198487580Y-33103238D01*
X198513512Y-33088511D01*
X198592846Y-33078632D01*
X198736996Y-33071333D01*
X198930517Y-33066510D01*
X199157968Y-33064061D01*
X199403906Y-33063884D01*
X199652888Y-33065878D01*
X199889472Y-33069939D01*
X200098213Y-33075965D01*
X200263671Y-33083855D01*
X200370401Y-33093506D01*
X200401529Y-33101008D01*
X200414576Y-33112240D01*
X200420041Y-33129830D01*
X200414381Y-33159356D01*
X200394056Y-33206398D01*
X200355523Y-33276535D01*
X200295241Y-33375347D01*
X200209669Y-33508414D01*
X200095263Y-33681315D01*
X199948483Y-33899630D01*
X199765787Y-34168939D01*
X199543633Y-34494820D01*
X199278479Y-34882854D01*
X199166829Y-35046127D01*
X198490488Y-36035087D01*
X199141262Y-36993460D01*
X199447345Y-37444510D01*
X199708912Y-37830733D01*
X199929244Y-38157187D01*
X200111625Y-38428927D01*
X200259337Y-38651010D01*
X200375662Y-38828494D01*
X200463884Y-38966434D01*
X200527284Y-39069887D01*
X200569145Y-39143911D01*
X200592749Y-39193561D01*
X200601380Y-39223895D01*
X200598963Y-39239015D01*
X200548798Y-39256099D01*
X200420774Y-39269194D01*
X200213182Y-39278378D01*
X199924307Y-39283729D01*
X199581066Y-39285333D01*
X198591795Y-39285333D01*
X198127123Y-38618583D01*
X197972514Y-38397932D01*
X197825517Y-38190325D01*
X197696402Y-38010102D01*
X197595438Y-37871605D01*
X197535088Y-37791912D01*
X197407725Y-37631992D01*
X197086656Y-38069568D01*
X196930326Y-38283977D01*
X196759894Y-38519906D01*
X196598852Y-38744732D01*
X196498921Y-38885655D01*
X196232254Y-39264167D01*
X195242293Y-39275549D01*
X194960540Y-39277372D01*
X194707066Y-39276311D01*
X194494133Y-39272639D01*
X194334002Y-39266628D01*
X194238933Y-39258548D01*
X194218245Y-39252845D01*
X194232862Y-39209359D01*
X194294152Y-39099904D01*
X194399994Y-38927701D01*
X194548272Y-38695976D01*
X194736864Y-38407951D01*
X194963653Y-38066851D01*
X195226520Y-37675900D01*
X195523345Y-37238321D01*
X195852010Y-36757337D01*
X196004959Y-36534536D01*
X196137010Y-36341369D01*
X196226741Y-36204592D01*
X196280072Y-36111018D01*
X196302923Y-36047457D01*
X196301216Y-36000721D01*
X196280871Y-35957622D01*
X196271025Y-35941869D01*
X196222921Y-35869807D01*
X196136733Y-35743986D01*
X196023134Y-35579866D01*
X195892795Y-35392906D01*
X195838604Y-35315532D01*
X195474167Y-34795897D01*
X193364641Y-34807532D01*
X192887523Y-34810273D01*
X192487954Y-34812985D01*
X192158815Y-34815976D01*
X191892990Y-34819553D01*
X191683361Y-34824024D01*
X191522811Y-34829697D01*
X191404221Y-34836879D01*
X191320476Y-34845879D01*
X191264456Y-34857004D01*
X191229045Y-34870562D01*
X191207126Y-34886861D01*
X191195058Y-34901341D01*
X191146874Y-35003444D01*
X191135648Y-35070674D01*
X191138493Y-35135005D01*
X191152455Y-35184969D01*
X191187287Y-35222785D01*
X191252742Y-35250673D01*
X191358573Y-35270851D01*
X191514533Y-35285540D01*
X191730376Y-35296959D01*
X192015854Y-35307328D01*
X192201590Y-35313246D01*
X192618897Y-35329361D01*
X192963370Y-35351304D01*
X193246805Y-35382543D01*
X193481001Y-35426546D01*
X193677755Y-35486779D01*
X193848867Y-35566711D01*
X194006134Y-35669809D01*
X194161354Y-35799539D01*
X194295911Y-35928751D01*
X194535976Y-36225868D01*
X194707604Y-36560352D01*
X194810875Y-36919829D01*
X194845868Y-37291926D01*
X194812661Y-37664270D01*
X194711335Y-38024487D01*
X194541967Y-38360203D01*
X194304638Y-38659047D01*
X194278291Y-38685333D01*
X193959767Y-38948646D01*
X193625464Y-39130180D01*
X193271399Y-39231998D01*
X193201994Y-39242446D01*
X193099756Y-39250248D01*
X192922138Y-39257594D01*
X192678425Y-39264334D01*
X192377903Y-39270318D01*
X192029859Y-39275394D01*
X191643577Y-39279413D01*
X191228343Y-39282225D01*
X190793444Y-39283677D01*
X190648167Y-39283832D01*
X188404500Y-39284946D01*
X188227078Y-38660723D01*
X188149970Y-38388246D01*
X188066778Y-38092304D01*
X187986897Y-37806430D01*
X187919722Y-37564159D01*
X187912575Y-37538203D01*
X187858283Y-37350757D01*
X187809631Y-37200939D01*
X187771687Y-37103136D01*
X187749518Y-37071735D01*
X187748566Y-37072537D01*
X187730791Y-37120619D01*
X187694433Y-37239490D01*
X187642645Y-37418111D01*
X187578578Y-37645439D01*
X187505384Y-37910436D01*
X187428069Y-38195175D01*
X187134500Y-39285183D01*
X186322867Y-39285258D01*
X185511233Y-39285333D01*
X185467039Y-39147750D01*
X185443869Y-39068202D01*
X185403021Y-38920235D01*
X185348136Y-38717364D01*
X185282858Y-38473107D01*
X185210830Y-38200982D01*
X185168921Y-38041526D01*
X185096578Y-37768034D01*
X185030427Y-37522633D01*
X184973703Y-37316950D01*
X184929642Y-37162610D01*
X184901479Y-37071242D01*
X184893328Y-37051217D01*
X184885091Y-37043464D01*
X184876744Y-37044237D01*
X184865547Y-37062294D01*
X184848756Y-37106394D01*
X184823630Y-37185295D01*
X184787427Y-37307754D01*
X184737405Y-37482531D01*
X184670822Y-37718384D01*
X184584936Y-38024071D01*
X184551731Y-38142333D01*
X184473015Y-38422537D01*
X184401090Y-38678325D01*
X184339382Y-38897528D01*
X184291319Y-39067978D01*
X184260328Y-39177504D01*
X184250675Y-39211250D01*
X184237060Y-39236065D01*
X184205550Y-39254666D01*
X184145336Y-39267934D01*
X184045609Y-39276751D01*
X183895559Y-39282000D01*
X183684378Y-39284563D01*
X183401257Y-39285320D01*
X183342814Y-39285333D01*
X183033547Y-39284212D01*
X182800351Y-39280501D01*
X182634653Y-39273679D01*
X182527883Y-39263227D01*
X182471469Y-39248624D01*
X182456667Y-39231528D01*
X182468239Y-39167442D01*
X182502767Y-39022988D01*
X182559969Y-38799210D01*
X182639564Y-38497156D01*
X182741268Y-38117872D01*
X182864801Y-37662404D01*
X183009881Y-37131799D01*
X183176224Y-36527101D01*
X183363550Y-35849359D01*
X183525998Y-35263667D01*
X184131511Y-33083500D01*
X184849839Y-33073011D01*
X185090544Y-33071462D01*
X185303301Y-33073797D01*
X185472984Y-33079556D01*
X185584465Y-33088280D01*
X185620743Y-33096466D01*
X185645444Y-33144934D01*
X185688236Y-33264226D01*
X185745685Y-33443279D01*
X185814360Y-33671032D01*
X185890830Y-33936422D01*
X185969844Y-34221697D01*
X186050399Y-34515421D01*
X186125620Y-34784539D01*
X186192171Y-35017519D01*
X186246715Y-35202830D01*
X186285917Y-35328938D01*
X186306004Y-35383576D01*
X186318677Y-35408430D01*
X186329329Y-35425793D01*
X186340603Y-35427679D01*
X186355142Y-35406106D01*
X186375590Y-35353091D01*
X186404591Y-35260651D01*
X186444789Y-35120804D01*
X186498826Y-34925565D01*
X186569346Y-34666951D01*
X186658993Y-34336981D01*
X186688417Y-34228748D01*
X186769504Y-33936326D01*
X186846132Y-33670735D01*
X186914882Y-33442989D01*
X186972336Y-33264102D01*
X187015076Y-33145088D01*
X187039655Y-33096979D01*
X187094988Y-33086648D01*
X187214873Y-33078013D01*
X187382746Y-33071205D01*
X187582047Y-33066352D01*
X187796212Y-33063582D01*
X188008679Y-33063023D01*
X188202887Y-33064806D01*
X188362274Y-33069057D01*
X188470276Y-33075907D01*
X188510332Y-33085483D01*
X188510334Y-33085556D01*
X188521213Y-33128274D01*
X188552167Y-33243428D01*
X188600673Y-33421859D01*
X188664207Y-33654407D01*
X188740245Y-33931913D01*
X188826263Y-34245219D01*
X188919737Y-34585165D01*
X189018143Y-34942592D01*
X189118957Y-35308341D01*
X189219655Y-35673253D01*
X189317715Y-36028168D01*
X189410610Y-36363929D01*
X189495818Y-36671375D01*
X189570815Y-36941348D01*
X189633077Y-37164688D01*
X189680080Y-37332236D01*
X189697588Y-37394041D01*
X189743705Y-37555916D01*
X191338936Y-37540590D01*
X191700654Y-37536253D01*
X192037452Y-37530565D01*
X192339528Y-37523813D01*
X192597083Y-37516290D01*
X192800318Y-37508284D01*
X192939431Y-37500086D01*
X193004623Y-37491986D01*
X193006639Y-37491221D01*
X193086002Y-37414817D01*
X193115435Y-37304973D01*
X193094936Y-37193717D01*
X193024507Y-37113077D01*
X193006639Y-37104332D01*
X192944859Y-37094279D01*
X192811461Y-37082471D01*
X192619457Y-37069723D01*
X192381855Y-37056848D01*
X192111665Y-37044664D01*
X191960500Y-37038793D01*
X191600059Y-37024639D01*
X191311106Y-37009725D01*
X191080487Y-36991297D01*
X190895048Y-36966598D01*
X190741634Y-36932873D01*
X190607090Y-36887367D01*
X190478262Y-36827323D01*
X190341995Y-36749986D01*
X190219080Y-36673999D01*
X189940120Y-36451744D01*
X189704866Y-36161819D01*
X189555341Y-35898667D01*
X189499957Y-35781864D01*
X189462274Y-35684361D01*
X189438889Y-35585328D01*
X189426400Y-35463934D01*
X189421405Y-35299348D01*
X189420500Y-35073167D01*
X189421458Y-34844920D01*
X189426627Y-34680146D01*
X189439449Y-34557655D01*
X189463369Y-34456256D01*
X189501828Y-34354760D01*
X189556604Y-34235491D01*
X189759993Y-33900778D01*
X190028710Y-33605868D01*
X190346710Y-33367185D01*
X190474413Y-33296023D01*
X190564674Y-33252360D01*
X190655645Y-33214581D01*
X190753917Y-33182257D01*
X190866075Y-33154960D01*
X190998709Y-33132259D01*
X191158407Y-33113727D01*
X191351755Y-33098935D01*
X191585343Y-33087453D01*
X191865758Y-33078852D01*
X192199589Y-33072705D01*
X192593422Y-33068581D01*
X193053847Y-33066053D01*
X193587450Y-33064690D01*
X194035571Y-33064178D01*
X196406975Y-33062333D01*
X196864815Y-33716216D01*
G37*
X196864815Y-33716216D02*
X197050475Y-33979358D01*
X197194421Y-34178268D01*
X197301736Y-34319271D01*
X197377504Y-34408691D01*
X197426808Y-34452855D01*
X197454732Y-34458088D01*
X197458397Y-34454782D01*
X197486164Y-34416764D01*
X197555377Y-34320744D01*
X197658228Y-34177588D01*
X197786912Y-33998161D01*
X197933623Y-33793331D01*
X197946136Y-33775850D01*
X198129787Y-33524942D01*
X198284372Y-33325416D01*
X198405200Y-33182953D01*
X198487580Y-33103238D01*
X198513512Y-33088511D01*
X198592846Y-33078632D01*
X198736996Y-33071333D01*
X198930517Y-33066510D01*
X199157968Y-33064061D01*
X199403906Y-33063884D01*
X199652888Y-33065878D01*
X199889472Y-33069939D01*
X200098213Y-33075965D01*
X200263671Y-33083855D01*
X200370401Y-33093506D01*
X200401529Y-33101008D01*
X200414576Y-33112240D01*
X200420041Y-33129830D01*
X200414381Y-33159356D01*
X200394056Y-33206398D01*
X200355523Y-33276535D01*
X200295241Y-33375347D01*
X200209669Y-33508414D01*
X200095263Y-33681315D01*
X199948483Y-33899630D01*
X199765787Y-34168939D01*
X199543633Y-34494820D01*
X199278479Y-34882854D01*
X199166829Y-35046127D01*
X198490488Y-36035087D01*
X199141262Y-36993460D01*
X199447345Y-37444510D01*
X199708912Y-37830733D01*
X199929244Y-38157187D01*
X200111625Y-38428927D01*
X200259337Y-38651010D01*
X200375662Y-38828494D01*
X200463884Y-38966434D01*
X200527284Y-39069887D01*
X200569145Y-39143911D01*
X200592749Y-39193561D01*
X200601380Y-39223895D01*
X200598963Y-39239015D01*
X200548798Y-39256099D01*
X200420774Y-39269194D01*
X200213182Y-39278378D01*
X199924307Y-39283729D01*
X199581066Y-39285333D01*
X198591795Y-39285333D01*
X198127123Y-38618583D01*
X197972514Y-38397932D01*
X197825517Y-38190325D01*
X197696402Y-38010102D01*
X197595438Y-37871605D01*
X197535088Y-37791912D01*
X197407725Y-37631992D01*
X197086656Y-38069568D01*
X196930326Y-38283977D01*
X196759894Y-38519906D01*
X196598852Y-38744732D01*
X196498921Y-38885655D01*
X196232254Y-39264167D01*
X195242293Y-39275549D01*
X194960540Y-39277372D01*
X194707066Y-39276311D01*
X194494133Y-39272639D01*
X194334002Y-39266628D01*
X194238933Y-39258548D01*
X194218245Y-39252845D01*
X194232862Y-39209359D01*
X194294152Y-39099904D01*
X194399994Y-38927701D01*
X194548272Y-38695976D01*
X194736864Y-38407951D01*
X194963653Y-38066851D01*
X195226520Y-37675900D01*
X195523345Y-37238321D01*
X195852010Y-36757337D01*
X196004959Y-36534536D01*
X196137010Y-36341369D01*
X196226741Y-36204592D01*
X196280072Y-36111018D01*
X196302923Y-36047457D01*
X196301216Y-36000721D01*
X196280871Y-35957622D01*
X196271025Y-35941869D01*
X196222921Y-35869807D01*
X196136733Y-35743986D01*
X196023134Y-35579866D01*
X195892795Y-35392906D01*
X195838604Y-35315532D01*
X195474167Y-34795897D01*
X193364641Y-34807532D01*
X192887523Y-34810273D01*
X192487954Y-34812985D01*
X192158815Y-34815976D01*
X191892990Y-34819553D01*
X191683361Y-34824024D01*
X191522811Y-34829697D01*
X191404221Y-34836879D01*
X191320476Y-34845879D01*
X191264456Y-34857004D01*
X191229045Y-34870562D01*
X191207126Y-34886861D01*
X191195058Y-34901341D01*
X191146874Y-35003444D01*
X191135648Y-35070674D01*
X191138493Y-35135005D01*
X191152455Y-35184969D01*
X191187287Y-35222785D01*
X191252742Y-35250673D01*
X191358573Y-35270851D01*
X191514533Y-35285540D01*
X191730376Y-35296959D01*
X192015854Y-35307328D01*
X192201590Y-35313246D01*
X192618897Y-35329361D01*
X192963370Y-35351304D01*
X193246805Y-35382543D01*
X193481001Y-35426546D01*
X193677755Y-35486779D01*
X193848867Y-35566711D01*
X194006134Y-35669809D01*
X194161354Y-35799539D01*
X194295911Y-35928751D01*
X194535976Y-36225868D01*
X194707604Y-36560352D01*
X194810875Y-36919829D01*
X194845868Y-37291926D01*
X194812661Y-37664270D01*
X194711335Y-38024487D01*
X194541967Y-38360203D01*
X194304638Y-38659047D01*
X194278291Y-38685333D01*
X193959767Y-38948646D01*
X193625464Y-39130180D01*
X193271399Y-39231998D01*
X193201994Y-39242446D01*
X193099756Y-39250248D01*
X192922138Y-39257594D01*
X192678425Y-39264334D01*
X192377903Y-39270318D01*
X192029859Y-39275394D01*
X191643577Y-39279413D01*
X191228343Y-39282225D01*
X190793444Y-39283677D01*
X190648167Y-39283832D01*
X188404500Y-39284946D01*
X188227078Y-38660723D01*
X188149970Y-38388246D01*
X188066778Y-38092304D01*
X187986897Y-37806430D01*
X187919722Y-37564159D01*
X187912575Y-37538203D01*
X187858283Y-37350757D01*
X187809631Y-37200939D01*
X187771687Y-37103136D01*
X187749518Y-37071735D01*
X187748566Y-37072537D01*
X187730791Y-37120619D01*
X187694433Y-37239490D01*
X187642645Y-37418111D01*
X187578578Y-37645439D01*
X187505384Y-37910436D01*
X187428069Y-38195175D01*
X187134500Y-39285183D01*
X186322867Y-39285258D01*
X185511233Y-39285333D01*
X185467039Y-39147750D01*
X185443869Y-39068202D01*
X185403021Y-38920235D01*
X185348136Y-38717364D01*
X185282858Y-38473107D01*
X185210830Y-38200982D01*
X185168921Y-38041526D01*
X185096578Y-37768034D01*
X185030427Y-37522633D01*
X184973703Y-37316950D01*
X184929642Y-37162610D01*
X184901479Y-37071242D01*
X184893328Y-37051217D01*
X184885091Y-37043464D01*
X184876744Y-37044237D01*
X184865547Y-37062294D01*
X184848756Y-37106394D01*
X184823630Y-37185295D01*
X184787427Y-37307754D01*
X184737405Y-37482531D01*
X184670822Y-37718384D01*
X184584936Y-38024071D01*
X184551731Y-38142333D01*
X184473015Y-38422537D01*
X184401090Y-38678325D01*
X184339382Y-38897528D01*
X184291319Y-39067978D01*
X184260328Y-39177504D01*
X184250675Y-39211250D01*
X184237060Y-39236065D01*
X184205550Y-39254666D01*
X184145336Y-39267934D01*
X184045609Y-39276751D01*
X183895559Y-39282000D01*
X183684378Y-39284563D01*
X183401257Y-39285320D01*
X183342814Y-39285333D01*
X183033547Y-39284212D01*
X182800351Y-39280501D01*
X182634653Y-39273679D01*
X182527883Y-39263227D01*
X182471469Y-39248624D01*
X182456667Y-39231528D01*
X182468239Y-39167442D01*
X182502767Y-39022988D01*
X182559969Y-38799210D01*
X182639564Y-38497156D01*
X182741268Y-38117872D01*
X182864801Y-37662404D01*
X183009881Y-37131799D01*
X183176224Y-36527101D01*
X183363550Y-35849359D01*
X183525998Y-35263667D01*
X184131511Y-33083500D01*
X184849839Y-33073011D01*
X185090544Y-33071462D01*
X185303301Y-33073797D01*
X185472984Y-33079556D01*
X185584465Y-33088280D01*
X185620743Y-33096466D01*
X185645444Y-33144934D01*
X185688236Y-33264226D01*
X185745685Y-33443279D01*
X185814360Y-33671032D01*
X185890830Y-33936422D01*
X185969844Y-34221697D01*
X186050399Y-34515421D01*
X186125620Y-34784539D01*
X186192171Y-35017519D01*
X186246715Y-35202830D01*
X186285917Y-35328938D01*
X186306004Y-35383576D01*
X186318677Y-35408430D01*
X186329329Y-35425793D01*
X186340603Y-35427679D01*
X186355142Y-35406106D01*
X186375590Y-35353091D01*
X186404591Y-35260651D01*
X186444789Y-35120804D01*
X186498826Y-34925565D01*
X186569346Y-34666951D01*
X186658993Y-34336981D01*
X186688417Y-34228748D01*
X186769504Y-33936326D01*
X186846132Y-33670735D01*
X186914882Y-33442989D01*
X186972336Y-33264102D01*
X187015076Y-33145088D01*
X187039655Y-33096979D01*
X187094988Y-33086648D01*
X187214873Y-33078013D01*
X187382746Y-33071205D01*
X187582047Y-33066352D01*
X187796212Y-33063582D01*
X188008679Y-33063023D01*
X188202887Y-33064806D01*
X188362274Y-33069057D01*
X188470276Y-33075907D01*
X188510332Y-33085483D01*
X188510334Y-33085556D01*
X188521213Y-33128274D01*
X188552167Y-33243428D01*
X188600673Y-33421859D01*
X188664207Y-33654407D01*
X188740245Y-33931913D01*
X188826263Y-34245219D01*
X188919737Y-34585165D01*
X189018143Y-34942592D01*
X189118957Y-35308341D01*
X189219655Y-35673253D01*
X189317715Y-36028168D01*
X189410610Y-36363929D01*
X189495818Y-36671375D01*
X189570815Y-36941348D01*
X189633077Y-37164688D01*
X189680080Y-37332236D01*
X189697588Y-37394041D01*
X189743705Y-37555916D01*
X191338936Y-37540590D01*
X191700654Y-37536253D01*
X192037452Y-37530565D01*
X192339528Y-37523813D01*
X192597083Y-37516290D01*
X192800318Y-37508284D01*
X192939431Y-37500086D01*
X193004623Y-37491986D01*
X193006639Y-37491221D01*
X193086002Y-37414817D01*
X193115435Y-37304973D01*
X193094936Y-37193717D01*
X193024507Y-37113077D01*
X193006639Y-37104332D01*
X192944859Y-37094279D01*
X192811461Y-37082471D01*
X192619457Y-37069723D01*
X192381855Y-37056848D01*
X192111665Y-37044664D01*
X191960500Y-37038793D01*
X191600059Y-37024639D01*
X191311106Y-37009725D01*
X191080487Y-36991297D01*
X190895048Y-36966598D01*
X190741634Y-36932873D01*
X190607090Y-36887367D01*
X190478262Y-36827323D01*
X190341995Y-36749986D01*
X190219080Y-36673999D01*
X189940120Y-36451744D01*
X189704866Y-36161819D01*
X189555341Y-35898667D01*
X189499957Y-35781864D01*
X189462274Y-35684361D01*
X189438889Y-35585328D01*
X189426400Y-35463934D01*
X189421405Y-35299348D01*
X189420500Y-35073167D01*
X189421458Y-34844920D01*
X189426627Y-34680146D01*
X189439449Y-34557655D01*
X189463369Y-34456256D01*
X189501828Y-34354760D01*
X189556604Y-34235491D01*
X189759993Y-33900778D01*
X190028710Y-33605868D01*
X190346710Y-33367185D01*
X190474413Y-33296023D01*
X190564674Y-33252360D01*
X190655645Y-33214581D01*
X190753917Y-33182257D01*
X190866075Y-33154960D01*
X190998709Y-33132259D01*
X191158407Y-33113727D01*
X191351755Y-33098935D01*
X191585343Y-33087453D01*
X191865758Y-33078852D01*
X192199589Y-33072705D01*
X192593422Y-33068581D01*
X193053847Y-33066053D01*
X193587450Y-33064690D01*
X194035571Y-33064178D01*
X196406975Y-33062333D01*
X196864815Y-33716216D01*
G36*
X192955392Y-41423384D02*
G01*
X193012804Y-41631522D01*
X193061182Y-41770460D01*
X193113788Y-41852677D01*
X193183886Y-41890651D01*
X193284738Y-41896859D01*
X193429608Y-41883780D01*
X193443178Y-41882309D01*
X193738500Y-41850299D01*
X193477659Y-41806066D01*
X193268879Y-41754976D01*
X193133190Y-41680286D01*
X193060340Y-41573327D01*
X193040090Y-41436454D01*
X193357205Y-41436454D01*
X193357500Y-41444333D01*
X193411703Y-41468798D01*
X193520783Y-41484087D01*
X193594756Y-41486667D01*
X193790976Y-41516235D01*
X193928188Y-41602355D01*
X194001850Y-41741148D01*
X194013667Y-41844576D01*
X194018422Y-41943333D01*
X194030131Y-41993201D01*
X194032800Y-41994667D01*
X194065447Y-41962874D01*
X194128478Y-41881348D01*
X194177090Y-41812757D01*
X194248695Y-41703578D01*
X194276306Y-41634051D01*
X194265390Y-41575111D01*
X194232818Y-41516424D01*
X194197426Y-41464034D01*
X194155946Y-41430711D01*
X194090091Y-41412146D01*
X193981576Y-41404026D01*
X193812112Y-41402043D01*
X193747363Y-41402000D01*
X193542686Y-41406005D01*
X193411005Y-41417667D01*
X193357205Y-41436454D01*
X193040090Y-41436454D01*
X193040000Y-41435848D01*
X193066114Y-41279691D01*
X193143909Y-41167242D01*
X193190961Y-41124456D01*
X193242032Y-41095374D01*
X193313544Y-41077358D01*
X193421922Y-41067772D01*
X193583589Y-41063977D01*
X193790949Y-41063333D01*
X194334079Y-41063333D01*
X194412996Y-41196930D01*
X194491914Y-41330526D01*
X194603308Y-41194040D01*
X194687298Y-41105842D01*
X194770240Y-41070802D01*
X194893355Y-41071027D01*
X195072009Y-41084500D01*
X194902806Y-41338500D01*
X194819634Y-41468130D01*
X194759209Y-41571414D01*
X194733645Y-41627535D01*
X194733468Y-41629457D01*
X194756475Y-41679272D01*
X194817558Y-41777957D01*
X194904601Y-41906196D01*
X194925972Y-41936374D01*
X195118611Y-42206333D01*
X194915389Y-42206044D01*
X194785861Y-42199364D01*
X194705091Y-42168157D01*
X194637468Y-42094968D01*
X194610618Y-42056649D01*
X194509070Y-41907543D01*
X194402774Y-42056938D01*
X194322463Y-42153726D01*
X194240490Y-42196542D01*
X194116192Y-42206330D01*
X194112739Y-42206333D01*
X193985242Y-42198032D01*
X193934774Y-42169082D01*
X193954963Y-42113416D01*
X193981917Y-42081750D01*
X193986990Y-42065477D01*
X193935570Y-42093656D01*
X193907834Y-42112167D01*
X193826680Y-42155459D01*
X193718164Y-42186535D01*
X193563608Y-42209118D01*
X193344334Y-42226934D01*
X193326670Y-42228062D01*
X193127154Y-42241613D01*
X192994464Y-42246431D01*
X192910756Y-42233931D01*
X192858189Y-42195528D01*
X192818921Y-42122638D01*
X192775111Y-42006677D01*
X192754873Y-41952945D01*
X192728010Y-41891569D01*
X192706977Y-41890074D01*
X192679169Y-41956847D01*
X192659439Y-42016445D01*
X192603076Y-42156781D01*
X192538356Y-42226381D01*
X192445581Y-42238412D01*
X192354884Y-42220024D01*
X192297313Y-42169007D01*
X192255816Y-42071369D01*
X192254656Y-42066185D01*
X192220805Y-41937174D01*
X192189891Y-41890967D01*
X192157928Y-41925983D01*
X192127683Y-42015833D01*
X192090597Y-42124153D01*
X192039933Y-42175399D01*
X191944673Y-42194856D01*
X191903994Y-42198184D01*
X191796679Y-42198936D01*
X191736494Y-42185367D01*
X191731546Y-42177017D01*
X191744302Y-42125603D01*
X191776419Y-42009368D01*
X191823281Y-41844693D01*
X191880272Y-41647959D01*
X191890296Y-41613667D01*
X192045167Y-41084500D01*
X192190642Y-41084500D01*
X192290935Y-41093989D01*
X192342696Y-41139276D01*
X192373873Y-41232667D01*
X192415150Y-41363059D01*
X192452830Y-41409435D01*
X192489585Y-41372211D01*
X192526892Y-41256582D01*
X192561371Y-41138939D01*
X192600981Y-41082268D01*
X192667430Y-41064511D01*
X192717093Y-41063333D01*
X192858633Y-41063333D01*
X192955392Y-41423384D01*
G37*
X192955392Y-41423384D02*
X193012804Y-41631522D01*
X193061182Y-41770460D01*
X193113788Y-41852677D01*
X193183886Y-41890651D01*
X193284738Y-41896859D01*
X193429608Y-41883780D01*
X193443178Y-41882309D01*
X193738500Y-41850299D01*
X193477659Y-41806066D01*
X193268879Y-41754976D01*
X193133190Y-41680286D01*
X193060340Y-41573327D01*
X193040090Y-41436454D01*
X193357205Y-41436454D01*
X193357500Y-41444333D01*
X193411703Y-41468798D01*
X193520783Y-41484087D01*
X193594756Y-41486667D01*
X193790976Y-41516235D01*
X193928188Y-41602355D01*
X194001850Y-41741148D01*
X194013667Y-41844576D01*
X194018422Y-41943333D01*
X194030131Y-41993201D01*
X194032800Y-41994667D01*
X194065447Y-41962874D01*
X194128478Y-41881348D01*
X194177090Y-41812757D01*
X194248695Y-41703578D01*
X194276306Y-41634051D01*
X194265390Y-41575111D01*
X194232818Y-41516424D01*
X194197426Y-41464034D01*
X194155946Y-41430711D01*
X194090091Y-41412146D01*
X193981576Y-41404026D01*
X193812112Y-41402043D01*
X193747363Y-41402000D01*
X193542686Y-41406005D01*
X193411005Y-41417667D01*
X193357205Y-41436454D01*
X193040090Y-41436454D01*
X193040000Y-41435848D01*
X193066114Y-41279691D01*
X193143909Y-41167242D01*
X193190961Y-41124456D01*
X193242032Y-41095374D01*
X193313544Y-41077358D01*
X193421922Y-41067772D01*
X193583589Y-41063977D01*
X193790949Y-41063333D01*
X194334079Y-41063333D01*
X194412996Y-41196930D01*
X194491914Y-41330526D01*
X194603308Y-41194040D01*
X194687298Y-41105842D01*
X194770240Y-41070802D01*
X194893355Y-41071027D01*
X195072009Y-41084500D01*
X194902806Y-41338500D01*
X194819634Y-41468130D01*
X194759209Y-41571414D01*
X194733645Y-41627535D01*
X194733468Y-41629457D01*
X194756475Y-41679272D01*
X194817558Y-41777957D01*
X194904601Y-41906196D01*
X194925972Y-41936374D01*
X195118611Y-42206333D01*
X194915389Y-42206044D01*
X194785861Y-42199364D01*
X194705091Y-42168157D01*
X194637468Y-42094968D01*
X194610618Y-42056649D01*
X194509070Y-41907543D01*
X194402774Y-42056938D01*
X194322463Y-42153726D01*
X194240490Y-42196542D01*
X194116192Y-42206330D01*
X194112739Y-42206333D01*
X193985242Y-42198032D01*
X193934774Y-42169082D01*
X193954963Y-42113416D01*
X193981917Y-42081750D01*
X193986990Y-42065477D01*
X193935570Y-42093656D01*
X193907834Y-42112167D01*
X193826680Y-42155459D01*
X193718164Y-42186535D01*
X193563608Y-42209118D01*
X193344334Y-42226934D01*
X193326670Y-42228062D01*
X193127154Y-42241613D01*
X192994464Y-42246431D01*
X192910756Y-42233931D01*
X192858189Y-42195528D01*
X192818921Y-42122638D01*
X192775111Y-42006677D01*
X192754873Y-41952945D01*
X192728010Y-41891569D01*
X192706977Y-41890074D01*
X192679169Y-41956847D01*
X192659439Y-42016445D01*
X192603076Y-42156781D01*
X192538356Y-42226381D01*
X192445581Y-42238412D01*
X192354884Y-42220024D01*
X192297313Y-42169007D01*
X192255816Y-42071369D01*
X192254656Y-42066185D01*
X192220805Y-41937174D01*
X192189891Y-41890967D01*
X192157928Y-41925983D01*
X192127683Y-42015833D01*
X192090597Y-42124153D01*
X192039933Y-42175399D01*
X191944673Y-42194856D01*
X191903994Y-42198184D01*
X191796679Y-42198936D01*
X191736494Y-42185367D01*
X191731546Y-42177017D01*
X191744302Y-42125603D01*
X191776419Y-42009368D01*
X191823281Y-41844693D01*
X191880272Y-41647959D01*
X191890296Y-41613667D01*
X192045167Y-41084500D01*
X192190642Y-41084500D01*
X192290935Y-41093989D01*
X192342696Y-41139276D01*
X192373873Y-41232667D01*
X192415150Y-41363059D01*
X192452830Y-41409435D01*
X192489585Y-41372211D01*
X192526892Y-41256582D01*
X192561371Y-41138939D01*
X192600981Y-41082268D01*
X192667430Y-41064511D01*
X192717093Y-41063333D01*
X192858633Y-41063333D01*
X192955392Y-41423384D01*
G36*
X186641243Y-41071716D02*
G01*
X186735796Y-41086751D01*
X186789330Y-41126981D01*
X186825337Y-41216305D01*
X186841088Y-41275000D01*
X186871766Y-41387129D01*
X186892872Y-41426401D01*
X186914671Y-41402271D01*
X186933016Y-41359667D01*
X186972724Y-41245089D01*
X186992160Y-41169167D01*
X187030099Y-41105755D01*
X187125544Y-41075464D01*
X187160416Y-41071730D01*
X187312628Y-41058960D01*
X187412740Y-41447273D01*
X187471560Y-41655916D01*
X187529764Y-41793344D01*
X187601992Y-41871626D01*
X187702884Y-41902827D01*
X187847079Y-41899014D01*
X187946114Y-41886916D01*
X188192834Y-41853251D01*
X187981745Y-41820204D01*
X187794388Y-41788081D01*
X187671756Y-41756693D01*
X187594443Y-41717280D01*
X187543040Y-41661078D01*
X187512825Y-41608494D01*
X187467560Y-41444905D01*
X187469691Y-41436265D01*
X187811681Y-41436265D01*
X187811834Y-41444333D01*
X187866036Y-41468798D01*
X187975116Y-41484087D01*
X188049089Y-41486667D01*
X188246346Y-41515998D01*
X188382860Y-41602589D01*
X188456228Y-41744331D01*
X188468941Y-41855159D01*
X188469883Y-42015833D01*
X188551700Y-41910000D01*
X188629427Y-41799928D01*
X188684912Y-41708917D01*
X188714575Y-41615449D01*
X188685261Y-41518510D01*
X188679667Y-41507833D01*
X188649474Y-41459446D01*
X188609666Y-41428623D01*
X188542496Y-41411414D01*
X188430216Y-41403867D01*
X188255079Y-41402030D01*
X188204348Y-41402000D01*
X187998800Y-41405981D01*
X187866295Y-41417577D01*
X187811681Y-41436265D01*
X187469691Y-41436265D01*
X187506041Y-41288944D01*
X187599964Y-41165521D01*
X187646573Y-41123417D01*
X187697897Y-41094802D01*
X187770325Y-41077083D01*
X187880247Y-41067662D01*
X188044051Y-41063946D01*
X188245282Y-41063333D01*
X188788412Y-41063333D01*
X188867329Y-41196930D01*
X188946247Y-41330526D01*
X189057641Y-41194040D01*
X189141631Y-41105842D01*
X189224573Y-41070802D01*
X189347689Y-41071027D01*
X189526342Y-41084500D01*
X189357139Y-41338500D01*
X189274196Y-41466450D01*
X189213821Y-41566143D01*
X189188019Y-41617671D01*
X189187802Y-41619328D01*
X189210079Y-41664483D01*
X189269348Y-41760515D01*
X189354060Y-41888929D01*
X189379448Y-41926244D01*
X189571229Y-42206333D01*
X189366242Y-42206333D01*
X189233855Y-42199225D01*
X189150117Y-42167421D01*
X189079486Y-42095196D01*
X189061627Y-42071578D01*
X188961998Y-41936823D01*
X188849500Y-42071578D01*
X188755770Y-42163325D01*
X188654637Y-42200966D01*
X188560167Y-42206333D01*
X188435673Y-42197604D01*
X188388386Y-42167368D01*
X188412266Y-42109552D01*
X188436250Y-42081750D01*
X188441247Y-42066452D01*
X188390423Y-42096157D01*
X188360365Y-42117085D01*
X188296575Y-42157318D01*
X188227567Y-42183092D01*
X188134478Y-42196884D01*
X187998444Y-42201172D01*
X187800602Y-42198433D01*
X187750276Y-42197218D01*
X187268989Y-42185167D01*
X187221472Y-42015833D01*
X187185615Y-41914602D01*
X187154163Y-41892941D01*
X187123063Y-41952529D01*
X187093782Y-42068750D01*
X187066239Y-42158564D01*
X187016394Y-42197432D01*
X186914745Y-42206292D01*
X186899935Y-42206333D01*
X186796168Y-42200623D01*
X186739624Y-42168349D01*
X186703281Y-42086801D01*
X186685886Y-42026417D01*
X186636175Y-41846500D01*
X186574893Y-42026417D01*
X186531361Y-42137847D01*
X186483156Y-42190139D01*
X186402217Y-42205526D01*
X186347806Y-42206333D01*
X186243031Y-42201096D01*
X186185680Y-42188046D01*
X186182000Y-42183204D01*
X186192809Y-42136102D01*
X186222427Y-42023202D01*
X186266644Y-41860181D01*
X186321247Y-41662719D01*
X186336113Y-41609503D01*
X186490226Y-41058931D01*
X186641243Y-41071716D01*
G37*
X186641243Y-41071716D02*
X186735796Y-41086751D01*
X186789330Y-41126981D01*
X186825337Y-41216305D01*
X186841088Y-41275000D01*
X186871766Y-41387129D01*
X186892872Y-41426401D01*
X186914671Y-41402271D01*
X186933016Y-41359667D01*
X186972724Y-41245089D01*
X186992160Y-41169167D01*
X187030099Y-41105755D01*
X187125544Y-41075464D01*
X187160416Y-41071730D01*
X187312628Y-41058960D01*
X187412740Y-41447273D01*
X187471560Y-41655916D01*
X187529764Y-41793344D01*
X187601992Y-41871626D01*
X187702884Y-41902827D01*
X187847079Y-41899014D01*
X187946114Y-41886916D01*
X188192834Y-41853251D01*
X187981745Y-41820204D01*
X187794388Y-41788081D01*
X187671756Y-41756693D01*
X187594443Y-41717280D01*
X187543040Y-41661078D01*
X187512825Y-41608494D01*
X187467560Y-41444905D01*
X187469691Y-41436265D01*
X187811681Y-41436265D01*
X187811834Y-41444333D01*
X187866036Y-41468798D01*
X187975116Y-41484087D01*
X188049089Y-41486667D01*
X188246346Y-41515998D01*
X188382860Y-41602589D01*
X188456228Y-41744331D01*
X188468941Y-41855159D01*
X188469883Y-42015833D01*
X188551700Y-41910000D01*
X188629427Y-41799928D01*
X188684912Y-41708917D01*
X188714575Y-41615449D01*
X188685261Y-41518510D01*
X188679667Y-41507833D01*
X188649474Y-41459446D01*
X188609666Y-41428623D01*
X188542496Y-41411414D01*
X188430216Y-41403867D01*
X188255079Y-41402030D01*
X188204348Y-41402000D01*
X187998800Y-41405981D01*
X187866295Y-41417577D01*
X187811681Y-41436265D01*
X187469691Y-41436265D01*
X187506041Y-41288944D01*
X187599964Y-41165521D01*
X187646573Y-41123417D01*
X187697897Y-41094802D01*
X187770325Y-41077083D01*
X187880247Y-41067662D01*
X188044051Y-41063946D01*
X188245282Y-41063333D01*
X188788412Y-41063333D01*
X188867329Y-41196930D01*
X188946247Y-41330526D01*
X189057641Y-41194040D01*
X189141631Y-41105842D01*
X189224573Y-41070802D01*
X189347689Y-41071027D01*
X189526342Y-41084500D01*
X189357139Y-41338500D01*
X189274196Y-41466450D01*
X189213821Y-41566143D01*
X189188019Y-41617671D01*
X189187802Y-41619328D01*
X189210079Y-41664483D01*
X189269348Y-41760515D01*
X189354060Y-41888929D01*
X189379448Y-41926244D01*
X189571229Y-42206333D01*
X189366242Y-42206333D01*
X189233855Y-42199225D01*
X189150117Y-42167421D01*
X189079486Y-42095196D01*
X189061627Y-42071578D01*
X188961998Y-41936823D01*
X188849500Y-42071578D01*
X188755770Y-42163325D01*
X188654637Y-42200966D01*
X188560167Y-42206333D01*
X188435673Y-42197604D01*
X188388386Y-42167368D01*
X188412266Y-42109552D01*
X188436250Y-42081750D01*
X188441247Y-42066452D01*
X188390423Y-42096157D01*
X188360365Y-42117085D01*
X188296575Y-42157318D01*
X188227567Y-42183092D01*
X188134478Y-42196884D01*
X187998444Y-42201172D01*
X187800602Y-42198433D01*
X187750276Y-42197218D01*
X187268989Y-42185167D01*
X187221472Y-42015833D01*
X187185615Y-41914602D01*
X187154163Y-41892941D01*
X187123063Y-41952529D01*
X187093782Y-42068750D01*
X187066239Y-42158564D01*
X187016394Y-42197432D01*
X186914745Y-42206292D01*
X186899935Y-42206333D01*
X186796168Y-42200623D01*
X186739624Y-42168349D01*
X186703281Y-42086801D01*
X186685886Y-42026417D01*
X186636175Y-41846500D01*
X186574893Y-42026417D01*
X186531361Y-42137847D01*
X186483156Y-42190139D01*
X186402217Y-42205526D01*
X186347806Y-42206333D01*
X186243031Y-42201096D01*
X186185680Y-42188046D01*
X186182000Y-42183204D01*
X186192809Y-42136102D01*
X186222427Y-42023202D01*
X186266644Y-41860181D01*
X186321247Y-41662719D01*
X186336113Y-41609503D01*
X186490226Y-41058931D01*
X186641243Y-41071716D01*
G36*
X181690868Y-41071787D02*
G01*
X181803377Y-41095890D01*
X181853357Y-41150662D01*
X181858173Y-41169167D01*
X181886580Y-41275523D01*
X181916046Y-41359667D01*
X181942306Y-41416838D01*
X181963476Y-41418764D01*
X181989873Y-41355809D01*
X182018052Y-41264417D01*
X182058705Y-41144142D01*
X182100516Y-41084773D01*
X182164961Y-41065023D01*
X182220892Y-41063333D01*
X182305552Y-41068768D01*
X182355128Y-41099021D01*
X182388495Y-41175013D01*
X182415227Y-41278725D01*
X182466899Y-41494118D01*
X182489188Y-41444333D01*
X182837667Y-41444333D01*
X182875960Y-41467434D01*
X182974813Y-41482810D01*
X183072424Y-41486667D01*
X183280009Y-41513107D01*
X183422028Y-41592820D01*
X183499192Y-41726396D01*
X183515000Y-41853042D01*
X183517406Y-41938255D01*
X183531687Y-41969911D01*
X183568438Y-41943702D01*
X183638255Y-41855322D01*
X183693145Y-41780627D01*
X183759410Y-41683301D01*
X183778830Y-41619211D01*
X183756578Y-41554789D01*
X183733921Y-41516043D01*
X183698474Y-41463693D01*
X183656775Y-41430454D01*
X183590470Y-41411988D01*
X183481202Y-41403961D01*
X183310619Y-41402036D01*
X183251195Y-41402000D01*
X183057740Y-41406114D01*
X182918293Y-41417599D01*
X182845412Y-41435168D01*
X182837667Y-41444333D01*
X182489188Y-41444333D01*
X182542851Y-41324474D01*
X182609426Y-41208017D01*
X182683288Y-41123579D01*
X182704285Y-41109082D01*
X182780041Y-41090833D01*
X182921587Y-41076182D01*
X183110072Y-41066548D01*
X183312590Y-41063333D01*
X183835412Y-41063333D01*
X183914329Y-41196930D01*
X183993247Y-41330526D01*
X184104641Y-41194040D01*
X184188631Y-41105842D01*
X184271573Y-41070802D01*
X184394689Y-41071027D01*
X184573342Y-41084500D01*
X184404139Y-41338500D01*
X184321011Y-41467805D01*
X184260596Y-41570393D01*
X184234986Y-41625625D01*
X184234802Y-41627503D01*
X184257756Y-41677220D01*
X184318102Y-41774124D01*
X184402843Y-41897361D01*
X184404000Y-41898978D01*
X184488994Y-42022491D01*
X184549776Y-42120016D01*
X184573330Y-42170654D01*
X184573334Y-42170891D01*
X184535512Y-42192143D01*
X184439950Y-42204794D01*
X184385227Y-42206333D01*
X184260283Y-42198366D01*
X184185120Y-42163447D01*
X184125499Y-42085050D01*
X184122099Y-42079333D01*
X184064105Y-41994405D01*
X184020530Y-41953097D01*
X184016755Y-41952333D01*
X183974699Y-41983520D01*
X183909794Y-42060436D01*
X183896000Y-42079333D01*
X183823433Y-42161838D01*
X183739103Y-42198479D01*
X183617951Y-42206333D01*
X183488987Y-42198350D01*
X183436744Y-42170164D01*
X183454416Y-42115420D01*
X183483250Y-42080554D01*
X183489331Y-42064580D01*
X183440255Y-42095164D01*
X183414041Y-42114421D01*
X183351195Y-42155109D01*
X183279462Y-42181768D01*
X183180072Y-42197274D01*
X183034255Y-42204503D01*
X182823241Y-42206332D01*
X182814319Y-42206333D01*
X182336722Y-42206333D01*
X182275647Y-42026417D01*
X182214571Y-41846500D01*
X182160620Y-42022961D01*
X182095126Y-42164747D01*
X182017085Y-42223466D01*
X181928211Y-42244150D01*
X181878283Y-42239336D01*
X181838385Y-42216268D01*
X181796659Y-42158965D01*
X181749552Y-42053849D01*
X181736219Y-42015833D01*
X181680836Y-41846500D01*
X181620723Y-42026417D01*
X181578115Y-42137789D01*
X181530411Y-42190057D01*
X181449097Y-42205481D01*
X181390277Y-42206333D01*
X181275412Y-42196683D01*
X181236895Y-42166271D01*
X181239054Y-42153417D01*
X181256899Y-42094143D01*
X181291799Y-41970579D01*
X181338882Y-41800214D01*
X181393276Y-41600535D01*
X181395919Y-41590759D01*
X182512626Y-41590759D01*
X182529298Y-41692404D01*
X182540183Y-41736393D01*
X182586930Y-41910000D01*
X182828715Y-41907024D01*
X182978160Y-41899618D01*
X183103203Y-41883774D01*
X183155167Y-41870518D01*
X183179812Y-41849369D01*
X183134152Y-41830063D01*
X183011765Y-41810314D01*
X182972757Y-41805548D01*
X182776813Y-41764079D01*
X182632593Y-41695839D01*
X182552957Y-41608258D01*
X182541334Y-41556295D01*
X182524340Y-41533674D01*
X182517384Y-41538838D01*
X182512626Y-41590759D01*
X181395919Y-41590759D01*
X181398886Y-41579787D01*
X181539607Y-41059073D01*
X181690868Y-41071787D01*
G37*
X181690868Y-41071787D02*
X181803377Y-41095890D01*
X181853357Y-41150662D01*
X181858173Y-41169167D01*
X181886580Y-41275523D01*
X181916046Y-41359667D01*
X181942306Y-41416838D01*
X181963476Y-41418764D01*
X181989873Y-41355809D01*
X182018052Y-41264417D01*
X182058705Y-41144142D01*
X182100516Y-41084773D01*
X182164961Y-41065023D01*
X182220892Y-41063333D01*
X182305552Y-41068768D01*
X182355128Y-41099021D01*
X182388495Y-41175013D01*
X182415227Y-41278725D01*
X182466899Y-41494118D01*
X182489188Y-41444333D01*
X182837667Y-41444333D01*
X182875960Y-41467434D01*
X182974813Y-41482810D01*
X183072424Y-41486667D01*
X183280009Y-41513107D01*
X183422028Y-41592820D01*
X183499192Y-41726396D01*
X183515000Y-41853042D01*
X183517406Y-41938255D01*
X183531687Y-41969911D01*
X183568438Y-41943702D01*
X183638255Y-41855322D01*
X183693145Y-41780627D01*
X183759410Y-41683301D01*
X183778830Y-41619211D01*
X183756578Y-41554789D01*
X183733921Y-41516043D01*
X183698474Y-41463693D01*
X183656775Y-41430454D01*
X183590470Y-41411988D01*
X183481202Y-41403961D01*
X183310619Y-41402036D01*
X183251195Y-41402000D01*
X183057740Y-41406114D01*
X182918293Y-41417599D01*
X182845412Y-41435168D01*
X182837667Y-41444333D01*
X182489188Y-41444333D01*
X182542851Y-41324474D01*
X182609426Y-41208017D01*
X182683288Y-41123579D01*
X182704285Y-41109082D01*
X182780041Y-41090833D01*
X182921587Y-41076182D01*
X183110072Y-41066548D01*
X183312590Y-41063333D01*
X183835412Y-41063333D01*
X183914329Y-41196930D01*
X183993247Y-41330526D01*
X184104641Y-41194040D01*
X184188631Y-41105842D01*
X184271573Y-41070802D01*
X184394689Y-41071027D01*
X184573342Y-41084500D01*
X184404139Y-41338500D01*
X184321011Y-41467805D01*
X184260596Y-41570393D01*
X184234986Y-41625625D01*
X184234802Y-41627503D01*
X184257756Y-41677220D01*
X184318102Y-41774124D01*
X184402843Y-41897361D01*
X184404000Y-41898978D01*
X184488994Y-42022491D01*
X184549776Y-42120016D01*
X184573330Y-42170654D01*
X184573334Y-42170891D01*
X184535512Y-42192143D01*
X184439950Y-42204794D01*
X184385227Y-42206333D01*
X184260283Y-42198366D01*
X184185120Y-42163447D01*
X184125499Y-42085050D01*
X184122099Y-42079333D01*
X184064105Y-41994405D01*
X184020530Y-41953097D01*
X184016755Y-41952333D01*
X183974699Y-41983520D01*
X183909794Y-42060436D01*
X183896000Y-42079333D01*
X183823433Y-42161838D01*
X183739103Y-42198479D01*
X183617951Y-42206333D01*
X183488987Y-42198350D01*
X183436744Y-42170164D01*
X183454416Y-42115420D01*
X183483250Y-42080554D01*
X183489331Y-42064580D01*
X183440255Y-42095164D01*
X183414041Y-42114421D01*
X183351195Y-42155109D01*
X183279462Y-42181768D01*
X183180072Y-42197274D01*
X183034255Y-42204503D01*
X182823241Y-42206332D01*
X182814319Y-42206333D01*
X182336722Y-42206333D01*
X182275647Y-42026417D01*
X182214571Y-41846500D01*
X182160620Y-42022961D01*
X182095126Y-42164747D01*
X182017085Y-42223466D01*
X181928211Y-42244150D01*
X181878283Y-42239336D01*
X181838385Y-42216268D01*
X181796659Y-42158965D01*
X181749552Y-42053849D01*
X181736219Y-42015833D01*
X181680836Y-41846500D01*
X181620723Y-42026417D01*
X181578115Y-42137789D01*
X181530411Y-42190057D01*
X181449097Y-42205481D01*
X181390277Y-42206333D01*
X181275412Y-42196683D01*
X181236895Y-42166271D01*
X181239054Y-42153417D01*
X181256899Y-42094143D01*
X181291799Y-41970579D01*
X181338882Y-41800214D01*
X181393276Y-41600535D01*
X181395919Y-41590759D01*
X182512626Y-41590759D01*
X182529298Y-41692404D01*
X182540183Y-41736393D01*
X182586930Y-41910000D01*
X182828715Y-41907024D01*
X182978160Y-41899618D01*
X183103203Y-41883774D01*
X183155167Y-41870518D01*
X183179812Y-41849369D01*
X183134152Y-41830063D01*
X183011765Y-41810314D01*
X182972757Y-41805548D01*
X182776813Y-41764079D01*
X182632593Y-41695839D01*
X182552957Y-41608258D01*
X182541334Y-41556295D01*
X182524340Y-41533674D01*
X182517384Y-41538838D01*
X182512626Y-41590759D01*
X181395919Y-41590759D01*
X181398886Y-41579787D01*
X181539607Y-41059073D01*
X181690868Y-41071787D01*
G36*
X200061231Y-41116360D02*
G01*
X200067334Y-41132420D01*
X200047009Y-41182425D01*
X199996546Y-41273230D01*
X199980132Y-41300268D01*
X199892930Y-41441364D01*
X200002247Y-41601598D01*
X200111564Y-41761833D01*
X200018504Y-41776336D01*
X199913977Y-41752935D01*
X199856878Y-41699939D01*
X199788311Y-41609038D01*
X199709595Y-41696019D01*
X199637092Y-41750465D01*
X199554076Y-41782057D01*
X199490876Y-41782582D01*
X199474667Y-41759637D01*
X199493979Y-41711909D01*
X199542634Y-41619075D01*
X199568262Y-41573649D01*
X199623861Y-41465167D01*
X199634590Y-41397446D01*
X199605412Y-41343012D01*
X199532749Y-41302362D01*
X199417782Y-41279020D01*
X199293870Y-41274896D01*
X199194377Y-41291901D01*
X199157167Y-41317333D01*
X199173501Y-41347500D01*
X199255239Y-41359661D01*
X199257478Y-41359667D01*
X199380697Y-41386375D01*
X199476550Y-41453209D01*
X199516936Y-41540236D01*
X199517000Y-41543771D01*
X199494349Y-41614553D01*
X199451100Y-41688914D01*
X199401778Y-41741706D01*
X199331577Y-41770324D01*
X199215989Y-41781646D01*
X199115961Y-41783000D01*
X198968585Y-41780552D01*
X198883355Y-41767575D01*
X198837772Y-41735624D01*
X198809340Y-41676252D01*
X198805907Y-41666583D01*
X198765092Y-41550167D01*
X198718761Y-41666583D01*
X198658578Y-41754825D01*
X198587747Y-41779683D01*
X198529046Y-41737637D01*
X198513266Y-41698333D01*
X198481852Y-41629755D01*
X198458667Y-41613667D01*
X198423181Y-41648829D01*
X198404067Y-41698333D01*
X198355128Y-41766885D01*
X198280979Y-41783522D01*
X198239644Y-41761533D01*
X198239627Y-41713384D01*
X198258927Y-41605154D01*
X198293570Y-41458161D01*
X198302821Y-41422866D01*
X198352253Y-41254617D01*
X198394588Y-41155595D01*
X198437073Y-41111586D01*
X198464592Y-41105667D01*
X198536339Y-41144451D01*
X198569841Y-41217708D01*
X198597962Y-41329750D01*
X198658020Y-41215125D01*
X198726899Y-41126782D01*
X198794970Y-41121596D01*
X198859378Y-41198084D01*
X198915700Y-41349083D01*
X198977510Y-41571333D01*
X199152005Y-41564990D01*
X199249910Y-41559821D01*
X199267749Y-41552845D01*
X199210119Y-41541651D01*
X199199500Y-41540078D01*
X199058225Y-41499615D01*
X198985062Y-41422319D01*
X198966667Y-41313639D01*
X198988499Y-41212542D01*
X199061235Y-41147909D01*
X199195732Y-41114185D01*
X199373300Y-41105667D01*
X199559926Y-41119430D01*
X199676368Y-41162197D01*
X199693583Y-41175728D01*
X199758092Y-41222553D01*
X199810670Y-41207686D01*
X199848417Y-41175728D01*
X199926786Y-41127076D01*
X200008285Y-41105197D01*
X200061231Y-41116360D01*
G37*
X200061231Y-41116360D02*
X200067334Y-41132420D01*
X200047009Y-41182425D01*
X199996546Y-41273230D01*
X199980132Y-41300268D01*
X199892930Y-41441364D01*
X200002247Y-41601598D01*
X200111564Y-41761833D01*
X200018504Y-41776336D01*
X199913977Y-41752935D01*
X199856878Y-41699939D01*
X199788311Y-41609038D01*
X199709595Y-41696019D01*
X199637092Y-41750465D01*
X199554076Y-41782057D01*
X199490876Y-41782582D01*
X199474667Y-41759637D01*
X199493979Y-41711909D01*
X199542634Y-41619075D01*
X199568262Y-41573649D01*
X199623861Y-41465167D01*
X199634590Y-41397446D01*
X199605412Y-41343012D01*
X199532749Y-41302362D01*
X199417782Y-41279020D01*
X199293870Y-41274896D01*
X199194377Y-41291901D01*
X199157167Y-41317333D01*
X199173501Y-41347500D01*
X199255239Y-41359661D01*
X199257478Y-41359667D01*
X199380697Y-41386375D01*
X199476550Y-41453209D01*
X199516936Y-41540236D01*
X199517000Y-41543771D01*
X199494349Y-41614553D01*
X199451100Y-41688914D01*
X199401778Y-41741706D01*
X199331577Y-41770324D01*
X199215989Y-41781646D01*
X199115961Y-41783000D01*
X198968585Y-41780552D01*
X198883355Y-41767575D01*
X198837772Y-41735624D01*
X198809340Y-41676252D01*
X198805907Y-41666583D01*
X198765092Y-41550167D01*
X198718761Y-41666583D01*
X198658578Y-41754825D01*
X198587747Y-41779683D01*
X198529046Y-41737637D01*
X198513266Y-41698333D01*
X198481852Y-41629755D01*
X198458667Y-41613667D01*
X198423181Y-41648829D01*
X198404067Y-41698333D01*
X198355128Y-41766885D01*
X198280979Y-41783522D01*
X198239644Y-41761533D01*
X198239627Y-41713384D01*
X198258927Y-41605154D01*
X198293570Y-41458161D01*
X198302821Y-41422866D01*
X198352253Y-41254617D01*
X198394588Y-41155595D01*
X198437073Y-41111586D01*
X198464592Y-41105667D01*
X198536339Y-41144451D01*
X198569841Y-41217708D01*
X198597962Y-41329750D01*
X198658020Y-41215125D01*
X198726899Y-41126782D01*
X198794970Y-41121596D01*
X198859378Y-41198084D01*
X198915700Y-41349083D01*
X198977510Y-41571333D01*
X199152005Y-41564990D01*
X199249910Y-41559821D01*
X199267749Y-41552845D01*
X199210119Y-41541651D01*
X199199500Y-41540078D01*
X199058225Y-41499615D01*
X198985062Y-41422319D01*
X198966667Y-41313639D01*
X198988499Y-41212542D01*
X199061235Y-41147909D01*
X199195732Y-41114185D01*
X199373300Y-41105667D01*
X199559926Y-41119430D01*
X199676368Y-41162197D01*
X199693583Y-41175728D01*
X199758092Y-41222553D01*
X199810670Y-41207686D01*
X199848417Y-41175728D01*
X199926786Y-41127076D01*
X200008285Y-41105197D01*
X200061231Y-41116360D01*
G36*
X199954535Y-41960504D02*
G01*
X200048270Y-41980183D01*
X200083926Y-42032124D01*
X200088500Y-42100500D01*
X200075193Y-42193857D01*
X200020507Y-42233031D01*
X199979043Y-42240223D01*
X199876467Y-42227216D01*
X199816796Y-42189338D01*
X199785176Y-42097578D01*
X199787167Y-42080512D01*
X199908292Y-42080512D01*
X199922678Y-42127348D01*
X199955142Y-42159402D01*
X199973660Y-42127519D01*
X199973977Y-42061431D01*
X199965910Y-42048465D01*
X199925197Y-42038601D01*
X199908292Y-42080512D01*
X199787167Y-42080512D01*
X199792288Y-42036619D01*
X199832777Y-41973702D01*
X199915408Y-41957873D01*
X199954535Y-41960504D01*
G37*
X199954535Y-41960504D02*
X200048270Y-41980183D01*
X200083926Y-42032124D01*
X200088500Y-42100500D01*
X200075193Y-42193857D01*
X200020507Y-42233031D01*
X199979043Y-42240223D01*
X199876467Y-42227216D01*
X199816796Y-42189338D01*
X199785176Y-42097578D01*
X199787167Y-42080512D01*
X199908292Y-42080512D01*
X199922678Y-42127348D01*
X199955142Y-42159402D01*
X199973660Y-42127519D01*
X199973977Y-42061431D01*
X199965910Y-42048465D01*
X199925197Y-42038601D01*
X199908292Y-42080512D01*
X199787167Y-42080512D01*
X199792288Y-42036619D01*
X199832777Y-41973702D01*
X199915408Y-41957873D01*
X199954535Y-41960504D01*
G36*
X199467503Y-41890525D02*
G01*
X199474667Y-41910000D01*
X199510975Y-41941533D01*
X199583182Y-41952333D01*
X199656830Y-41962238D01*
X199681698Y-42009042D01*
X199678432Y-42089917D01*
X199660981Y-42181427D01*
X199614381Y-42223561D01*
X199511351Y-42240225D01*
X199506417Y-42240639D01*
X199347667Y-42253777D01*
X199347667Y-42100500D01*
X199474667Y-42100500D01*
X199497526Y-42156836D01*
X199517000Y-42164000D01*
X199554557Y-42129712D01*
X199559334Y-42100500D01*
X199536475Y-42044164D01*
X199517000Y-42037000D01*
X199479443Y-42071288D01*
X199474667Y-42100500D01*
X199347667Y-42100500D01*
X199347667Y-42060722D01*
X199355766Y-41934236D01*
X199383372Y-41876062D01*
X199411167Y-41867667D01*
X199467503Y-41890525D01*
G37*
X199467503Y-41890525D02*
X199474667Y-41910000D01*
X199510975Y-41941533D01*
X199583182Y-41952333D01*
X199656830Y-41962238D01*
X199681698Y-42009042D01*
X199678432Y-42089917D01*
X199660981Y-42181427D01*
X199614381Y-42223561D01*
X199511351Y-42240225D01*
X199506417Y-42240639D01*
X199347667Y-42253777D01*
X199347667Y-42100500D01*
X199474667Y-42100500D01*
X199497526Y-42156836D01*
X199517000Y-42164000D01*
X199554557Y-42129712D01*
X199559334Y-42100500D01*
X199536475Y-42044164D01*
X199517000Y-42037000D01*
X199479443Y-42071288D01*
X199474667Y-42100500D01*
X199347667Y-42100500D01*
X199347667Y-42060722D01*
X199355766Y-41934236D01*
X199383372Y-41876062D01*
X199411167Y-41867667D01*
X199467503Y-41890525D01*
G36*
X199272874Y-41964394D02*
G01*
X199305334Y-41991855D01*
X199271090Y-42031890D01*
X199241834Y-42037000D01*
X199190762Y-42073800D01*
X199178334Y-42142833D01*
X199155547Y-42228880D01*
X199112151Y-42248667D01*
X199066494Y-42224728D01*
X199056887Y-42141721D01*
X199059235Y-42111083D01*
X199081343Y-42012331D01*
X199137492Y-41969595D01*
X199188917Y-41960105D01*
X199272874Y-41964394D01*
G37*
X199272874Y-41964394D02*
X199305334Y-41991855D01*
X199271090Y-42031890D01*
X199241834Y-42037000D01*
X199190762Y-42073800D01*
X199178334Y-42142833D01*
X199155547Y-42228880D01*
X199112151Y-42248667D01*
X199066494Y-42224728D01*
X199056887Y-42141721D01*
X199059235Y-42111083D01*
X199081343Y-42012331D01*
X199137492Y-41969595D01*
X199188917Y-41960105D01*
X199272874Y-41964394D01*
G36*
X198943789Y-41968332D02*
G01*
X198964228Y-42031361D01*
X198966667Y-42097396D01*
X198960370Y-42198108D01*
X198925294Y-42239959D01*
X198837160Y-42248635D01*
X198823684Y-42248667D01*
X198710525Y-42231487D01*
X198632042Y-42189874D01*
X198629688Y-42187200D01*
X198592418Y-42095229D01*
X198612705Y-42007957D01*
X198681403Y-41960299D01*
X198737155Y-41972103D01*
X198758305Y-42047692D01*
X198759220Y-42065646D01*
X198763481Y-42146766D01*
X198772997Y-42146626D01*
X198792826Y-42079555D01*
X198840491Y-41994487D01*
X198894440Y-41960035D01*
X198943789Y-41968332D01*
G37*
X198943789Y-41968332D02*
X198964228Y-42031361D01*
X198966667Y-42097396D01*
X198960370Y-42198108D01*
X198925294Y-42239959D01*
X198837160Y-42248635D01*
X198823684Y-42248667D01*
X198710525Y-42231487D01*
X198632042Y-42189874D01*
X198629688Y-42187200D01*
X198592418Y-42095229D01*
X198612705Y-42007957D01*
X198681403Y-41960299D01*
X198737155Y-41972103D01*
X198758305Y-42047692D01*
X198759220Y-42065646D01*
X198763481Y-42146766D01*
X198772997Y-42146626D01*
X198792826Y-42079555D01*
X198840491Y-41994487D01*
X198894440Y-41960035D01*
X198943789Y-41968332D01*
G36*
X198416334Y-41910000D02*
G01*
X198450622Y-41947557D01*
X198479834Y-41952333D01*
X198536169Y-41975192D01*
X198543334Y-41994667D01*
X198509045Y-42032224D01*
X198479834Y-42037000D01*
X198423709Y-42070886D01*
X198416334Y-42100500D01*
X198450220Y-42156624D01*
X198479834Y-42164000D01*
X198536169Y-42186859D01*
X198543334Y-42206333D01*
X198508566Y-42238776D01*
X198425881Y-42242205D01*
X198342250Y-42220630D01*
X198297213Y-42165465D01*
X198289334Y-42121667D01*
X198264542Y-42047578D01*
X198236795Y-42026542D01*
X198212483Y-41995956D01*
X198254938Y-41938348D01*
X198335515Y-41879854D01*
X198396563Y-41872720D01*
X198416334Y-41910000D01*
G37*
X198416334Y-41910000D02*
X198450622Y-41947557D01*
X198479834Y-41952333D01*
X198536169Y-41975192D01*
X198543334Y-41994667D01*
X198509045Y-42032224D01*
X198479834Y-42037000D01*
X198423709Y-42070886D01*
X198416334Y-42100500D01*
X198450220Y-42156624D01*
X198479834Y-42164000D01*
X198536169Y-42186859D01*
X198543334Y-42206333D01*
X198508566Y-42238776D01*
X198425881Y-42242205D01*
X198342250Y-42220630D01*
X198297213Y-42165465D01*
X198289334Y-42121667D01*
X198264542Y-42047578D01*
X198236795Y-42026542D01*
X198212483Y-41995956D01*
X198254938Y-41938348D01*
X198335515Y-41879854D01*
X198396563Y-41872720D01*
X198416334Y-41910000D01*
G36*
X202014667Y-42333333D02*
G01*
X200490667Y-42333333D01*
X200490667Y-41105667D01*
X200829334Y-41105667D01*
X200829334Y-42206333D01*
X200930638Y-42206333D01*
X201018992Y-42181357D01*
X201057638Y-42139371D01*
X201075539Y-42051585D01*
X201083323Y-41931905D01*
X201083334Y-41927704D01*
X201087599Y-41838788D01*
X201115753Y-41796683D01*
X201190836Y-41783888D01*
X201273834Y-41783000D01*
X201464334Y-41783000D01*
X201464334Y-41994667D01*
X201467765Y-42120289D01*
X201485276Y-42182958D01*
X201527693Y-42204328D01*
X201570167Y-42206333D01*
X201632755Y-42199557D01*
X201664118Y-42164857D01*
X201674932Y-42080675D01*
X201676000Y-41992636D01*
X201667947Y-41851797D01*
X201635156Y-41759636D01*
X201564678Y-41680990D01*
X201559584Y-41676474D01*
X201486239Y-41609082D01*
X201473553Y-41580209D01*
X201518099Y-41573048D01*
X201538417Y-41572671D01*
X201605144Y-41556901D01*
X201630752Y-41495869D01*
X201633378Y-41433750D01*
X201595159Y-41292621D01*
X201484912Y-41188656D01*
X201308253Y-41125252D01*
X201091297Y-41105667D01*
X200829334Y-41105667D01*
X200490667Y-41105667D01*
X200490667Y-40978667D01*
X202014667Y-40978667D01*
X202014667Y-42333333D01*
G37*
X202014667Y-42333333D02*
X200490667Y-42333333D01*
X200490667Y-41105667D01*
X200829334Y-41105667D01*
X200829334Y-42206333D01*
X200930638Y-42206333D01*
X201018992Y-42181357D01*
X201057638Y-42139371D01*
X201075539Y-42051585D01*
X201083323Y-41931905D01*
X201083334Y-41927704D01*
X201087599Y-41838788D01*
X201115753Y-41796683D01*
X201190836Y-41783888D01*
X201273834Y-41783000D01*
X201464334Y-41783000D01*
X201464334Y-41994667D01*
X201467765Y-42120289D01*
X201485276Y-42182958D01*
X201527693Y-42204328D01*
X201570167Y-42206333D01*
X201632755Y-42199557D01*
X201664118Y-42164857D01*
X201674932Y-42080675D01*
X201676000Y-41992636D01*
X201667947Y-41851797D01*
X201635156Y-41759636D01*
X201564678Y-41680990D01*
X201559584Y-41676474D01*
X201486239Y-41609082D01*
X201473553Y-41580209D01*
X201518099Y-41573048D01*
X201538417Y-41572671D01*
X201605144Y-41556901D01*
X201630752Y-41495869D01*
X201633378Y-41433750D01*
X201595159Y-41292621D01*
X201484912Y-41188656D01*
X201308253Y-41125252D01*
X201091297Y-41105667D01*
X200829334Y-41105667D01*
X200490667Y-41105667D01*
X200490667Y-40978667D01*
X202014667Y-40978667D01*
X202014667Y-42333333D01*
G36*
X202819000Y-43137667D02*
G01*
X180255334Y-43137667D01*
X180255334Y-40851667D01*
X180975000Y-40851667D01*
X180975000Y-42418000D01*
X184869667Y-42418000D01*
X184869667Y-40851667D01*
X185885667Y-40851667D01*
X185885667Y-42418000D01*
X189822667Y-42418000D01*
X189822667Y-41698333D01*
X189907091Y-41698333D01*
X190055379Y-41698333D01*
X190163044Y-41685635D01*
X190202713Y-41643536D01*
X190203667Y-41631729D01*
X190232397Y-41585336D01*
X190293741Y-41583327D01*
X190350431Y-41622286D01*
X190362735Y-41646311D01*
X190343967Y-41701705D01*
X190277320Y-41793222D01*
X190186740Y-41891290D01*
X190080031Y-42010302D01*
X189999722Y-42125336D01*
X189967712Y-42197312D01*
X189943144Y-42302194D01*
X189926293Y-42365083D01*
X189941119Y-42392342D01*
X190013042Y-42409065D01*
X190152663Y-42416891D01*
X190268495Y-42418000D01*
X190627000Y-42418000D01*
X190627000Y-42291000D01*
X190621513Y-42213015D01*
X190589763Y-42176005D01*
X190508814Y-42164740D01*
X190435757Y-42164000D01*
X190244513Y-42164000D01*
X190435757Y-41980756D01*
X190555060Y-41852662D01*
X190614427Y-41749106D01*
X190627000Y-41672676D01*
X190593614Y-41515871D01*
X190506315Y-41404858D01*
X190384395Y-41342889D01*
X190247144Y-41333216D01*
X190113852Y-41379088D01*
X190003811Y-41483758D01*
X189962888Y-41560750D01*
X189907091Y-41698333D01*
X189822667Y-41698333D01*
X189822667Y-40851667D01*
X191473667Y-40851667D01*
X191473667Y-42418000D01*
X195368334Y-42418000D01*
X195530940Y-42418000D01*
X196257334Y-42418000D01*
X196257334Y-42291000D01*
X196251847Y-42213015D01*
X196220096Y-42176005D01*
X196139148Y-42164740D01*
X196066090Y-42164000D01*
X195874847Y-42164000D01*
X196066090Y-41980756D01*
X196189692Y-41840470D01*
X196346422Y-41840470D01*
X196349639Y-41878250D01*
X196370479Y-41937789D01*
X196426378Y-41969427D01*
X196540361Y-41984767D01*
X196564250Y-41986403D01*
X196765334Y-41999305D01*
X196765334Y-42208653D01*
X196769893Y-42334760D01*
X196789202Y-42397322D01*
X196831707Y-42417225D01*
X196850000Y-42418000D01*
X196900784Y-42406856D01*
X196926111Y-42359554D01*
X196934305Y-42255291D01*
X196934667Y-42206333D01*
X196934667Y-41994667D01*
X197146334Y-41994667D01*
X197271956Y-41991235D01*
X197334625Y-41973724D01*
X197355995Y-41931307D01*
X197358000Y-41888833D01*
X197351138Y-41826022D01*
X197316115Y-41794687D01*
X197231280Y-41784002D01*
X197146334Y-41783000D01*
X196934667Y-41783000D01*
X196934667Y-41550167D01*
X196930992Y-41415613D01*
X196915103Y-41345517D01*
X196879704Y-41319816D01*
X196850000Y-41317333D01*
X196801071Y-41327439D01*
X196775582Y-41371134D01*
X196766237Y-41468482D01*
X196765334Y-41550167D01*
X196765334Y-41783000D01*
X196550723Y-41783000D01*
X196424581Y-41786240D01*
X196363121Y-41802252D01*
X196346422Y-41840470D01*
X196189692Y-41840470D01*
X196196609Y-41832620D01*
X196255266Y-41699270D01*
X196248318Y-41562842D01*
X196231037Y-41509730D01*
X196168155Y-41435470D01*
X196057432Y-41366846D01*
X195934534Y-41323451D01*
X195880796Y-41317333D01*
X195778178Y-41351368D01*
X195669606Y-41435929D01*
X195584681Y-41544700D01*
X195559402Y-41603083D01*
X195550155Y-41666384D01*
X195585773Y-41692989D01*
X195682981Y-41698333D01*
X195793692Y-41685095D01*
X195833510Y-41642583D01*
X195834000Y-41634833D01*
X195867887Y-41578709D01*
X195897500Y-41571333D01*
X195948394Y-41603058D01*
X195960774Y-41676944D01*
X195937095Y-41761053D01*
X195879810Y-41823452D01*
X195878054Y-41824412D01*
X195767456Y-41915865D01*
X195660757Y-42055501D01*
X195581743Y-42209203D01*
X195560106Y-42280417D01*
X195530940Y-42418000D01*
X195368334Y-42418000D01*
X195368334Y-40851667D01*
X197866000Y-40851667D01*
X197866000Y-41627778D01*
X197867471Y-41875981D01*
X197871558Y-42094434D01*
X197877775Y-42269254D01*
X197885633Y-42386554D01*
X197894222Y-42432111D01*
X197940879Y-42437653D01*
X198064030Y-42442834D01*
X198255502Y-42447547D01*
X198507124Y-42451684D01*
X198810722Y-42455137D01*
X199158124Y-42457798D01*
X199541159Y-42459559D01*
X199951653Y-42460313D01*
X200032056Y-42460333D01*
X202141667Y-42460333D01*
X202141667Y-40851667D01*
X197866000Y-40851667D01*
X195368334Y-40851667D01*
X191473667Y-40851667D01*
X189822667Y-40851667D01*
X185885667Y-40851667D01*
X184869667Y-40851667D01*
X180975000Y-40851667D01*
X180255334Y-40851667D01*
X180255334Y-31877000D01*
X180975000Y-31877000D01*
X180975000Y-40470667D01*
X202141667Y-40470667D01*
X202141667Y-31877000D01*
X180975000Y-31877000D01*
X180255334Y-31877000D01*
X180255334Y-31072667D01*
X202819000Y-31072667D01*
X202819000Y-43137667D01*
G37*
X202819000Y-43137667D02*
X180255334Y-43137667D01*
X180255334Y-40851667D01*
X180975000Y-40851667D01*
X180975000Y-42418000D01*
X184869667Y-42418000D01*
X184869667Y-40851667D01*
X185885667Y-40851667D01*
X185885667Y-42418000D01*
X189822667Y-42418000D01*
X189822667Y-41698333D01*
X189907091Y-41698333D01*
X190055379Y-41698333D01*
X190163044Y-41685635D01*
X190202713Y-41643536D01*
X190203667Y-41631729D01*
X190232397Y-41585336D01*
X190293741Y-41583327D01*
X190350431Y-41622286D01*
X190362735Y-41646311D01*
X190343967Y-41701705D01*
X190277320Y-41793222D01*
X190186740Y-41891290D01*
X190080031Y-42010302D01*
X189999722Y-42125336D01*
X189967712Y-42197312D01*
X189943144Y-42302194D01*
X189926293Y-42365083D01*
X189941119Y-42392342D01*
X190013042Y-42409065D01*
X190152663Y-42416891D01*
X190268495Y-42418000D01*
X190627000Y-42418000D01*
X190627000Y-42291000D01*
X190621513Y-42213015D01*
X190589763Y-42176005D01*
X190508814Y-42164740D01*
X190435757Y-42164000D01*
X190244513Y-42164000D01*
X190435757Y-41980756D01*
X190555060Y-41852662D01*
X190614427Y-41749106D01*
X190627000Y-41672676D01*
X190593614Y-41515871D01*
X190506315Y-41404858D01*
X190384395Y-41342889D01*
X190247144Y-41333216D01*
X190113852Y-41379088D01*
X190003811Y-41483758D01*
X189962888Y-41560750D01*
X189907091Y-41698333D01*
X189822667Y-41698333D01*
X189822667Y-40851667D01*
X191473667Y-40851667D01*
X191473667Y-42418000D01*
X195368334Y-42418000D01*
X195530940Y-42418000D01*
X196257334Y-42418000D01*
X196257334Y-42291000D01*
X196251847Y-42213015D01*
X196220096Y-42176005D01*
X196139148Y-42164740D01*
X196066090Y-42164000D01*
X195874847Y-42164000D01*
X196066090Y-41980756D01*
X196189692Y-41840470D01*
X196346422Y-41840470D01*
X196349639Y-41878250D01*
X196370479Y-41937789D01*
X196426378Y-41969427D01*
X196540361Y-41984767D01*
X196564250Y-41986403D01*
X196765334Y-41999305D01*
X196765334Y-42208653D01*
X196769893Y-42334760D01*
X196789202Y-42397322D01*
X196831707Y-42417225D01*
X196850000Y-42418000D01*
X196900784Y-42406856D01*
X196926111Y-42359554D01*
X196934305Y-42255291D01*
X196934667Y-42206333D01*
X196934667Y-41994667D01*
X197146334Y-41994667D01*
X197271956Y-41991235D01*
X197334625Y-41973724D01*
X197355995Y-41931307D01*
X197358000Y-41888833D01*
X197351138Y-41826022D01*
X197316115Y-41794687D01*
X197231280Y-41784002D01*
X197146334Y-41783000D01*
X196934667Y-41783000D01*
X196934667Y-41550167D01*
X196930992Y-41415613D01*
X196915103Y-41345517D01*
X196879704Y-41319816D01*
X196850000Y-41317333D01*
X196801071Y-41327439D01*
X196775582Y-41371134D01*
X196766237Y-41468482D01*
X196765334Y-41550167D01*
X196765334Y-41783000D01*
X196550723Y-41783000D01*
X196424581Y-41786240D01*
X196363121Y-41802252D01*
X196346422Y-41840470D01*
X196189692Y-41840470D01*
X196196609Y-41832620D01*
X196255266Y-41699270D01*
X196248318Y-41562842D01*
X196231037Y-41509730D01*
X196168155Y-41435470D01*
X196057432Y-41366846D01*
X195934534Y-41323451D01*
X195880796Y-41317333D01*
X195778178Y-41351368D01*
X195669606Y-41435929D01*
X195584681Y-41544700D01*
X195559402Y-41603083D01*
X195550155Y-41666384D01*
X195585773Y-41692989D01*
X195682981Y-41698333D01*
X195793692Y-41685095D01*
X195833510Y-41642583D01*
X195834000Y-41634833D01*
X195867887Y-41578709D01*
X195897500Y-41571333D01*
X195948394Y-41603058D01*
X195960774Y-41676944D01*
X195937095Y-41761053D01*
X195879810Y-41823452D01*
X195878054Y-41824412D01*
X195767456Y-41915865D01*
X195660757Y-42055501D01*
X195581743Y-42209203D01*
X195560106Y-42280417D01*
X195530940Y-42418000D01*
X195368334Y-42418000D01*
X195368334Y-40851667D01*
X197866000Y-40851667D01*
X197866000Y-41627778D01*
X197867471Y-41875981D01*
X197871558Y-42094434D01*
X197877775Y-42269254D01*
X197885633Y-42386554D01*
X197894222Y-42432111D01*
X197940879Y-42437653D01*
X198064030Y-42442834D01*
X198255502Y-42447547D01*
X198507124Y-42451684D01*
X198810722Y-42455137D01*
X199158124Y-42457798D01*
X199541159Y-42459559D01*
X199951653Y-42460313D01*
X200032056Y-42460333D01*
X202141667Y-42460333D01*
X202141667Y-40851667D01*
X197866000Y-40851667D01*
X195368334Y-40851667D01*
X191473667Y-40851667D01*
X189822667Y-40851667D01*
X185885667Y-40851667D01*
X184869667Y-40851667D01*
X180975000Y-40851667D01*
X180255334Y-40851667D01*
X180255334Y-31877000D01*
X180975000Y-31877000D01*
X180975000Y-40470667D01*
X202141667Y-40470667D01*
X202141667Y-31877000D01*
X180975000Y-31877000D01*
X180255334Y-31877000D01*
X180255334Y-31072667D01*
X202819000Y-31072667D01*
X202819000Y-43137667D01*
D14*
X147924000Y-8748000D02*
X147924000Y-12588000D01*
X149764000Y-8748000D02*
X149764000Y-12588000D01*
X179236000Y-6946000D02*
X168386000Y-6946000D01*
X179236000Y-30646000D02*
X179236000Y-6946000D01*
X155536000Y-30646000D02*
X179236000Y-30646000D01*
X155536000Y-7946000D02*
X155536000Y-30646000D01*
X156536000Y-6946000D02*
X155536000Y-7946000D01*
X166386000Y-6946000D02*
X156536000Y-6946000D01*
X229422000Y6664000D02*
X229422000Y5334000D01*
X228092000Y6664000D02*
X229422000Y6664000D01*
X229422000Y4064000D02*
X229422000Y1464000D01*
X226822000Y4064000D02*
X229422000Y4064000D01*
X226822000Y6664000D02*
X226822000Y4064000D01*
X229422000Y1464000D02*
X178502000Y1464000D01*
X226822000Y6664000D02*
X178502000Y6664000D01*
X178502000Y6664000D02*
X178502000Y1464000D01*
X148554000Y-1712000D02*
X148554000Y7638000D01*
X144054000Y-1712000D02*
X144054000Y7638000D01*
X156734000Y-1712000D02*
X135874000Y-1712000D01*
X156734000Y-1712000D02*
X156734000Y7638000D01*
X135874000Y-1712000D02*
X135874000Y7638000D01*
X135874000Y7638000D02*
X156734000Y7638000D01*
X139954000Y-5842000D02*
X139954000Y-7112000D01*
X139954000Y-7112000D02*
X141224000Y-7112000D01*
X228646000Y-26096000D02*
X228346000Y-26696000D01*
X228046000Y-26096000D02*
X228646000Y-26096000D01*
X228346000Y-26696000D02*
X228046000Y-26096000D01*
X229956000Y-39016000D02*
X229956000Y-26896000D01*
X224736000Y-39016000D02*
X229956000Y-39016000D01*
X224736000Y-26896000D02*
X224736000Y-39016000D01*
X229956000Y-26896000D02*
X224736000Y-26896000D01*
X224736000Y-36986000D02*
X225246000Y-36986000D01*
X224736000Y-35486000D02*
X225246000Y-35486000D01*
X224736000Y-28926000D02*
X225246000Y-28926000D01*
X224736000Y-30426000D02*
X225246000Y-30426000D01*
X229956000Y-36426000D02*
X229446000Y-36426000D01*
X229956000Y-35486000D02*
X229446000Y-35486000D01*
X229956000Y-29486000D02*
X229446000Y-29486000D01*
X229956000Y-30426000D02*
X229446000Y-30426000D01*
X226446000Y-39016000D02*
X226446000Y-38156000D01*
X226446000Y-26896000D02*
X226446000Y-27756000D01*
X227246000Y-39016000D02*
X227246000Y-38156000D01*
X227246000Y-26896000D02*
X227246000Y-27756000D01*
X229446000Y-38156000D02*
X229446000Y-27756000D01*
X225246000Y-38156000D02*
X229446000Y-38156000D01*
X225246000Y-27756000D02*
X225246000Y-38156000D01*
X229446000Y-27756000D02*
X225246000Y-27756000D01*
X229055000Y-727225D02*
X228555000Y-727225D01*
X228805000Y-477225D02*
X228805000Y-977225D01*
X227614000Y-5883000D02*
X227046000Y-5883000D01*
X227848000Y-5843000D02*
X226812000Y-5843000D01*
X228007000Y-5803000D02*
X226653000Y-5803000D01*
X228135000Y-5763000D02*
X226525000Y-5763000D01*
X228245000Y-5723000D02*
X226415000Y-5723000D01*
X228341000Y-5683000D02*
X226319000Y-5683000D01*
X228428000Y-5643000D02*
X226232000Y-5643000D01*
X228508000Y-5603000D02*
X226152000Y-5603000D01*
X226290000Y-5563000D02*
X226079000Y-5563000D01*
X228581000Y-5563000D02*
X228370000Y-5563000D01*
X226290000Y-5523000D02*
X226011000Y-5523000D01*
X228649000Y-5523000D02*
X228370000Y-5523000D01*
X226290000Y-5483000D02*
X225947000Y-5483000D01*
X228713000Y-5483000D02*
X228370000Y-5483000D01*
X226290000Y-5443000D02*
X225887000Y-5443000D01*
X228773000Y-5443000D02*
X228370000Y-5443000D01*
X226290000Y-5403000D02*
X225830000Y-5403000D01*
X228830000Y-5403000D02*
X228370000Y-5403000D01*
X226290000Y-5363000D02*
X225776000Y-5363000D01*
X228884000Y-5363000D02*
X228370000Y-5363000D01*
X226290000Y-5323000D02*
X225725000Y-5323000D01*
X228935000Y-5323000D02*
X228370000Y-5323000D01*
X226290000Y-5283000D02*
X225677000Y-5283000D01*
X228983000Y-5283000D02*
X228370000Y-5283000D01*
X226290000Y-5243000D02*
X225631000Y-5243000D01*
X229029000Y-5243000D02*
X228370000Y-5243000D01*
X226290000Y-5203000D02*
X225587000Y-5203000D01*
X229073000Y-5203000D02*
X228370000Y-5203000D01*
X226290000Y-5163000D02*
X225545000Y-5163000D01*
X229115000Y-5163000D02*
X228370000Y-5163000D01*
X226290000Y-5123000D02*
X225504000Y-5123000D01*
X229156000Y-5123000D02*
X228370000Y-5123000D01*
X226290000Y-5083000D02*
X225466000Y-5083000D01*
X229194000Y-5083000D02*
X228370000Y-5083000D01*
X226290000Y-5043000D02*
X225429000Y-5043000D01*
X229231000Y-5043000D02*
X228370000Y-5043000D01*
X226290000Y-5003000D02*
X225393000Y-5003000D01*
X229267000Y-5003000D02*
X228370000Y-5003000D01*
X226290000Y-4963000D02*
X225359000Y-4963000D01*
X229301000Y-4963000D02*
X228370000Y-4963000D01*
X226290000Y-4923000D02*
X225326000Y-4923000D01*
X229334000Y-4923000D02*
X228370000Y-4923000D01*
X226290000Y-4883000D02*
X225295000Y-4883000D01*
X229365000Y-4883000D02*
X228370000Y-4883000D01*
X226290000Y-4843000D02*
X225265000Y-4843000D01*
X229395000Y-4843000D02*
X228370000Y-4843000D01*
X226290000Y-4803000D02*
X225235000Y-4803000D01*
X229425000Y-4803000D02*
X228370000Y-4803000D01*
X226290000Y-4763000D02*
X225208000Y-4763000D01*
X229452000Y-4763000D02*
X228370000Y-4763000D01*
X226290000Y-4723000D02*
X225181000Y-4723000D01*
X229479000Y-4723000D02*
X228370000Y-4723000D01*
X226290000Y-4683000D02*
X225155000Y-4683000D01*
X229505000Y-4683000D02*
X228370000Y-4683000D01*
X226290000Y-4643000D02*
X225130000Y-4643000D01*
X229530000Y-4643000D02*
X228370000Y-4643000D01*
X226290000Y-4603000D02*
X225106000Y-4603000D01*
X229554000Y-4603000D02*
X228370000Y-4603000D01*
X226290000Y-4563000D02*
X225083000Y-4563000D01*
X229577000Y-4563000D02*
X228370000Y-4563000D01*
X226290000Y-4523000D02*
X225062000Y-4523000D01*
X229598000Y-4523000D02*
X228370000Y-4523000D01*
X226290000Y-4483000D02*
X225040000Y-4483000D01*
X229620000Y-4483000D02*
X228370000Y-4483000D01*
X226290000Y-4443000D02*
X225020000Y-4443000D01*
X229640000Y-4443000D02*
X228370000Y-4443000D01*
X226290000Y-4403000D02*
X225001000Y-4403000D01*
X229659000Y-4403000D02*
X228370000Y-4403000D01*
X226290000Y-4363000D02*
X224982000Y-4363000D01*
X229678000Y-4363000D02*
X228370000Y-4363000D01*
X226290000Y-4323000D02*
X224965000Y-4323000D01*
X229695000Y-4323000D02*
X228370000Y-4323000D01*
X226290000Y-4283000D02*
X224948000Y-4283000D01*
X229712000Y-4283000D02*
X228370000Y-4283000D01*
X226290000Y-4243000D02*
X224932000Y-4243000D01*
X229728000Y-4243000D02*
X228370000Y-4243000D01*
X226290000Y-4203000D02*
X224916000Y-4203000D01*
X229744000Y-4203000D02*
X228370000Y-4203000D01*
X226290000Y-4163000D02*
X224902000Y-4163000D01*
X229758000Y-4163000D02*
X228370000Y-4163000D01*
X226290000Y-4123000D02*
X224888000Y-4123000D01*
X229772000Y-4123000D02*
X228370000Y-4123000D01*
X226290000Y-4083000D02*
X224875000Y-4083000D01*
X229785000Y-4083000D02*
X228370000Y-4083000D01*
X226290000Y-4043000D02*
X224862000Y-4043000D01*
X229798000Y-4043000D02*
X228370000Y-4043000D01*
X226290000Y-4003000D02*
X224850000Y-4003000D01*
X229810000Y-4003000D02*
X228370000Y-4003000D01*
X226290000Y-3962000D02*
X224839000Y-3962000D01*
X229821000Y-3962000D02*
X228370000Y-3962000D01*
X226290000Y-3922000D02*
X224829000Y-3922000D01*
X229831000Y-3922000D02*
X228370000Y-3922000D01*
X226290000Y-3882000D02*
X224819000Y-3882000D01*
X229841000Y-3882000D02*
X228370000Y-3882000D01*
X226290000Y-3842000D02*
X224810000Y-3842000D01*
X229850000Y-3842000D02*
X228370000Y-3842000D01*
X226290000Y-3802000D02*
X224802000Y-3802000D01*
X229858000Y-3802000D02*
X228370000Y-3802000D01*
X226290000Y-3762000D02*
X224794000Y-3762000D01*
X229866000Y-3762000D02*
X228370000Y-3762000D01*
X226290000Y-3722000D02*
X224787000Y-3722000D01*
X229873000Y-3722000D02*
X228370000Y-3722000D01*
X226290000Y-3682000D02*
X224780000Y-3682000D01*
X229880000Y-3682000D02*
X228370000Y-3682000D01*
X226290000Y-3642000D02*
X224774000Y-3642000D01*
X229886000Y-3642000D02*
X228370000Y-3642000D01*
X226290000Y-3602000D02*
X224769000Y-3602000D01*
X229891000Y-3602000D02*
X228370000Y-3602000D01*
X226290000Y-3562000D02*
X224765000Y-3562000D01*
X229895000Y-3562000D02*
X228370000Y-3562000D01*
X226290000Y-3522000D02*
X224761000Y-3522000D01*
X229899000Y-3522000D02*
X228370000Y-3522000D01*
X229903000Y-3482000D02*
X224757000Y-3482000D01*
X229906000Y-3442000D02*
X224754000Y-3442000D01*
X229908000Y-3402000D02*
X224752000Y-3402000D01*
X229909000Y-3362000D02*
X224751000Y-3362000D01*
X229910000Y-3322000D02*
X224750000Y-3322000D01*
X229910000Y-3282000D02*
X224750000Y-3282000D01*
X229950000Y-3282000D02*
G75*
G03X229950000Y-3282000I-2620000J0D01*
G01*
X154720775Y-18489000D02*
X154720775Y-17989000D01*
X154970775Y-18239000D02*
X154470775Y-18239000D01*
X149565000Y-17048000D02*
X149565000Y-16480000D01*
X149605000Y-17282000D02*
X149605000Y-16246000D01*
X149645000Y-17441000D02*
X149645000Y-16087000D01*
X149685000Y-17569000D02*
X149685000Y-15959000D01*
X149725000Y-17679000D02*
X149725000Y-15849000D01*
X149765000Y-17775000D02*
X149765000Y-15753000D01*
X149805000Y-17862000D02*
X149805000Y-15666000D01*
X149845000Y-17942000D02*
X149845000Y-15586000D01*
X149885000Y-15724000D02*
X149885000Y-15513000D01*
X149885000Y-18015000D02*
X149885000Y-17804000D01*
X149925000Y-15724000D02*
X149925000Y-15445000D01*
X149925000Y-18083000D02*
X149925000Y-17804000D01*
X149965000Y-15724000D02*
X149965000Y-15381000D01*
X149965000Y-18147000D02*
X149965000Y-17804000D01*
X150005000Y-15724000D02*
X150005000Y-15321000D01*
X150005000Y-18207000D02*
X150005000Y-17804000D01*
X150045000Y-15724000D02*
X150045000Y-15264000D01*
X150045000Y-18264000D02*
X150045000Y-17804000D01*
X150085000Y-15724000D02*
X150085000Y-15210000D01*
X150085000Y-18318000D02*
X150085000Y-17804000D01*
X150125000Y-15724000D02*
X150125000Y-15159000D01*
X150125000Y-18369000D02*
X150125000Y-17804000D01*
X150165000Y-15724000D02*
X150165000Y-15111000D01*
X150165000Y-18417000D02*
X150165000Y-17804000D01*
X150205000Y-15724000D02*
X150205000Y-15065000D01*
X150205000Y-18463000D02*
X150205000Y-17804000D01*
X150245000Y-15724000D02*
X150245000Y-15021000D01*
X150245000Y-18507000D02*
X150245000Y-17804000D01*
X150285000Y-15724000D02*
X150285000Y-14979000D01*
X150285000Y-18549000D02*
X150285000Y-17804000D01*
X150325000Y-15724000D02*
X150325000Y-14938000D01*
X150325000Y-18590000D02*
X150325000Y-17804000D01*
X150365000Y-15724000D02*
X150365000Y-14900000D01*
X150365000Y-18628000D02*
X150365000Y-17804000D01*
X150405000Y-15724000D02*
X150405000Y-14863000D01*
X150405000Y-18665000D02*
X150405000Y-17804000D01*
X150445000Y-15724000D02*
X150445000Y-14827000D01*
X150445000Y-18701000D02*
X150445000Y-17804000D01*
X150485000Y-15724000D02*
X150485000Y-14793000D01*
X150485000Y-18735000D02*
X150485000Y-17804000D01*
X150525000Y-15724000D02*
X150525000Y-14760000D01*
X150525000Y-18768000D02*
X150525000Y-17804000D01*
X150565000Y-15724000D02*
X150565000Y-14729000D01*
X150565000Y-18799000D02*
X150565000Y-17804000D01*
X150605000Y-15724000D02*
X150605000Y-14699000D01*
X150605000Y-18829000D02*
X150605000Y-17804000D01*
X150645000Y-15724000D02*
X150645000Y-14669000D01*
X150645000Y-18859000D02*
X150645000Y-17804000D01*
X150685000Y-15724000D02*
X150685000Y-14642000D01*
X150685000Y-18886000D02*
X150685000Y-17804000D01*
X150725000Y-15724000D02*
X150725000Y-14615000D01*
X150725000Y-18913000D02*
X150725000Y-17804000D01*
X150765000Y-15724000D02*
X150765000Y-14589000D01*
X150765000Y-18939000D02*
X150765000Y-17804000D01*
X150805000Y-15724000D02*
X150805000Y-14564000D01*
X150805000Y-18964000D02*
X150805000Y-17804000D01*
X150845000Y-15724000D02*
X150845000Y-14540000D01*
X150845000Y-18988000D02*
X150845000Y-17804000D01*
X150885000Y-15724000D02*
X150885000Y-14517000D01*
X150885000Y-19011000D02*
X150885000Y-17804000D01*
X150925000Y-15724000D02*
X150925000Y-14496000D01*
X150925000Y-19032000D02*
X150925000Y-17804000D01*
X150965000Y-15724000D02*
X150965000Y-14474000D01*
X150965000Y-19054000D02*
X150965000Y-17804000D01*
X151005000Y-15724000D02*
X151005000Y-14454000D01*
X151005000Y-19074000D02*
X151005000Y-17804000D01*
X151045000Y-15724000D02*
X151045000Y-14435000D01*
X151045000Y-19093000D02*
X151045000Y-17804000D01*
X151085000Y-15724000D02*
X151085000Y-14416000D01*
X151085000Y-19112000D02*
X151085000Y-17804000D01*
X151125000Y-15724000D02*
X151125000Y-14399000D01*
X151125000Y-19129000D02*
X151125000Y-17804000D01*
X151165000Y-15724000D02*
X151165000Y-14382000D01*
X151165000Y-19146000D02*
X151165000Y-17804000D01*
X151205000Y-15724000D02*
X151205000Y-14366000D01*
X151205000Y-19162000D02*
X151205000Y-17804000D01*
X151245000Y-15724000D02*
X151245000Y-14350000D01*
X151245000Y-19178000D02*
X151245000Y-17804000D01*
X151285000Y-15724000D02*
X151285000Y-14336000D01*
X151285000Y-19192000D02*
X151285000Y-17804000D01*
X151325000Y-15724000D02*
X151325000Y-14322000D01*
X151325000Y-19206000D02*
X151325000Y-17804000D01*
X151365000Y-15724000D02*
X151365000Y-14309000D01*
X151365000Y-19219000D02*
X151365000Y-17804000D01*
X151405000Y-15724000D02*
X151405000Y-14296000D01*
X151405000Y-19232000D02*
X151405000Y-17804000D01*
X151445000Y-15724000D02*
X151445000Y-14284000D01*
X151445000Y-19244000D02*
X151445000Y-17804000D01*
X151486000Y-15724000D02*
X151486000Y-14273000D01*
X151486000Y-19255000D02*
X151486000Y-17804000D01*
X151526000Y-15724000D02*
X151526000Y-14263000D01*
X151526000Y-19265000D02*
X151526000Y-17804000D01*
X151566000Y-15724000D02*
X151566000Y-14253000D01*
X151566000Y-19275000D02*
X151566000Y-17804000D01*
X151606000Y-15724000D02*
X151606000Y-14244000D01*
X151606000Y-19284000D02*
X151606000Y-17804000D01*
X151646000Y-15724000D02*
X151646000Y-14236000D01*
X151646000Y-19292000D02*
X151646000Y-17804000D01*
X151686000Y-15724000D02*
X151686000Y-14228000D01*
X151686000Y-19300000D02*
X151686000Y-17804000D01*
X151726000Y-15724000D02*
X151726000Y-14221000D01*
X151726000Y-19307000D02*
X151726000Y-17804000D01*
X151766000Y-15724000D02*
X151766000Y-14214000D01*
X151766000Y-19314000D02*
X151766000Y-17804000D01*
X151806000Y-15724000D02*
X151806000Y-14208000D01*
X151806000Y-19320000D02*
X151806000Y-17804000D01*
X151846000Y-15724000D02*
X151846000Y-14203000D01*
X151846000Y-19325000D02*
X151846000Y-17804000D01*
X151886000Y-15724000D02*
X151886000Y-14199000D01*
X151886000Y-19329000D02*
X151886000Y-17804000D01*
X151926000Y-15724000D02*
X151926000Y-14195000D01*
X151926000Y-19333000D02*
X151926000Y-17804000D01*
X151966000Y-19337000D02*
X151966000Y-14191000D01*
X152006000Y-19340000D02*
X152006000Y-14188000D01*
X152046000Y-19342000D02*
X152046000Y-14186000D01*
X152086000Y-19343000D02*
X152086000Y-14185000D01*
X152126000Y-19344000D02*
X152126000Y-14184000D01*
X152166000Y-19344000D02*
X152166000Y-14184000D01*
X154786000Y-16764000D02*
G75*
G03X154786000Y-16764000I-2620000J0D01*
G01*
X164958000Y3906000D02*
X168798000Y3906000D01*
X164958000Y5746000D02*
X168798000Y5746000D01*
X145384000Y-8748000D02*
X145384000Y-12588000D01*
X147224000Y-8748000D02*
X147224000Y-12588000D01*
X142844000Y-8748000D02*
X142844000Y-12588000D01*
X144684000Y-8748000D02*
X144684000Y-12588000D01*
X142144000Y-12588000D02*
X142144000Y-8748000D01*
X140304000Y-12588000D02*
X140304000Y-8748000D01*
X143656000Y-27824000D02*
X143656000Y-21814000D01*
X150476000Y-25574000D02*
X150476000Y-21814000D01*
X143656000Y-21814000D02*
X144916000Y-21814000D01*
X150476000Y-21814000D02*
X149216000Y-21814000D01*
X158710000Y3760000D02*
X158710000Y3604000D01*
X158710000Y6076000D02*
X158710000Y5920000D01*
X161311130Y3760163D02*
G75*
G02X159229039Y3760000I-1041130J1079837D01*
G01*
X161311130Y5919837D02*
G75*
G03X159229039Y5920000I-1041130J-1079837D01*
G01*
X161942335Y3761392D02*
G75*
G02X158710000Y3604484I-1672335J1078608D01*
G01*
X161942335Y5918608D02*
G75*
G03X158710000Y6075516I-1672335J-1078608D01*
G01*
X167995000Y-3652000D02*
X166737000Y-3652000D01*
X167995000Y-5492000D02*
X166737000Y-5492000D01*
X232822000Y-16357000D02*
X232822000Y-15099000D01*
X230982000Y-16357000D02*
X230982000Y-15099000D01*
X230438000Y-17256000D02*
G75*
G02X230438000Y-15256000I0J1000000D01*
G01*
X230438000Y-15256000D02*
X230438000Y-9796000D01*
X230438000Y-9796000D02*
X194758000Y-9796000D01*
X194758000Y-9796000D02*
X194758000Y-22716000D01*
X194758000Y-22716000D02*
X230438000Y-22716000D01*
X230438000Y-22716000D02*
X230438000Y-17256000D01*
X153004000Y-24779000D02*
X153004000Y-23521000D01*
X154844000Y-24779000D02*
X154844000Y-23521000D01*
X181768000Y-19913000D02*
X181768000Y-18655000D01*
X179928000Y-19913000D02*
X179928000Y-18655000D01*
X169051000Y-33178000D02*
X167793000Y-33178000D01*
X169051000Y-31338000D02*
X167793000Y-31338000D01*
X146671000Y-31146000D02*
X147929000Y-31146000D01*
X146671000Y-29306000D02*
X147929000Y-29306000D01*
X139796000Y-26263000D02*
X139796000Y-25005000D01*
X141636000Y-26263000D02*
X141636000Y-25005000D01*
X181006000Y-620000D02*
X181006000Y-4460000D01*
X179166000Y-620000D02*
X179166000Y-4460000D01*
X184246000Y-620000D02*
X184246000Y-4460000D01*
X186086000Y-620000D02*
X186086000Y-4460000D01*
X188626000Y-620000D02*
X188626000Y-4460000D01*
X186786000Y-620000D02*
X186786000Y-4460000D01*
X181706000Y-620000D02*
X181706000Y-4460000D01*
X183546000Y-620000D02*
X183546000Y-4460000D01*
X191166000Y-620000D02*
X191166000Y-4460000D01*
X189326000Y-620000D02*
X189326000Y-4460000D01*
D15*
X151216380Y-10834666D02*
X150740190Y-11168000D01*
X151216380Y-11406095D02*
X150216380Y-11406095D01*
X150216380Y-11025142D01*
X150264000Y-10929904D01*
X150311619Y-10882285D01*
X150406857Y-10834666D01*
X150549714Y-10834666D01*
X150644952Y-10882285D01*
X150692571Y-10929904D01*
X150740190Y-11025142D01*
X150740190Y-11406095D01*
X150549714Y-9977523D02*
X151216380Y-9977523D01*
X150168761Y-10215619D02*
X150883047Y-10453714D01*
X150883047Y-9834666D01*
X166624095Y-18242380D02*
X166624095Y-19051904D01*
X166671714Y-19147142D01*
X166719333Y-19194761D01*
X166814571Y-19242380D01*
X167005047Y-19242380D01*
X167100285Y-19194761D01*
X167147904Y-19147142D01*
X167195523Y-19051904D01*
X167195523Y-18242380D01*
X168195523Y-19242380D02*
X167624095Y-19242380D01*
X167909809Y-19242380D02*
X167909809Y-18242380D01*
X167814571Y-18385238D01*
X167719333Y-18480476D01*
X167624095Y-18528095D01*
X229874380Y3730666D02*
X230588666Y3730666D01*
X230731523Y3683047D01*
X230826761Y3587809D01*
X230874380Y3444952D01*
X230874380Y3349714D01*
X230874380Y4730666D02*
X230874380Y4159238D01*
X230874380Y4444952D02*
X229874380Y4444952D01*
X230017238Y4349714D01*
X230112476Y4254476D01*
X230160095Y4159238D01*
X190995200Y-49875209D02*
X190995200Y-48875209D01*
X191376153Y-48875209D01*
X191471391Y-48922829D01*
X191519010Y-48970448D01*
X191566629Y-49065686D01*
X191566629Y-49208543D01*
X191519010Y-49303781D01*
X191471391Y-49351400D01*
X191376153Y-49399019D01*
X190995200Y-49399019D01*
X192519010Y-49875209D02*
X191947581Y-49875209D01*
X192233296Y-49875209D02*
X192233296Y-48875209D01*
X192138057Y-49018067D01*
X192042819Y-49113305D01*
X191947581Y-49160924D01*
X145970666Y3595619D02*
X145970666Y2881333D01*
X145923047Y2738476D01*
X145827809Y2643238D01*
X145684952Y2595619D01*
X145589714Y2595619D01*
X146399238Y3500380D02*
X146446857Y3548000D01*
X146542095Y3595619D01*
X146780190Y3595619D01*
X146875428Y3548000D01*
X146923047Y3500380D01*
X146970666Y3405142D01*
X146970666Y3309904D01*
X146923047Y3167047D01*
X146351619Y2595619D01*
X146970666Y2595619D01*
X231437142Y-3448666D02*
X231484761Y-3496285D01*
X231532380Y-3639142D01*
X231532380Y-3734380D01*
X231484761Y-3877238D01*
X231389523Y-3972476D01*
X231294285Y-4020095D01*
X231103809Y-4067714D01*
X230960952Y-4067714D01*
X230770476Y-4020095D01*
X230675238Y-3972476D01*
X230580000Y-3877238D01*
X230532380Y-3734380D01*
X230532380Y-3639142D01*
X230580000Y-3496285D01*
X230627619Y-3448666D01*
X231532380Y-2972476D02*
X231532380Y-2782000D01*
X231484761Y-2686761D01*
X231437142Y-2639142D01*
X231294285Y-2543904D01*
X231103809Y-2496285D01*
X230722857Y-2496285D01*
X230627619Y-2543904D01*
X230580000Y-2591523D01*
X230532380Y-2686761D01*
X230532380Y-2877238D01*
X230580000Y-2972476D01*
X230627619Y-3020095D01*
X230722857Y-3067714D01*
X230960952Y-3067714D01*
X231056190Y-3020095D01*
X231103809Y-2972476D01*
X231151428Y-2877238D01*
X231151428Y-2686761D01*
X231103809Y-2591523D01*
X231056190Y-2543904D01*
X230960952Y-2496285D01*
X151999333Y-20871142D02*
X151951714Y-20918761D01*
X151808857Y-20966380D01*
X151713619Y-20966380D01*
X151570761Y-20918761D01*
X151475523Y-20823523D01*
X151427904Y-20728285D01*
X151380285Y-20537809D01*
X151380285Y-20394952D01*
X151427904Y-20204476D01*
X151475523Y-20109238D01*
X151570761Y-20014000D01*
X151713619Y-19966380D01*
X151808857Y-19966380D01*
X151951714Y-20014000D01*
X151999333Y-20061619D01*
X152570761Y-20394952D02*
X152475523Y-20347333D01*
X152427904Y-20299714D01*
X152380285Y-20204476D01*
X152380285Y-20156857D01*
X152427904Y-20061619D01*
X152475523Y-20014000D01*
X152570761Y-19966380D01*
X152761238Y-19966380D01*
X152856476Y-20014000D01*
X152904095Y-20061619D01*
X152951714Y-20156857D01*
X152951714Y-20204476D01*
X152904095Y-20299714D01*
X152856476Y-20347333D01*
X152761238Y-20394952D01*
X152570761Y-20394952D01*
X152475523Y-20442571D01*
X152427904Y-20490190D01*
X152380285Y-20585428D01*
X152380285Y-20775904D01*
X152427904Y-20871142D01*
X152475523Y-20918761D01*
X152570761Y-20966380D01*
X152761238Y-20966380D01*
X152856476Y-20918761D01*
X152904095Y-20871142D01*
X152951714Y-20775904D01*
X152951714Y-20585428D01*
X152904095Y-20490190D01*
X152856476Y-20442571D01*
X152761238Y-20394952D01*
X166761333Y4373619D02*
X166428000Y4849809D01*
X166189904Y4373619D02*
X166189904Y5373619D01*
X166570857Y5373619D01*
X166666095Y5326000D01*
X166713714Y5278380D01*
X166761333Y5183142D01*
X166761333Y5040285D01*
X166713714Y4945047D01*
X166666095Y4897428D01*
X166570857Y4849809D01*
X166189904Y4849809D01*
X167666095Y5373619D02*
X167189904Y5373619D01*
X167142285Y4897428D01*
X167189904Y4945047D01*
X167285142Y4992666D01*
X167523238Y4992666D01*
X167618476Y4945047D01*
X167666095Y4897428D01*
X167713714Y4802190D01*
X167713714Y4564095D01*
X167666095Y4468857D01*
X167618476Y4421238D01*
X167523238Y4373619D01*
X167285142Y4373619D01*
X167189904Y4421238D01*
X167142285Y4468857D01*
X146666380Y-10834666D02*
X146190190Y-11168000D01*
X146666380Y-11406095D02*
X145666380Y-11406095D01*
X145666380Y-11025142D01*
X145714000Y-10929904D01*
X145761619Y-10882285D01*
X145856857Y-10834666D01*
X145999714Y-10834666D01*
X146094952Y-10882285D01*
X146142571Y-10929904D01*
X146190190Y-11025142D01*
X146190190Y-11406095D01*
X145666380Y-10501333D02*
X145666380Y-9882285D01*
X146047333Y-10215619D01*
X146047333Y-10072761D01*
X146094952Y-9977523D01*
X146142571Y-9929904D01*
X146237809Y-9882285D01*
X146475904Y-9882285D01*
X146571142Y-9929904D01*
X146618761Y-9977523D01*
X146666380Y-10072761D01*
X146666380Y-10358476D01*
X146618761Y-10453714D01*
X146571142Y-10501333D01*
X146476380Y-10744666D02*
X146000190Y-11078000D01*
X146476380Y-11316095D02*
X145476380Y-11316095D01*
X145476380Y-10935142D01*
X145524000Y-10839904D01*
X145571619Y-10792285D01*
X145666857Y-10744666D01*
X145809714Y-10744666D01*
X145904952Y-10792285D01*
X145952571Y-10839904D01*
X146000190Y-10935142D01*
X146000190Y-11316095D01*
X145571619Y-10363714D02*
X145524000Y-10316095D01*
X145476380Y-10220857D01*
X145476380Y-9982761D01*
X145524000Y-9887523D01*
X145571619Y-9839904D01*
X145666857Y-9792285D01*
X145762095Y-9792285D01*
X145904952Y-9839904D01*
X146476380Y-10411333D01*
X146476380Y-9792285D01*
X141726380Y-10764666D02*
X141250190Y-11098000D01*
X141726380Y-11336095D02*
X140726380Y-11336095D01*
X140726380Y-10955142D01*
X140774000Y-10859904D01*
X140821619Y-10812285D01*
X140916857Y-10764666D01*
X141059714Y-10764666D01*
X141154952Y-10812285D01*
X141202571Y-10859904D01*
X141250190Y-10955142D01*
X141250190Y-11336095D01*
X141726380Y-9812285D02*
X141726380Y-10383714D01*
X141726380Y-10098000D02*
X140726380Y-10098000D01*
X140869238Y-10193238D01*
X140964476Y-10288476D01*
X141012095Y-10383714D01*
X143796190Y-24176380D02*
X143320000Y-24176380D01*
X143320000Y-23176380D01*
X144129523Y-24176380D02*
X144129523Y-23176380D01*
X144367619Y-23176380D01*
X144510476Y-23224000D01*
X144605714Y-23319238D01*
X144653333Y-23414476D01*
X144700952Y-23604952D01*
X144700952Y-23747809D01*
X144653333Y-23938285D01*
X144605714Y-24033523D01*
X144510476Y-24128761D01*
X144367619Y-24176380D01*
X144129523Y-24176380D01*
X145653333Y-24176380D02*
X145081904Y-24176380D01*
X145367619Y-24176380D02*
X145367619Y-23176380D01*
X145272380Y-23319238D01*
X145177142Y-23414476D01*
X145081904Y-23462095D01*
X146605714Y-24176380D02*
X146034285Y-24176380D01*
X146320000Y-24176380D02*
X146320000Y-23176380D01*
X146224761Y-23319238D01*
X146129523Y-23414476D01*
X146034285Y-23462095D01*
X147558095Y-24176380D02*
X146986666Y-24176380D01*
X147272380Y-24176380D02*
X147272380Y-23176380D01*
X147177142Y-23319238D01*
X147081904Y-23414476D01*
X146986666Y-23462095D01*
X147891428Y-23176380D02*
X148558095Y-23176380D01*
X148129523Y-24176380D01*
X148891428Y-24128761D02*
X149034285Y-24176380D01*
X149272380Y-24176380D01*
X149367619Y-24128761D01*
X149415238Y-24081142D01*
X149462857Y-23985904D01*
X149462857Y-23890666D01*
X149415238Y-23795428D01*
X149367619Y-23747809D01*
X149272380Y-23700190D01*
X149081904Y-23652571D01*
X148986666Y-23604952D01*
X148939047Y-23557333D01*
X148891428Y-23462095D01*
X148891428Y-23366857D01*
X148939047Y-23271619D01*
X148986666Y-23224000D01*
X149081904Y-23176380D01*
X149320000Y-23176380D01*
X149462857Y-23224000D01*
X149796190Y-23176380D02*
X150415238Y-23176380D01*
X150081904Y-23557333D01*
X150224761Y-23557333D01*
X150320000Y-23604952D01*
X150367619Y-23652571D01*
X150415238Y-23747809D01*
X150415238Y-23985904D01*
X150367619Y-24081142D01*
X150320000Y-24128761D01*
X150224761Y-24176380D01*
X149939047Y-24176380D01*
X149843809Y-24128761D01*
X149796190Y-24081142D01*
X150748571Y-23176380D02*
X151367619Y-23176380D01*
X151034285Y-23557333D01*
X151177142Y-23557333D01*
X151272380Y-23604952D01*
X151320000Y-23652571D01*
X151367619Y-23747809D01*
X151367619Y-23985904D01*
X151320000Y-24081142D01*
X151272380Y-24128761D01*
X151177142Y-24176380D01*
X150891428Y-24176380D01*
X150796190Y-24128761D01*
X150748571Y-24081142D01*
X159911904Y2827619D02*
X159911904Y3827619D01*
X160150000Y3827619D01*
X160292857Y3780000D01*
X160388095Y3684761D01*
X160435714Y3589523D01*
X160483333Y3399047D01*
X160483333Y3256190D01*
X160435714Y3065714D01*
X160388095Y2970476D01*
X160292857Y2875238D01*
X160150000Y2827619D01*
X159911904Y2827619D01*
X161435714Y2827619D02*
X160864285Y2827619D01*
X161150000Y2827619D02*
X161150000Y3827619D01*
X161054761Y3684761D01*
X160959523Y3589523D01*
X160864285Y3541904D01*
X170775333Y-5183142D02*
X170727714Y-5230761D01*
X170584857Y-5278380D01*
X170489619Y-5278380D01*
X170346761Y-5230761D01*
X170251523Y-5135523D01*
X170203904Y-5040285D01*
X170156285Y-4849809D01*
X170156285Y-4706952D01*
X170203904Y-4516476D01*
X170251523Y-4421238D01*
X170346761Y-4326000D01*
X170489619Y-4278380D01*
X170584857Y-4278380D01*
X170727714Y-4326000D01*
X170775333Y-4373619D01*
X171156285Y-4373619D02*
X171203904Y-4326000D01*
X171299142Y-4278380D01*
X171537238Y-4278380D01*
X171632476Y-4326000D01*
X171680095Y-4373619D01*
X171727714Y-4468857D01*
X171727714Y-4564095D01*
X171680095Y-4706952D01*
X171108666Y-5278380D01*
X171727714Y-5278380D01*
X230209142Y-15894666D02*
X230256761Y-15942285D01*
X230304380Y-16085142D01*
X230304380Y-16180380D01*
X230256761Y-16323238D01*
X230161523Y-16418476D01*
X230066285Y-16466095D01*
X229875809Y-16513714D01*
X229732952Y-16513714D01*
X229542476Y-16466095D01*
X229447238Y-16418476D01*
X229352000Y-16323238D01*
X229304380Y-16180380D01*
X229304380Y-16085142D01*
X229352000Y-15942285D01*
X229399619Y-15894666D01*
X230304380Y-14942285D02*
X230304380Y-15513714D01*
X230304380Y-15228000D02*
X229304380Y-15228000D01*
X229447238Y-15323238D01*
X229542476Y-15418476D01*
X229590095Y-15513714D01*
X230890380Y-17017904D02*
X231699904Y-17017904D01*
X231795142Y-16970285D01*
X231842761Y-16922666D01*
X231890380Y-16827428D01*
X231890380Y-16636952D01*
X231842761Y-16541714D01*
X231795142Y-16494095D01*
X231699904Y-16446476D01*
X230890380Y-16446476D01*
X230985619Y-16017904D02*
X230938000Y-15970285D01*
X230890380Y-15875047D01*
X230890380Y-15636952D01*
X230938000Y-15541714D01*
X230985619Y-15494095D01*
X231080857Y-15446476D01*
X231176095Y-15446476D01*
X231318952Y-15494095D01*
X231890380Y-16065523D01*
X231890380Y-15446476D01*
X154281142Y-21034666D02*
X154328761Y-21082285D01*
X154376380Y-21225142D01*
X154376380Y-21320380D01*
X154328761Y-21463238D01*
X154233523Y-21558476D01*
X154138285Y-21606095D01*
X153947809Y-21653714D01*
X153804952Y-21653714D01*
X153614476Y-21606095D01*
X153519238Y-21558476D01*
X153424000Y-21463238D01*
X153376380Y-21320380D01*
X153376380Y-21225142D01*
X153424000Y-21082285D01*
X153471619Y-21034666D01*
X153376380Y-20701333D02*
X153376380Y-20082285D01*
X153757333Y-20415619D01*
X153757333Y-20272761D01*
X153804952Y-20177523D01*
X153852571Y-20129904D01*
X153947809Y-20082285D01*
X154185904Y-20082285D01*
X154281142Y-20129904D01*
X154328761Y-20177523D01*
X154376380Y-20272761D01*
X154376380Y-20558476D01*
X154328761Y-20653714D01*
X154281142Y-20701333D01*
X180681333Y-16359142D02*
X180633714Y-16406761D01*
X180490857Y-16454380D01*
X180395619Y-16454380D01*
X180252761Y-16406761D01*
X180157523Y-16311523D01*
X180109904Y-16216285D01*
X180062285Y-16025809D01*
X180062285Y-15882952D01*
X180109904Y-15692476D01*
X180157523Y-15597238D01*
X180252761Y-15502000D01*
X180395619Y-15454380D01*
X180490857Y-15454380D01*
X180633714Y-15502000D01*
X180681333Y-15549619D01*
X181538476Y-15787714D02*
X181538476Y-16454380D01*
X181300380Y-15406761D02*
X181062285Y-16121047D01*
X181681333Y-16121047D01*
X165709142Y-32514666D02*
X165756761Y-32562285D01*
X165804380Y-32705142D01*
X165804380Y-32800380D01*
X165756761Y-32943238D01*
X165661523Y-33038476D01*
X165566285Y-33086095D01*
X165375809Y-33133714D01*
X165232952Y-33133714D01*
X165042476Y-33086095D01*
X164947238Y-33038476D01*
X164852000Y-32943238D01*
X164804380Y-32800380D01*
X164804380Y-32705142D01*
X164852000Y-32562285D01*
X164899619Y-32514666D01*
X164804380Y-31609904D02*
X164804380Y-32086095D01*
X165280571Y-32133714D01*
X165232952Y-32086095D01*
X165185333Y-31990857D01*
X165185333Y-31752761D01*
X165232952Y-31657523D01*
X165280571Y-31609904D01*
X165375809Y-31562285D01*
X165613904Y-31562285D01*
X165709142Y-31609904D01*
X165756761Y-31657523D01*
X165804380Y-31752761D01*
X165804380Y-31990857D01*
X165756761Y-32086095D01*
X165709142Y-32133714D01*
X150471142Y-30392666D02*
X150518761Y-30440285D01*
X150566380Y-30583142D01*
X150566380Y-30678380D01*
X150518761Y-30821238D01*
X150423523Y-30916476D01*
X150328285Y-30964095D01*
X150137809Y-31011714D01*
X149994952Y-31011714D01*
X149804476Y-30964095D01*
X149709238Y-30916476D01*
X149614000Y-30821238D01*
X149566380Y-30678380D01*
X149566380Y-30583142D01*
X149614000Y-30440285D01*
X149661619Y-30392666D01*
X149566380Y-29535523D02*
X149566380Y-29726000D01*
X149614000Y-29821238D01*
X149661619Y-29868857D01*
X149804476Y-29964095D01*
X149994952Y-30011714D01*
X150375904Y-30011714D01*
X150471142Y-29964095D01*
X150518761Y-29916476D01*
X150566380Y-29821238D01*
X150566380Y-29630761D01*
X150518761Y-29535523D01*
X150471142Y-29487904D01*
X150375904Y-29440285D01*
X150137809Y-29440285D01*
X150042571Y-29487904D01*
X149994952Y-29535523D01*
X149947333Y-29630761D01*
X149947333Y-29821238D01*
X149994952Y-29916476D01*
X150042571Y-29964095D01*
X150137809Y-30011714D01*
X140549333Y-22923142D02*
X140501714Y-22970761D01*
X140358857Y-23018380D01*
X140263619Y-23018380D01*
X140120761Y-22970761D01*
X140025523Y-22875523D01*
X139977904Y-22780285D01*
X139930285Y-22589809D01*
X139930285Y-22446952D01*
X139977904Y-22256476D01*
X140025523Y-22161238D01*
X140120761Y-22066000D01*
X140263619Y-22018380D01*
X140358857Y-22018380D01*
X140501714Y-22066000D01*
X140549333Y-22113619D01*
X140882666Y-22018380D02*
X141549333Y-22018380D01*
X141120761Y-23018380D01*
X180668380Y-7286666D02*
X180192190Y-7620000D01*
X180668380Y-7858095D02*
X179668380Y-7858095D01*
X179668380Y-7477142D01*
X179716000Y-7381904D01*
X179763619Y-7334285D01*
X179858857Y-7286666D01*
X180001714Y-7286666D01*
X180096952Y-7334285D01*
X180144571Y-7381904D01*
X180192190Y-7477142D01*
X180192190Y-7858095D01*
X179668380Y-6429523D02*
X179668380Y-6620000D01*
X179716000Y-6715238D01*
X179763619Y-6762857D01*
X179906476Y-6858095D01*
X180096952Y-6905714D01*
X180477904Y-6905714D01*
X180573142Y-6858095D01*
X180620761Y-6810476D01*
X180668380Y-6715238D01*
X180668380Y-6524761D01*
X180620761Y-6429523D01*
X180573142Y-6381904D01*
X180477904Y-6334285D01*
X180239809Y-6334285D01*
X180144571Y-6381904D01*
X180096952Y-6429523D01*
X180049333Y-6524761D01*
X180049333Y-6715238D01*
X180096952Y-6810476D01*
X180144571Y-6858095D01*
X180239809Y-6905714D01*
X185898380Y-7296666D02*
X185422190Y-7630000D01*
X185898380Y-7868095D02*
X184898380Y-7868095D01*
X184898380Y-7487142D01*
X184946000Y-7391904D01*
X184993619Y-7344285D01*
X185088857Y-7296666D01*
X185231714Y-7296666D01*
X185326952Y-7344285D01*
X185374571Y-7391904D01*
X185422190Y-7487142D01*
X185422190Y-7868095D01*
X184898380Y-6963333D02*
X184898380Y-6296666D01*
X185898380Y-6725238D01*
X188358380Y-7316666D02*
X187882190Y-7650000D01*
X188358380Y-7888095D02*
X187358380Y-7888095D01*
X187358380Y-7507142D01*
X187406000Y-7411904D01*
X187453619Y-7364285D01*
X187548857Y-7316666D01*
X187691714Y-7316666D01*
X187786952Y-7364285D01*
X187834571Y-7411904D01*
X187882190Y-7507142D01*
X187882190Y-7888095D01*
X187786952Y-6745238D02*
X187739333Y-6840476D01*
X187691714Y-6888095D01*
X187596476Y-6935714D01*
X187548857Y-6935714D01*
X187453619Y-6888095D01*
X187406000Y-6840476D01*
X187358380Y-6745238D01*
X187358380Y-6554761D01*
X187406000Y-6459523D01*
X187453619Y-6411904D01*
X187548857Y-6364285D01*
X187596476Y-6364285D01*
X187691714Y-6411904D01*
X187739333Y-6459523D01*
X187786952Y-6554761D01*
X187786952Y-6745238D01*
X187834571Y-6840476D01*
X187882190Y-6888095D01*
X187977428Y-6935714D01*
X188167904Y-6935714D01*
X188263142Y-6888095D01*
X188310761Y-6840476D01*
X188358380Y-6745238D01*
X188358380Y-6554761D01*
X188310761Y-6459523D01*
X188263142Y-6411904D01*
X188167904Y-6364285D01*
X187977428Y-6364285D01*
X187882190Y-6411904D01*
X187834571Y-6459523D01*
X187786952Y-6554761D01*
X183078380Y-7278666D02*
X182602190Y-7612000D01*
X183078380Y-7850095D02*
X182078380Y-7850095D01*
X182078380Y-7469142D01*
X182126000Y-7373904D01*
X182173619Y-7326285D01*
X182268857Y-7278666D01*
X182411714Y-7278666D01*
X182506952Y-7326285D01*
X182554571Y-7373904D01*
X182602190Y-7469142D01*
X182602190Y-7850095D01*
X183078380Y-6802476D02*
X183078380Y-6612000D01*
X183030761Y-6516761D01*
X182983142Y-6469142D01*
X182840285Y-6373904D01*
X182649809Y-6326285D01*
X182268857Y-6326285D01*
X182173619Y-6373904D01*
X182126000Y-6421523D01*
X182078380Y-6516761D01*
X182078380Y-6707238D01*
X182126000Y-6802476D01*
X182173619Y-6850095D01*
X182268857Y-6897714D01*
X182506952Y-6897714D01*
X182602190Y-6850095D01*
X182649809Y-6802476D01*
X182697428Y-6707238D01*
X182697428Y-6516761D01*
X182649809Y-6421523D01*
X182602190Y-6373904D01*
X182506952Y-6326285D01*
X190698380Y-8008857D02*
X190222190Y-8342190D01*
X190698380Y-8580285D02*
X189698380Y-8580285D01*
X189698380Y-8199333D01*
X189746000Y-8104095D01*
X189793619Y-8056476D01*
X189888857Y-8008857D01*
X190031714Y-8008857D01*
X190126952Y-8056476D01*
X190174571Y-8104095D01*
X190222190Y-8199333D01*
X190222190Y-8580285D01*
X190698380Y-7056476D02*
X190698380Y-7627904D01*
X190698380Y-7342190D02*
X189698380Y-7342190D01*
X189841238Y-7437428D01*
X189936476Y-7532666D01*
X189984095Y-7627904D01*
X189698380Y-6437428D02*
X189698380Y-6342190D01*
X189746000Y-6246952D01*
X189793619Y-6199333D01*
X189888857Y-6151714D01*
X190079333Y-6104095D01*
X190317428Y-6104095D01*
X190507904Y-6151714D01*
X190603142Y-6199333D01*
X190650761Y-6246952D01*
X190698380Y-6342190D01*
X190698380Y-6437428D01*
X190650761Y-6532666D01*
X190603142Y-6580285D01*
X190507904Y-6627904D01*
X190317428Y-6675523D01*
X190079333Y-6675523D01*
X189888857Y-6627904D01*
X189793619Y-6580285D01*
X189746000Y-6532666D01*
X189698380Y-6437428D01*
M02*
