M48
; DRILL file {KiCad (6.0.7)} date Thu Nov 17 13:34:48 2022
; FORMAT={-:-/ absolute / inch / decimal}
; #@! TF.CreationDate,2022-11-17T13:34:48+00:00
; #@! TF.GenerationSoftware,Kicad,Pcbnew,(6.0.7)
; #@! TF.FileFunction,Plated,1,2,PTH
FMAT,2
INCH
; #@! TA.AperFunction,Plated,PTH,ViaDrill
T1C0.0157
; #@! TA.AperFunction,Plated,PTH,ComponentDrill
T2C0.0315
; #@! TA.AperFunction,Plated,PTH,ComponentDrill
T3C0.0320
; #@! TA.AperFunction,Plated,PTH,ComponentDrill
T4C0.0394
; #@! TA.AperFunction,Plated,PTH,ComponentDrill
T5C0.0400
%
G90
G05
T1
X4.559Y-3.594
X4.96Y-4.8
X5.034Y-3.6864
X5.058Y-3.098
X5.1696Y-3.654
X5.254Y-4.006
X5.257Y-4.497
X5.292Y-3.688
X5.298Y-3.906
X5.323Y-4.497
X5.3697Y-4.7143
X5.4525Y-4.3209
X5.4701Y-4.3562
X5.535Y-4.316
X5.605Y-4.073
X5.605Y-4.211
X5.638Y-3.965
X5.666Y-4.038
X5.7055Y-4.2795
X5.744Y-4.338
X5.8Y-4.048
X5.804Y-3.844
X5.826Y-4.742
X6.07Y-4.496
X6.074Y-3.7
X6.112Y-4.878
X6.137Y-3.891
X6.148Y-3.664
X6.17Y-3.956
X6.17Y-4.878
X6.21Y-3.7872
X6.266Y-4.826
X6.37Y-4.88
X6.518Y-4.882
X6.53Y-4.4026
X6.59Y-4.18
X6.636Y-3.342
X6.668Y-4.848
X6.72Y-4.28
X6.722Y-4.374
X6.724Y-4.328
X6.75Y-4.782
X6.756Y-4.676
X6.864Y-4.758
X6.87Y-4.892
X7.182Y-3.734
X7.222Y-3.77
X7.224Y-3.818
X7.262Y-3.62
T2
X5.95Y-3.435
X5.95Y-4.035
X6.05Y-3.435
X6.05Y-4.035
X6.15Y-3.435
X6.15Y-4.035
X6.25Y-3.435
X6.25Y-4.035
X6.35Y-3.435
X6.35Y-4.035
X6.45Y-3.435
X6.45Y-4.035
X6.55Y-3.435
X6.55Y-4.035
X6.65Y-3.435
X6.65Y-4.035
X6.75Y-3.435
X6.75Y-4.035
X6.85Y-3.435
X6.85Y-4.035
X6.95Y-3.435
X6.95Y-4.035
X7.05Y-3.435
X7.05Y-4.035
X7.15Y-3.435
X7.15Y-4.035
X7.25Y-3.435
X7.25Y-4.035
T3
X4.05Y-3.94
X4.05Y-4.04
X4.05Y-4.15
X4.05Y-4.25
X4.096Y-3.474
X4.096Y-3.774
X4.201Y-3.475
X4.201Y-3.775
X4.235Y-4.385
X4.305Y-3.475
X4.305Y-3.775
X4.335Y-4.385
X4.413Y-3.477
X4.413Y-3.777
X4.61Y-3.995
X4.61Y-4.095
X4.725Y-4.36
X4.78Y-3.585
X4.78Y-3.685
X4.78Y-3.785
X4.78Y-3.885
X4.78Y-3.985
X4.78Y-4.085
X4.819Y-3.206
X4.825Y-4.36
X4.88Y-3.485
X4.88Y-3.585
X4.88Y-3.685
X4.88Y-3.785
X4.88Y-3.885
X4.88Y-3.985
X4.88Y-4.085
X4.88Y-4.185
X4.919Y-3.206
X4.9375Y-2.915
X4.98Y-3.485
X4.98Y-3.585
X4.98Y-4.085
X4.98Y-4.185
X5.0375Y-2.915
X5.08Y-3.485
X5.08Y-3.585
X5.08Y-4.085
X5.08Y-4.185
X5.18Y-3.485
X5.18Y-3.585
X5.18Y-4.085
X5.18Y-4.185
X5.192Y-2.907
X5.23Y-3.314
X5.28Y-3.485
X5.28Y-3.585
X5.28Y-4.085
X5.28Y-4.185
X5.33Y-3.314
X5.38Y-3.485
X5.38Y-3.585
X5.38Y-3.685
X5.38Y-3.785
X5.38Y-3.885
X5.38Y-3.985
X5.38Y-4.085
X5.38Y-4.185
X5.48Y-3.585
X5.48Y-3.685
X5.48Y-3.785
X5.48Y-3.885
X5.48Y-3.985
X5.48Y-4.085
X5.492Y-2.907
X5.65Y-3.685
X5.65Y-3.785
X6.45Y-4.14
X6.45Y-4.44
X6.65Y-4.138
X6.65Y-4.438
X7.154Y-4.132
X7.154Y-4.432
X7.344Y-4.174
X7.444Y-4.174
T4
X4.099Y-3.2393
X4.099Y-3.3393
X4.199Y-3.2393
X4.199Y-3.3393
X4.299Y-3.2393
X4.299Y-3.3393
X4.399Y-3.2393
X4.399Y-3.3393
X4.499Y-3.2393
X4.499Y-3.3393
X7.6898Y-3.3348
X7.6898Y-3.4348
X7.6898Y-3.5348
X7.6898Y-3.6348
X7.6898Y-3.7348
X7.6898Y-3.8348
X7.6898Y-3.9348
X7.7898Y-3.3348
X7.7898Y-3.4348
X7.7898Y-3.5348
X7.7898Y-3.6348
X7.7898Y-3.7348
X7.7898Y-3.8348
X7.7898Y-3.9348
T5
X5.76Y-2.875
X5.76Y-2.9747
X5.859Y-2.875
X5.86Y-2.9747
X5.96Y-2.875
X5.96Y-2.9747
X6.16Y-2.9747
X6.66Y-2.9747
X7.4522Y-2.9747
X7.5522Y-2.9747
X7.655Y-2.874
X7.655Y-2.973
T0
M30
