%TF.GenerationSoftware,KiCad,Pcbnew,(6.0.7)*%
%TF.CreationDate,2022-11-17T13:34:52+00:00*%
%TF.ProjectId,msxpi,6d737870-692e-46b6-9963-61645f706362,rev?*%
%TF.SameCoordinates,Original*%
%TF.FileFunction,Soldermask,Top*%
%TF.FilePolarity,Negative*%
%FSLAX46Y46*%
G04 Gerber Fmt 4.6, Leading zero omitted, Abs format (unit mm)*
G04 Created by KiCad (PCBNEW (6.0.7)) date 2022-11-17 13:34:52*
%MOMM*%
%LPD*%
G01*
G04 APERTURE LIST*
G04 Aperture macros list*
%AMRoundRect*
0 Rectangle with rounded corners*
0 $1 Rounding radius*
0 $2 $3 $4 $5 $6 $7 $8 $9 X,Y pos of 4 corners*
0 Add a 4 corners polygon primitive as box body*
4,1,4,$2,$3,$4,$5,$6,$7,$8,$9,$2,$3,0*
0 Add four circle primitives for the rounded corners*
1,1,$1+$1,$2,$3*
1,1,$1+$1,$4,$5*
1,1,$1+$1,$6,$7*
1,1,$1+$1,$8,$9*
0 Add four rect primitives between the rounded corners*
20,1,$1+$1,$2,$3,$4,$5,0*
20,1,$1+$1,$4,$5,$6,$7,0*
20,1,$1+$1,$6,$7,$8,$9,0*
20,1,$1+$1,$8,$9,$2,$3,0*%
%AMFreePoly0*
4,1,25,0.506863,1.161696,0.518986,1.151342,1.151342,0.518986,1.179849,0.463038,1.181100,0.447144,1.181100,-0.447144,1.161696,-0.506863,1.151342,-0.518986,0.518986,-1.151342,0.463038,-1.179849,0.447144,-1.181100,-0.447144,-1.181100,-0.506863,-1.161696,-0.518986,-1.151342,-1.151342,-0.518986,-1.179849,-0.463038,-1.181100,-0.447144,-1.181100,0.447144,-1.161696,0.506863,-1.151342,0.518986,
-0.518986,1.151342,-0.463038,1.179849,-0.447144,1.181100,0.447144,1.181100,0.506863,1.161696,0.506863,1.161696,$1*%
%AMFreePoly1*
4,1,25,0.333266,0.742596,0.345389,0.732242,0.732242,0.345389,0.760749,0.289441,0.762000,0.273547,0.762000,-0.273547,0.742596,-0.333266,0.732242,-0.345389,0.345389,-0.732242,0.289441,-0.760749,0.273547,-0.762000,-0.273547,-0.762000,-0.333266,-0.742596,-0.345389,-0.732242,-0.732242,-0.345389,-0.760749,-0.289441,-0.762000,-0.273547,-0.762000,0.273547,-0.742596,0.333266,-0.732242,0.345389,
-0.345389,0.732242,-0.289441,0.760749,-0.273547,0.762000,0.273547,0.762000,0.333266,0.742596,0.333266,0.742596,$1*%
%AMFreePoly2*
4,1,25,0.391131,0.882296,0.403254,0.871942,0.871942,0.403254,0.900449,0.347306,0.901700,0.331412,0.901700,-0.331412,0.882296,-0.391131,0.871942,-0.403254,0.403254,-0.871942,0.347306,-0.900449,0.331412,-0.901700,-0.331412,-0.901700,-0.391131,-0.882296,-0.403254,-0.871942,-0.871942,-0.403254,-0.900449,-0.347306,-0.901700,-0.331412,-0.901700,0.331412,-0.882296,0.391131,-0.871942,0.403254,
-0.403254,0.871942,-0.347306,0.900449,-0.331412,0.901700,0.331412,0.901700,0.391131,0.882296,0.391131,0.882296,$1*%
G04 Aperture macros list end*
%ADD10FreePoly0,0.000000*%
%ADD11C,1.700000*%
%ADD12RoundRect,0.250000X0.600000X-0.600000X0.600000X0.600000X-0.600000X0.600000X-0.600000X-0.600000X0*%
%ADD13R,1.500000X11.000000*%
%ADD14FreePoly1,270.000000*%
%ADD15FreePoly2,180.000000*%
%ADD16FreePoly2,90.000000*%
%ADD17FreePoly1,90.000000*%
%ADD18FreePoly1,0.000000*%
%ADD19C,1.803400*%
%ADD20FreePoly2,0.000000*%
%ADD21R,1.500000X2.000000*%
%ADD22R,3.800000X2.000000*%
%ADD23R,1.700000X1.700000*%
%ADD24O,1.700000X1.700000*%
%ADD25FreePoly2,270.000000*%
%ADD26R,1.600000X1.600000*%
%ADD27O,1.600000X1.600000*%
%ADD28FreePoly1,180.000000*%
%ADD29C,1.524000*%
G04 APERTURE END LIST*
D10*
%TO.C,MOUNTHOLE5*%
X194437000Y-72999600D03*
%TD*%
%TO.C,MOUNTHOLE4*%
X194437000Y-75514200D03*
%TD*%
%TO.C,MOUNTHOLE3*%
X151384000Y-73025000D03*
%TD*%
%TO.C,MOUNTHOLE2*%
X148818600Y-73025000D03*
%TD*%
%TO.C,MOUNTHOLE1*%
X146304000Y-73025000D03*
%TD*%
D11*
%TO.C,JP2*%
X114274600Y-82278500D03*
X114274600Y-84818500D03*
X111734600Y-82278500D03*
X111734600Y-84818500D03*
X109194600Y-82278500D03*
X109194600Y-84818500D03*
X106654600Y-82278500D03*
X106654600Y-84818500D03*
X104114600Y-82278500D03*
D12*
X104114600Y-84818500D03*
%TD*%
D13*
%TO.C,JP1*%
X184610025Y-131114405D03*
X182070025Y-131114405D03*
X179530025Y-131114405D03*
X176990025Y-131114405D03*
X174450025Y-131114405D03*
X171910025Y-131114405D03*
X169370025Y-131114405D03*
X166830025Y-131114405D03*
X164290025Y-131114405D03*
X161750025Y-131114405D03*
X159210025Y-131114405D03*
X156670025Y-131114405D03*
X154130025Y-131114405D03*
X151590025Y-131114405D03*
X149050025Y-131114405D03*
X146510025Y-131114405D03*
X143970025Y-131114405D03*
X141430025Y-131114405D03*
X138890025Y-131114405D03*
X136350025Y-131114405D03*
X133810025Y-131114405D03*
X131270025Y-131114405D03*
X128730025Y-131114405D03*
X126190025Y-131114405D03*
X123650025Y-131114405D03*
%TD*%
D10*
%TO.C,SPI_MOSI_PI_GPIO1*%
X151384000Y-75558457D03*
%TD*%
D14*
%TO.C,R5*%
X181711600Y-104952800D03*
X181711600Y-112572800D03*
%TD*%
D10*
%TO.C,+5V1*%
X191824942Y-75558457D03*
%TD*%
D15*
%TO.C,C8*%
X122555000Y-110744000D03*
X120015000Y-110744000D03*
%TD*%
D16*
%TO.C,C1*%
X102870000Y-107950000D03*
X102870000Y-105410000D03*
%TD*%
D17*
%TO.C,R3*%
X109347000Y-95885000D03*
X109347000Y-88265000D03*
%TD*%
D18*
%TO.C,R8*%
X131876800Y-73837800D03*
X139496800Y-73837800D03*
%TD*%
D19*
%TO.C,C9*%
X186537600Y-106019600D03*
D20*
X189077600Y-106019600D03*
%TD*%
D21*
%TO.C,IC1*%
X106920000Y-106172400D03*
D22*
X109220000Y-99872400D03*
D21*
X109220000Y-106172400D03*
X111520000Y-106172400D03*
%TD*%
D23*
%TO.C,J1*%
X195321000Y-84704000D03*
D24*
X197861000Y-84704000D03*
X195321000Y-87244000D03*
X197861000Y-87244000D03*
X195321000Y-89784000D03*
X197861000Y-89784000D03*
X195321000Y-92324000D03*
X197861000Y-92324000D03*
X195321000Y-94864000D03*
X197861000Y-94864000D03*
X195321000Y-97404000D03*
X197861000Y-97404000D03*
X195321000Y-99944000D03*
X197861000Y-99944000D03*
%TD*%
D17*
%TO.C,R1*%
X104038400Y-95859600D03*
X104038400Y-88239600D03*
%TD*%
D25*
%TO.C,C7*%
X143510000Y-93599000D03*
X143510000Y-96139000D03*
%TD*%
D14*
%TO.C,R7*%
X163830000Y-112776000D03*
X163830000Y-105156000D03*
%TD*%
D26*
%TO.C,U1*%
X184150000Y-87249000D03*
D27*
X181610000Y-87249000D03*
X179070000Y-87249000D03*
X176530000Y-87249000D03*
X173990000Y-87249000D03*
X171450000Y-87249000D03*
X168910000Y-87249000D03*
X166370000Y-87249000D03*
X163830000Y-87249000D03*
X161290000Y-87249000D03*
X158750000Y-87249000D03*
X156210000Y-87249000D03*
X153670000Y-87249000D03*
X151130000Y-87249000D03*
X151130000Y-102489000D03*
X153670000Y-102489000D03*
X156210000Y-102489000D03*
X158750000Y-102489000D03*
X161290000Y-102489000D03*
X163830000Y-102489000D03*
X166370000Y-102489000D03*
X168910000Y-102489000D03*
X171450000Y-102489000D03*
X173990000Y-102489000D03*
X176530000Y-102489000D03*
X179070000Y-102489000D03*
X181610000Y-102489000D03*
X184150000Y-102489000D03*
%TD*%
D28*
%TO.C,LED1*%
X127952500Y-74041000D03*
X125412500Y-74041000D03*
%TD*%
D15*
%TO.C,C5*%
X135382000Y-84175600D03*
X132842000Y-84175600D03*
%TD*%
D17*
%TO.C,R2*%
X106705400Y-95885000D03*
X106705400Y-88265000D03*
%TD*%
D10*
%TO.C,GND5*%
X189284942Y-75558457D03*
%TD*%
D15*
%TO.C,C6*%
X110109000Y-111379000D03*
X107569000Y-111379000D03*
%TD*%
D10*
%TO.C,SPI_MISO_PI_GPIO1*%
X156464000Y-75558457D03*
%TD*%
%TO.C,SPI_RDY_PI_GPIO1*%
X169164000Y-75558457D03*
%TD*%
D19*
%TO.C,C2*%
X124942600Y-81432400D03*
D15*
X122402600Y-81432400D03*
%TD*%
D16*
%TO.C,C4*%
X117094000Y-104013000D03*
X117094000Y-101473000D03*
%TD*%
D10*
%TO.C,SPI_CLK_PI_GPIO1*%
X148844000Y-75558457D03*
%TD*%
D14*
%TO.C,R6*%
X168910000Y-112725200D03*
X168910000Y-105105200D03*
%TD*%
D18*
%TO.C,EPM3064ALC44*%
X131572000Y-88519000D03*
X134112000Y-91059000D03*
X134112000Y-88519000D03*
X136652000Y-91059000D03*
X136652000Y-88519000D03*
X139192000Y-91059000D03*
X136652000Y-93599000D03*
X139192000Y-93599000D03*
X136652000Y-96139000D03*
X139192000Y-96139000D03*
X136652000Y-98679000D03*
X139192000Y-98679000D03*
X136652000Y-101219000D03*
X139192000Y-101219000D03*
X136652000Y-103759000D03*
X139192000Y-103759000D03*
X136652000Y-106299000D03*
X134112000Y-103759000D03*
X134112000Y-106299000D03*
X131572000Y-103759000D03*
X131572000Y-106299000D03*
X129032000Y-103759000D03*
X129032000Y-106299000D03*
X126492000Y-103759000D03*
X126492000Y-106299000D03*
X123952000Y-103759000D03*
X123952000Y-106299000D03*
X121412000Y-103759000D03*
X123952000Y-101219000D03*
X121412000Y-101219000D03*
X123952000Y-98679000D03*
X121412000Y-98679000D03*
X123952000Y-96139000D03*
X121412000Y-96139000D03*
X123952000Y-93599000D03*
X121412000Y-93599000D03*
X123952000Y-91059000D03*
X121412000Y-91059000D03*
X123952000Y-88519000D03*
X126492000Y-91059000D03*
X126492000Y-88519000D03*
X129032000Y-91059000D03*
X129032000Y-88519000D03*
D29*
X131572000Y-91059000D03*
%TD*%
D17*
%TO.C,R4*%
X112090200Y-95935800D03*
X112090200Y-88315800D03*
%TD*%
D25*
%TO.C,C3*%
X102870000Y-100076000D03*
X102870000Y-102616000D03*
%TD*%
D10*
%TO.C,SPI_CS_PI_GPIO1*%
X146304000Y-75558457D03*
%TD*%
M02*
