%TF.GenerationSoftware,KiCad,Pcbnew,(6.0.7)*%
%TF.CreationDate,2022-11-17T13:34:49+00:00*%
%TF.ProjectId,msxpi,6d737870-692e-46b6-9963-61645f706362,rev?*%
%TF.SameCoordinates,Original*%
%TF.FileFunction,Drillmap*%
%TF.FilePolarity,Positive*%
%FSLAX45Y45*%
G04 Gerber Fmt 4.5, Leading zero omitted, Abs format (unit mm)*
G04 Created by KiCad (PCBNEW (6.0.7)) date 2022-11-17 13:34:49*
%MOMM*%
%LPD*%
G01*
G04 APERTURE LIST*
%ADD10C,0.200000*%
G04 APERTURE END LIST*
D10*
X10068419Y-14016476D02*
X10068419Y-13816476D01*
X10116038Y-13816476D01*
X10144610Y-13826000D01*
X10163657Y-13845048D01*
X10173181Y-13864095D01*
X10182705Y-13902190D01*
X10182705Y-13930762D01*
X10173181Y-13968857D01*
X10163657Y-13987905D01*
X10144610Y-14006952D01*
X10116038Y-14016476D01*
X10068419Y-14016476D01*
X10268419Y-14016476D02*
X10268419Y-13883143D01*
X10268419Y-13921238D02*
X10277943Y-13902190D01*
X10287467Y-13892667D01*
X10306514Y-13883143D01*
X10325562Y-13883143D01*
X10392229Y-14016476D02*
X10392229Y-13883143D01*
X10392229Y-13816476D02*
X10382705Y-13826000D01*
X10392229Y-13835524D01*
X10401752Y-13826000D01*
X10392229Y-13816476D01*
X10392229Y-13835524D01*
X10516038Y-14016476D02*
X10496990Y-14006952D01*
X10487467Y-13987905D01*
X10487467Y-13816476D01*
X10620800Y-14016476D02*
X10601752Y-14006952D01*
X10592229Y-13987905D01*
X10592229Y-13816476D01*
X10849371Y-14016476D02*
X10849371Y-13816476D01*
X10916038Y-13959333D01*
X10982705Y-13816476D01*
X10982705Y-14016476D01*
X11163657Y-14016476D02*
X11163657Y-13911714D01*
X11154133Y-13892667D01*
X11135086Y-13883143D01*
X11096990Y-13883143D01*
X11077943Y-13892667D01*
X11163657Y-14006952D02*
X11144610Y-14016476D01*
X11096990Y-14016476D01*
X11077943Y-14006952D01*
X11068419Y-13987905D01*
X11068419Y-13968857D01*
X11077943Y-13949809D01*
X11096990Y-13940286D01*
X11144610Y-13940286D01*
X11163657Y-13930762D01*
X11258895Y-13883143D02*
X11258895Y-14083143D01*
X11258895Y-13892667D02*
X11277943Y-13883143D01*
X11316038Y-13883143D01*
X11335086Y-13892667D01*
X11344609Y-13902190D01*
X11354133Y-13921238D01*
X11354133Y-13978381D01*
X11344609Y-13997428D01*
X11335086Y-14006952D01*
X11316038Y-14016476D01*
X11277943Y-14016476D01*
X11258895Y-14006952D01*
X11439848Y-13997428D02*
X11449371Y-14006952D01*
X11439848Y-14016476D01*
X11430324Y-14006952D01*
X11439848Y-13997428D01*
X11439848Y-14016476D01*
X11439848Y-13892667D02*
X11449371Y-13902190D01*
X11439848Y-13911714D01*
X11430324Y-13902190D01*
X11439848Y-13892667D01*
X11439848Y-13911714D01*
M02*
