%TF.GenerationSoftware,KiCad,Pcbnew,(6.0.7)*%
%TF.CreationDate,2022-11-17T13:34:49+00:00*%
%TF.ProjectId,msxpi,6d737870-692e-46b6-9963-61645f706362,rev?*%
%TF.SameCoordinates,Original*%
%TF.FileFunction,Drillmap*%
%TF.FilePolarity,Positive*%
%FSLAX45Y45*%
G04 Gerber Fmt 4.5, Leading zero omitted, Abs format (unit mm)*
G04 Created by KiCad (PCBNEW (6.0.7)) date 2022-11-17 13:34:49*
%MOMM*%
%LPD*%
G01*
G04 APERTURE LIST*
%ADD10C,0.200000*%
%ADD11C,0.040000*%
%ADD12C,0.080000*%
%ADD13C,0.081280*%
%ADD14C,0.100000*%
%ADD15C,0.101600*%
G04 APERTURE END LIST*
D10*
D11*
X11559860Y-9108760D02*
X11599860Y-9148760D01*
X11599860Y-9108760D02*
X11559860Y-9148760D01*
X12578400Y-12172000D02*
X12618400Y-12212000D01*
X12618400Y-12172000D02*
X12578400Y-12212000D01*
X12766360Y-9343530D02*
X12806360Y-9383530D01*
X12806360Y-9343530D02*
X12766360Y-9383530D01*
X12827320Y-7848920D02*
X12867320Y-7888920D01*
X12867320Y-7848920D02*
X12827320Y-7888920D01*
X13110820Y-9261160D02*
X13150820Y-9301160D01*
X13150820Y-9261160D02*
X13110820Y-9301160D01*
X13325160Y-10155240D02*
X13365160Y-10195240D01*
X13365160Y-10155240D02*
X13325160Y-10195240D01*
X13332780Y-11402380D02*
X13372780Y-11442380D01*
X13372780Y-11402380D02*
X13332780Y-11442380D01*
X13421680Y-9347520D02*
X13461680Y-9387520D01*
X13461680Y-9347520D02*
X13421680Y-9387520D01*
X13436920Y-9901240D02*
X13476920Y-9941240D01*
X13476920Y-9901240D02*
X13436920Y-9941240D01*
X13500420Y-11402380D02*
X13540420Y-11442380D01*
X13540420Y-11402380D02*
X13500420Y-11442380D01*
X13619122Y-11954238D02*
X13659122Y-11994238D01*
X13659122Y-11954238D02*
X13619122Y-11994238D01*
X13829319Y-10955112D02*
X13869319Y-10995112D01*
X13869319Y-10955112D02*
X13829319Y-10995112D01*
X13874094Y-11044830D02*
X13914094Y-11084830D01*
X13914094Y-11044830D02*
X13874094Y-11084830D01*
X14038900Y-10942640D02*
X14078900Y-10982640D01*
X14078900Y-10942640D02*
X14038900Y-10982640D01*
X14216700Y-10325420D02*
X14256700Y-10365420D01*
X14256700Y-10325420D02*
X14216700Y-10365420D01*
X14216700Y-10675940D02*
X14256700Y-10715940D01*
X14256700Y-10675940D02*
X14216700Y-10715940D01*
X14300520Y-10051100D02*
X14340520Y-10091100D01*
X14340520Y-10051100D02*
X14300520Y-10091100D01*
X14371640Y-10236520D02*
X14411640Y-10276520D01*
X14411640Y-10236520D02*
X14371640Y-10276520D01*
X14471970Y-10849930D02*
X14511970Y-10889930D01*
X14511970Y-10849930D02*
X14471970Y-10889930D01*
X14569760Y-10998520D02*
X14609760Y-11038520D01*
X14609760Y-10998520D02*
X14569760Y-11038520D01*
X14712000Y-10261920D02*
X14752000Y-10301920D01*
X14752000Y-10261920D02*
X14712000Y-10301920D01*
X14722160Y-9743760D02*
X14762160Y-9783760D01*
X14762160Y-9743760D02*
X14722160Y-9783760D01*
X14778040Y-12024680D02*
X14818040Y-12064680D01*
X14818040Y-12024680D02*
X14778040Y-12064680D01*
X15397800Y-11399840D02*
X15437800Y-11439840D01*
X15437800Y-11399840D02*
X15397800Y-11439840D01*
X15407960Y-9378000D02*
X15447960Y-9418000D01*
X15447960Y-9378000D02*
X15407960Y-9418000D01*
X15504480Y-12370120D02*
X15544480Y-12410120D01*
X15544480Y-12370120D02*
X15504480Y-12410120D01*
X15567980Y-9863140D02*
X15607980Y-9903140D01*
X15607980Y-9863140D02*
X15567980Y-9903140D01*
X15595920Y-9286560D02*
X15635920Y-9326560D01*
X15635920Y-9286560D02*
X15595920Y-9326560D01*
X15651800Y-10028240D02*
X15691800Y-10068240D01*
X15691800Y-10028240D02*
X15651800Y-10068240D01*
X15651800Y-12370120D02*
X15691800Y-12410120D01*
X15691800Y-12370120D02*
X15651800Y-12410120D01*
X15753400Y-9599470D02*
X15793400Y-9639470D01*
X15793400Y-9599470D02*
X15753400Y-9639470D01*
X15895640Y-12238040D02*
X15935640Y-12278040D01*
X15935640Y-12238040D02*
X15895640Y-12278040D01*
X16159800Y-12375200D02*
X16199800Y-12415200D01*
X16199800Y-12375200D02*
X16159800Y-12415200D01*
X16535720Y-12380280D02*
X16575720Y-12420280D01*
X16575720Y-12380280D02*
X16535720Y-12420280D01*
X16566200Y-11162730D02*
X16606200Y-11202730D01*
X16606200Y-11162730D02*
X16566200Y-11202730D01*
X16718600Y-10597200D02*
X16758600Y-10637200D01*
X16758600Y-10597200D02*
X16718600Y-10637200D01*
X16835440Y-8468680D02*
X16875440Y-8508680D01*
X16875440Y-8468680D02*
X16835440Y-8508680D01*
X16916720Y-12293920D02*
X16956720Y-12333920D01*
X16956720Y-12293920D02*
X16916720Y-12333920D01*
X17048800Y-10851200D02*
X17088800Y-10891200D01*
X17088800Y-10851200D02*
X17048800Y-10891200D01*
X17053880Y-11089960D02*
X17093880Y-11129960D01*
X17093880Y-11089960D02*
X17053880Y-11129960D01*
X17058960Y-10973120D02*
X17098960Y-11013120D01*
X17098960Y-10973120D02*
X17058960Y-11013120D01*
X17125000Y-12126280D02*
X17165000Y-12166280D01*
X17165000Y-12126280D02*
X17125000Y-12166280D01*
X17140240Y-11856990D02*
X17180240Y-11896990D01*
X17180240Y-11856990D02*
X17140240Y-11896990D01*
X17414560Y-12065320D02*
X17454560Y-12105320D01*
X17454560Y-12065320D02*
X17414560Y-12105320D01*
X17429800Y-12405680D02*
X17469800Y-12445680D01*
X17469800Y-12405680D02*
X17429800Y-12445680D01*
X18222280Y-9464360D02*
X18262280Y-9504360D01*
X18262280Y-9464360D02*
X18222280Y-9504360D01*
X18323880Y-9555800D02*
X18363880Y-9595800D01*
X18363880Y-9555800D02*
X18323880Y-9595800D01*
X18328960Y-9677720D02*
X18368960Y-9717720D01*
X18368960Y-9677720D02*
X18328960Y-9717720D01*
X18425480Y-9174800D02*
X18465480Y-9214800D01*
X18465480Y-9174800D02*
X18425480Y-9214800D01*
D12*
X15153000Y-8724900D02*
G75*
G03*
X15153000Y-8724900I-40000J0D01*
G01*
X15153000Y-10248900D02*
G75*
G03*
X15153000Y-10248900I-40000J0D01*
G01*
X15407000Y-8724900D02*
G75*
G03*
X15407000Y-8724900I-40000J0D01*
G01*
X15407000Y-10248900D02*
G75*
G03*
X15407000Y-10248900I-40000J0D01*
G01*
X15661000Y-8724900D02*
G75*
G03*
X15661000Y-8724900I-40000J0D01*
G01*
X15661000Y-10248900D02*
G75*
G03*
X15661000Y-10248900I-40000J0D01*
G01*
X15915000Y-8724900D02*
G75*
G03*
X15915000Y-8724900I-40000J0D01*
G01*
X15915000Y-10248900D02*
G75*
G03*
X15915000Y-10248900I-40000J0D01*
G01*
X16169000Y-8724900D02*
G75*
G03*
X16169000Y-8724900I-40000J0D01*
G01*
X16169000Y-10248900D02*
G75*
G03*
X16169000Y-10248900I-40000J0D01*
G01*
X16423000Y-8724900D02*
G75*
G03*
X16423000Y-8724900I-40000J0D01*
G01*
X16423000Y-10248900D02*
G75*
G03*
X16423000Y-10248900I-40000J0D01*
G01*
X16677000Y-8724900D02*
G75*
G03*
X16677000Y-8724900I-40000J0D01*
G01*
X16677000Y-10248900D02*
G75*
G03*
X16677000Y-10248900I-40000J0D01*
G01*
X16931000Y-8724900D02*
G75*
G03*
X16931000Y-8724900I-40000J0D01*
G01*
X16931000Y-10248900D02*
G75*
G03*
X16931000Y-10248900I-40000J0D01*
G01*
X17185000Y-8724900D02*
G75*
G03*
X17185000Y-8724900I-40000J0D01*
G01*
X17185000Y-10248900D02*
G75*
G03*
X17185000Y-10248900I-40000J0D01*
G01*
X17439000Y-8724900D02*
G75*
G03*
X17439000Y-8724900I-40000J0D01*
G01*
X17439000Y-10248900D02*
G75*
G03*
X17439000Y-10248900I-40000J0D01*
G01*
X17693000Y-8724900D02*
G75*
G03*
X17693000Y-8724900I-40000J0D01*
G01*
X17693000Y-10248900D02*
G75*
G03*
X17693000Y-10248900I-40000J0D01*
G01*
X17947000Y-8724900D02*
G75*
G03*
X17947000Y-8724900I-40000J0D01*
G01*
X17947000Y-10248900D02*
G75*
G03*
X17947000Y-10248900I-40000J0D01*
G01*
X18201000Y-8724900D02*
G75*
G03*
X18201000Y-8724900I-40000J0D01*
G01*
X18201000Y-10248900D02*
G75*
G03*
X18201000Y-10248900I-40000J0D01*
G01*
X18455000Y-8724900D02*
G75*
G03*
X18455000Y-8724900I-40000J0D01*
G01*
X18455000Y-10248900D02*
G75*
G03*
X18455000Y-10248900I-40000J0D01*
G01*
D13*
X10287000Y-9966960D02*
X10287000Y-10048240D01*
X10246360Y-10007600D02*
X10327640Y-10007600D01*
X10287000Y-10220960D02*
X10287000Y-10302240D01*
X10246360Y-10261600D02*
X10327640Y-10261600D01*
X10287000Y-10500360D02*
X10287000Y-10581640D01*
X10246360Y-10541000D02*
X10327640Y-10541000D01*
X10287000Y-10754360D02*
X10287000Y-10835640D01*
X10246360Y-10795000D02*
X10327640Y-10795000D01*
X10403840Y-8783320D02*
X10403840Y-8864600D01*
X10363200Y-8823960D02*
X10444480Y-8823960D01*
X10403840Y-9545320D02*
X10403840Y-9626600D01*
X10363200Y-9585960D02*
X10444480Y-9585960D01*
X10670540Y-8785860D02*
X10670540Y-8867140D01*
X10629900Y-8826500D02*
X10711180Y-8826500D01*
X10670540Y-9547860D02*
X10670540Y-9629140D01*
X10629900Y-9588500D02*
X10711180Y-9588500D01*
X10756900Y-11097260D02*
X10756900Y-11178540D01*
X10716260Y-11137900D02*
X10797540Y-11137900D01*
X10934700Y-8785860D02*
X10934700Y-8867140D01*
X10894060Y-8826500D02*
X10975340Y-8826500D01*
X10934700Y-9547860D02*
X10934700Y-9629140D01*
X10894060Y-9588500D02*
X10975340Y-9588500D01*
X11010900Y-11097260D02*
X11010900Y-11178540D01*
X10970260Y-11137900D02*
X11051540Y-11137900D01*
X11209020Y-8790940D02*
X11209020Y-8872220D01*
X11168380Y-8831580D02*
X11249660Y-8831580D01*
X11209020Y-9552940D02*
X11209020Y-9634220D01*
X11168380Y-9593580D02*
X11249660Y-9593580D01*
X11709400Y-10106660D02*
X11709400Y-10187940D01*
X11668760Y-10147300D02*
X11750040Y-10147300D01*
X11709400Y-10360660D02*
X11709400Y-10441940D01*
X11668760Y-10401300D02*
X11750040Y-10401300D01*
X12001500Y-11033760D02*
X12001500Y-11115040D01*
X11960860Y-11074400D02*
X12042140Y-11074400D01*
X12141200Y-9065260D02*
X12141200Y-9146540D01*
X12100560Y-9105900D02*
X12181840Y-9105900D01*
X12141200Y-9319260D02*
X12141200Y-9400540D01*
X12100560Y-9359900D02*
X12181840Y-9359900D01*
X12141200Y-9573260D02*
X12141200Y-9654540D01*
X12100560Y-9613900D02*
X12181840Y-9613900D01*
X12141200Y-9827260D02*
X12141200Y-9908540D01*
X12100560Y-9867900D02*
X12181840Y-9867900D01*
X12141200Y-10081260D02*
X12141200Y-10162540D01*
X12100560Y-10121900D02*
X12181840Y-10121900D01*
X12141200Y-10335260D02*
X12141200Y-10416540D01*
X12100560Y-10375900D02*
X12181840Y-10375900D01*
X12240260Y-8102600D02*
X12240260Y-8183880D01*
X12199620Y-8143240D02*
X12280900Y-8143240D01*
X12255500Y-11033760D02*
X12255500Y-11115040D01*
X12214860Y-11074400D02*
X12296140Y-11074400D01*
X12395200Y-8811260D02*
X12395200Y-8892540D01*
X12354560Y-8851900D02*
X12435840Y-8851900D01*
X12395200Y-9065260D02*
X12395200Y-9146540D01*
X12354560Y-9105900D02*
X12435840Y-9105900D01*
X12395200Y-9319260D02*
X12395200Y-9400540D01*
X12354560Y-9359900D02*
X12435840Y-9359900D01*
X12395200Y-9573260D02*
X12395200Y-9654540D01*
X12354560Y-9613900D02*
X12435840Y-9613900D01*
X12395200Y-9827260D02*
X12395200Y-9908540D01*
X12354560Y-9867900D02*
X12435840Y-9867900D01*
X12395200Y-10081260D02*
X12395200Y-10162540D01*
X12354560Y-10121900D02*
X12435840Y-10121900D01*
X12395200Y-10335260D02*
X12395200Y-10416540D01*
X12354560Y-10375900D02*
X12435840Y-10375900D01*
X12395200Y-10589260D02*
X12395200Y-10670540D01*
X12354560Y-10629900D02*
X12435840Y-10629900D01*
X12494260Y-8102600D02*
X12494260Y-8183880D01*
X12453620Y-8143240D02*
X12534900Y-8143240D01*
X12541250Y-7363460D02*
X12541250Y-7444740D01*
X12500610Y-7404100D02*
X12581890Y-7404100D01*
X12649200Y-8811260D02*
X12649200Y-8892540D01*
X12608560Y-8851900D02*
X12689840Y-8851900D01*
X12649200Y-9065260D02*
X12649200Y-9146540D01*
X12608560Y-9105900D02*
X12689840Y-9105900D01*
X12649200Y-10335260D02*
X12649200Y-10416540D01*
X12608560Y-10375900D02*
X12689840Y-10375900D01*
X12649200Y-10589260D02*
X12649200Y-10670540D01*
X12608560Y-10629900D02*
X12689840Y-10629900D01*
X12795250Y-7363460D02*
X12795250Y-7444740D01*
X12754610Y-7404100D02*
X12835890Y-7404100D01*
X12903200Y-8811260D02*
X12903200Y-8892540D01*
X12862560Y-8851900D02*
X12943840Y-8851900D01*
X12903200Y-9065260D02*
X12903200Y-9146540D01*
X12862560Y-9105900D02*
X12943840Y-9105900D01*
X12903200Y-10335260D02*
X12903200Y-10416540D01*
X12862560Y-10375900D02*
X12943840Y-10375900D01*
X12903200Y-10589260D02*
X12903200Y-10670540D01*
X12862560Y-10629900D02*
X12943840Y-10629900D01*
X13157200Y-8811260D02*
X13157200Y-8892540D01*
X13116560Y-8851900D02*
X13197840Y-8851900D01*
X13157200Y-9065260D02*
X13157200Y-9146540D01*
X13116560Y-9105900D02*
X13197840Y-9105900D01*
X13157200Y-10335260D02*
X13157200Y-10416540D01*
X13116560Y-10375900D02*
X13197840Y-10375900D01*
X13157200Y-10589260D02*
X13157200Y-10670540D01*
X13116560Y-10629900D02*
X13197840Y-10629900D01*
X13187680Y-7343140D02*
X13187680Y-7424420D01*
X13147040Y-7383780D02*
X13228320Y-7383780D01*
X13284200Y-8376920D02*
X13284200Y-8458200D01*
X13243560Y-8417560D02*
X13324840Y-8417560D01*
X13411200Y-8811260D02*
X13411200Y-8892540D01*
X13370560Y-8851900D02*
X13451840Y-8851900D01*
X13411200Y-9065260D02*
X13411200Y-9146540D01*
X13370560Y-9105900D02*
X13451840Y-9105900D01*
X13411200Y-10335260D02*
X13411200Y-10416540D01*
X13370560Y-10375900D02*
X13451840Y-10375900D01*
X13411200Y-10589260D02*
X13411200Y-10670540D01*
X13370560Y-10629900D02*
X13451840Y-10629900D01*
X13538200Y-8376920D02*
X13538200Y-8458200D01*
X13497560Y-8417560D02*
X13578840Y-8417560D01*
X13665200Y-8811260D02*
X13665200Y-8892540D01*
X13624560Y-8851900D02*
X13705840Y-8851900D01*
X13665200Y-9065260D02*
X13665200Y-9146540D01*
X13624560Y-9105900D02*
X13705840Y-9105900D01*
X13665200Y-9319260D02*
X13665200Y-9400540D01*
X13624560Y-9359900D02*
X13705840Y-9359900D01*
X13665200Y-9573260D02*
X13665200Y-9654540D01*
X13624560Y-9613900D02*
X13705840Y-9613900D01*
X13665200Y-9827260D02*
X13665200Y-9908540D01*
X13624560Y-9867900D02*
X13705840Y-9867900D01*
X13665200Y-10081260D02*
X13665200Y-10162540D01*
X13624560Y-10121900D02*
X13705840Y-10121900D01*
X13665200Y-10335260D02*
X13665200Y-10416540D01*
X13624560Y-10375900D02*
X13705840Y-10375900D01*
X13665200Y-10589260D02*
X13665200Y-10670540D01*
X13624560Y-10629900D02*
X13705840Y-10629900D01*
X13919200Y-9065260D02*
X13919200Y-9146540D01*
X13878560Y-9105900D02*
X13959840Y-9105900D01*
X13919200Y-9319260D02*
X13919200Y-9400540D01*
X13878560Y-9359900D02*
X13959840Y-9359900D01*
X13919200Y-9573260D02*
X13919200Y-9654540D01*
X13878560Y-9613900D02*
X13959840Y-9613900D01*
X13919200Y-9827260D02*
X13919200Y-9908540D01*
X13878560Y-9867900D02*
X13959840Y-9867900D01*
X13919200Y-10081260D02*
X13919200Y-10162540D01*
X13878560Y-10121900D02*
X13959840Y-10121900D01*
X13919200Y-10335260D02*
X13919200Y-10416540D01*
X13878560Y-10375900D02*
X13959840Y-10375900D01*
X13949680Y-7343140D02*
X13949680Y-7424420D01*
X13909040Y-7383780D02*
X13990320Y-7383780D01*
X14351000Y-9319260D02*
X14351000Y-9400540D01*
X14310360Y-9359900D02*
X14391640Y-9359900D01*
X14351000Y-9573260D02*
X14351000Y-9654540D01*
X14310360Y-9613900D02*
X14391640Y-9613900D01*
X16383000Y-10474960D02*
X16383000Y-10556240D01*
X16342360Y-10515600D02*
X16423640Y-10515600D01*
X16383000Y-11236960D02*
X16383000Y-11318240D01*
X16342360Y-11277600D02*
X16423640Y-11277600D01*
X16891000Y-10469880D02*
X16891000Y-10551160D01*
X16850360Y-10510520D02*
X16931640Y-10510520D01*
X16891000Y-11231880D02*
X16891000Y-11313160D01*
X16850360Y-11272520D02*
X16931640Y-11272520D01*
X18171160Y-10454640D02*
X18171160Y-10535920D01*
X18130520Y-10495280D02*
X18211800Y-10495280D01*
X18171160Y-11216640D02*
X18171160Y-11297920D01*
X18130520Y-11257280D02*
X18211800Y-11257280D01*
X18653760Y-10561320D02*
X18653760Y-10642600D01*
X18613120Y-10601960D02*
X18694400Y-10601960D01*
X18907760Y-10561320D02*
X18907760Y-10642600D01*
X18867120Y-10601960D02*
X18948400Y-10601960D01*
D14*
X10446816Y-8263206D02*
X10446816Y-8192494D01*
X10376104Y-8192494D01*
X10376104Y-8263206D01*
X10446816Y-8263206D01*
X10446816Y-8517206D02*
X10446816Y-8446494D01*
X10376104Y-8446494D01*
X10376104Y-8517206D01*
X10446816Y-8517206D01*
X10700816Y-8263206D02*
X10700816Y-8192494D01*
X10630104Y-8192494D01*
X10630104Y-8263206D01*
X10700816Y-8263206D01*
X10700816Y-8517206D02*
X10700816Y-8446494D01*
X10630104Y-8446494D01*
X10630104Y-8517206D01*
X10700816Y-8517206D01*
X10954816Y-8263206D02*
X10954816Y-8192494D01*
X10884104Y-8192494D01*
X10884104Y-8263206D01*
X10954816Y-8263206D01*
X10954816Y-8517206D02*
X10954816Y-8446494D01*
X10884104Y-8446494D01*
X10884104Y-8517206D01*
X10954816Y-8517206D01*
X11208816Y-8263206D02*
X11208816Y-8192494D01*
X11138104Y-8192494D01*
X11138104Y-8263206D01*
X11208816Y-8263206D01*
X11208816Y-8517206D02*
X11208816Y-8446494D01*
X11138104Y-8446494D01*
X11138104Y-8517206D01*
X11208816Y-8517206D01*
X11462816Y-8263206D02*
X11462816Y-8192494D01*
X11392104Y-8192494D01*
X11392104Y-8263206D01*
X11462816Y-8263206D01*
X11462816Y-8517206D02*
X11462816Y-8446494D01*
X11392104Y-8446494D01*
X11392104Y-8517206D01*
X11462816Y-8517206D01*
X19567456Y-8505756D02*
X19567456Y-8435044D01*
X19496744Y-8435044D01*
X19496744Y-8505756D01*
X19567456Y-8505756D01*
X19567456Y-8759756D02*
X19567456Y-8689044D01*
X19496744Y-8689044D01*
X19496744Y-8759756D01*
X19567456Y-8759756D01*
X19567456Y-9013756D02*
X19567456Y-8943044D01*
X19496744Y-8943044D01*
X19496744Y-9013756D01*
X19567456Y-9013756D01*
X19567456Y-9267756D02*
X19567456Y-9197044D01*
X19496744Y-9197044D01*
X19496744Y-9267756D01*
X19567456Y-9267756D01*
X19567456Y-9521756D02*
X19567456Y-9451044D01*
X19496744Y-9451044D01*
X19496744Y-9521756D01*
X19567456Y-9521756D01*
X19567456Y-9775756D02*
X19567456Y-9705044D01*
X19496744Y-9705044D01*
X19496744Y-9775756D01*
X19567456Y-9775756D01*
X19567456Y-10029756D02*
X19567456Y-9959044D01*
X19496744Y-9959044D01*
X19496744Y-10029756D01*
X19567456Y-10029756D01*
X19821456Y-8505756D02*
X19821456Y-8435044D01*
X19750744Y-8435044D01*
X19750744Y-8505756D01*
X19821456Y-8505756D01*
X19821456Y-8759756D02*
X19821456Y-8689044D01*
X19750744Y-8689044D01*
X19750744Y-8759756D01*
X19821456Y-8759756D01*
X19821456Y-9013756D02*
X19821456Y-8943044D01*
X19750744Y-8943044D01*
X19750744Y-9013756D01*
X19821456Y-9013756D01*
X19821456Y-9267756D02*
X19821456Y-9197044D01*
X19750744Y-9197044D01*
X19750744Y-9267756D01*
X19821456Y-9267756D01*
X19821456Y-9521756D02*
X19821456Y-9451044D01*
X19750744Y-9451044D01*
X19750744Y-9521756D01*
X19821456Y-9521756D01*
X19821456Y-9775756D02*
X19821456Y-9705044D01*
X19750744Y-9705044D01*
X19750744Y-9775756D01*
X19821456Y-9775756D01*
X19821456Y-10029756D02*
X19821456Y-9959044D01*
X19750744Y-9959044D01*
X19750744Y-10029756D01*
X19821456Y-10029756D01*
D15*
X14630400Y-7353300D02*
X14681200Y-7302500D01*
X14630400Y-7251700D01*
X14579600Y-7302500D01*
X14630400Y-7353300D01*
X14630400Y-7606646D02*
X14681200Y-7555846D01*
X14630400Y-7505046D01*
X14579600Y-7555846D01*
X14630400Y-7606646D01*
X14881860Y-7353300D02*
X14932660Y-7302500D01*
X14881860Y-7251700D01*
X14831060Y-7302500D01*
X14881860Y-7353300D01*
X14884400Y-7606646D02*
X14935200Y-7555846D01*
X14884400Y-7505046D01*
X14833600Y-7555846D01*
X14884400Y-7606646D01*
X15138400Y-7353300D02*
X15189200Y-7302500D01*
X15138400Y-7251700D01*
X15087600Y-7302500D01*
X15138400Y-7353300D01*
X15138400Y-7606646D02*
X15189200Y-7555846D01*
X15138400Y-7505046D01*
X15087600Y-7555846D01*
X15138400Y-7606646D01*
X15646400Y-7606646D02*
X15697200Y-7555846D01*
X15646400Y-7505046D01*
X15595600Y-7555846D01*
X15646400Y-7606646D01*
X16916400Y-7606646D02*
X16967200Y-7555846D01*
X16916400Y-7505046D01*
X16865600Y-7555846D01*
X16916400Y-7606646D01*
X18928494Y-7606646D02*
X18979294Y-7555846D01*
X18928494Y-7505046D01*
X18877694Y-7555846D01*
X18928494Y-7606646D01*
X19182494Y-7606646D02*
X19233294Y-7555846D01*
X19182494Y-7505046D01*
X19131694Y-7555846D01*
X19182494Y-7606646D01*
X19443700Y-7350760D02*
X19494500Y-7299960D01*
X19443700Y-7249160D01*
X19392900Y-7299960D01*
X19443700Y-7350760D01*
X19443700Y-7602220D02*
X19494500Y-7551420D01*
X19443700Y-7500620D01*
X19392900Y-7551420D01*
X19443700Y-7602220D01*
D10*
X10068419Y-14016476D02*
X10068419Y-13816476D01*
X10116038Y-13816476D01*
X10144610Y-13826000D01*
X10163657Y-13845048D01*
X10173181Y-13864095D01*
X10182705Y-13902190D01*
X10182705Y-13930762D01*
X10173181Y-13968857D01*
X10163657Y-13987905D01*
X10144610Y-14006952D01*
X10116038Y-14016476D01*
X10068419Y-14016476D01*
X10268419Y-14016476D02*
X10268419Y-13883143D01*
X10268419Y-13921238D02*
X10277943Y-13902190D01*
X10287467Y-13892667D01*
X10306514Y-13883143D01*
X10325562Y-13883143D01*
X10392229Y-14016476D02*
X10392229Y-13883143D01*
X10392229Y-13816476D02*
X10382705Y-13826000D01*
X10392229Y-13835524D01*
X10401752Y-13826000D01*
X10392229Y-13816476D01*
X10392229Y-13835524D01*
X10516038Y-14016476D02*
X10496990Y-14006952D01*
X10487467Y-13987905D01*
X10487467Y-13816476D01*
X10620800Y-14016476D02*
X10601752Y-14006952D01*
X10592229Y-13987905D01*
X10592229Y-13816476D01*
X10849371Y-14016476D02*
X10849371Y-13816476D01*
X10916038Y-13959333D01*
X10982705Y-13816476D01*
X10982705Y-14016476D01*
X11163657Y-14016476D02*
X11163657Y-13911714D01*
X11154133Y-13892667D01*
X11135086Y-13883143D01*
X11096990Y-13883143D01*
X11077943Y-13892667D01*
X11163657Y-14006952D02*
X11144610Y-14016476D01*
X11096990Y-14016476D01*
X11077943Y-14006952D01*
X11068419Y-13987905D01*
X11068419Y-13968857D01*
X11077943Y-13949809D01*
X11096990Y-13940286D01*
X11144610Y-13940286D01*
X11163657Y-13930762D01*
X11258895Y-13883143D02*
X11258895Y-14083143D01*
X11258895Y-13892667D02*
X11277943Y-13883143D01*
X11316038Y-13883143D01*
X11335086Y-13892667D01*
X11344609Y-13902190D01*
X11354133Y-13921238D01*
X11354133Y-13978381D01*
X11344609Y-13997428D01*
X11335086Y-14006952D01*
X11316038Y-14016476D01*
X11277943Y-14016476D01*
X11258895Y-14006952D01*
X11439848Y-13997428D02*
X11449371Y-14006952D01*
X11439848Y-14016476D01*
X11430324Y-14006952D01*
X11439848Y-13997428D01*
X11439848Y-14016476D01*
X11439848Y-13892667D02*
X11449371Y-13902190D01*
X11439848Y-13911714D01*
X11430324Y-13902190D01*
X11439848Y-13892667D01*
X11439848Y-13911714D01*
D11*
X9770800Y-14326000D02*
X9810800Y-14366000D01*
X9810800Y-14326000D02*
X9770800Y-14366000D01*
D10*
X10106514Y-14236476D02*
X10125562Y-14236476D01*
X10144610Y-14246000D01*
X10154133Y-14255524D01*
X10163657Y-14274571D01*
X10173181Y-14312667D01*
X10173181Y-14360286D01*
X10163657Y-14398381D01*
X10154133Y-14417428D01*
X10144610Y-14426952D01*
X10125562Y-14436476D01*
X10106514Y-14436476D01*
X10087467Y-14426952D01*
X10077943Y-14417428D01*
X10068419Y-14398381D01*
X10058895Y-14360286D01*
X10058895Y-14312667D01*
X10068419Y-14274571D01*
X10077943Y-14255524D01*
X10087467Y-14246000D01*
X10106514Y-14236476D01*
X10258895Y-14417428D02*
X10268419Y-14426952D01*
X10258895Y-14436476D01*
X10249371Y-14426952D01*
X10258895Y-14417428D01*
X10258895Y-14436476D01*
X10439848Y-14303143D02*
X10439848Y-14436476D01*
X10392229Y-14226952D02*
X10344610Y-14369809D01*
X10468419Y-14369809D01*
X10582705Y-14236476D02*
X10601752Y-14236476D01*
X10620800Y-14246000D01*
X10630324Y-14255524D01*
X10639848Y-14274571D01*
X10649371Y-14312667D01*
X10649371Y-14360286D01*
X10639848Y-14398381D01*
X10630324Y-14417428D01*
X10620800Y-14426952D01*
X10601752Y-14436476D01*
X10582705Y-14436476D01*
X10563657Y-14426952D01*
X10554133Y-14417428D01*
X10544610Y-14398381D01*
X10535086Y-14360286D01*
X10535086Y-14312667D01*
X10544610Y-14274571D01*
X10554133Y-14255524D01*
X10563657Y-14246000D01*
X10582705Y-14236476D01*
X10773181Y-14236476D02*
X10792229Y-14236476D01*
X10811276Y-14246000D01*
X10820800Y-14255524D01*
X10830324Y-14274571D01*
X10839848Y-14312667D01*
X10839848Y-14360286D01*
X10830324Y-14398381D01*
X10820800Y-14417428D01*
X10811276Y-14426952D01*
X10792229Y-14436476D01*
X10773181Y-14436476D01*
X10754133Y-14426952D01*
X10744610Y-14417428D01*
X10735086Y-14398381D01*
X10725562Y-14360286D01*
X10725562Y-14312667D01*
X10735086Y-14274571D01*
X10744610Y-14255524D01*
X10754133Y-14246000D01*
X10773181Y-14236476D01*
X10925562Y-14436476D02*
X10925562Y-14303143D01*
X10925562Y-14322190D02*
X10935086Y-14312667D01*
X10954133Y-14303143D01*
X10982705Y-14303143D01*
X11001752Y-14312667D01*
X11011276Y-14331714D01*
X11011276Y-14436476D01*
X11011276Y-14331714D02*
X11020800Y-14312667D01*
X11039848Y-14303143D01*
X11068419Y-14303143D01*
X11087467Y-14312667D01*
X11096990Y-14331714D01*
X11096990Y-14436476D01*
X11192228Y-14436476D02*
X11192228Y-14303143D01*
X11192228Y-14322190D02*
X11201752Y-14312667D01*
X11220800Y-14303143D01*
X11249371Y-14303143D01*
X11268419Y-14312667D01*
X11277943Y-14331714D01*
X11277943Y-14436476D01*
X11277943Y-14331714D02*
X11287467Y-14312667D01*
X11306514Y-14303143D01*
X11335086Y-14303143D01*
X11354133Y-14312667D01*
X11363657Y-14331714D01*
X11363657Y-14436476D01*
X11754133Y-14226952D02*
X11582705Y-14484095D01*
X12011276Y-14236476D02*
X12030324Y-14236476D01*
X12049371Y-14246000D01*
X12058895Y-14255524D01*
X12068419Y-14274571D01*
X12077943Y-14312667D01*
X12077943Y-14360286D01*
X12068419Y-14398381D01*
X12058895Y-14417428D01*
X12049371Y-14426952D01*
X12030324Y-14436476D01*
X12011276Y-14436476D01*
X11992228Y-14426952D01*
X11982705Y-14417428D01*
X11973181Y-14398381D01*
X11963657Y-14360286D01*
X11963657Y-14312667D01*
X11973181Y-14274571D01*
X11982705Y-14255524D01*
X11992228Y-14246000D01*
X12011276Y-14236476D01*
X12163657Y-14417428D02*
X12173181Y-14426952D01*
X12163657Y-14436476D01*
X12154133Y-14426952D01*
X12163657Y-14417428D01*
X12163657Y-14436476D01*
X12296990Y-14236476D02*
X12316038Y-14236476D01*
X12335086Y-14246000D01*
X12344609Y-14255524D01*
X12354133Y-14274571D01*
X12363657Y-14312667D01*
X12363657Y-14360286D01*
X12354133Y-14398381D01*
X12344609Y-14417428D01*
X12335086Y-14426952D01*
X12316038Y-14436476D01*
X12296990Y-14436476D01*
X12277943Y-14426952D01*
X12268419Y-14417428D01*
X12258895Y-14398381D01*
X12249371Y-14360286D01*
X12249371Y-14312667D01*
X12258895Y-14274571D01*
X12268419Y-14255524D01*
X12277943Y-14246000D01*
X12296990Y-14236476D01*
X12554133Y-14436476D02*
X12439848Y-14436476D01*
X12496990Y-14436476D02*
X12496990Y-14236476D01*
X12477943Y-14265048D01*
X12458895Y-14284095D01*
X12439848Y-14293619D01*
X12735086Y-14236476D02*
X12639848Y-14236476D01*
X12630324Y-14331714D01*
X12639848Y-14322190D01*
X12658895Y-14312667D01*
X12706514Y-14312667D01*
X12725562Y-14322190D01*
X12735086Y-14331714D01*
X12744609Y-14350762D01*
X12744609Y-14398381D01*
X12735086Y-14417428D01*
X12725562Y-14426952D01*
X12706514Y-14436476D01*
X12658895Y-14436476D01*
X12639848Y-14426952D01*
X12630324Y-14417428D01*
X12811276Y-14236476D02*
X12944609Y-14236476D01*
X12858895Y-14436476D01*
X13011276Y-14236476D02*
X13011276Y-14274571D01*
X13087467Y-14236476D02*
X13087467Y-14274571D01*
X13382705Y-14512667D02*
X13373181Y-14503143D01*
X13354133Y-14474571D01*
X13344609Y-14455524D01*
X13335086Y-14426952D01*
X13325562Y-14379333D01*
X13325562Y-14341238D01*
X13335086Y-14293619D01*
X13344609Y-14265048D01*
X13354133Y-14246000D01*
X13373181Y-14217428D01*
X13382705Y-14207905D01*
X13544609Y-14303143D02*
X13544609Y-14436476D01*
X13496990Y-14226952D02*
X13449371Y-14369809D01*
X13573181Y-14369809D01*
X13658895Y-14436476D02*
X13696990Y-14436476D01*
X13716038Y-14426952D01*
X13725562Y-14417428D01*
X13744609Y-14388857D01*
X13754133Y-14350762D01*
X13754133Y-14274571D01*
X13744609Y-14255524D01*
X13735086Y-14246000D01*
X13716038Y-14236476D01*
X13677943Y-14236476D01*
X13658895Y-14246000D01*
X13649371Y-14255524D01*
X13639848Y-14274571D01*
X13639848Y-14322190D01*
X13649371Y-14341238D01*
X13658895Y-14350762D01*
X13677943Y-14360286D01*
X13716038Y-14360286D01*
X13735086Y-14350762D01*
X13744609Y-14341238D01*
X13754133Y-14322190D01*
X13992228Y-14436476D02*
X13992228Y-14236476D01*
X14077943Y-14436476D02*
X14077943Y-14331714D01*
X14068419Y-14312667D01*
X14049371Y-14303143D01*
X14020800Y-14303143D01*
X14001752Y-14312667D01*
X13992228Y-14322190D01*
X14201752Y-14436476D02*
X14182705Y-14426952D01*
X14173181Y-14417428D01*
X14163657Y-14398381D01*
X14163657Y-14341238D01*
X14173181Y-14322190D01*
X14182705Y-14312667D01*
X14201752Y-14303143D01*
X14230324Y-14303143D01*
X14249371Y-14312667D01*
X14258895Y-14322190D01*
X14268419Y-14341238D01*
X14268419Y-14398381D01*
X14258895Y-14417428D01*
X14249371Y-14426952D01*
X14230324Y-14436476D01*
X14201752Y-14436476D01*
X14382705Y-14436476D02*
X14363657Y-14426952D01*
X14354133Y-14407905D01*
X14354133Y-14236476D01*
X14535086Y-14426952D02*
X14516038Y-14436476D01*
X14477943Y-14436476D01*
X14458895Y-14426952D01*
X14449371Y-14407905D01*
X14449371Y-14331714D01*
X14458895Y-14312667D01*
X14477943Y-14303143D01*
X14516038Y-14303143D01*
X14535086Y-14312667D01*
X14544609Y-14331714D01*
X14544609Y-14350762D01*
X14449371Y-14369809D01*
X14620800Y-14426952D02*
X14639848Y-14436476D01*
X14677943Y-14436476D01*
X14696990Y-14426952D01*
X14706514Y-14407905D01*
X14706514Y-14398381D01*
X14696990Y-14379333D01*
X14677943Y-14369809D01*
X14649371Y-14369809D01*
X14630324Y-14360286D01*
X14620800Y-14341238D01*
X14620800Y-14331714D01*
X14630324Y-14312667D01*
X14649371Y-14303143D01*
X14677943Y-14303143D01*
X14696990Y-14312667D01*
X14773181Y-14512667D02*
X14782705Y-14503143D01*
X14801752Y-14474571D01*
X14811276Y-14455524D01*
X14820800Y-14426952D01*
X14830324Y-14379333D01*
X14830324Y-14341238D01*
X14820800Y-14293619D01*
X14811276Y-14265048D01*
X14801752Y-14246000D01*
X14782705Y-14217428D01*
X14773181Y-14207905D01*
D12*
X9810800Y-14610000D02*
G75*
G03*
X9810800Y-14610000I-40000J0D01*
G01*
D10*
X10106514Y-14500476D02*
X10125562Y-14500476D01*
X10144610Y-14510000D01*
X10154133Y-14519524D01*
X10163657Y-14538571D01*
X10173181Y-14576667D01*
X10173181Y-14624286D01*
X10163657Y-14662381D01*
X10154133Y-14681428D01*
X10144610Y-14690952D01*
X10125562Y-14700476D01*
X10106514Y-14700476D01*
X10087467Y-14690952D01*
X10077943Y-14681428D01*
X10068419Y-14662381D01*
X10058895Y-14624286D01*
X10058895Y-14576667D01*
X10068419Y-14538571D01*
X10077943Y-14519524D01*
X10087467Y-14510000D01*
X10106514Y-14500476D01*
X10258895Y-14681428D02*
X10268419Y-14690952D01*
X10258895Y-14700476D01*
X10249371Y-14690952D01*
X10258895Y-14681428D01*
X10258895Y-14700476D01*
X10382705Y-14586190D02*
X10363657Y-14576667D01*
X10354133Y-14567143D01*
X10344610Y-14548095D01*
X10344610Y-14538571D01*
X10354133Y-14519524D01*
X10363657Y-14510000D01*
X10382705Y-14500476D01*
X10420800Y-14500476D01*
X10439848Y-14510000D01*
X10449371Y-14519524D01*
X10458895Y-14538571D01*
X10458895Y-14548095D01*
X10449371Y-14567143D01*
X10439848Y-14576667D01*
X10420800Y-14586190D01*
X10382705Y-14586190D01*
X10363657Y-14595714D01*
X10354133Y-14605238D01*
X10344610Y-14624286D01*
X10344610Y-14662381D01*
X10354133Y-14681428D01*
X10363657Y-14690952D01*
X10382705Y-14700476D01*
X10420800Y-14700476D01*
X10439848Y-14690952D01*
X10449371Y-14681428D01*
X10458895Y-14662381D01*
X10458895Y-14624286D01*
X10449371Y-14605238D01*
X10439848Y-14595714D01*
X10420800Y-14586190D01*
X10582705Y-14500476D02*
X10601752Y-14500476D01*
X10620800Y-14510000D01*
X10630324Y-14519524D01*
X10639848Y-14538571D01*
X10649371Y-14576667D01*
X10649371Y-14624286D01*
X10639848Y-14662381D01*
X10630324Y-14681428D01*
X10620800Y-14690952D01*
X10601752Y-14700476D01*
X10582705Y-14700476D01*
X10563657Y-14690952D01*
X10554133Y-14681428D01*
X10544610Y-14662381D01*
X10535086Y-14624286D01*
X10535086Y-14576667D01*
X10544610Y-14538571D01*
X10554133Y-14519524D01*
X10563657Y-14510000D01*
X10582705Y-14500476D01*
X10773181Y-14500476D02*
X10792229Y-14500476D01*
X10811276Y-14510000D01*
X10820800Y-14519524D01*
X10830324Y-14538571D01*
X10839848Y-14576667D01*
X10839848Y-14624286D01*
X10830324Y-14662381D01*
X10820800Y-14681428D01*
X10811276Y-14690952D01*
X10792229Y-14700476D01*
X10773181Y-14700476D01*
X10754133Y-14690952D01*
X10744610Y-14681428D01*
X10735086Y-14662381D01*
X10725562Y-14624286D01*
X10725562Y-14576667D01*
X10735086Y-14538571D01*
X10744610Y-14519524D01*
X10754133Y-14510000D01*
X10773181Y-14500476D01*
X10925562Y-14700476D02*
X10925562Y-14567143D01*
X10925562Y-14586190D02*
X10935086Y-14576667D01*
X10954133Y-14567143D01*
X10982705Y-14567143D01*
X11001752Y-14576667D01*
X11011276Y-14595714D01*
X11011276Y-14700476D01*
X11011276Y-14595714D02*
X11020800Y-14576667D01*
X11039848Y-14567143D01*
X11068419Y-14567143D01*
X11087467Y-14576667D01*
X11096990Y-14595714D01*
X11096990Y-14700476D01*
X11192228Y-14700476D02*
X11192228Y-14567143D01*
X11192228Y-14586190D02*
X11201752Y-14576667D01*
X11220800Y-14567143D01*
X11249371Y-14567143D01*
X11268419Y-14576667D01*
X11277943Y-14595714D01*
X11277943Y-14700476D01*
X11277943Y-14595714D02*
X11287467Y-14576667D01*
X11306514Y-14567143D01*
X11335086Y-14567143D01*
X11354133Y-14576667D01*
X11363657Y-14595714D01*
X11363657Y-14700476D01*
X11754133Y-14490952D02*
X11582705Y-14748095D01*
X12011276Y-14500476D02*
X12030324Y-14500476D01*
X12049371Y-14510000D01*
X12058895Y-14519524D01*
X12068419Y-14538571D01*
X12077943Y-14576667D01*
X12077943Y-14624286D01*
X12068419Y-14662381D01*
X12058895Y-14681428D01*
X12049371Y-14690952D01*
X12030324Y-14700476D01*
X12011276Y-14700476D01*
X11992228Y-14690952D01*
X11982705Y-14681428D01*
X11973181Y-14662381D01*
X11963657Y-14624286D01*
X11963657Y-14576667D01*
X11973181Y-14538571D01*
X11982705Y-14519524D01*
X11992228Y-14510000D01*
X12011276Y-14500476D01*
X12163657Y-14681428D02*
X12173181Y-14690952D01*
X12163657Y-14700476D01*
X12154133Y-14690952D01*
X12163657Y-14681428D01*
X12163657Y-14700476D01*
X12296990Y-14500476D02*
X12316038Y-14500476D01*
X12335086Y-14510000D01*
X12344609Y-14519524D01*
X12354133Y-14538571D01*
X12363657Y-14576667D01*
X12363657Y-14624286D01*
X12354133Y-14662381D01*
X12344609Y-14681428D01*
X12335086Y-14690952D01*
X12316038Y-14700476D01*
X12296990Y-14700476D01*
X12277943Y-14690952D01*
X12268419Y-14681428D01*
X12258895Y-14662381D01*
X12249371Y-14624286D01*
X12249371Y-14576667D01*
X12258895Y-14538571D01*
X12268419Y-14519524D01*
X12277943Y-14510000D01*
X12296990Y-14500476D01*
X12430324Y-14500476D02*
X12554133Y-14500476D01*
X12487467Y-14576667D01*
X12516038Y-14576667D01*
X12535086Y-14586190D01*
X12544609Y-14595714D01*
X12554133Y-14614762D01*
X12554133Y-14662381D01*
X12544609Y-14681428D01*
X12535086Y-14690952D01*
X12516038Y-14700476D01*
X12458895Y-14700476D01*
X12439848Y-14690952D01*
X12430324Y-14681428D01*
X12744609Y-14700476D02*
X12630324Y-14700476D01*
X12687467Y-14700476D02*
X12687467Y-14500476D01*
X12668419Y-14529048D01*
X12649371Y-14548095D01*
X12630324Y-14557619D01*
X12925562Y-14500476D02*
X12830324Y-14500476D01*
X12820800Y-14595714D01*
X12830324Y-14586190D01*
X12849371Y-14576667D01*
X12896990Y-14576667D01*
X12916038Y-14586190D01*
X12925562Y-14595714D01*
X12935086Y-14614762D01*
X12935086Y-14662381D01*
X12925562Y-14681428D01*
X12916038Y-14690952D01*
X12896990Y-14700476D01*
X12849371Y-14700476D01*
X12830324Y-14690952D01*
X12820800Y-14681428D01*
X13011276Y-14500476D02*
X13011276Y-14538571D01*
X13087467Y-14500476D02*
X13087467Y-14538571D01*
X13382705Y-14776667D02*
X13373181Y-14767143D01*
X13354133Y-14738571D01*
X13344609Y-14719524D01*
X13335086Y-14690952D01*
X13325562Y-14643333D01*
X13325562Y-14605238D01*
X13335086Y-14557619D01*
X13344609Y-14529048D01*
X13354133Y-14510000D01*
X13373181Y-14481428D01*
X13382705Y-14471905D01*
X13449371Y-14519524D02*
X13458895Y-14510000D01*
X13477943Y-14500476D01*
X13525562Y-14500476D01*
X13544609Y-14510000D01*
X13554133Y-14519524D01*
X13563657Y-14538571D01*
X13563657Y-14557619D01*
X13554133Y-14586190D01*
X13439848Y-14700476D01*
X13563657Y-14700476D01*
X13677943Y-14586190D02*
X13658895Y-14576667D01*
X13649371Y-14567143D01*
X13639848Y-14548095D01*
X13639848Y-14538571D01*
X13649371Y-14519524D01*
X13658895Y-14510000D01*
X13677943Y-14500476D01*
X13716038Y-14500476D01*
X13735086Y-14510000D01*
X13744609Y-14519524D01*
X13754133Y-14538571D01*
X13754133Y-14548095D01*
X13744609Y-14567143D01*
X13735086Y-14576667D01*
X13716038Y-14586190D01*
X13677943Y-14586190D01*
X13658895Y-14595714D01*
X13649371Y-14605238D01*
X13639848Y-14624286D01*
X13639848Y-14662381D01*
X13649371Y-14681428D01*
X13658895Y-14690952D01*
X13677943Y-14700476D01*
X13716038Y-14700476D01*
X13735086Y-14690952D01*
X13744609Y-14681428D01*
X13754133Y-14662381D01*
X13754133Y-14624286D01*
X13744609Y-14605238D01*
X13735086Y-14595714D01*
X13716038Y-14586190D01*
X13992228Y-14700476D02*
X13992228Y-14500476D01*
X14077943Y-14700476D02*
X14077943Y-14595714D01*
X14068419Y-14576667D01*
X14049371Y-14567143D01*
X14020800Y-14567143D01*
X14001752Y-14576667D01*
X13992228Y-14586190D01*
X14201752Y-14700476D02*
X14182705Y-14690952D01*
X14173181Y-14681428D01*
X14163657Y-14662381D01*
X14163657Y-14605238D01*
X14173181Y-14586190D01*
X14182705Y-14576667D01*
X14201752Y-14567143D01*
X14230324Y-14567143D01*
X14249371Y-14576667D01*
X14258895Y-14586190D01*
X14268419Y-14605238D01*
X14268419Y-14662381D01*
X14258895Y-14681428D01*
X14249371Y-14690952D01*
X14230324Y-14700476D01*
X14201752Y-14700476D01*
X14382705Y-14700476D02*
X14363657Y-14690952D01*
X14354133Y-14671905D01*
X14354133Y-14500476D01*
X14535086Y-14690952D02*
X14516038Y-14700476D01*
X14477943Y-14700476D01*
X14458895Y-14690952D01*
X14449371Y-14671905D01*
X14449371Y-14595714D01*
X14458895Y-14576667D01*
X14477943Y-14567143D01*
X14516038Y-14567143D01*
X14535086Y-14576667D01*
X14544609Y-14595714D01*
X14544609Y-14614762D01*
X14449371Y-14633809D01*
X14620800Y-14690952D02*
X14639848Y-14700476D01*
X14677943Y-14700476D01*
X14696990Y-14690952D01*
X14706514Y-14671905D01*
X14706514Y-14662381D01*
X14696990Y-14643333D01*
X14677943Y-14633809D01*
X14649371Y-14633809D01*
X14630324Y-14624286D01*
X14620800Y-14605238D01*
X14620800Y-14595714D01*
X14630324Y-14576667D01*
X14649371Y-14567143D01*
X14677943Y-14567143D01*
X14696990Y-14576667D01*
X14773181Y-14776667D02*
X14782705Y-14767143D01*
X14801752Y-14738571D01*
X14811276Y-14719524D01*
X14820800Y-14690952D01*
X14830324Y-14643333D01*
X14830324Y-14605238D01*
X14820800Y-14557619D01*
X14811276Y-14529048D01*
X14801752Y-14510000D01*
X14782705Y-14481428D01*
X14773181Y-14471905D01*
D13*
X9770160Y-14833360D02*
X9770160Y-14914640D01*
X9729520Y-14874000D02*
X9810800Y-14874000D01*
D10*
X10106514Y-14764476D02*
X10125562Y-14764476D01*
X10144610Y-14774000D01*
X10154133Y-14783524D01*
X10163657Y-14802571D01*
X10173181Y-14840667D01*
X10173181Y-14888286D01*
X10163657Y-14926381D01*
X10154133Y-14945428D01*
X10144610Y-14954952D01*
X10125562Y-14964476D01*
X10106514Y-14964476D01*
X10087467Y-14954952D01*
X10077943Y-14945428D01*
X10068419Y-14926381D01*
X10058895Y-14888286D01*
X10058895Y-14840667D01*
X10068419Y-14802571D01*
X10077943Y-14783524D01*
X10087467Y-14774000D01*
X10106514Y-14764476D01*
X10258895Y-14945428D02*
X10268419Y-14954952D01*
X10258895Y-14964476D01*
X10249371Y-14954952D01*
X10258895Y-14945428D01*
X10258895Y-14964476D01*
X10382705Y-14850190D02*
X10363657Y-14840667D01*
X10354133Y-14831143D01*
X10344610Y-14812095D01*
X10344610Y-14802571D01*
X10354133Y-14783524D01*
X10363657Y-14774000D01*
X10382705Y-14764476D01*
X10420800Y-14764476D01*
X10439848Y-14774000D01*
X10449371Y-14783524D01*
X10458895Y-14802571D01*
X10458895Y-14812095D01*
X10449371Y-14831143D01*
X10439848Y-14840667D01*
X10420800Y-14850190D01*
X10382705Y-14850190D01*
X10363657Y-14859714D01*
X10354133Y-14869238D01*
X10344610Y-14888286D01*
X10344610Y-14926381D01*
X10354133Y-14945428D01*
X10363657Y-14954952D01*
X10382705Y-14964476D01*
X10420800Y-14964476D01*
X10439848Y-14954952D01*
X10449371Y-14945428D01*
X10458895Y-14926381D01*
X10458895Y-14888286D01*
X10449371Y-14869238D01*
X10439848Y-14859714D01*
X10420800Y-14850190D01*
X10649371Y-14964476D02*
X10535086Y-14964476D01*
X10592229Y-14964476D02*
X10592229Y-14764476D01*
X10573181Y-14793048D01*
X10554133Y-14812095D01*
X10535086Y-14821619D01*
X10716038Y-14764476D02*
X10839848Y-14764476D01*
X10773181Y-14840667D01*
X10801752Y-14840667D01*
X10820800Y-14850190D01*
X10830324Y-14859714D01*
X10839848Y-14878762D01*
X10839848Y-14926381D01*
X10830324Y-14945428D01*
X10820800Y-14954952D01*
X10801752Y-14964476D01*
X10744610Y-14964476D01*
X10725562Y-14954952D01*
X10716038Y-14945428D01*
X10925562Y-14964476D02*
X10925562Y-14831143D01*
X10925562Y-14850190D02*
X10935086Y-14840667D01*
X10954133Y-14831143D01*
X10982705Y-14831143D01*
X11001752Y-14840667D01*
X11011276Y-14859714D01*
X11011276Y-14964476D01*
X11011276Y-14859714D02*
X11020800Y-14840667D01*
X11039848Y-14831143D01*
X11068419Y-14831143D01*
X11087467Y-14840667D01*
X11096990Y-14859714D01*
X11096990Y-14964476D01*
X11192228Y-14964476D02*
X11192228Y-14831143D01*
X11192228Y-14850190D02*
X11201752Y-14840667D01*
X11220800Y-14831143D01*
X11249371Y-14831143D01*
X11268419Y-14840667D01*
X11277943Y-14859714D01*
X11277943Y-14964476D01*
X11277943Y-14859714D02*
X11287467Y-14840667D01*
X11306514Y-14831143D01*
X11335086Y-14831143D01*
X11354133Y-14840667D01*
X11363657Y-14859714D01*
X11363657Y-14964476D01*
X11754133Y-14754952D02*
X11582705Y-15012095D01*
X12011276Y-14764476D02*
X12030324Y-14764476D01*
X12049371Y-14774000D01*
X12058895Y-14783524D01*
X12068419Y-14802571D01*
X12077943Y-14840667D01*
X12077943Y-14888286D01*
X12068419Y-14926381D01*
X12058895Y-14945428D01*
X12049371Y-14954952D01*
X12030324Y-14964476D01*
X12011276Y-14964476D01*
X11992228Y-14954952D01*
X11982705Y-14945428D01*
X11973181Y-14926381D01*
X11963657Y-14888286D01*
X11963657Y-14840667D01*
X11973181Y-14802571D01*
X11982705Y-14783524D01*
X11992228Y-14774000D01*
X12011276Y-14764476D01*
X12163657Y-14945428D02*
X12173181Y-14954952D01*
X12163657Y-14964476D01*
X12154133Y-14954952D01*
X12163657Y-14945428D01*
X12163657Y-14964476D01*
X12296990Y-14764476D02*
X12316038Y-14764476D01*
X12335086Y-14774000D01*
X12344609Y-14783524D01*
X12354133Y-14802571D01*
X12363657Y-14840667D01*
X12363657Y-14888286D01*
X12354133Y-14926381D01*
X12344609Y-14945428D01*
X12335086Y-14954952D01*
X12316038Y-14964476D01*
X12296990Y-14964476D01*
X12277943Y-14954952D01*
X12268419Y-14945428D01*
X12258895Y-14926381D01*
X12249371Y-14888286D01*
X12249371Y-14840667D01*
X12258895Y-14802571D01*
X12268419Y-14783524D01*
X12277943Y-14774000D01*
X12296990Y-14764476D01*
X12430324Y-14764476D02*
X12554133Y-14764476D01*
X12487467Y-14840667D01*
X12516038Y-14840667D01*
X12535086Y-14850190D01*
X12544609Y-14859714D01*
X12554133Y-14878762D01*
X12554133Y-14926381D01*
X12544609Y-14945428D01*
X12535086Y-14954952D01*
X12516038Y-14964476D01*
X12458895Y-14964476D01*
X12439848Y-14954952D01*
X12430324Y-14945428D01*
X12630324Y-14783524D02*
X12639848Y-14774000D01*
X12658895Y-14764476D01*
X12706514Y-14764476D01*
X12725562Y-14774000D01*
X12735086Y-14783524D01*
X12744609Y-14802571D01*
X12744609Y-14821619D01*
X12735086Y-14850190D01*
X12620800Y-14964476D01*
X12744609Y-14964476D01*
X12868419Y-14764476D02*
X12887467Y-14764476D01*
X12906514Y-14774000D01*
X12916038Y-14783524D01*
X12925562Y-14802571D01*
X12935086Y-14840667D01*
X12935086Y-14888286D01*
X12925562Y-14926381D01*
X12916038Y-14945428D01*
X12906514Y-14954952D01*
X12887467Y-14964476D01*
X12868419Y-14964476D01*
X12849371Y-14954952D01*
X12839848Y-14945428D01*
X12830324Y-14926381D01*
X12820800Y-14888286D01*
X12820800Y-14840667D01*
X12830324Y-14802571D01*
X12839848Y-14783524D01*
X12849371Y-14774000D01*
X12868419Y-14764476D01*
X13011276Y-14764476D02*
X13011276Y-14802571D01*
X13087467Y-14764476D02*
X13087467Y-14802571D01*
X13382705Y-15040667D02*
X13373181Y-15031143D01*
X13354133Y-15002571D01*
X13344609Y-14983524D01*
X13335086Y-14954952D01*
X13325562Y-14907333D01*
X13325562Y-14869238D01*
X13335086Y-14821619D01*
X13344609Y-14793048D01*
X13354133Y-14774000D01*
X13373181Y-14745428D01*
X13382705Y-14735905D01*
X13487467Y-14850190D02*
X13468419Y-14840667D01*
X13458895Y-14831143D01*
X13449371Y-14812095D01*
X13449371Y-14802571D01*
X13458895Y-14783524D01*
X13468419Y-14774000D01*
X13487467Y-14764476D01*
X13525562Y-14764476D01*
X13544609Y-14774000D01*
X13554133Y-14783524D01*
X13563657Y-14802571D01*
X13563657Y-14812095D01*
X13554133Y-14831143D01*
X13544609Y-14840667D01*
X13525562Y-14850190D01*
X13487467Y-14850190D01*
X13468419Y-14859714D01*
X13458895Y-14869238D01*
X13449371Y-14888286D01*
X13449371Y-14926381D01*
X13458895Y-14945428D01*
X13468419Y-14954952D01*
X13487467Y-14964476D01*
X13525562Y-14964476D01*
X13544609Y-14954952D01*
X13554133Y-14945428D01*
X13563657Y-14926381D01*
X13563657Y-14888286D01*
X13554133Y-14869238D01*
X13544609Y-14859714D01*
X13525562Y-14850190D01*
X13687467Y-14764476D02*
X13706514Y-14764476D01*
X13725562Y-14774000D01*
X13735086Y-14783524D01*
X13744609Y-14802571D01*
X13754133Y-14840667D01*
X13754133Y-14888286D01*
X13744609Y-14926381D01*
X13735086Y-14945428D01*
X13725562Y-14954952D01*
X13706514Y-14964476D01*
X13687467Y-14964476D01*
X13668419Y-14954952D01*
X13658895Y-14945428D01*
X13649371Y-14926381D01*
X13639848Y-14888286D01*
X13639848Y-14840667D01*
X13649371Y-14802571D01*
X13658895Y-14783524D01*
X13668419Y-14774000D01*
X13687467Y-14764476D01*
X13992228Y-14964476D02*
X13992228Y-14764476D01*
X14077943Y-14964476D02*
X14077943Y-14859714D01*
X14068419Y-14840667D01*
X14049371Y-14831143D01*
X14020800Y-14831143D01*
X14001752Y-14840667D01*
X13992228Y-14850190D01*
X14201752Y-14964476D02*
X14182705Y-14954952D01*
X14173181Y-14945428D01*
X14163657Y-14926381D01*
X14163657Y-14869238D01*
X14173181Y-14850190D01*
X14182705Y-14840667D01*
X14201752Y-14831143D01*
X14230324Y-14831143D01*
X14249371Y-14840667D01*
X14258895Y-14850190D01*
X14268419Y-14869238D01*
X14268419Y-14926381D01*
X14258895Y-14945428D01*
X14249371Y-14954952D01*
X14230324Y-14964476D01*
X14201752Y-14964476D01*
X14382705Y-14964476D02*
X14363657Y-14954952D01*
X14354133Y-14935905D01*
X14354133Y-14764476D01*
X14535086Y-14954952D02*
X14516038Y-14964476D01*
X14477943Y-14964476D01*
X14458895Y-14954952D01*
X14449371Y-14935905D01*
X14449371Y-14859714D01*
X14458895Y-14840667D01*
X14477943Y-14831143D01*
X14516038Y-14831143D01*
X14535086Y-14840667D01*
X14544609Y-14859714D01*
X14544609Y-14878762D01*
X14449371Y-14897809D01*
X14620800Y-14954952D02*
X14639848Y-14964476D01*
X14677943Y-14964476D01*
X14696990Y-14954952D01*
X14706514Y-14935905D01*
X14706514Y-14926381D01*
X14696990Y-14907333D01*
X14677943Y-14897809D01*
X14649371Y-14897809D01*
X14630324Y-14888286D01*
X14620800Y-14869238D01*
X14620800Y-14859714D01*
X14630324Y-14840667D01*
X14649371Y-14831143D01*
X14677943Y-14831143D01*
X14696990Y-14840667D01*
X14773181Y-15040667D02*
X14782705Y-15031143D01*
X14801752Y-15002571D01*
X14811276Y-14983524D01*
X14820800Y-14954952D01*
X14830324Y-14907333D01*
X14830324Y-14869238D01*
X14820800Y-14821619D01*
X14811276Y-14793048D01*
X14801752Y-14774000D01*
X14782705Y-14745428D01*
X14773181Y-14735905D01*
D14*
X9796156Y-15173356D02*
X9796156Y-15102644D01*
X9725444Y-15102644D01*
X9725444Y-15173356D01*
X9796156Y-15173356D01*
D10*
X10173181Y-15228476D02*
X10058895Y-15228476D01*
X10116038Y-15228476D02*
X10116038Y-15028476D01*
X10096990Y-15057048D01*
X10077943Y-15076095D01*
X10058895Y-15085619D01*
X10258895Y-15209428D02*
X10268419Y-15218952D01*
X10258895Y-15228476D01*
X10249371Y-15218952D01*
X10258895Y-15209428D01*
X10258895Y-15228476D01*
X10392229Y-15028476D02*
X10411276Y-15028476D01*
X10430324Y-15038000D01*
X10439848Y-15047524D01*
X10449371Y-15066571D01*
X10458895Y-15104667D01*
X10458895Y-15152286D01*
X10449371Y-15190381D01*
X10439848Y-15209428D01*
X10430324Y-15218952D01*
X10411276Y-15228476D01*
X10392229Y-15228476D01*
X10373181Y-15218952D01*
X10363657Y-15209428D01*
X10354133Y-15190381D01*
X10344610Y-15152286D01*
X10344610Y-15104667D01*
X10354133Y-15066571D01*
X10363657Y-15047524D01*
X10373181Y-15038000D01*
X10392229Y-15028476D01*
X10582705Y-15028476D02*
X10601752Y-15028476D01*
X10620800Y-15038000D01*
X10630324Y-15047524D01*
X10639848Y-15066571D01*
X10649371Y-15104667D01*
X10649371Y-15152286D01*
X10639848Y-15190381D01*
X10630324Y-15209428D01*
X10620800Y-15218952D01*
X10601752Y-15228476D01*
X10582705Y-15228476D01*
X10563657Y-15218952D01*
X10554133Y-15209428D01*
X10544610Y-15190381D01*
X10535086Y-15152286D01*
X10535086Y-15104667D01*
X10544610Y-15066571D01*
X10554133Y-15047524D01*
X10563657Y-15038000D01*
X10582705Y-15028476D01*
X10773181Y-15028476D02*
X10792229Y-15028476D01*
X10811276Y-15038000D01*
X10820800Y-15047524D01*
X10830324Y-15066571D01*
X10839848Y-15104667D01*
X10839848Y-15152286D01*
X10830324Y-15190381D01*
X10820800Y-15209428D01*
X10811276Y-15218952D01*
X10792229Y-15228476D01*
X10773181Y-15228476D01*
X10754133Y-15218952D01*
X10744610Y-15209428D01*
X10735086Y-15190381D01*
X10725562Y-15152286D01*
X10725562Y-15104667D01*
X10735086Y-15066571D01*
X10744610Y-15047524D01*
X10754133Y-15038000D01*
X10773181Y-15028476D01*
X10925562Y-15228476D02*
X10925562Y-15095143D01*
X10925562Y-15114190D02*
X10935086Y-15104667D01*
X10954133Y-15095143D01*
X10982705Y-15095143D01*
X11001752Y-15104667D01*
X11011276Y-15123714D01*
X11011276Y-15228476D01*
X11011276Y-15123714D02*
X11020800Y-15104667D01*
X11039848Y-15095143D01*
X11068419Y-15095143D01*
X11087467Y-15104667D01*
X11096990Y-15123714D01*
X11096990Y-15228476D01*
X11192228Y-15228476D02*
X11192228Y-15095143D01*
X11192228Y-15114190D02*
X11201752Y-15104667D01*
X11220800Y-15095143D01*
X11249371Y-15095143D01*
X11268419Y-15104667D01*
X11277943Y-15123714D01*
X11277943Y-15228476D01*
X11277943Y-15123714D02*
X11287467Y-15104667D01*
X11306514Y-15095143D01*
X11335086Y-15095143D01*
X11354133Y-15104667D01*
X11363657Y-15123714D01*
X11363657Y-15228476D01*
X11754133Y-15018952D02*
X11582705Y-15276095D01*
X12011276Y-15028476D02*
X12030324Y-15028476D01*
X12049371Y-15038000D01*
X12058895Y-15047524D01*
X12068419Y-15066571D01*
X12077943Y-15104667D01*
X12077943Y-15152286D01*
X12068419Y-15190381D01*
X12058895Y-15209428D01*
X12049371Y-15218952D01*
X12030324Y-15228476D01*
X12011276Y-15228476D01*
X11992228Y-15218952D01*
X11982705Y-15209428D01*
X11973181Y-15190381D01*
X11963657Y-15152286D01*
X11963657Y-15104667D01*
X11973181Y-15066571D01*
X11982705Y-15047524D01*
X11992228Y-15038000D01*
X12011276Y-15028476D01*
X12163657Y-15209428D02*
X12173181Y-15218952D01*
X12163657Y-15228476D01*
X12154133Y-15218952D01*
X12163657Y-15209428D01*
X12163657Y-15228476D01*
X12296990Y-15028476D02*
X12316038Y-15028476D01*
X12335086Y-15038000D01*
X12344609Y-15047524D01*
X12354133Y-15066571D01*
X12363657Y-15104667D01*
X12363657Y-15152286D01*
X12354133Y-15190381D01*
X12344609Y-15209428D01*
X12335086Y-15218952D01*
X12316038Y-15228476D01*
X12296990Y-15228476D01*
X12277943Y-15218952D01*
X12268419Y-15209428D01*
X12258895Y-15190381D01*
X12249371Y-15152286D01*
X12249371Y-15104667D01*
X12258895Y-15066571D01*
X12268419Y-15047524D01*
X12277943Y-15038000D01*
X12296990Y-15028476D01*
X12430324Y-15028476D02*
X12554133Y-15028476D01*
X12487467Y-15104667D01*
X12516038Y-15104667D01*
X12535086Y-15114190D01*
X12544609Y-15123714D01*
X12554133Y-15142762D01*
X12554133Y-15190381D01*
X12544609Y-15209428D01*
X12535086Y-15218952D01*
X12516038Y-15228476D01*
X12458895Y-15228476D01*
X12439848Y-15218952D01*
X12430324Y-15209428D01*
X12649371Y-15228476D02*
X12687467Y-15228476D01*
X12706514Y-15218952D01*
X12716038Y-15209428D01*
X12735086Y-15180857D01*
X12744609Y-15142762D01*
X12744609Y-15066571D01*
X12735086Y-15047524D01*
X12725562Y-15038000D01*
X12706514Y-15028476D01*
X12668419Y-15028476D01*
X12649371Y-15038000D01*
X12639848Y-15047524D01*
X12630324Y-15066571D01*
X12630324Y-15114190D01*
X12639848Y-15133238D01*
X12649371Y-15142762D01*
X12668419Y-15152286D01*
X12706514Y-15152286D01*
X12725562Y-15142762D01*
X12735086Y-15133238D01*
X12744609Y-15114190D01*
X12916038Y-15095143D02*
X12916038Y-15228476D01*
X12868419Y-15018952D02*
X12820800Y-15161809D01*
X12944609Y-15161809D01*
X13011276Y-15028476D02*
X13011276Y-15066571D01*
X13087467Y-15028476D02*
X13087467Y-15066571D01*
X13382705Y-15304667D02*
X13373181Y-15295143D01*
X13354133Y-15266571D01*
X13344609Y-15247524D01*
X13335086Y-15218952D01*
X13325562Y-15171333D01*
X13325562Y-15133238D01*
X13335086Y-15085619D01*
X13344609Y-15057048D01*
X13354133Y-15038000D01*
X13373181Y-15009428D01*
X13382705Y-14999905D01*
X13449371Y-15047524D02*
X13458895Y-15038000D01*
X13477943Y-15028476D01*
X13525562Y-15028476D01*
X13544609Y-15038000D01*
X13554133Y-15047524D01*
X13563657Y-15066571D01*
X13563657Y-15085619D01*
X13554133Y-15114190D01*
X13439848Y-15228476D01*
X13563657Y-15228476D01*
X13735086Y-15095143D02*
X13735086Y-15228476D01*
X13687467Y-15018952D02*
X13639848Y-15161809D01*
X13763657Y-15161809D01*
X13992228Y-15228476D02*
X13992228Y-15028476D01*
X14077943Y-15228476D02*
X14077943Y-15123714D01*
X14068419Y-15104667D01*
X14049371Y-15095143D01*
X14020800Y-15095143D01*
X14001752Y-15104667D01*
X13992228Y-15114190D01*
X14201752Y-15228476D02*
X14182705Y-15218952D01*
X14173181Y-15209428D01*
X14163657Y-15190381D01*
X14163657Y-15133238D01*
X14173181Y-15114190D01*
X14182705Y-15104667D01*
X14201752Y-15095143D01*
X14230324Y-15095143D01*
X14249371Y-15104667D01*
X14258895Y-15114190D01*
X14268419Y-15133238D01*
X14268419Y-15190381D01*
X14258895Y-15209428D01*
X14249371Y-15218952D01*
X14230324Y-15228476D01*
X14201752Y-15228476D01*
X14382705Y-15228476D02*
X14363657Y-15218952D01*
X14354133Y-15199905D01*
X14354133Y-15028476D01*
X14535086Y-15218952D02*
X14516038Y-15228476D01*
X14477943Y-15228476D01*
X14458895Y-15218952D01*
X14449371Y-15199905D01*
X14449371Y-15123714D01*
X14458895Y-15104667D01*
X14477943Y-15095143D01*
X14516038Y-15095143D01*
X14535086Y-15104667D01*
X14544609Y-15123714D01*
X14544609Y-15142762D01*
X14449371Y-15161809D01*
X14620800Y-15218952D02*
X14639848Y-15228476D01*
X14677943Y-15228476D01*
X14696990Y-15218952D01*
X14706514Y-15199905D01*
X14706514Y-15190381D01*
X14696990Y-15171333D01*
X14677943Y-15161809D01*
X14649371Y-15161809D01*
X14630324Y-15152286D01*
X14620800Y-15133238D01*
X14620800Y-15123714D01*
X14630324Y-15104667D01*
X14649371Y-15095143D01*
X14677943Y-15095143D01*
X14696990Y-15104667D01*
X14773181Y-15304667D02*
X14782705Y-15295143D01*
X14801752Y-15266571D01*
X14811276Y-15247524D01*
X14820800Y-15218952D01*
X14830324Y-15171333D01*
X14830324Y-15133238D01*
X14820800Y-15085619D01*
X14811276Y-15057048D01*
X14801752Y-15038000D01*
X14782705Y-15009428D01*
X14773181Y-14999905D01*
D15*
X9760000Y-15452800D02*
X9810800Y-15402000D01*
X9760000Y-15351200D01*
X9709200Y-15402000D01*
X9760000Y-15452800D01*
D10*
X10173181Y-15492476D02*
X10058895Y-15492476D01*
X10116038Y-15492476D02*
X10116038Y-15292476D01*
X10096990Y-15321048D01*
X10077943Y-15340095D01*
X10058895Y-15349619D01*
X10258895Y-15473428D02*
X10268419Y-15482952D01*
X10258895Y-15492476D01*
X10249371Y-15482952D01*
X10258895Y-15473428D01*
X10258895Y-15492476D01*
X10392229Y-15292476D02*
X10411276Y-15292476D01*
X10430324Y-15302000D01*
X10439848Y-15311524D01*
X10449371Y-15330571D01*
X10458895Y-15368667D01*
X10458895Y-15416286D01*
X10449371Y-15454381D01*
X10439848Y-15473428D01*
X10430324Y-15482952D01*
X10411276Y-15492476D01*
X10392229Y-15492476D01*
X10373181Y-15482952D01*
X10363657Y-15473428D01*
X10354133Y-15454381D01*
X10344610Y-15416286D01*
X10344610Y-15368667D01*
X10354133Y-15330571D01*
X10363657Y-15311524D01*
X10373181Y-15302000D01*
X10392229Y-15292476D01*
X10649371Y-15492476D02*
X10535086Y-15492476D01*
X10592229Y-15492476D02*
X10592229Y-15292476D01*
X10573181Y-15321048D01*
X10554133Y-15340095D01*
X10535086Y-15349619D01*
X10820800Y-15292476D02*
X10782705Y-15292476D01*
X10763657Y-15302000D01*
X10754133Y-15311524D01*
X10735086Y-15340095D01*
X10725562Y-15378190D01*
X10725562Y-15454381D01*
X10735086Y-15473428D01*
X10744610Y-15482952D01*
X10763657Y-15492476D01*
X10801752Y-15492476D01*
X10820800Y-15482952D01*
X10830324Y-15473428D01*
X10839848Y-15454381D01*
X10839848Y-15406762D01*
X10830324Y-15387714D01*
X10820800Y-15378190D01*
X10801752Y-15368667D01*
X10763657Y-15368667D01*
X10744610Y-15378190D01*
X10735086Y-15387714D01*
X10725562Y-15406762D01*
X10925562Y-15492476D02*
X10925562Y-15359143D01*
X10925562Y-15378190D02*
X10935086Y-15368667D01*
X10954133Y-15359143D01*
X10982705Y-15359143D01*
X11001752Y-15368667D01*
X11011276Y-15387714D01*
X11011276Y-15492476D01*
X11011276Y-15387714D02*
X11020800Y-15368667D01*
X11039848Y-15359143D01*
X11068419Y-15359143D01*
X11087467Y-15368667D01*
X11096990Y-15387714D01*
X11096990Y-15492476D01*
X11192228Y-15492476D02*
X11192228Y-15359143D01*
X11192228Y-15378190D02*
X11201752Y-15368667D01*
X11220800Y-15359143D01*
X11249371Y-15359143D01*
X11268419Y-15368667D01*
X11277943Y-15387714D01*
X11277943Y-15492476D01*
X11277943Y-15387714D02*
X11287467Y-15368667D01*
X11306514Y-15359143D01*
X11335086Y-15359143D01*
X11354133Y-15368667D01*
X11363657Y-15387714D01*
X11363657Y-15492476D01*
X11754133Y-15282952D02*
X11582705Y-15540095D01*
X12011276Y-15292476D02*
X12030324Y-15292476D01*
X12049371Y-15302000D01*
X12058895Y-15311524D01*
X12068419Y-15330571D01*
X12077943Y-15368667D01*
X12077943Y-15416286D01*
X12068419Y-15454381D01*
X12058895Y-15473428D01*
X12049371Y-15482952D01*
X12030324Y-15492476D01*
X12011276Y-15492476D01*
X11992228Y-15482952D01*
X11982705Y-15473428D01*
X11973181Y-15454381D01*
X11963657Y-15416286D01*
X11963657Y-15368667D01*
X11973181Y-15330571D01*
X11982705Y-15311524D01*
X11992228Y-15302000D01*
X12011276Y-15292476D01*
X12163657Y-15473428D02*
X12173181Y-15482952D01*
X12163657Y-15492476D01*
X12154133Y-15482952D01*
X12163657Y-15473428D01*
X12163657Y-15492476D01*
X12296990Y-15292476D02*
X12316038Y-15292476D01*
X12335086Y-15302000D01*
X12344609Y-15311524D01*
X12354133Y-15330571D01*
X12363657Y-15368667D01*
X12363657Y-15416286D01*
X12354133Y-15454381D01*
X12344609Y-15473428D01*
X12335086Y-15482952D01*
X12316038Y-15492476D01*
X12296990Y-15492476D01*
X12277943Y-15482952D01*
X12268419Y-15473428D01*
X12258895Y-15454381D01*
X12249371Y-15416286D01*
X12249371Y-15368667D01*
X12258895Y-15330571D01*
X12268419Y-15311524D01*
X12277943Y-15302000D01*
X12296990Y-15292476D01*
X12535086Y-15359143D02*
X12535086Y-15492476D01*
X12487467Y-15282952D02*
X12439848Y-15425809D01*
X12563657Y-15425809D01*
X12677943Y-15292476D02*
X12696990Y-15292476D01*
X12716038Y-15302000D01*
X12725562Y-15311524D01*
X12735086Y-15330571D01*
X12744609Y-15368667D01*
X12744609Y-15416286D01*
X12735086Y-15454381D01*
X12725562Y-15473428D01*
X12716038Y-15482952D01*
X12696990Y-15492476D01*
X12677943Y-15492476D01*
X12658895Y-15482952D01*
X12649371Y-15473428D01*
X12639848Y-15454381D01*
X12630324Y-15416286D01*
X12630324Y-15368667D01*
X12639848Y-15330571D01*
X12649371Y-15311524D01*
X12658895Y-15302000D01*
X12677943Y-15292476D01*
X12868419Y-15292476D02*
X12887467Y-15292476D01*
X12906514Y-15302000D01*
X12916038Y-15311524D01*
X12925562Y-15330571D01*
X12935086Y-15368667D01*
X12935086Y-15416286D01*
X12925562Y-15454381D01*
X12916038Y-15473428D01*
X12906514Y-15482952D01*
X12887467Y-15492476D01*
X12868419Y-15492476D01*
X12849371Y-15482952D01*
X12839848Y-15473428D01*
X12830324Y-15454381D01*
X12820800Y-15416286D01*
X12820800Y-15368667D01*
X12830324Y-15330571D01*
X12839848Y-15311524D01*
X12849371Y-15302000D01*
X12868419Y-15292476D01*
X13011276Y-15292476D02*
X13011276Y-15330571D01*
X13087467Y-15292476D02*
X13087467Y-15330571D01*
X13382705Y-15568667D02*
X13373181Y-15559143D01*
X13354133Y-15530571D01*
X13344609Y-15511524D01*
X13335086Y-15482952D01*
X13325562Y-15435333D01*
X13325562Y-15397238D01*
X13335086Y-15349619D01*
X13344609Y-15321048D01*
X13354133Y-15302000D01*
X13373181Y-15273428D01*
X13382705Y-15263905D01*
X13563657Y-15492476D02*
X13449371Y-15492476D01*
X13506514Y-15492476D02*
X13506514Y-15292476D01*
X13487467Y-15321048D01*
X13468419Y-15340095D01*
X13449371Y-15349619D01*
X13639848Y-15311524D02*
X13649371Y-15302000D01*
X13668419Y-15292476D01*
X13716038Y-15292476D01*
X13735086Y-15302000D01*
X13744609Y-15311524D01*
X13754133Y-15330571D01*
X13754133Y-15349619D01*
X13744609Y-15378190D01*
X13630324Y-15492476D01*
X13754133Y-15492476D01*
X13992228Y-15492476D02*
X13992228Y-15292476D01*
X14077943Y-15492476D02*
X14077943Y-15387714D01*
X14068419Y-15368667D01*
X14049371Y-15359143D01*
X14020800Y-15359143D01*
X14001752Y-15368667D01*
X13992228Y-15378190D01*
X14201752Y-15492476D02*
X14182705Y-15482952D01*
X14173181Y-15473428D01*
X14163657Y-15454381D01*
X14163657Y-15397238D01*
X14173181Y-15378190D01*
X14182705Y-15368667D01*
X14201752Y-15359143D01*
X14230324Y-15359143D01*
X14249371Y-15368667D01*
X14258895Y-15378190D01*
X14268419Y-15397238D01*
X14268419Y-15454381D01*
X14258895Y-15473428D01*
X14249371Y-15482952D01*
X14230324Y-15492476D01*
X14201752Y-15492476D01*
X14382705Y-15492476D02*
X14363657Y-15482952D01*
X14354133Y-15463905D01*
X14354133Y-15292476D01*
X14535086Y-15482952D02*
X14516038Y-15492476D01*
X14477943Y-15492476D01*
X14458895Y-15482952D01*
X14449371Y-15463905D01*
X14449371Y-15387714D01*
X14458895Y-15368667D01*
X14477943Y-15359143D01*
X14516038Y-15359143D01*
X14535086Y-15368667D01*
X14544609Y-15387714D01*
X14544609Y-15406762D01*
X14449371Y-15425809D01*
X14620800Y-15482952D02*
X14639848Y-15492476D01*
X14677943Y-15492476D01*
X14696990Y-15482952D01*
X14706514Y-15463905D01*
X14706514Y-15454381D01*
X14696990Y-15435333D01*
X14677943Y-15425809D01*
X14649371Y-15425809D01*
X14630324Y-15416286D01*
X14620800Y-15397238D01*
X14620800Y-15387714D01*
X14630324Y-15368667D01*
X14649371Y-15359143D01*
X14677943Y-15359143D01*
X14696990Y-15368667D01*
X14773181Y-15568667D02*
X14782705Y-15559143D01*
X14801752Y-15530571D01*
X14811276Y-15511524D01*
X14820800Y-15482952D01*
X14830324Y-15435333D01*
X14830324Y-15397238D01*
X14820800Y-15349619D01*
X14811276Y-15321048D01*
X14801752Y-15302000D01*
X14782705Y-15273428D01*
X14773181Y-15263905D01*
M02*
