%TF.GenerationSoftware,KiCad,Pcbnew,(6.0.7)*%
%TF.CreationDate,2022-11-17T13:34:52+00:00*%
%TF.ProjectId,msxpi,6d737870-692e-46b6-9963-61645f706362,rev?*%
%TF.SameCoordinates,Original*%
%TF.FileFunction,Copper,L1,Top*%
%TF.FilePolarity,Positive*%
%FSLAX46Y46*%
G04 Gerber Fmt 4.6, Leading zero omitted, Abs format (unit mm)*
G04 Created by KiCad (PCBNEW (6.0.7)) date 2022-11-17 13:34:52*
%MOMM*%
%LPD*%
G01*
G04 APERTURE LIST*
G04 Aperture macros list*
%AMRoundRect*
0 Rectangle with rounded corners*
0 $1 Rounding radius*
0 $2 $3 $4 $5 $6 $7 $8 $9 X,Y pos of 4 corners*
0 Add a 4 corners polygon primitive as box body*
4,1,4,$2,$3,$4,$5,$6,$7,$8,$9,$2,$3,0*
0 Add four circle primitives for the rounded corners*
1,1,$1+$1,$2,$3*
1,1,$1+$1,$4,$5*
1,1,$1+$1,$6,$7*
1,1,$1+$1,$8,$9*
0 Add four rect primitives between the rounded corners*
20,1,$1+$1,$2,$3,$4,$5,0*
20,1,$1+$1,$4,$5,$6,$7,0*
20,1,$1+$1,$6,$7,$8,$9,0*
20,1,$1+$1,$8,$9,$2,$3,0*%
%AMOutline5P*
0 Free polygon, 5 corners , with rotation*
0 The origin of the aperture is its center*
0 number of corners: always 5*
0 $1 to $10 corner X, Y*
0 $11 Rotation angle, in degrees counterclockwise*
0 create outline with 5 corners*
4,1,5,$1,$2,$3,$4,$5,$6,$7,$8,$9,$10,$1,$2,$11*%
%AMOutline6P*
0 Free polygon, 6 corners , with rotation*
0 The origin of the aperture is its center*
0 number of corners: always 6*
0 $1 to $12 corner X, Y*
0 $13 Rotation angle, in degrees counterclockwise*
0 create outline with 6 corners*
4,1,6,$1,$2,$3,$4,$5,$6,$7,$8,$9,$10,$11,$12,$1,$2,$13*%
%AMOutline7P*
0 Free polygon, 7 corners , with rotation*
0 The origin of the aperture is its center*
0 number of corners: always 7*
0 $1 to $14 corner X, Y*
0 $15 Rotation angle, in degrees counterclockwise*
0 create outline with 7 corners*
4,1,7,$1,$2,$3,$4,$5,$6,$7,$8,$9,$10,$11,$12,$13,$14,$1,$2,$15*%
%AMOutline8P*
0 Free polygon, 8 corners , with rotation*
0 The origin of the aperture is its center*
0 number of corners: always 8*
0 $1 to $16 corner X, Y*
0 $17 Rotation angle, in degrees counterclockwise*
0 create outline with 8 corners*
4,1,8,$1,$2,$3,$4,$5,$6,$7,$8,$9,$10,$11,$12,$13,$14,$15,$16,$1,$2,$17*%
G04 Aperture macros list end*
%TA.AperFunction,ComponentPad*%
%ADD10Outline8P,-1.079500X0.447144X-0.447144X1.079500X0.447144X1.079500X1.079500X0.447144X1.079500X-0.447144X0.447144X-1.079500X-0.447144X-1.079500X-1.079500X-0.447144X0.000000*%
%TD*%
%TA.AperFunction,ComponentPad*%
%ADD11C,1.700000*%
%TD*%
%TA.AperFunction,ComponentPad*%
%ADD12RoundRect,0.250000X0.600000X-0.600000X0.600000X0.600000X-0.600000X0.600000X-0.600000X-0.600000X0*%
%TD*%
%TA.AperFunction,ConnectorPad*%
%ADD13R,1.500000X11.000000*%
%TD*%
%TA.AperFunction,ComponentPad*%
%ADD14Outline8P,-0.660400X0.273547X-0.273547X0.660400X0.273547X0.660400X0.660400X0.273547X0.660400X-0.273547X0.273547X-0.660400X-0.273547X-0.660400X-0.660400X-0.273547X270.000000*%
%TD*%
%TA.AperFunction,ComponentPad*%
%ADD15Outline8P,-0.800100X0.331412X-0.331412X0.800100X0.331412X0.800100X0.800100X0.331412X0.800100X-0.331412X0.331412X-0.800100X-0.331412X-0.800100X-0.800100X-0.331412X180.000000*%
%TD*%
%TA.AperFunction,ComponentPad*%
%ADD16Outline8P,-0.800100X0.331412X-0.331412X0.800100X0.331412X0.800100X0.800100X0.331412X0.800100X-0.331412X0.331412X-0.800100X-0.331412X-0.800100X-0.800100X-0.331412X90.000000*%
%TD*%
%TA.AperFunction,ComponentPad*%
%ADD17Outline8P,-0.660400X0.273547X-0.273547X0.660400X0.273547X0.660400X0.660400X0.273547X0.660400X-0.273547X0.273547X-0.660400X-0.273547X-0.660400X-0.660400X-0.273547X90.000000*%
%TD*%
%TA.AperFunction,ComponentPad*%
%ADD18Outline8P,-0.660400X0.273547X-0.273547X0.660400X0.273547X0.660400X0.660400X0.273547X0.660400X-0.273547X0.273547X-0.660400X-0.273547X-0.660400X-0.660400X-0.273547X0.000000*%
%TD*%
%TA.AperFunction,ComponentPad*%
%ADD19C,1.600200*%
%TD*%
%TA.AperFunction,ComponentPad*%
%ADD20Outline8P,-0.800100X0.331412X-0.331412X0.800100X0.331412X0.800100X0.800100X0.331412X0.800100X-0.331412X0.331412X-0.800100X-0.331412X-0.800100X-0.800100X-0.331412X0.000000*%
%TD*%
%TA.AperFunction,SMDPad,CuDef*%
%ADD21R,1.500000X2.000000*%
%TD*%
%TA.AperFunction,SMDPad,CuDef*%
%ADD22R,3.800000X2.000000*%
%TD*%
%TA.AperFunction,ComponentPad*%
%ADD23R,1.700000X1.700000*%
%TD*%
%TA.AperFunction,ComponentPad*%
%ADD24O,1.700000X1.700000*%
%TD*%
%TA.AperFunction,ComponentPad*%
%ADD25Outline8P,-0.800100X0.331412X-0.331412X0.800100X0.331412X0.800100X0.800100X0.331412X0.800100X-0.331412X0.331412X-0.800100X-0.331412X-0.800100X-0.800100X-0.331412X270.000000*%
%TD*%
%TA.AperFunction,ComponentPad*%
%ADD26R,1.600000X1.600000*%
%TD*%
%TA.AperFunction,ComponentPad*%
%ADD27O,1.600000X1.600000*%
%TD*%
%TA.AperFunction,ComponentPad*%
%ADD28Outline8P,-0.660400X0.273547X-0.273547X0.660400X0.273547X0.660400X0.660400X0.273547X0.660400X-0.273547X0.273547X-0.660400X-0.273547X-0.660400X-0.660400X-0.273547X180.000000*%
%TD*%
%TA.AperFunction,ComponentPad*%
%ADD29C,1.320800*%
%TD*%
%TA.AperFunction,ViaPad*%
%ADD30C,0.800000*%
%TD*%
%TA.AperFunction,Conductor*%
%ADD31C,0.250000*%
%TD*%
%TA.AperFunction,Conductor*%
%ADD32C,0.500000*%
%TD*%
G04 APERTURE END LIST*
D10*
%TO.P,MOUNTHOLE5,1,P*%
%TO.N,unconnected-(MOUNTHOLE5-Pad1)*%
X194437000Y-72999600D03*
%TD*%
%TO.P,MOUNTHOLE4,1,P*%
%TO.N,unconnected-(MOUNTHOLE4-Pad1)*%
X194437000Y-75514200D03*
%TD*%
%TO.P,MOUNTHOLE3,1,P*%
%TO.N,unconnected-(MOUNTHOLE3-Pad1)*%
X151384000Y-73025000D03*
%TD*%
%TO.P,MOUNTHOLE2,1,P*%
%TO.N,unconnected-(MOUNTHOLE2-Pad1)*%
X148818600Y-73025000D03*
%TD*%
%TO.P,MOUNTHOLE1,1,P*%
%TO.N,unconnected-(MOUNTHOLE1-Pad1)*%
X146304000Y-73025000D03*
%TD*%
D11*
%TO.P,JP2,10,10*%
%TO.N,GNDREF*%
X114274600Y-82278500D03*
%TO.P,JP2,9,9*%
%TO.N,TDI*%
X114274600Y-84818500D03*
%TO.P,JP2,8,8*%
%TO.N,unconnected-(JP2-Pad8)*%
X111734600Y-82278500D03*
%TO.P,JP2,7,7*%
%TO.N,unconnected-(JP2-Pad7)*%
X111734600Y-84818500D03*
%TO.P,JP2,6,6*%
%TO.N,unconnected-(JP2-Pad6)*%
X109194600Y-82278500D03*
%TO.P,JP2,5,5*%
%TO.N,TMS*%
X109194600Y-84818500D03*
%TO.P,JP2,4,4*%
%TO.N,+5V*%
X106654600Y-82278500D03*
%TO.P,JP2,3,3*%
%TO.N,TDO*%
X106654600Y-84818500D03*
%TO.P,JP2,2,2*%
%TO.N,GNDREF*%
X104114600Y-82278500D03*
D12*
%TO.P,JP2,1,1*%
%TO.N,TCK*%
X104114600Y-84818500D03*
%TD*%
D13*
%TO.P,JP1,2,~{CS2}*%
%TO.N,{slash}CS2*%
X184610025Y-131114405D03*
%TO.P,JP1,4,~{SLTSL}*%
%TO.N,{slash}SLTSL*%
X182070025Y-131114405D03*
%TO.P,JP1,6,~{RFSH}*%
%TO.N,{slash}RFSH*%
X179530025Y-131114405D03*
%TO.P,JP1,8,~{INT}*%
%TO.N,{slash}INT*%
X176990025Y-131114405D03*
%TO.P,JP1,10,BUSDIR*%
%TO.N,BUSDIR*%
X174450025Y-131114405D03*
%TO.P,JP1,12,~{MREQ}*%
%TO.N,{slash}MREQ*%
X171910025Y-131114405D03*
%TO.P,JP1,14,~{RD}*%
%TO.N,{slash}RD*%
X169370025Y-131114405D03*
%TO.P,JP1,16,RES@2*%
%TO.N,unconnected-(JP1-Pad16)*%
X166830025Y-131114405D03*
%TO.P,JP1,18,A15*%
%TO.N,A15*%
X164290025Y-131114405D03*
%TO.P,JP1,20,A10*%
%TO.N,A10*%
X161750025Y-131114405D03*
%TO.P,JP1,22,A6*%
%TO.N,A6*%
X159210025Y-131114405D03*
%TO.P,JP1,24,A8*%
%TO.N,A8*%
X156670025Y-131114405D03*
%TO.P,JP1,26,A13*%
%TO.N,A13*%
X154130025Y-131114405D03*
%TO.P,JP1,28,A0*%
%TO.N,A0*%
X151590025Y-131114405D03*
%TO.P,JP1,30,A2*%
%TO.N,A2*%
X149050025Y-131114405D03*
%TO.P,JP1,32,A4*%
%TO.N,A4*%
X146510025Y-131114405D03*
%TO.P,JP1,34,D0*%
%TO.N,D0*%
X143970025Y-131114405D03*
%TO.P,JP1,36,D2*%
%TO.N,D2*%
X141430025Y-131114405D03*
%TO.P,JP1,38,D4*%
%TO.N,D4*%
X138890025Y-131114405D03*
%TO.P,JP1,40,D6*%
%TO.N,D6*%
X136350025Y-131114405D03*
%TO.P,JP1,42,CLOCK*%
%TO.N,CLOCK*%
X133810025Y-131114405D03*
%TO.P,JP1,44,SW@1*%
%TO.N,Net-(JP1-Pad44)*%
X131270025Y-131114405D03*
%TO.P,JP1,46,SW@2*%
X128730025Y-131114405D03*
%TO.P,JP1,48,+12V*%
%TO.N,unconnected-(JP1-Pad48)*%
X126190025Y-131114405D03*
%TO.P,JP1,50,-12V*%
%TO.N,unconnected-(JP1-Pad50)*%
X123650025Y-131114405D03*
%TD*%
D10*
%TO.P,SPI_MOSI_PI_GPIO1,1,P*%
%TO.N,SPI_MOSI*%
X151384000Y-75558457D03*
%TD*%
D14*
%TO.P,R5,1,1*%
%TO.N,{slash}MEM_WE*%
X181711600Y-104952800D03*
%TO.P,R5,2,2*%
%TO.N,+5V*%
X181711600Y-112572800D03*
%TD*%
D10*
%TO.P,+5V1,1,P*%
%TO.N,+5V*%
X191824942Y-75558457D03*
%TD*%
D15*
%TO.P,C8,1,1*%
%TO.N,GNDREF*%
X122555000Y-110744000D03*
%TO.P,C8,2,2*%
%TO.N,+3.3V*%
X120015000Y-110744000D03*
%TD*%
D16*
%TO.P,C1,1,1*%
%TO.N,+5V*%
X102870000Y-107950000D03*
%TO.P,C1,2,2*%
%TO.N,GNDREF*%
X102870000Y-105410000D03*
%TD*%
D17*
%TO.P,R3,1,1*%
%TO.N,+5V*%
X109347000Y-95885000D03*
%TO.P,R3,2,2*%
%TO.N,TMS*%
X109347000Y-88265000D03*
%TD*%
D18*
%TO.P,R8,1,1*%
%TO.N,Net-(LED1-PadA)*%
X131876800Y-73837800D03*
%TO.P,R8,2,2*%
%TO.N,SPI_CLK*%
X139496800Y-73837800D03*
%TD*%
D19*
%TO.P,C9,+,+*%
%TO.N,+5V*%
X186537600Y-106019600D03*
D20*
%TO.P,C9,-,-*%
%TO.N,GNDREF*%
X189077600Y-106019600D03*
%TD*%
D21*
%TO.P,IC1,1,ADJ*%
%TO.N,GNDREF*%
X106920000Y-106172400D03*
D22*
%TO.P,IC1,2,OUT*%
%TO.N,+3.3V*%
X109220000Y-99872400D03*
D21*
X109220000Y-106172400D03*
%TO.P,IC1,3,IN*%
%TO.N,+5V*%
X111520000Y-106172400D03*
%TD*%
D23*
%TO.P,J1,1,Pin_1*%
%TO.N,{slash}WR*%
X195321000Y-84704000D03*
D24*
%TO.P,J1,2,Pin_2*%
%TO.N,{slash}MEM_WE*%
X197861000Y-84704000D03*
%TO.P,J1,3,Pin_3*%
%TO.N,A14*%
X195321000Y-87244000D03*
%TO.P,J1,4,Pin_4*%
%TO.N,MEM_A14*%
X197861000Y-87244000D03*
%TO.P,J1,5,Pin_5*%
%TO.N,A15*%
X195321000Y-89784000D03*
%TO.P,J1,6,Pin_6*%
%TO.N,MEM_A14*%
X197861000Y-89784000D03*
%TO.P,J1,7,Pin_7*%
%TO.N,{slash}SLTSL*%
X195321000Y-92324000D03*
%TO.P,J1,8,Pin_8*%
%TO.N,{slash}MEM_CE*%
X197861000Y-92324000D03*
%TO.P,J1,9,Pin_9*%
%TO.N,{slash}CS12*%
X195321000Y-94864000D03*
%TO.P,J1,10,Pin_10*%
%TO.N,{slash}MEM_OE*%
X197861000Y-94864000D03*
%TO.P,J1,11,Pin_11*%
%TO.N,{slash}CS2*%
X195321000Y-97404000D03*
%TO.P,J1,12,Pin_12*%
%TO.N,{slash}MEM_OE*%
X197861000Y-97404000D03*
%TO.P,J1,13,Pin_13*%
%TO.N,{slash}CS1*%
X195321000Y-99944000D03*
%TO.P,J1,14,Pin_14*%
%TO.N,{slash}MEM_OE*%
X197861000Y-99944000D03*
%TD*%
D17*
%TO.P,R1,1,1*%
%TO.N,GNDREF*%
X104038400Y-95859600D03*
%TO.P,R1,2,2*%
%TO.N,TCK*%
X104038400Y-88239600D03*
%TD*%
D25*
%TO.P,C7,1,1*%
%TO.N,GNDREF*%
X143510000Y-93599000D03*
%TO.P,C7,2,2*%
%TO.N,+3.3V*%
X143510000Y-96139000D03*
%TD*%
D14*
%TO.P,R7,2,2*%
%TO.N,+5V*%
X163830000Y-112776000D03*
%TO.P,R7,1,1*%
%TO.N,{slash}MEM_CE*%
X163830000Y-105156000D03*
%TD*%
D26*
%TO.P,U1,1,A14*%
%TO.N,MEM_A14*%
X184150000Y-87249000D03*
D27*
%TO.P,U1,2,A12*%
%TO.N,A12*%
X181610000Y-87249000D03*
%TO.P,U1,3,A7*%
%TO.N,A7*%
X179070000Y-87249000D03*
%TO.P,U1,4,A6*%
%TO.N,A6*%
X176530000Y-87249000D03*
%TO.P,U1,5,A5*%
%TO.N,A5*%
X173990000Y-87249000D03*
%TO.P,U1,6,A4*%
%TO.N,A4*%
X171450000Y-87249000D03*
%TO.P,U1,7,A3*%
%TO.N,A3*%
X168910000Y-87249000D03*
%TO.P,U1,8,A2*%
%TO.N,A2*%
X166370000Y-87249000D03*
%TO.P,U1,9,A1*%
%TO.N,A1*%
X163830000Y-87249000D03*
%TO.P,U1,10,A0*%
%TO.N,A0*%
X161290000Y-87249000D03*
%TO.P,U1,11,D0*%
%TO.N,D0*%
X158750000Y-87249000D03*
%TO.P,U1,12,D1*%
%TO.N,D1*%
X156210000Y-87249000D03*
%TO.P,U1,13,D2*%
%TO.N,D2*%
X153670000Y-87249000D03*
%TO.P,U1,14,GND*%
%TO.N,GNDREF*%
X151130000Y-87249000D03*
%TO.P,U1,15,D3*%
%TO.N,D3*%
X151130000Y-102489000D03*
%TO.P,U1,16,D4*%
%TO.N,D4*%
X153670000Y-102489000D03*
%TO.P,U1,17,D5*%
%TO.N,D5*%
X156210000Y-102489000D03*
%TO.P,U1,18,D6*%
%TO.N,D6*%
X158750000Y-102489000D03*
%TO.P,U1,19,D7*%
%TO.N,D7*%
X161290000Y-102489000D03*
%TO.P,U1,20,~{CS}*%
%TO.N,{slash}MEM_CE*%
X163830000Y-102489000D03*
%TO.P,U1,21,A10*%
%TO.N,A10*%
X166370000Y-102489000D03*
%TO.P,U1,22,~{OE}*%
%TO.N,{slash}MEM_OE*%
X168910000Y-102489000D03*
%TO.P,U1,23,A11*%
%TO.N,A11*%
X171450000Y-102489000D03*
%TO.P,U1,24,A9*%
%TO.N,A9*%
X173990000Y-102489000D03*
%TO.P,U1,25,A8*%
%TO.N,A8*%
X176530000Y-102489000D03*
%TO.P,U1,26,A13*%
%TO.N,A13*%
X179070000Y-102489000D03*
%TO.P,U1,27,~{WE}*%
%TO.N,{slash}MEM_WE*%
X181610000Y-102489000D03*
%TO.P,U1,28,VCC*%
%TO.N,+5V*%
X184150000Y-102489000D03*
%TD*%
D28*
%TO.P,LED1,A,A*%
%TO.N,Net-(LED1-PadA)*%
X127952500Y-74041000D03*
%TO.P,LED1,K,C*%
%TO.N,GNDREF*%
X125412500Y-74041000D03*
%TD*%
D15*
%TO.P,C5,1,1*%
%TO.N,GNDREF*%
X135382000Y-84175600D03*
%TO.P,C5,2,2*%
%TO.N,+3.3V*%
X132842000Y-84175600D03*
%TD*%
D17*
%TO.P,R2,1,1*%
%TO.N,+5V*%
X106705400Y-95885000D03*
%TO.P,R2,2,2*%
%TO.N,TDO*%
X106705400Y-88265000D03*
%TD*%
D10*
%TO.P,GND5,1,P*%
%TO.N,GNDREF*%
X189284942Y-75558457D03*
%TD*%
D15*
%TO.P,C6,1,1*%
%TO.N,+5V*%
X110109000Y-111379000D03*
%TO.P,C6,2,2*%
%TO.N,GNDREF*%
X107569000Y-111379000D03*
%TD*%
D10*
%TO.P,SPI_MISO_PI_GPIO1,1,P*%
%TO.N,SPI_MISO*%
X156464000Y-75558457D03*
%TD*%
%TO.P,SPI_RDY_PI_GPIO1,1,P*%
%TO.N,SPI_RDY*%
X169164000Y-75558457D03*
%TD*%
D19*
%TO.P,C2,+,+*%
%TO.N,+3.3V*%
X124942600Y-81432400D03*
D15*
%TO.P,C2,-,-*%
%TO.N,GNDREF*%
X122402600Y-81432400D03*
%TD*%
D16*
%TO.P,C4,1,1*%
%TO.N,GNDREF*%
X117094000Y-104013000D03*
%TO.P,C4,2,2*%
%TO.N,+3.3V*%
X117094000Y-101473000D03*
%TD*%
D10*
%TO.P,SPI_CLK_PI_GPIO1,1,P*%
%TO.N,SPI_CLK*%
X148844000Y-75558457D03*
%TD*%
D14*
%TO.P,R6,2,2*%
%TO.N,+5V*%
X168910000Y-112725200D03*
%TO.P,R6,1,1*%
%TO.N,{slash}MEM_OE*%
X168910000Y-105105200D03*
%TD*%
D18*
%TO.P,EPM3064ALC44,44,OE1*%
%TO.N,unconnected-(EPM3064ALC44-Pad44)*%
X131572000Y-88519000D03*
%TO.P,EPM3064ALC44,43,GCLK1*%
%TO.N,unconnected-(EPM3064ALC44-Pad43)*%
X134112000Y-91059000D03*
%TO.P,EPM3064ALC44,42,GND@1*%
%TO.N,GNDREF*%
X134112000Y-88519000D03*
%TO.P,EPM3064ALC44,41,IO64*%
%TO.N,D5*%
X136652000Y-91059000D03*
%TO.P,EPM3064ALC44,40,IO62*%
%TO.N,SPI_RDY*%
X136652000Y-88519000D03*
%TO.P,EPM3064ALC44,39,IO57*%
%TO.N,D3*%
X139192000Y-91059000D03*
%TO.P,EPM3064ALC44,38,IO56/TDO*%
%TO.N,TDO*%
X136652000Y-93599000D03*
%TO.P,EPM3064ALC44,37,IO53*%
%TO.N,D1*%
X139192000Y-93599000D03*
%TO.P,EPM3064ALC44,36,GND@6*%
%TO.N,GNDREF*%
X136652000Y-96139000D03*
%TO.P,EPM3064ALC44,35,VCC@3*%
%TO.N,+3.3V*%
X139192000Y-96139000D03*
%TO.P,EPM3064ALC44,34,IO51*%
%TO.N,A1*%
X136652000Y-98679000D03*
%TO.P,EPM3064ALC44,33,IO49*%
%TO.N,A5*%
X139192000Y-98679000D03*
%TO.P,EPM3064ALC44,32,IO48/TCK*%
%TO.N,TCK*%
X136652000Y-101219000D03*
%TO.P,EPM3064ALC44,31,IO46*%
%TO.N,BUSDIR*%
X139192000Y-101219000D03*
%TO.P,EPM3064ALC44,30,GND@5*%
%TO.N,GNDREF*%
X136652000Y-103759000D03*
%TO.P,EPM3064ALC44,29,IO41*%
%TO.N,D7*%
X139192000Y-103759000D03*
%TO.P,EPM3064ALC44,28,IO40*%
%TO.N,{slash}WAIT*%
X136652000Y-106299000D03*
%TO.P,EPM3064ALC44,27,IO37*%
%TO.N,{slash}IORQ*%
X134112000Y-103759000D03*
%TO.P,EPM3064ALC44,26,IO36*%
%TO.N,{slash}RD*%
X134112000Y-106299000D03*
%TO.P,EPM3064ALC44,25,IO35*%
%TO.N,A3*%
X131572000Y-103759000D03*
%TO.P,EPM3064ALC44,24,IO33*%
%TO.N,A6*%
X131572000Y-106299000D03*
%TO.P,EPM3064ALC44,23,VCC@2*%
%TO.N,+3.3V*%
X129032000Y-103759000D03*
%TO.P,EPM3064ALC44,22,GND@4*%
%TO.N,GNDREF*%
X129032000Y-106299000D03*
%TO.P,EPM3064ALC44,21,IO17*%
%TO.N,A2*%
X126492000Y-103759000D03*
%TO.P,EPM3064ALC44,20,IO19*%
%TO.N,D0*%
X126492000Y-106299000D03*
%TO.P,EPM3064ALC44,19,IO20*%
%TO.N,D2*%
X123952000Y-103759000D03*
%TO.P,EPM3064ALC44,18,IO21*%
%TO.N,D4*%
X123952000Y-106299000D03*
%TO.P,EPM3064ALC44,17,GND@3*%
%TO.N,GNDREF*%
X121412000Y-103759000D03*
%TO.P,EPM3064ALC44,16,IO25*%
%TO.N,A4*%
X123952000Y-101219000D03*
%TO.P,EPM3064ALC44,15,VCC@1*%
%TO.N,+3.3V*%
X121412000Y-101219000D03*
%TO.P,EPM3064ALC44,14,IO30*%
%TO.N,A0*%
X123952000Y-98679000D03*
%TO.P,EPM3064ALC44,13,IO32/TMS*%
%TO.N,TMS*%
X121412000Y-98679000D03*
%TO.P,EPM3064ALC44,12,IO1*%
%TO.N,A7*%
X123952000Y-96139000D03*
%TO.P,EPM3064ALC44,11,IO3*%
%TO.N,D6*%
X121412000Y-96139000D03*
%TO.P,EPM3064ALC44,10,GND@2*%
%TO.N,GNDREF*%
X123952000Y-93599000D03*
%TO.P,EPM3064ALC44,9,IO4*%
%TO.N,SPI_CS*%
X121412000Y-93599000D03*
%TO.P,EPM3064ALC44,8,IO5*%
%TO.N,SPI_CLK*%
X123952000Y-91059000D03*
%TO.P,EPM3064ALC44,7,IO8/TDI*%
%TO.N,TDI*%
X121412000Y-91059000D03*
%TO.P,EPM3064ALC44,6,IO11*%
%TO.N,SPI_MOSI*%
X123952000Y-88519000D03*
%TO.P,EPM3064ALC44,5,IO14*%
%TO.N,{slash}WR*%
X126492000Y-91059000D03*
%TO.P,EPM3064ALC44,4,IO16*%
%TO.N,SPI_MISO*%
X126492000Y-88519000D03*
%TO.P,EPM3064ALC44,3,PD/_VCC*%
%TO.N,+3.3V*%
X129032000Y-91059000D03*
%TO.P,EPM3064ALC44,2,OE2-GCLK2*%
%TO.N,unconnected-(EPM3064ALC44-Pad2)*%
X129032000Y-88519000D03*
D29*
%TO.P,EPM3064ALC44,1,GCLR/*%
%TO.N,unconnected-(EPM3064ALC44-Pad1)*%
X131572000Y-91059000D03*
%TD*%
D17*
%TO.P,R4,1,1*%
%TO.N,+5V*%
X112090200Y-95935800D03*
%TO.P,R4,2,2*%
%TO.N,TDI*%
X112090200Y-88315800D03*
%TD*%
D25*
%TO.P,C3,1,1*%
%TO.N,+3.3V*%
X102870000Y-100076000D03*
%TO.P,C3,2,2*%
%TO.N,GNDREF*%
X102870000Y-102616000D03*
%TD*%
D10*
%TO.P,SPI_CS_PI_GPIO1,1,P*%
%TO.N,SPI_CS*%
X146304000Y-75558457D03*
%TD*%
D30*
%TO.N,D3*%
X144919700Y-108699300D03*
%TO.N,D5*%
X155879800Y-98831400D03*
X154279600Y-93980000D03*
%TO.N,D3*%
X142367000Y-106959400D03*
X142367000Y-103454200D03*
%TO.N,GNDREF*%
X134416800Y-93675200D03*
X182422800Y-94843600D03*
%TO.N,TDO*%
X131308204Y-92811600D03*
%TO.N,TCK*%
X127863600Y-93635300D03*
%TO.N,+3.3V*%
X115798600Y-91287600D03*
%TO.N,{slash}WAIT*%
X174345600Y-120853200D03*
%TO.N,{slash}WR*%
X169367200Y-123139200D03*
%TO.N,{slash}IORQ*%
X171450000Y-121462800D03*
%TO.N,D7*%
X157734000Y-96194700D03*
%TO.N,D4*%
X145897600Y-110185200D03*
X138940944Y-110648299D03*
X136391222Y-119742378D03*
%TO.N,D2*%
X134569200Y-99212400D03*
X133451600Y-101752400D03*
%TO.N,D1*%
X156159200Y-93065600D03*
%TO.N,D0*%
X147421600Y-97637600D03*
X143916400Y-102565200D03*
X133527800Y-114223800D03*
%TO.N,BUSDIR*%
X174498000Y-124256800D03*
X171602400Y-118769900D03*
%TO.N,A8*%
X170688000Y-108712000D03*
X156718000Y-123901200D03*
%TO.N,A7*%
X159156400Y-122580400D03*
X170738800Y-111099600D03*
%TO.N,A6*%
X156718000Y-100482400D03*
%TO.N,A4*%
X138493189Y-109751121D03*
X147320000Y-102819200D03*
X140589000Y-109626400D03*
X135204200Y-114223800D03*
%TO.N,A3*%
X147980400Y-120446800D03*
X154178000Y-114198400D03*
%TO.N,A2*%
X143205200Y-100711000D03*
%TO.N,A15*%
X165557200Y-124002800D03*
%TO.N,A14*%
X167386000Y-106172000D03*
X184454800Y-91948000D03*
%TO.N,A13*%
X155244800Y-123901200D03*
%TO.N,A12*%
X170789600Y-109931200D03*
%TO.N,A10*%
X165862000Y-111827300D03*
X161798000Y-123952000D03*
%TO.N,A1*%
X168554400Y-84886800D03*
%TO.N,+5V*%
X125984000Y-121920000D03*
X128473200Y-78689200D03*
%TO.N,{slash}MEM_OE*%
X183489600Y-96977200D03*
%TO.N,{slash}MEM_CE*%
X183438800Y-95758000D03*
%TD*%
D31*
%TO.N,Net-(JP1-Pad44)*%
X128730025Y-124615225D02*
X128730025Y-131114405D01*
X131241800Y-124587000D02*
X128701800Y-124587000D01*
X131270025Y-124615225D02*
X131241800Y-124587000D01*
X131270025Y-131114405D02*
X131270025Y-124615225D01*
X128701800Y-124587000D02*
X128730025Y-124615225D01*
%TO.N,D3*%
X143179800Y-106959400D02*
X144919700Y-108699300D01*
X143179800Y-106959400D02*
X142367000Y-106959400D01*
%TO.N,D7*%
X143484600Y-104419400D02*
X139852400Y-104419400D01*
X139852400Y-104419400D02*
X139192000Y-103759000D01*
X151709300Y-96194700D02*
X143484600Y-104419400D01*
X157734000Y-96194700D02*
X151709300Y-96194700D01*
%TO.N,D5*%
X155879800Y-102158800D02*
X155879800Y-98831400D01*
X156210000Y-102489000D02*
X155879800Y-102158800D01*
%TO.N,A3*%
X170307000Y-85852000D02*
X168910000Y-87249000D01*
X172110400Y-85852000D02*
X170307000Y-85852000D01*
X166014400Y-97434400D02*
X172669200Y-90779600D01*
X155422600Y-97434400D02*
X166014400Y-97434400D01*
X154838400Y-98018600D02*
X155422600Y-97434400D01*
X154838400Y-113538000D02*
X154838400Y-98018600D01*
X172669200Y-90779600D02*
X172669200Y-86410800D01*
X154178000Y-114198400D02*
X154838400Y-113538000D01*
X172669200Y-86410800D02*
X172110400Y-85852000D01*
%TO.N,D5*%
X150114000Y-93980000D02*
X154279600Y-93980000D01*
X149758400Y-93624400D02*
X150114000Y-93980000D01*
X145567400Y-89433400D02*
X149758400Y-93624400D01*
X138709400Y-89433400D02*
X145567400Y-89433400D01*
X138277600Y-89433400D02*
X138709400Y-89433400D01*
X136652000Y-91059000D02*
X138277600Y-89433400D01*
%TO.N,SPI_RDY*%
X163417057Y-81305400D02*
X169164000Y-75558457D01*
X146532600Y-81305400D02*
X163417057Y-81305400D01*
X139319000Y-88519000D02*
X146532600Y-81305400D01*
X136652000Y-88519000D02*
X139319000Y-88519000D01*
%TO.N,A4*%
X138617910Y-109626400D02*
X138493189Y-109751121D01*
X140589000Y-109626400D02*
X138617910Y-109626400D01*
%TO.N,{slash}WAIT*%
X137109200Y-105841800D02*
X136652000Y-106299000D01*
X144094200Y-105841800D02*
X137109200Y-105841800D01*
X157750000Y-119497600D02*
X144094200Y-105841800D01*
X172990000Y-119497600D02*
X157750000Y-119497600D01*
X174345600Y-120853200D02*
X172990000Y-119497600D01*
%TO.N,BUSDIR*%
X137820400Y-103327200D02*
X139192000Y-101955600D01*
X137820400Y-104698800D02*
X137820400Y-103327200D01*
X139192000Y-101955600D02*
X139192000Y-101219000D01*
X138353800Y-105232200D02*
X137820400Y-104698800D01*
X144145000Y-105232200D02*
X138353800Y-105232200D01*
X171327900Y-119044400D02*
X157957200Y-119044400D01*
X157957200Y-119044400D02*
X144145000Y-105232200D01*
X171602400Y-118769900D02*
X171327900Y-119044400D01*
%TO.N,{slash}IORQ*%
X135563722Y-105210722D02*
X134112000Y-103759000D01*
X135563722Y-106658522D02*
X135563722Y-105210722D01*
X141300200Y-108737400D02*
X137642600Y-108737400D01*
X142019800Y-109457000D02*
X141300200Y-108737400D01*
X137642600Y-108737400D02*
X135563722Y-106658522D01*
X146896600Y-109457000D02*
X142019800Y-109457000D01*
X169938000Y-119950800D02*
X157390400Y-119950800D01*
X171450000Y-121462800D02*
X169938000Y-119950800D01*
X157390400Y-119950800D02*
X146896600Y-109457000D01*
%TO.N,D3*%
X142367000Y-103174800D02*
X142367000Y-103454200D01*
X142367000Y-99528769D02*
X142367000Y-103174800D01*
X142487084Y-99408685D02*
X142367000Y-99528769D01*
X143232430Y-98663339D02*
X142487084Y-99408685D01*
X146151600Y-97123678D02*
X144611939Y-98663339D01*
X144611939Y-98663339D02*
X143232430Y-98663339D01*
X146151600Y-95173800D02*
X146151600Y-97123678D01*
%TO.N,A2*%
X158369000Y-95250000D02*
X166370000Y-87249000D01*
X148666200Y-95250000D02*
X158369000Y-95250000D01*
X143205200Y-100711000D02*
X148666200Y-95250000D01*
%TO.N,D3*%
X146151600Y-92913200D02*
X146151600Y-95173800D01*
X145237200Y-91998800D02*
X146151600Y-92913200D01*
X140131800Y-91998800D02*
X145237200Y-91998800D01*
X139192000Y-91059000D02*
X140131800Y-91998800D01*
D32*
%TO.N,TMS*%
X109347000Y-88265000D02*
X109347000Y-84970900D01*
X109347000Y-84970900D02*
X109194600Y-84818500D01*
D31*
%TO.N,TDO*%
X106705400Y-84869300D02*
X106654600Y-84818500D01*
X106705400Y-88265000D02*
X106705400Y-84869300D01*
%TO.N,TCK*%
X104038400Y-84894700D02*
X104114600Y-84818500D01*
X104038400Y-88239600D02*
X104038400Y-84894700D01*
D32*
%TO.N,+5V*%
X103098600Y-78816200D02*
X101176144Y-80738656D01*
X106654600Y-80365600D02*
X105105200Y-78816200D01*
X101176144Y-80738656D02*
X101176144Y-98620256D01*
X106654600Y-82278500D02*
X106654600Y-80365600D01*
X105105200Y-78816200D02*
X103098600Y-78816200D01*
X103970144Y-98620256D02*
X106705400Y-95885000D01*
X101176144Y-98620256D02*
X103970144Y-98620256D01*
X106705400Y-95885000D02*
X109347000Y-95885000D01*
X109397800Y-95935800D02*
X109347000Y-95885000D01*
X112090200Y-95935800D02*
X109397800Y-95935800D01*
%TO.N,TMS*%
X111150400Y-90068400D02*
X109347000Y-88265000D01*
X118041800Y-91270200D02*
X116840000Y-90068400D01*
X116840000Y-90068400D02*
X111150400Y-90068400D01*
X118041800Y-95308800D02*
X118041800Y-91270200D01*
X121412000Y-98679000D02*
X118041800Y-95308800D01*
%TO.N,TDI*%
X114274600Y-84818500D02*
X120515100Y-91059000D01*
X120515100Y-91059000D02*
X121412000Y-91059000D01*
%TO.N,+5V*%
X106654600Y-80035400D02*
X108000800Y-78689200D01*
X106654600Y-82278500D02*
X106654600Y-80035400D01*
%TO.N,+3.3V*%
X117094000Y-98806000D02*
X117094000Y-101473000D01*
X115798600Y-97510600D02*
X117094000Y-98806000D01*
X115798600Y-91287600D02*
X115798600Y-97510600D01*
D31*
%TO.N,Net-(LED1-PadA)*%
X131673600Y-74041000D02*
X131876800Y-73837800D01*
X127952500Y-74041000D02*
X131673600Y-74041000D01*
D32*
%TO.N,+5V*%
X101176144Y-106256144D02*
X101176144Y-98620256D01*
X102870000Y-107950000D02*
X101176144Y-106256144D01*
X128473200Y-78689200D02*
X108000800Y-78689200D01*
%TO.N,unconnected-(JP2-Pad7)*%
X112323800Y-84587000D02*
X112323800Y-84932600D01*
X112323800Y-84637800D02*
X112323800Y-84587000D01*
%TO.N,GNDREF*%
X136652000Y-96139000D02*
X137896600Y-94894400D01*
X145084800Y-95173800D02*
X143510000Y-93599000D01*
X137007600Y-102438270D02*
X137765600Y-101680270D01*
X177783200Y-90204000D02*
X177783200Y-86173600D01*
X177783200Y-86173600D02*
X178104800Y-85852000D01*
X145084800Y-97129600D02*
X145084800Y-95173800D01*
X137765600Y-100892800D02*
X138865800Y-99792600D01*
X134112000Y-88519000D02*
X132685600Y-89945400D01*
X106920000Y-106172400D02*
X103632400Y-106172400D01*
X182422800Y-94843600D02*
X177783200Y-90204000D01*
X143094236Y-97983835D02*
X144230565Y-97983835D01*
X132685600Y-89945400D02*
X132685600Y-91944000D01*
X178104800Y-85852000D02*
X178991399Y-85852000D01*
X132685600Y-91944000D02*
X134416800Y-93675200D01*
X138865800Y-99792600D02*
X141285471Y-99792600D01*
X144230565Y-97983835D02*
X145084800Y-97129600D01*
X141285471Y-99792600D02*
X143094236Y-97983835D01*
X137007600Y-103403400D02*
X137007600Y-102438270D01*
X136652000Y-103759000D02*
X137007600Y-103403400D01*
X137765600Y-101680270D02*
X137765600Y-100892800D01*
X178991399Y-85852000D02*
X189284942Y-75558457D01*
X142214600Y-94894400D02*
X143510000Y-93599000D01*
X137896600Y-94894400D02*
X142214600Y-94894400D01*
X103632400Y-106172400D02*
X102870000Y-105410000D01*
D31*
%TO.N,TDO*%
X131308204Y-92811600D02*
X131724400Y-92811600D01*
X135001000Y-95250000D02*
X136652000Y-93599000D01*
X134162800Y-95250000D02*
X135001000Y-95250000D01*
X131724400Y-92811600D02*
X134162800Y-95250000D01*
%TO.N,TCK*%
X130021931Y-93635300D02*
X136652000Y-100265369D01*
X136652000Y-100265369D02*
X136652000Y-101219000D01*
X127863600Y-93635300D02*
X130021931Y-93635300D01*
D32*
%TO.N,+3.3V*%
X122783600Y-96692902D02*
X123343298Y-97252600D01*
X123422600Y-94712600D02*
X122783600Y-95351600D01*
X127889000Y-89916000D02*
X129032000Y-91059000D01*
X132842000Y-84328000D02*
X131876800Y-84328000D01*
X131648130Y-84328000D02*
X131800530Y-84175600D01*
X131800530Y-84175600D02*
X132842000Y-84175600D01*
X132842000Y-84175600D02*
X132029200Y-84175600D01*
X121158000Y-101473000D02*
X121412000Y-101219000D01*
X129032000Y-91744800D02*
X129032000Y-91059000D01*
X110820600Y-101473000D02*
X109220000Y-99872400D01*
X125222000Y-93903870D02*
X124413270Y-94712600D01*
X102870000Y-100076000D02*
X109016400Y-100076000D01*
X109220000Y-106172400D02*
X109220000Y-99872400D01*
X125628400Y-89712800D02*
X125222000Y-90119200D01*
X127685800Y-89712800D02*
X125628400Y-89712800D01*
X132029200Y-84175600D02*
X131876800Y-84328000D01*
X129032000Y-102180200D02*
X129032000Y-103759000D01*
X124104400Y-97252600D02*
X129032000Y-102180200D01*
X129032000Y-91059000D02*
X127685800Y-89712800D01*
X138078400Y-97252600D02*
X134539800Y-97252600D01*
X131876800Y-84328000D02*
X131648130Y-84328000D01*
X124413270Y-94712600D02*
X123422600Y-94712600D01*
X109016400Y-100076000D02*
X109220000Y-99872400D01*
X139192000Y-96139000D02*
X138078400Y-97252600D01*
X109118000Y-100076000D02*
X109220000Y-99974000D01*
X122783600Y-95351600D02*
X122783600Y-96692902D01*
X131648130Y-84328000D02*
X127889000Y-88087130D01*
X134539800Y-97252600D02*
X129032000Y-91744800D01*
X143510000Y-96139000D02*
X139192000Y-96139000D01*
X123343298Y-97252600D02*
X124104400Y-97252600D01*
X117094000Y-101473000D02*
X110820600Y-101473000D01*
X125222000Y-90119200D02*
X125222000Y-93903870D01*
X127889000Y-88087130D02*
X127889000Y-89916000D01*
X117094000Y-101473000D02*
X121158000Y-101473000D01*
D31*
%TO.N,SPI_MOSI*%
X134454719Y-78016281D02*
X148926176Y-78016281D01*
X148926176Y-78016281D02*
X151384000Y-75558457D01*
X123952000Y-88519000D02*
X134454719Y-78016281D01*
%TO.N,SPI_CS*%
X121412000Y-89660908D02*
X121412000Y-87376000D01*
X121412000Y-87376000D02*
X133229543Y-75558457D01*
X121412000Y-93599000D02*
X122400600Y-92610400D01*
X122400600Y-92610400D02*
X122400600Y-90649508D01*
X122400600Y-90649508D02*
X121412000Y-89660908D01*
X133229543Y-75558457D02*
X146304000Y-75558457D01*
D32*
%TO.N,SPI_CLK*%
X122428000Y-89535000D02*
X123952000Y-91059000D01*
X148844000Y-75558457D02*
X146964376Y-77438081D01*
X146964376Y-77438081D02*
X132167617Y-77438081D01*
X122428000Y-87177698D02*
X122428000Y-89535000D01*
X132167617Y-77438081D02*
X122428000Y-87177698D01*
D31*
%TO.N,{slash}RD*%
X163862820Y-120857200D02*
X157014956Y-120857200D01*
X152993756Y-116836000D02*
X143404400Y-116836000D01*
X134112000Y-107543600D02*
X134112000Y-106299000D01*
X169370025Y-126364405D02*
X163862820Y-120857200D01*
X143404400Y-116836000D02*
X134112000Y-107543600D01*
X169370025Y-131114405D02*
X169370025Y-126364405D01*
X157014956Y-120857200D02*
X152993756Y-116836000D01*
%TO.N,{slash}WR*%
X143662400Y-116382800D02*
X138656099Y-111376499D01*
X133858000Y-105310400D02*
X132560600Y-104013000D01*
X138639313Y-111376499D02*
X135100600Y-107837786D01*
X192582800Y-87426800D02*
X193497200Y-86512400D01*
X165311200Y-120404000D02*
X157202678Y-120404000D01*
X135100600Y-107837786D02*
X135100600Y-105889508D01*
X135100600Y-105889508D02*
X134521492Y-105310400D01*
X168046400Y-123139200D02*
X165311200Y-120404000D01*
X138656099Y-111376499D02*
X138639313Y-111376499D01*
X132560600Y-99997800D02*
X126492000Y-93929200D01*
X153181478Y-116382800D02*
X143662400Y-116382800D01*
X169367200Y-123139200D02*
X168046400Y-123139200D01*
X134521492Y-105310400D02*
X133858000Y-105310400D01*
X175056800Y-123139200D02*
X192582800Y-105613200D01*
X157202678Y-120404000D02*
X153181478Y-116382800D01*
X193497200Y-86512400D02*
X193512600Y-86512400D01*
X192582800Y-105613200D02*
X192582800Y-87426800D01*
X132560600Y-104013000D02*
X132560600Y-99997800D01*
X126492000Y-93929200D02*
X126492000Y-91059000D01*
X169367200Y-123139200D02*
X175056800Y-123139200D01*
X193512600Y-86512400D02*
X195321000Y-84704000D01*
%TO.N,SPI_MISO*%
X153552976Y-78469481D02*
X156464000Y-75558457D01*
X136541519Y-78469481D02*
X153552976Y-78469481D01*
X126492000Y-88519000D02*
X136541519Y-78469481D01*
%TO.N,D6*%
X136350025Y-131114405D02*
X136350025Y-124126975D01*
X122400600Y-97127600D02*
X121412000Y-96139000D01*
X136347200Y-121208800D02*
X122400600Y-107262200D01*
X122400600Y-107262200D02*
X122400600Y-97127600D01*
X136350025Y-124126975D02*
X136347200Y-124124150D01*
X136347200Y-124124150D02*
X136347200Y-121208800D01*
%TO.N,D4*%
X136391222Y-119742378D02*
X138890025Y-122241181D01*
X123952000Y-107303156D02*
X136391222Y-119742378D01*
X138946843Y-110642400D02*
X145440400Y-110642400D01*
X123952000Y-106299000D02*
X123952000Y-107303156D01*
X145440400Y-110642400D02*
X145897600Y-110185200D01*
X138940944Y-110648299D02*
X138946843Y-110642400D01*
X138890025Y-122241181D02*
X138890025Y-131114405D01*
%TO.N,D2*%
X141430025Y-123548425D02*
X124945652Y-107064052D01*
X134569200Y-100634800D02*
X134569200Y-99212400D01*
X141430025Y-131114405D02*
X141430025Y-123548425D01*
X124945652Y-107064052D02*
X124945652Y-104752652D01*
X124945652Y-104752652D02*
X123952000Y-103759000D01*
X133451600Y-101752400D02*
X134569200Y-100634800D01*
%TO.N,D1*%
X156159200Y-93065600D02*
X156210000Y-93014800D01*
X156210000Y-93014800D02*
X156210000Y-87249000D01*
%TO.N,D0*%
X147421600Y-99060000D02*
X143916400Y-102565200D01*
X147421600Y-97637600D02*
X147421600Y-99060000D01*
X143970025Y-124666025D02*
X143970025Y-131114405D01*
X126492000Y-106299000D02*
X126492000Y-107188000D01*
X133527800Y-114223800D02*
X143970025Y-124666025D01*
X126492000Y-107188000D02*
X133527800Y-114223800D01*
%TO.N,{slash}CS2*%
X184610025Y-131114405D02*
X184610025Y-125371575D01*
X193954400Y-116027200D02*
X193954400Y-98770600D01*
X193954400Y-98770600D02*
X195321000Y-97404000D01*
X184610025Y-125371575D02*
X193954400Y-116027200D01*
%TO.N,BUSDIR*%
X174450025Y-124304775D02*
X174450025Y-131114405D01*
X174498000Y-124256800D02*
X174450025Y-124304775D01*
%TO.N,A8*%
X156670025Y-131114405D02*
X156670025Y-123949175D01*
X176530000Y-106496278D02*
X176530000Y-102489000D01*
X156670025Y-123949175D02*
X156718000Y-123901200D01*
X174314278Y-108712000D02*
X176530000Y-106496278D01*
X170688000Y-108712000D02*
X174314278Y-108712000D01*
%TO.N,A7*%
X187604400Y-85496400D02*
X180822600Y-85496400D01*
X180822600Y-85496400D02*
X179070000Y-87249000D01*
X132273801Y-105310400D02*
X131345400Y-105310400D01*
X130556000Y-102463600D02*
X124231400Y-96139000D01*
X130556000Y-104521000D02*
X130556000Y-102463600D01*
X187807600Y-100584000D02*
X189636400Y-98755200D01*
X189636400Y-87528400D02*
X187604400Y-85496400D01*
X183012999Y-110453703D02*
X183012999Y-101568601D01*
X159156400Y-122580400D02*
X157886400Y-121310400D01*
X157886400Y-121310400D02*
X146347166Y-121310400D01*
X146347166Y-121310400D02*
X132660383Y-107623617D01*
X183012999Y-101568601D02*
X183997600Y-100584000D01*
X132660383Y-105696982D02*
X132273801Y-105310400D01*
X131345400Y-105310400D02*
X130556000Y-104521000D01*
X132660383Y-107623617D02*
X132660383Y-105696982D01*
X182367102Y-111099600D02*
X183012999Y-110453703D01*
X183997600Y-100584000D02*
X187807600Y-100584000D01*
X124231400Y-96139000D02*
X123952000Y-96139000D01*
X170738800Y-111099600D02*
X182367102Y-111099600D01*
X189636400Y-98755200D02*
X189636400Y-87528400D01*
%TO.N,A6*%
X146159444Y-121763600D02*
X157018800Y-121763600D01*
X131572000Y-106299000D02*
X131572000Y-107176156D01*
X159210025Y-123954825D02*
X159210025Y-131114405D01*
X164896800Y-100584000D02*
X176530000Y-88950800D01*
X157018800Y-121763600D02*
X159210025Y-123954825D01*
X131572000Y-107176156D02*
X146159444Y-121763600D01*
X156718000Y-100482400D02*
X156819600Y-100584000D01*
X156819600Y-100584000D02*
X164896800Y-100584000D01*
X176530000Y-88950800D02*
X176530000Y-87249000D01*
%TO.N,A4*%
X146510025Y-131114405D02*
X146510025Y-125529625D01*
X128899078Y-108305600D02*
X127480600Y-106887122D01*
X135204200Y-114223800D02*
X129286000Y-108305600D01*
X153216800Y-96922400D02*
X164881322Y-96922400D01*
X164881322Y-96922400D02*
X171450000Y-90353722D01*
X126797892Y-105206800D02*
X125730000Y-105206800D01*
X146510025Y-125529625D02*
X135204200Y-114223800D01*
X129286000Y-108305600D02*
X128899078Y-108305600D01*
X125398852Y-104875652D02*
X125398852Y-102665852D01*
X127480600Y-106887122D02*
X127480600Y-105889508D01*
X127480600Y-105889508D02*
X126797892Y-105206800D01*
X125730000Y-105206800D02*
X125398852Y-104875652D01*
X147320000Y-102819200D02*
X153216800Y-96922400D01*
X171450000Y-90353722D02*
X171450000Y-87249000D01*
X125398852Y-102665852D02*
X123952000Y-101219000D01*
%TO.N,A3*%
X133113583Y-107435895D02*
X133113583Y-105300583D01*
X147980400Y-120446800D02*
X146124488Y-120446800D01*
X146124488Y-120446800D02*
X133113583Y-107435895D01*
X133113583Y-105300583D02*
X131572000Y-103759000D01*
%TO.N,A2*%
X127933800Y-105200800D02*
X126492000Y-103759000D01*
X149050025Y-126364405D02*
X130483220Y-107797600D01*
X149050025Y-131114405D02*
X149050025Y-126364405D01*
X127933800Y-106699400D02*
X127933800Y-105200800D01*
X130483220Y-107797600D02*
X129032000Y-107797600D01*
X129032000Y-107797600D02*
X127933800Y-106699400D01*
%TO.N,A15*%
X164290025Y-125269975D02*
X164290025Y-131114405D01*
X165557200Y-124002800D02*
X164290025Y-125269975D01*
%TO.N,A14*%
X184454800Y-91948000D02*
X184454800Y-97448231D01*
X172575498Y-106570502D02*
X167784502Y-106570502D01*
X183892831Y-98010200D02*
X178951400Y-98010200D01*
X178951400Y-98010200D02*
X175283600Y-101678000D01*
X175283600Y-101678000D02*
X175283600Y-103862400D01*
X175283600Y-103862400D02*
X172575498Y-106570502D01*
X167784502Y-106570502D02*
X167386000Y-106172000D01*
X184454800Y-97448231D02*
X183892831Y-98010200D01*
%TO.N,A13*%
X155244800Y-123901200D02*
X154130025Y-125015975D01*
X154130025Y-125015975D02*
X154130025Y-131114405D01*
%TO.N,A12*%
X181254400Y-100431600D02*
X180390800Y-101295200D01*
X173736000Y-109931200D02*
X170789600Y-109931200D01*
X180390800Y-103276400D02*
X173736000Y-109931200D01*
X181610000Y-87249000D02*
X185928000Y-91567000D01*
X185928000Y-99263200D02*
X185060400Y-100130800D01*
X183809878Y-100130800D02*
X183509078Y-100431600D01*
X185060400Y-100130800D02*
X183809878Y-100130800D01*
X185928000Y-91567000D02*
X185928000Y-99263200D01*
X183509078Y-100431600D02*
X181254400Y-100431600D01*
X180390800Y-101295200D02*
X180390800Y-103276400D01*
%TO.N,A10*%
X165862000Y-111827300D02*
X165862000Y-102997000D01*
X165862000Y-102997000D02*
X166370000Y-102489000D01*
X161750025Y-123999975D02*
X161798000Y-123952000D01*
X161750025Y-131114405D02*
X161750025Y-123999975D01*
%TO.N,A1*%
X166192200Y-84886800D02*
X163830000Y-87249000D01*
X168554400Y-84886800D02*
X166192200Y-84886800D01*
%TO.N,A0*%
X129441492Y-105310400D02*
X129185308Y-105310400D01*
X151590025Y-131114405D02*
X151590025Y-125682025D01*
X127711200Y-103836292D02*
X127711200Y-102438200D01*
X130251200Y-106120108D02*
X129441492Y-105310400D01*
X127711200Y-102438200D02*
X123952000Y-98679000D01*
X151590025Y-125682025D02*
X148124800Y-122216800D01*
X145971722Y-122216800D02*
X130251200Y-106496278D01*
X129185308Y-105310400D02*
X127711200Y-103836292D01*
X148124800Y-122216800D02*
X145971722Y-122216800D01*
X130251200Y-106496278D02*
X130251200Y-106120108D01*
D32*
%TO.N,+5V*%
X163830000Y-112776000D02*
X168859200Y-112776000D01*
X125984000Y-121920000D02*
X122072400Y-121920000D01*
X102870000Y-107950000D02*
X106680000Y-107950000D01*
X184150000Y-103632000D02*
X186537600Y-106019600D01*
X191824942Y-80666258D02*
X191824942Y-75558457D01*
X106680000Y-107950000D02*
X110109000Y-111379000D01*
X111531400Y-111379000D02*
X110109000Y-111379000D01*
X181559200Y-112725200D02*
X181711600Y-112572800D01*
X191824942Y-80666258D02*
X191824942Y-98293858D01*
X111520000Y-111367600D02*
X111520000Y-106172400D01*
X191824942Y-98293858D02*
X187629800Y-102489000D01*
X191824942Y-75930891D02*
X191824942Y-80666258D01*
X187629800Y-102489000D02*
X184150000Y-102489000D01*
X168859200Y-112776000D02*
X168910000Y-112725200D01*
X122072400Y-121920000D02*
X111531400Y-111379000D01*
X184150000Y-110134400D02*
X184150000Y-102489000D01*
X111531400Y-111379000D02*
X111520000Y-111367600D01*
X168910000Y-112725200D02*
X181559200Y-112725200D01*
X181711600Y-112572800D02*
X184150000Y-110134400D01*
X184150000Y-102489000D02*
X184150000Y-103632000D01*
D31*
%TO.N,{slash}SLTSL*%
X180035200Y-118821200D02*
X180035200Y-122732800D01*
X195321000Y-92324000D02*
X193231357Y-94413643D01*
X180035200Y-122732800D02*
X182070025Y-124767625D01*
X193231357Y-105625043D02*
X180035200Y-118821200D01*
X193231357Y-94413643D02*
X193231357Y-105625043D01*
X182070025Y-124767625D02*
X182070025Y-131114405D01*
%TO.N,{slash}MEM_WE*%
X181610000Y-104851200D02*
X181711600Y-104952800D01*
X181610000Y-102489000D02*
X181610000Y-104851200D01*
%TO.N,{slash}MEM_OE*%
X197861000Y-97404000D02*
X197861000Y-94864000D01*
X183489600Y-96977200D02*
X183438800Y-97028000D01*
X197861000Y-99944000D02*
X197861000Y-97404000D01*
X168910000Y-102489000D02*
X168910000Y-105105200D01*
X174371000Y-97028000D02*
X168910000Y-102489000D01*
X183438800Y-97028000D02*
X174371000Y-97028000D01*
%TO.N,{slash}MEM_CE*%
X163906200Y-102489000D02*
X163830000Y-102489000D01*
X183438800Y-95758000D02*
X170637200Y-95758000D01*
X163830000Y-102489000D02*
X163830000Y-105156000D01*
X170637200Y-95758000D02*
X163906200Y-102489000D01*
D32*
%TO.N,MEM_A14*%
X197861000Y-87244000D02*
X197861000Y-89784000D01*
%TD*%
M02*
